<svg width="250" height="189" viewBox="0 0 250 189" fill="none" xmlns="http://www.w3.org/2000/svg">
<g clip-path="url(#clip0_19_2)">
<path opacity="0.18" d="M32.3701 25.7726C19.5335 40.7161 14.0011 60.507 10.2698 79.8521C6.42533 99.865 4.1287 120.144 3.40028 140.51C2.96932 152.463 3.66917 165.874 12.3583 174.088C15.607 177.164 19.6919 179.186 23.7694 181.027C31.0367 184.32 38.595 187.227 46.5254 188.118C59.6677 189.591 72.7253 185.47 85.3041 181.377C107.463 174.169 130.503 166.81 153.624 169.727C164.346 171.079 174.674 174.615 185.33 176.423C195.986 178.232 207.526 178.147 216.882 172.74C223.391 168.972 228.301 162.927 232.175 156.481C240.872 142.017 244.979 125.173 246.294 108.336C246.942 100.022 246.931 91.5985 245.321 83.4177C243.48 74.0692 239.605 65.2622 235.693 56.5768C230.905 45.9208 225.943 35.2353 219.096 25.7653C212.248 16.2953 203.312 8.01135 192.443 3.73494C171.753 -4.3943 149.13 2.79568 128.223 6.06652C117.541 7.72773 106.491 8.7996 95.8312 6.39434C90.7002 5.23776 86.5822 2.85829 81.3186 2.67044C75.7678 2.47522 69.8191 3.77546 64.5224 5.30406C52.1573 8.87326 40.7719 15.9859 32.3701 25.7726Z" fill="#AF2C2B"/>
<path d="M121.339 78.2167H103.769V92.5672H121.339V78.2167Z" fill="#AF2C2B"/>
<path d="M121.339 78.2167H103.769V92.5672H121.339V78.2167Z" fill="url(#paint0_linear_19_2)"/>
<path d="M136.124 48.7754H91.2713C88.346 48.7754 85.9746 51.1468 85.9746 54.0721V78.5777C85.9746 81.503 88.346 83.8744 91.2713 83.8744H136.124C139.049 83.8744 141.421 81.503 141.421 78.5777V54.0721C141.421 51.1468 139.049 48.7754 136.124 48.7754Z" fill="white"/>
<path d="M164.777 92.4051H71.4509V95.3776H164.777V92.4051Z" fill="white"/>
<path d="M164.777 94.1363H71.4509V95.3776H164.777V94.1363Z" fill="#D9DBE2"/>
<path opacity="0.18" d="M124.127 164.29C179.15 164.29 223.755 159.151 223.755 152.813C223.755 146.474 179.15 141.335 124.127 141.335C69.1039 141.335 24.4988 146.474 24.4988 152.813C24.4988 159.151 69.1039 164.29 124.127 164.29Z" fill="#AF2C2B"/>
<path d="M198.362 117.272C198.362 117.272 208.609 150.326 207.497 151.137C206.384 151.947 205.681 149.744 205.681 149.744L195.345 119.025L198.362 117.272Z" fill="#AF2C2B"/>
<path d="M176.335 121.088L176.24 121.327L164.563 151.284C164.387 151.747 164.12 152.17 163.779 152.529C163.712 152.609 163.63 152.674 163.538 152.721C163.445 152.768 163.344 152.795 163.24 152.802C163.137 152.808 163.033 152.793 162.936 152.757C162.838 152.722 162.749 152.667 162.674 152.595C161.62 151.733 172.589 120.988 172.589 120.988L176.335 121.088Z" fill="#AF2C2B"/>
<path d="M185.076 118.889C185.076 118.889 184.708 153.49 183.408 153.921C182.107 154.352 182.107 152.039 182.107 152.039L181.665 119.625L185.076 118.889Z" fill="#AF2C2B"/>
<path d="M196.531 117.673C196.531 117.673 207.685 149.719 206.568 150.514C205.452 151.31 205.681 149.741 205.681 149.741L195.345 119.021L196.531 117.673Z" fill="url(#paint1_linear_19_2)"/>
<path d="M176.236 121.327L164.559 151.284C164.383 151.747 164.116 152.17 163.775 152.529C163.815 149.096 173.753 121.272 173.753 121.272L176.236 121.327Z" fill="url(#paint2_linear_19_2)"/>
<path d="M185.076 118.889C185.076 118.889 184.708 153.49 183.407 153.921C182.107 154.352 182.91 151.314 182.91 151.314L183.371 119.268L185.076 118.889Z" fill="url(#paint3_linear_19_2)"/>
<path d="M207.736 109.363C205.29 115.003 199.788 118.892 193.89 120.638C189.294 121.997 184.45 122.207 179.632 121.931C178.284 121.86 176.933 121.758 175.58 121.625C173.223 121.386 170.832 121.08 168.626 120.218C166.42 119.356 164.364 117.868 163.245 115.765C162.562 114.381 162.185 112.866 162.14 111.323C161.908 107.367 163.16 103.161 166.191 100.641C168.571 98.6522 171.676 97.8786 174.144 96.0333C176.906 93.9595 179.743 92.1068 182.667 90.243C185.592 88.3792 188.561 86.497 191.831 85.3109C195.102 84.1249 198.749 83.6792 202.056 84.7289C203.202 85.0973 204.966 85.985 206.694 90.2135C209.202 96.258 210.337 103.363 207.736 109.363Z" fill="#2F3653"/>
<path d="M189.625 69.3103C188.45 70.9199 184.87 72.4743 184.87 72.4743C184.457 70.8831 185.338 70.2938 185.338 70.2938C186.255 70.3748 187.459 68.139 187.065 67.4354C186.579 66.5588 185.905 66.8719 185.455 67.2476C184.992 66.8866 184.608 66.4335 184.329 65.9168C184.049 65.4001 183.88 64.8311 183.831 64.2456C183.772 63.5568 184.962 61.612 182.682 60.7685C180.402 59.925 177.19 60.7685 177.19 60.7685C177.19 60.7685 176.361 58.6432 179.032 57.6266C185.025 55.3355 192.148 59.2436 191.75 65.9584C191.644 67.778 191.522 69.8444 192.782 71.1593C193.471 71.8739 194.443 72.2202 195.36 72.5811C196.557 73.0452 197.773 73.6088 198.613 74.5849C199.452 75.561 199.81 77.0565 199.143 78.1578C198.826 78.6845 198.277 79.1891 198.406 79.7895C198.498 80.0589 198.657 80.3008 198.867 80.493C200.243 81.9695 201.128 83.837 201.397 85.8376C201.524 86.8335 201.434 87.8449 201.134 88.8029C200.834 89.7609 200.331 90.6428 199.659 91.3885C197.817 93.3223 194.87 93.8269 192.229 93.4291C190.093 93.105 187.979 92.2209 186.527 90.6187C184.317 88.1766 184.041 84.6295 183.426 81.4102C183.389 81.0129 183.23 80.637 182.969 80.3347C182.325 79.7306 181.29 80.2205 180.409 80.1984C178.888 80.1652 177.868 78.4967 177.831 76.9791C177.794 75.4615 178.409 74.0324 178.719 72.5259C179.028 71.0194 178.932 69.2808 177.779 68.29C177.348 67.9216 176.811 67.6896 176.346 67.3581C174.291 65.8847 174.413 62.485 176.166 60.658C177.919 58.8311 180.733 58.3817 183.227 58.8163C185.231 59.1847 189.754 60.2897 190.682 62.1314C191.61 63.9731 190.807 67.697 189.625 69.3103Z" fill="black"/>
<path d="M174.372 78.9055L164.711 88.8507L151.885 82.088C150.301 81.1126 148.466 80.6222 146.607 80.6772C146.415 80.6772 146.157 80.7877 146.202 80.9719C146.246 81.1561 146.459 81.1708 146.493 81.3402C146.526 81.5097 146.319 81.6128 146.15 81.6496L143.085 82.3311C142.636 82.4342 142.091 82.6442 142.065 83.1046C142.079 83.2578 142.127 83.406 142.207 83.5375C142.287 83.6691 142.396 83.7805 142.526 83.8634C144.548 85.5467 147.384 85.915 150.007 85.6719C150.261 85.6351 150.519 85.6351 150.773 85.6719C151.022 85.7342 151.261 85.8348 151.48 85.9703C152.47 86.5191 153.43 87.1203 154.357 87.7714C156.872 89.5395 159.123 91.6648 161.676 93.3812C162.189 93.7871 162.802 94.0479 163.451 94.1363C164.028 94.1276 164.595 93.9904 165.112 93.7348C168.796 92.2615 172.571 90.6887 175.374 87.8819C175.623 87.658 175.825 87.3877 175.971 87.0863C176.072 86.7812 176.121 86.4611 176.114 86.1397C176.151 84.7916 176.134 83.441 176.063 82.088C176.074 81.4721 175.939 80.8624 175.669 80.3089C175.526 80.0354 175.297 79.8168 175.017 79.6869C174.737 79.557 174.423 79.5232 174.122 79.5906" fill="#954433"/>
<path d="M168.261 89.3958C167.947 89.6363 167.607 89.8413 167.248 90.0072C166.467 90.3351 165.587 90.2724 164.74 90.2503C163.456 90.2177 162.172 90.2941 160.902 90.4787C160.584 90.5009 160.276 90.5981 160.003 90.7623C159.87 90.8481 159.767 90.9748 159.711 91.1235C159.656 91.2722 159.649 91.4349 159.694 91.5874C159.779 91.7531 159.906 91.894 160.062 91.9963C161.09 92.825 162.195 93.6869 163.506 93.838C165.075 94.0442 166.578 93.2118 167.926 92.4088L170.748 90.7844C171.17 90.5785 171.538 90.2771 171.823 89.9041C172.217 89.2963 172.309 87.5983 171.352 87.4215C170.567 87.2668 168.869 88.9427 168.261 89.3958Z" fill="#DEA095"/>
<path d="M175.794 76.4192C175.979 76.3592 176.171 76.3197 176.365 76.3014C177.337 76.2093 178.442 76.4487 179.418 76.4929C180.792 76.5518 182.17 76.585 183.547 76.5408C186.174 76.4634 190.483 76.1724 192.833 79.0455C195.747 82.5926 193.235 88.8286 191.202 93.5065C190.465 95.2524 190.074 100.906 190.465 105.039C190.465 105.039 182.288 107.901 175.094 106.409L172.626 97.1493C172.49 96.6705 172.063 96.1622 171.853 95.7054C171.283 94.4668 170.867 93.163 170.615 91.8232C170.32 90.2761 169.878 87.7014 170.541 86.2134C170.641 85.985 170.983 85.8082 171.013 85.5688C171.053 85.2373 170.615 84.6847 170.479 84.3864C170.03 83.4213 169.669 82.4179 169.4 81.3881C169.339 81.2303 169.332 81.0572 169.378 80.8945C169.442 80.7664 169.538 80.6573 169.657 80.5778C170.737 79.7122 171.82 78.8466 172.972 78.0657C173.757 77.5242 174.799 76.7213 175.794 76.4192Z" fill="white"/>
<path d="M184.903 69.8665C184.358 71.6014 182.078 74.6549 179.47 73.9514C179.777 74.5062 179.92 75.1365 179.883 75.7694C179.847 76.4023 179.632 77.012 179.264 77.5279C179.264 77.5279 180.111 79.6901 185.835 76.4929C185.835 76.4929 184.288 76.364 184.708 73.1778C184.834 72.0856 185.22 71.0396 185.835 70.128C185.765 70.1962 185.678 70.2448 185.583 70.2689C185.488 70.293 185.388 70.2917 185.294 70.2652C185.199 70.2388 185.114 70.188 185.045 70.118C184.976 70.0481 184.927 69.9613 184.903 69.8665V69.8665Z" fill="#954433"/>
<path d="M184.641 70.7394C184.641 70.7394 183.385 76.0767 181.256 75.852C179.127 75.6273 179.264 72.3785 179.264 72.3785L184.641 70.7394Z" fill="#DEA095"/>
<path d="M195.758 80.9793C195.905 79.3419 195.417 77.7107 194.395 76.4229C193.201 75.0306 191.371 74.4044 189.665 73.7267C188.929 73.4394 188.163 73.0673 187.857 72.3528C187.654 71.8813 187.699 71.3435 187.617 70.8352C187.536 70.3269 187.249 69.7744 186.726 69.7044C186.568 69.6951 186.409 69.7174 186.259 69.7698C186.109 69.8223 185.971 69.904 185.853 70.0101C184.77 70.8426 184.424 72.3712 184.671 73.7156C184.918 75.0601 185.658 76.2498 186.424 77.3769C187.19 78.504 188.001 79.6311 188.435 80.924C188.763 81.9075 188.859 82.9536 189.098 83.9628C189.629 86.1728 191.489 87.4989 193.673 86.2391C195.179 85.3662 195.651 82.53 195.758 80.9793Z" fill="black"/>
<path d="M179.013 57.6339C179.013 57.6339 175.543 57.8365 174.512 62.8644C173.481 67.8922 178.494 67.8075 178.494 67.8075L181.54 59.0852L179.013 57.6339Z" fill="black"/>
<path d="M181.326 74.2092C178.184 74.4707 176.276 71.5387 175.923 67.708C175.886 67.2881 175.871 66.8608 175.871 66.4225C175.865 65.1735 176.009 63.9283 176.299 62.7133C177.672 56.8199 186.045 59.1884 186.045 59.1884C192.605 62.1314 186.785 73.7561 181.326 74.2092Z" fill="#954433"/>
<path d="M179.08 59.0557C179.897 61.8956 180.991 65.9326 183.765 67.4907C184.082 67.6675 184.667 67.9658 185.047 67.8885C185.426 67.8111 185.415 67.4649 185.761 67.1518C185.869 67.0446 186.007 66.9733 186.157 66.9475C186.306 66.9218 186.46 66.943 186.597 67.0082C186.71 67.0936 186.801 67.2054 186.86 67.3338C186.92 67.4623 186.947 67.6034 186.94 67.7448C186.941 68.0933 186.852 68.4361 186.682 68.7401C186.511 69.044 186.265 69.2988 185.968 69.4797C185.693 69.6054 185.43 69.7558 185.183 69.9291C184.907 70.2014 184.742 70.5661 184.719 70.9531C184.671 71.4739 184.774 71.9975 185.014 72.4622C185.254 72.9268 185.622 73.3131 186.074 73.5756C186.131 73.6112 186.196 73.6315 186.262 73.6346C186.343 73.6182 186.415 73.5754 186.468 73.513L187.71 72.3785C188.301 71.8766 188.834 71.3095 189.297 70.6879C189.867 69.8444 190.175 68.8512 190.181 67.8332C190.181 67.3728 189.997 66.9087 190.005 66.4667C190.082 65.884 190.237 65.3142 190.465 64.7723C190.743 64.0687 190.885 63.3189 190.885 62.5623C190.785 61.089 189.559 59.9176 188.236 59.2473C186.144 58.2122 183.728 58.0944 181.393 58.0686C180.927 58.0388 180.46 58.1014 180.019 58.2527C179.617 58.4774 179.452 58.9194 179.08 59.0557Z" fill="black"/>
<path d="M184.641 94.8362L187.039 100.103C187.039 100.103 192.196 93.6722 194.159 86.729C195.876 80.5925 192.833 79.0492 192.833 79.0492C190.505 78.1946 188.925 81.5134 186.638 88.2171C185.378 91.8895 184.641 94.8362 184.641 94.8362Z" fill="#954433"/>
<path d="M187.039 100.092C187.039 100.092 187.131 95.8086 185.043 94.9577C182.954 94.1068 168.317 91.8121 168.317 91.8121L166.943 93.396C166.943 93.396 181.315 101.684 187.039 100.092Z" fill="#954433"/>
<path d="M163.318 111.411L163.495 111.227C162.784 112.027 162.309 112.601 162.162 112.778C162.523 112.302 162.908 111.846 163.318 111.411Z" fill="#DC9ED5"/>
<path d="M191.338 112.251C190.911 114.745 189.209 116.889 187.135 118.344C185.061 119.798 182.638 120.653 180.21 121.39C178.778 121.828 177.886 123.666 176.593 124.428C176.123 124.659 175.714 125.001 175.404 125.423C174.932 126.185 175.168 127.173 175.404 128.035C176.501 131.848 177.606 135.66 178.719 139.471C179.267 141.365 179.824 143.372 179.301 145.276C178.778 147.181 176.774 148.82 174.906 148.19C171.255 142.297 167.603 136.403 163.952 130.51C163.952 130.51 162.151 123.393 165.93 117.342C167.562 114.734 180.343 103.971 180.343 103.971C183.61 103.496 186.933 103.275 190.089 103.094C190.461 106.166 191.868 109.201 191.338 112.251Z" fill="#AF2C2B"/>
<path d="M180.354 103.96C180.354 103.96 167.311 114.575 165.941 117.331C162.114 125.018 163.963 130.499 163.963 130.499C160.771 135.633 157.578 140.768 154.386 145.903C152.176 145.951 149.196 145.35 149.086 143.133C149.099 142.508 149.247 141.894 149.52 141.332C151.927 135.337 154.332 129.346 156.736 123.357C158.162 119.791 159.639 116.152 161.922 113.095L162.125 112.83V112.807L162.154 112.771C162.302 112.594 162.777 112.034 163.488 111.22V111.198C165.561 108.881 169.61 104.733 173.352 103.094C173.352 103.094 177.695 104.291 180.313 103.971L180.354 103.96Z" fill="#AF2C2B"/>
<path d="M180.354 103.96C180.354 103.96 167.311 114.575 165.941 117.331C162.114 125.018 163.963 130.499 163.963 130.499C160.771 135.633 157.578 140.768 154.386 145.903C152.176 145.951 149.196 145.35 149.086 143.133C149.099 142.508 149.247 141.894 149.52 141.332C151.927 135.337 154.332 129.346 156.736 123.357C158.162 119.791 159.639 116.152 161.922 113.095L162.125 112.83V112.807L162.154 112.771C162.302 112.594 162.777 112.034 163.488 111.22V111.198C165.561 108.881 169.61 104.733 173.352 103.094C173.352 103.094 177.695 104.291 180.313 103.971L180.354 103.96Z" fill="url(#paint4_linear_19_2)"/>
<path d="M173.658 151.56C172.803 152.349 171.665 153.137 171.705 154.301C171.701 154.416 171.734 154.529 171.797 154.625C171.916 154.742 172.076 154.808 172.243 154.809C174.873 155.1 177.319 153.498 179.363 151.814C179.879 151.391 180.417 150.905 180.538 150.249C180.66 149.593 180.313 148.934 180.015 148.33C179.531 147.348 179.135 146.325 178.833 145.273C178.925 145.586 177.602 146.698 177.378 146.893C176.906 147.306 176.21 147.604 175.842 148.105C175.473 148.606 175.396 149.21 175.105 149.708C174.722 150.397 174.234 151.022 173.658 151.56V151.56Z" fill="#C47355"/>
<path d="M146.511 146.632C145.586 146.96 144.514 147.137 143.933 147.921C143.819 148.061 143.751 148.232 143.737 148.411C143.737 148.897 144.301 149.148 144.776 149.258C146.673 149.645 148.633 149.372 150.548 149.096C150.848 149.101 151.139 148.993 151.363 148.793C151.587 148.593 151.727 148.316 151.756 148.017L152.511 145.689C152.543 145.621 152.552 145.545 152.537 145.472C152.505 145.4 152.451 145.341 152.382 145.302C151.864 144.94 151.313 144.628 150.736 144.37C149.959 144.002 149.907 144.035 149.388 144.65C148.618 145.55 147.626 146.233 146.511 146.632V146.632Z" fill="#C47355"/>
<path d="M166.747 91.5211C165.234 91.2817 163.532 91.0865 162.309 92.0036C161.728 92.5028 161.252 93.1126 160.909 93.7974C160.67 94.2063 160.427 94.6962 160.622 95.1235C160.817 95.5507 161.296 95.6833 161.727 95.7901C163.123 96.129 164.626 96.4458 165.963 95.9228C166.95 95.5544 167.749 94.7183 168.784 94.4715C168.959 94.4475 169.128 94.39 169.282 94.3021C169.423 94.1845 169.523 94.0242 169.565 93.8453C170.188 91.7679 168.132 91.7163 166.747 91.5211Z" fill="#954433"/>
<path d="M150.53 150.864C150.477 150.972 150.395 151.064 150.294 151.129C150.141 151.183 149.975 151.183 149.822 151.129C148.968 151.014 148.104 150.985 147.244 151.041C145.48 151.013 143.72 150.853 141.98 150.562C141.222 150.452 140.378 150.293 139.94 149.667C139.883 149.596 139.847 149.511 139.837 149.42C139.842 149.283 139.895 149.153 139.988 149.052C140.751 148.138 141.753 147.455 142.883 147.078C143.301 146.9 143.748 146.803 144.201 146.79C144.429 146.786 144.654 146.832 144.861 146.924C145.069 147.016 145.253 147.153 145.402 147.324C145.715 147.722 145.771 148.293 146.113 148.65C146.456 149.008 147.045 149.052 147.561 149.019C148.159 148.997 148.755 148.929 149.343 148.816C149.789 148.731 150.449 148.426 150.891 148.54C151.926 148.824 150.821 150.345 150.53 150.864Z" fill="#AF2C2B"/>
<path d="M181.197 151.597C181.218 151.733 181.2 151.872 181.146 151.999C181.036 152.148 180.879 152.256 180.7 152.304C179.81 152.738 178.967 153.263 178.184 153.87C176.504 154.959 174.745 155.921 172.921 156.747C172.132 157.115 171.23 157.509 170.416 157.196C170.318 157.165 170.23 157.107 170.162 157.03C170.08 156.898 170.049 156.741 170.073 156.588C170.211 155.238 170.721 153.952 171.547 152.875C171.831 152.443 172.195 152.068 172.619 151.77C172.831 151.622 173.072 151.522 173.327 151.478C173.581 151.433 173.843 151.445 174.092 151.512C174.641 151.689 175.046 152.201 175.61 152.315C176.173 152.43 176.751 152.105 177.227 151.759C177.78 151.357 178.302 150.912 178.788 150.43C179.157 150.061 179.58 149.361 180.078 149.185C181.219 148.776 181.157 150.912 181.197 151.597Z" fill="#AF2C2B"/>
<path d="M195.091 81.1376C195.453 82.2626 195.7 83.4214 195.828 84.5964L196.052 86.1802C196.132 86.5085 196.114 86.8528 196.001 87.171C195.739 87.7272 194.682 87.4989 194.159 87.5836C193.224 87.7346 192.292 87.8819 191.356 88.0256C189.485 88.3129 187.614 88.5879 185.743 88.8507C185.644 87.9 185.668 86.9407 185.813 85.996C185.986 85.0973 186.373 84.2538 186.594 83.3661C186.774 82.6294 186.84 81.8927 187.028 81.1561C187.424 79.6424 188.326 78.3099 189.584 77.3806C191.555 75.9404 194.447 79.4286 195.051 80.9977L195.091 81.1376Z" fill="white"/>
<path d="M207.736 109.363C205.291 115.003 199.788 118.892 193.89 120.638C189.294 121.997 184.45 122.207 179.632 121.931C179.632 121.603 179.824 121.404 180.225 121.386C184.84 121.154 186.752 115.087 188.137 112.001C189.522 108.914 190.469 105.035 199.482 101.459C208.263 97.9818 207.191 91.4401 207.629 92.7587C209.703 98.9615 210.337 103.363 207.736 109.363Z" fill="#2F3653"/>
<path d="M208.366 109.621C205.92 115.257 200.417 119.147 194.52 120.896C189.923 122.252 183.75 122.484 178.932 122.204C178.932 121.88 179.824 121.404 180.225 121.386C184.84 121.154 186.855 113.949 188.24 110.863C189.625 107.776 190.896 105.964 199.482 101.459C212.311 94.733 203.029 85.5835 202.867 84.9978C205.942 85.9887 207.655 92.2394 208.09 93.558C210.164 99.7608 210.967 103.617 208.366 109.621Z" fill="white"/>
<path opacity="0.23" d="M190.94 119.909C187.039 120.903 182.91 120.94 179.113 122.285C180.317 121.857 182.84 122.52 184.181 122.48C186.023 122.424 187.859 122.231 189.673 121.902C192.881 121.32 197.132 120.428 199.776 118.45C198.053 116.984 192.848 119.423 190.94 119.909Z" fill="#AF2C2B"/>
<path d="M193.279 154.315C193.219 154.353 193.155 154.381 193.087 154.4C192.967 154.433 192.842 154.439 192.719 154.419C191.352 154.249 184.645 122.311 184.645 122.311L185.562 121.776C185.628 121.74 185.706 121.699 185.772 121.67C186.006 121.571 186.257 121.521 186.51 121.522C186.764 121.522 187.014 121.574 187.247 121.675C187.48 121.775 187.69 121.921 187.865 122.104C188.04 122.287 188.177 122.504 188.266 122.741V122.778C188.304 122.875 188.332 122.975 188.351 123.077L193.625 152.326C193.625 152.326 193.938 153.866 193.279 154.315Z" fill="#AF2C2B"/>
<path d="M193.43 151.686C193.43 151.686 193.375 153.527 193.279 154.315C193.22 154.684 193.165 154.831 193.087 154.4C192.428 150.536 186.951 126.819 185.769 121.677C186.002 121.578 186.253 121.528 186.507 121.529C186.76 121.53 187.011 121.582 187.244 121.682C187.477 121.782 187.687 121.928 187.862 122.111C188.037 122.295 188.173 122.512 188.262 122.749V122.786L193.43 151.686Z" fill="url(#paint5_linear_19_2)"/>
<path d="M52.021 117.272C52.021 117.272 41.7922 150.326 42.8972 151.137C44.0022 151.947 44.7094 149.744 44.7094 149.744L55.0524 119.025L52.021 117.272Z" fill="#AF2C2B"/>
<path d="M74.0476 121.088L74.1434 121.327L85.8197 151.284C85.9963 151.747 86.263 152.17 86.6043 152.529C86.6706 152.609 86.7525 152.674 86.8451 152.721C86.9377 152.768 87.0389 152.795 87.1424 152.802C87.246 152.808 87.3497 152.793 87.4472 152.757C87.5447 152.722 87.6339 152.667 87.7093 152.595C88.7775 151.733 77.8083 121.003 77.8083 121.003L74.0476 121.088Z" fill="#AF2C2B"/>
<path d="M65.3291 118.889C65.3291 118.889 65.6974 153.49 66.994 153.921C68.2905 154.352 68.3126 152.039 68.3126 152.039L68.7547 119.625L65.3291 118.889Z" fill="#AF2C2B"/>
<path d="M53.8518 117.673C53.8518 117.673 42.6985 149.719 43.8146 150.514C44.9307 151.31 44.7023 149.741 44.7023 149.741L55.0526 119.025L53.8518 117.673Z" fill="url(#paint6_linear_19_2)"/>
<path d="M74.1436 121.327L85.8199 151.284C85.9965 151.747 86.2632 152.17 86.6045 152.529C86.5676 149.096 76.6262 121.272 76.6262 121.272L74.1436 121.327Z" fill="url(#paint7_linear_19_2)"/>
<path d="M65.3291 118.889C65.3291 118.889 65.6974 153.49 66.994 153.921C68.2905 154.352 67.4913 151.314 67.4913 151.314L67.0308 119.268L65.3291 118.889Z" fill="url(#paint8_linear_19_2)"/>
<path d="M42.6468 109.363C45.0925 115.003 50.5955 118.892 56.4926 120.638C61.0895 121.997 65.9331 122.207 70.751 121.931C72.0991 121.86 73.4436 121.757 74.7843 121.622C77.1417 121.386 79.5322 121.08 81.7385 120.218C83.9449 119.356 86.0002 117.868 87.12 115.765C87.8037 114.381 88.1806 112.866 88.225 111.323C88.457 107.367 87.2047 103.161 84.1733 100.641C81.7938 98.6522 78.6887 97.8786 76.2208 96.0333C73.4583 93.9595 70.6221 92.1068 67.6975 90.243C64.7729 88.3792 61.804 86.497 58.5332 85.3109C55.2624 84.1249 51.6158 83.6792 48.3081 84.7289C47.1626 85.0973 45.3982 85.985 43.6707 90.2135C41.1844 96.258 40.0463 103.363 42.6468 109.363Z" fill="#2F3653"/>
<path d="M51.4095 88.8322C51.8504 89.777 52.1935 90.7644 52.4335 91.7789C52.6545 93.0166 53.0339 94.2321 53.2512 95.4807C53.6886 97.9846 53.897 100.523 53.8737 103.065C53.8737 104.07 53.8737 105.205 54.592 105.901C55.0782 106.369 55.7743 106.52 56.4337 106.638C57.7339 106.899 58.9089 107.415 60.2091 107.636C61.6261 107.841 63.0578 107.928 64.4892 107.894C68.7104 107.894 76.5634 107.422 76.3019 101.536C76.0499 94.8908 75.4647 88.2622 74.5486 81.6754C74.2318 79.4433 74.1802 76.8686 73.4914 74.7212C72.9242 72.9126 70.8173 72.8979 69.0714 73.0821L68.7399 73.1189C68.401 73.152 68.0621 73.1962 67.7343 73.2368C65.4098 73.4786 63.0706 73.5475 60.7359 73.443C58.1096 73.362 53.9032 73.1005 51.3211 75.5757C51.1417 75.7454 50.9731 75.9262 50.8165 76.1172C48.2492 79.2517 49.6268 84.3385 51.4095 88.8322Z" fill="white"/>
<path opacity="0.43" d="M61.2001 88.1803C61.4248 91.127 60.5887 94.2689 62.1357 96.7331C62.2066 96.8716 62.3185 96.9848 62.4561 97.0572C62.6783 97.1008 62.9084 97.0751 63.1155 96.9835C63.3538 96.9359 63.5996 96.9395 63.8364 96.9939C64.0733 97.0484 64.2959 97.1525 64.4895 97.2995C64.6831 97.4464 64.8433 97.6328 64.9595 97.8463C65.0757 98.0598 65.1452 98.2956 65.1634 98.5379C65.5304 98.2613 65.8343 97.9096 66.0547 97.5063C66.2751 97.103 66.407 96.6573 66.4416 96.199C66.4747 95.687 66.4416 95.0645 66.8688 94.7846C67.4213 94.4162 68.1359 95.0682 68.2538 95.7165C68.3717 96.3648 68.1875 97.0499 68.3717 97.6834C68.6074 98.5122 69.4362 99.0536 70.276 99.2304C71.1308 99.3564 71.9995 99.3564 72.8543 99.2304C73.4748 99.1376 74.1088 99.2048 74.696 99.4256C75.2633 99.6945 75.7016 100.339 75.5285 100.943C75.3222 101.661 74.4529 101.912 73.7163 102.048L63.6017 103.934L58.3971 104.907C57.2589 105.116 55.2478 106.122 55.2109 104.439C55.1575 101.921 54.7635 99.4216 54.0396 97.0093C53.7486 96.0369 53.7155 95.0424 53.4318 94.0995C53.0856 92.9539 52.4484 91.8563 52.0579 90.7107C51.2711 88.4077 50.7412 86.0249 50.4778 83.6055C50.2936 81.9038 50.4115 79.8521 51.8701 78.9644C52.9235 78.3272 54.3416 78.5961 55.3325 79.3328C56.5406 80.2278 57.0968 81.6349 58.2129 82.5778C59.5094 83.6828 60.5187 84.9278 60.9533 86.6111C61.0806 87.1261 61.1632 87.6511 61.2001 88.1803V88.1803Z" fill="#D9DBE2"/>
<path d="M66.3568 77.6789C66.2734 77.7899 66.2098 77.9146 66.169 78.0473C66.1606 78.1922 66.1898 78.3368 66.2537 78.4672C67.6755 82.0327 68.5669 85.7824 69.4509 89.5173C70.2317 92.8029 71.0163 96.1143 71.1784 99.4883C71.2027 99.7352 71.184 99.9844 71.1231 100.225C70.8653 101.057 69.7787 101.33 69.3035 102.048L67.7234 100.243C67.6199 100.137 67.5375 100.012 67.4803 99.875C67.4324 99.684 67.4324 99.4841 67.4803 99.2931C68.0144 95.687 67.4213 92.0073 66.5778 88.4565C65.8411 85.4067 64.9314 82.3532 64.9866 79.2186C64.9866 78.8503 64.9866 78.4009 64.703 78.1541C64.542 78.0451 64.3657 77.9607 64.1799 77.9036C63.969 77.8003 63.7808 77.656 63.6263 77.4791C63.4717 77.3022 63.354 77.0963 63.2799 76.8734C63.2058 76.6505 63.1769 76.4151 63.1949 76.1809C63.2128 75.9467 63.2772 75.7184 63.3843 75.5094C63.7197 75.5035 64.049 75.419 64.3457 75.2626C64.6459 75.1066 64.9914 75.061 65.3218 75.1337C66.0511 75.3842 66.773 76.9938 66.3568 77.6789Z" fill="#AF2C2B"/>
<path d="M51.325 75.5831C53.9033 73.1079 58.1134 73.3731 60.7397 73.4504C63.0744 73.5549 65.4136 73.486 67.7381 73.2442C68.0659 73.2036 68.4048 73.1594 68.7437 73.1263C67.355 72.559 65.3844 72.9384 63.9037 72.9863C61.6593 73.06 59.4161 73.1963 57.1742 73.3952C55.0525 73.5904 52.7025 73.955 51.325 75.5831Z" fill="white"/>
<path d="M59.2885 66.3231C59.8778 68.1648 62.2573 69.9401 65.0419 69.174C65.0419 69.174 63.9369 72.4891 65.3182 74.5112C65.3182 74.5112 64.4157 76.8207 58.2939 73.4062C58.2939 73.4062 59.9478 73.2699 59.4984 69.8738C59.3657 68.706 58.9525 67.5876 58.2939 66.614C58.3697 66.6871 58.4634 66.7387 58.5655 66.7639C58.6677 66.789 58.7747 66.7867 58.8756 66.7571C58.9766 66.7276 59.068 66.6719 59.1405 66.5957C59.213 66.5194 59.264 66.4254 59.2885 66.3231V66.3231Z" fill="#D5846C"/>
<path d="M62.2904 70.6068C65.5171 71.5571 68.147 68.8977 69.3441 64.9639C69.473 64.5366 69.5835 64.0872 69.6756 63.6305C69.9533 62.3246 70.0769 60.9908 70.044 59.6561C69.8561 53.2139 60.5777 53.8695 60.5777 53.8695C53.0857 55.5381 56.6733 68.9567 62.2904 70.6068Z" fill="#C47355"/>
<path d="M82.3576 110.712L82.166 110.513C82.9248 111.367 83.4368 111.986 83.5915 112.17C83.2084 111.669 82.7922 111.179 82.3576 110.712Z" fill="#DC9ED5"/>
<path d="M54.7246 54.3189C55.2833 53.1535 56.2154 52.2084 57.373 51.6337C58.4338 51.0738 59.9808 51.1843 60.8501 50.3114C61.3179 49.8436 61.41 49.1327 61.6789 48.5286C61.9545 47.9208 62.4163 47.4164 62.9975 47.0884C63.3765 46.8727 63.7999 46.7467 64.2351 46.7201C65.5796 46.6575 66.7914 47.6962 67.3108 48.9301C67.6791 48.3223 68.4416 48.0866 69.1525 48.1013C70.7879 48.1345 72.287 49.2911 72.9611 50.7828C73.2378 51.3661 73.3644 52.0093 73.3294 52.654C73.2923 53.304 73.0107 53.9158 72.5412 54.3668C72.4425 54.4703 72.3135 54.5399 72.1728 54.5657C72.1044 54.5775 72.034 54.5648 71.974 54.5298C71.914 54.4947 71.8683 54.4396 71.845 54.3741C71.3809 55.3518 70.8036 56.2716 70.1249 57.1146C69.8964 57.4287 69.594 57.6817 69.2445 57.8513C68.897 57.9752 68.5212 57.997 68.1616 57.9139C67.6682 57.8224 67.1961 57.64 66.7693 57.3761C66.6939 57.3146 66.5972 57.2855 66.5004 57.2951C66.4047 57.3209 66.3531 57.4166 66.3052 57.505C66.1731 57.7639 65.9886 57.9925 65.7635 58.1764C65.5384 58.3602 65.2776 58.4954 64.9976 58.5732C64.507 58.6395 64.0086 58.6208 63.5242 58.518C62.8601 58.4351 62.1883 58.4351 61.5242 58.518C61.1183 58.5528 60.7255 58.6787 60.3749 58.8863C60.1622 59.0458 59.9896 59.2527 59.8707 59.4905C59.7518 59.7284 59.6898 59.9906 59.6898 60.2565C59.6898 60.4665 59.8961 62.1977 59.642 62.2382C59.2331 62.3082 59.1521 61.6304 58.7948 61.4205C58.4375 61.2105 58.0913 61.4831 57.9071 61.7888C57.756 62.0537 57.6908 62.3589 57.7205 62.6623C57.7502 62.9658 57.8733 63.2526 58.0728 63.4832C58.1965 63.5886 58.2926 63.7226 58.3528 63.8736C58.3738 64.0262 58.3481 64.1816 58.2791 64.3193L57.6492 65.9031C56.8056 63.9104 55.794 61.993 54.6252 60.1718C54.1279 59.4351 53.5496 58.6137 53.7706 57.7629C53.9916 56.912 54.9125 56.2895 54.721 55.4607C54.6841 55.3024 54.6068 55.155 54.5847 54.993C54.5672 54.7596 54.6157 54.526 54.7246 54.3189Z" fill="black"/>
<path d="M60.0435 103.216C60.0435 103.216 63.9736 113.025 67.1266 114.052C70.2796 115.08 89.8531 120.988 89.8531 120.988L98.1739 149.181L100.325 147.862C101.139 147.361 103.084 146.639 103.577 145.825C104.233 144.753 103.246 141.939 103.058 140.72L102.207 135.195C101.063 127.725 99.9149 120.254 98.7632 112.782C98.7638 112.412 98.6502 112.051 98.4379 111.748C98.2256 111.446 97.925 111.216 97.5772 111.091C93.7267 109.029 89.7715 107.169 85.7277 105.518C83.746 104.708 81.746 103.956 79.7312 103.242C79.3334 103.102 76.383 101.488 76.3019 101.551C76.2761 101.562 74.184 103.135 60.0435 103.216Z" fill="#2F3653"/>
<path d="M95.8386 150.216C94.9325 148.212 94.8552 145.954 94.5899 143.774C94.3947 142.131 94.0816 140.506 93.7685 138.882L89.4885 116.531C89.4712 116.056 89.3062 115.597 89.0164 115.22C88.7266 114.842 88.3264 114.564 87.8715 114.424C80.9983 111.069 74.2429 107.548 67.4287 104.059C67.4287 104.059 60.0619 101.385 54.5921 105.12C54.5921 105.12 53.8554 114.067 57.0084 115.095C63.9749 117.366 70.9966 119.441 78.0736 121.32C78.4061 121.387 78.7202 121.525 78.9945 121.725C79.304 122.034 79.5187 122.425 79.6133 122.852C82.1917 130.701 84.77 138.554 87.1237 146.466C87.4037 147.399 87.6799 148.331 87.9525 149.262C88.1624 149.973 88.3208 151.84 88.8402 152.334C89.529 153.03 90.4388 152.334 91.3596 151.965L96.3838 149.94L80.1327 110.572L77.7679 109.356" fill="#4C516C"/>
<path d="M107.158 146.429C107.99 146.449 108.82 146.531 109.64 146.676C110.407 146.761 111.135 147.056 111.744 147.531C112.088 147.832 112.318 148.243 112.395 148.695C112.429 148.92 112.412 149.149 112.345 149.367C112.278 149.584 112.163 149.784 112.009 149.951C111.713 150.206 111.364 150.393 110.988 150.499C110.112 150.809 109.234 151.115 108.355 151.417C106.473 152.065 104.561 152.721 102.572 152.827C102.454 152.844 102.334 152.831 102.222 152.791C102.136 152.747 102.059 152.688 101.994 152.617C100.8 151.45 99.6731 150.08 99.3858 148.433C99.3711 148.378 99.3711 148.319 99.3858 148.264C99.4177 148.202 99.4662 148.151 99.5257 148.116C100.727 147.304 102.046 146.683 103.437 146.275C104.697 145.91 105.883 146.404 107.158 146.429Z" fill="#2F3653"/>
<path d="M97.6361 150.209C98.4686 150.228 99.2986 150.311 100.119 150.455C100.885 150.54 101.614 150.836 102.222 151.31C102.566 151.611 102.797 152.022 102.874 152.474C102.908 152.699 102.89 152.928 102.824 153.146C102.757 153.363 102.642 153.563 102.487 153.73C102.191 153.985 101.843 154.172 101.467 154.279C100.59 154.588 99.7123 154.894 98.8332 155.196C96.951 155.844 95.0393 156.5 93.0503 156.607C92.9264 156.626 92.7996 156.613 92.6819 156.57C92.596 156.526 92.5186 156.468 92.4536 156.397C91.2601 155.229 90.133 153.859 89.8457 152.212C89.831 152.157 89.831 152.098 89.8457 152.043C89.8776 151.982 89.9261 151.931 89.9857 151.896C91.1866 151.083 92.5062 150.462 93.8974 150.054C95.1756 149.689 96.3432 150.179 97.6361 150.209Z" fill="#2F3653"/>
<path d="M42.6467 109.363C45.0925 115.003 50.5955 118.892 56.4926 120.638C61.0895 121.997 65.9331 122.207 70.751 121.931C70.751 121.603 70.5594 121.404 70.158 121.386C65.5427 121.154 63.631 115.087 62.246 112.001C60.8611 108.914 59.9145 105.035 50.9012 101.459C42.12 97.9818 43.1919 91.4401 42.7536 92.7587C40.6872 98.9615 40.0463 103.363 42.6467 109.363Z" fill="#2F3653"/>
<path d="M42.0171 109.621C44.4628 115.257 49.9658 119.147 55.8629 120.896C60.4598 122.252 66.6331 122.484 71.451 122.204C71.451 121.88 70.5596 121.404 70.1581 121.386C65.5429 121.154 63.528 113.949 62.1431 110.863C60.7581 107.776 59.4726 105.964 50.9014 101.466C38.0722 94.7404 47.3543 85.5909 47.5164 85.0052C44.4407 85.996 42.728 92.2467 42.2933 93.5654C40.2196 99.7608 39.4166 103.617 42.0171 109.621Z" fill="white"/>
<path opacity="0.23" d="M59.4431 119.909C63.3438 120.903 67.4729 120.94 71.2705 122.285C70.066 121.857 67.5429 122.52 66.2022 122.48C64.3609 122.424 62.5264 122.231 60.7139 121.902C57.502 121.32 53.255 120.428 50.6067 118.45C52.3305 116.984 57.5351 119.423 59.4431 119.909Z" fill="#AF2C2B"/>
<path d="M57.1041 154.315C57.1636 154.353 57.2281 154.381 57.2956 154.4C57.4157 154.433 57.5413 154.439 57.664 154.419C59.0305 154.249 65.7379 122.311 65.7379 122.311L64.8208 121.776C64.7545 121.74 64.6771 121.699 64.6108 121.67C64.3773 121.571 64.1263 121.521 63.8728 121.522C63.6193 121.522 63.3686 121.574 63.1357 121.675C62.9029 121.775 62.6926 121.921 62.5176 122.104C62.3426 122.287 62.2064 122.504 62.1172 122.741V122.778C62.0761 122.874 62.0465 122.974 62.0288 123.077L56.7542 152.326C56.7542 152.326 56.4448 153.866 57.1041 154.315Z" fill="#AF2C2B"/>
<path d="M56.9531 151.686C56.9531 151.686 57.0084 153.527 57.1041 154.315C57.1631 154.684 57.2183 154.831 57.2957 154.4C57.955 150.536 63.4322 126.819 64.6146 121.677C64.381 121.578 64.13 121.528 63.8765 121.529C63.6231 121.53 63.3724 121.582 63.1395 121.682C62.9066 121.782 62.6963 121.928 62.5213 122.111C62.3463 122.295 62.2101 122.512 62.1209 122.749V122.786L56.9531 151.686Z" fill="url(#paint9_linear_19_2)"/>
<path d="M64.4598 106.752C64.3786 107.234 64.1246 107.67 63.7452 107.978C63.3367 108.316 62.8462 108.54 62.3234 108.627C61.3252 108.785 60.3049 108.509 59.3399 108.207C56.2493 107.249 53.2442 106.034 50.3561 104.575C49.4058 104.096 48.4297 103.558 47.8588 102.66C47.2289 101.65 47.2216 100.38 47.2547 99.1936C47.3975 94.2262 47.8267 89.2712 48.5402 84.3532C48.8496 82.1764 48.8238 78.8061 50.1278 76.7286C50.447 76.183 50.8999 75.7277 51.4438 75.4055C51.9877 75.0833 52.6046 74.9048 53.2365 74.8869C55.3066 74.7617 57.0194 76.7286 57.3988 78.7619C57.7781 80.7951 57.1888 82.8799 56.6621 84.8837C55.9254 87.7714 55.2845 90.6997 54.8204 93.6464C54.6031 94.9577 54.4336 96.3795 55.0635 97.5545C55.3612 98.0618 55.7337 98.5212 56.1685 98.9173C57.9202 100.624 59.8503 102.136 61.9256 103.429C63.1817 104.221 64.6771 105.29 64.4598 106.752Z" fill="white"/>
<path d="M93.6396 89.5394C93.5385 90.0571 93.3251 90.5464 93.0146 90.9728C92.704 91.3991 92.3038 91.7523 91.8421 92.0073C90.9179 92.5108 89.9252 92.8769 88.8954 93.0939L84.6668 94.1989C82.4568 94.7809 79.7937 95.2413 78.1546 93.6464C77.8623 93.3776 77.6418 93.0401 77.5132 92.6644C77.3845 92.2887 77.3518 91.8869 77.4179 91.4953C77.4638 91.2968 77.5503 91.1099 77.6721 90.9465C77.9836 90.6036 78.3589 90.3246 78.7771 90.1251C79.9964 89.4027 81.0575 88.4418 81.8969 87.2999C79.3922 86.3644 76.7844 85.4104 74.6885 83.786C74.2983 83.4929 73.9291 83.1729 73.5835 82.8283C72.0424 81.2766 70.9964 79.3025 70.5779 77.1559C70.3937 76.2571 70.0806 74.7543 70.4085 73.8629C70.8541 72.6437 71.694 73.2073 72.8874 73.5499C77.4511 74.8611 81.6722 77.2001 85.444 80.0474C87.6183 81.7105 89.6748 83.5222 91.599 85.4693C92.7077 86.578 93.8569 87.974 93.6396 89.5394Z" fill="white"/>
<path opacity="0.38" d="M83.5877 88.6959C82.1144 89.7162 80.5968 90.6997 79.0645 91.6426C78.6188 91.9189 78 92.1878 77.6206 91.8195C77.5157 91.7224 77.4468 91.5925 77.4254 91.4511C77.4713 91.2526 77.5578 91.0657 77.6796 90.9023C77.9911 90.5594 78.3664 90.2804 78.7846 90.0809C80.0039 89.3585 81.065 88.3976 81.9044 87.2557C79.3924 86.3644 76.7845 85.4104 74.6887 83.786C74.6887 83.6865 74.6887 83.5871 74.6887 83.4766C74.6887 83.1082 74.6113 80.4267 74.4014 80.2978L83.8161 86.1249C84.1819 86.2972 84.4763 86.5915 84.6486 86.9574C84.888 87.6388 84.2029 88.276 83.5877 88.6959Z" fill="#D9DBE2"/>
<path d="M74.4638 94.1768C74.194 94.8663 74.0506 95.5987 74.0402 96.339C73.9331 97.3453 74.0945 98.362 74.508 99.2857C74.9721 100.181 75.9335 100.877 76.9354 100.759C77.278 100.708 77.6052 100.583 77.8942 100.392C78.1831 100.201 78.4266 99.9493 78.6076 99.654C78.9674 99.0593 79.1596 98.3784 79.1638 97.6834C79.6243 97.5655 79.8784 97.072 79.9926 96.6079C80.0537 96.1357 80.2011 95.6787 80.4272 95.2597C80.7072 94.8656 81.1897 94.6446 81.4254 94.221C81.5225 94.0206 81.5695 93.7996 81.5625 93.577C81.5554 93.3544 81.4945 93.1368 81.3849 92.9429C80.7808 91.7753 78.8913 90.766 77.6536 91.3075C76.416 91.8489 75.0384 92.8619 74.4638 94.1768Z" fill="#C47355"/>
<path d="M62.5888 107.857C63.366 109.014 65.0088 109.168 66.3863 108.962C67.7921 108.759 69.1511 108.31 70.4012 107.636C70.7333 107.498 71.005 107.246 71.1674 106.925C71.2374 106.7 71.2374 106.458 71.1674 106.233C71.054 105.856 70.8648 105.507 70.6114 105.207C70.358 104.907 70.0458 104.662 69.694 104.487C68.9881 104.141 68.2384 103.893 67.4656 103.75C66.2169 103.466 64.8872 103.183 63.6827 103.603C62.4783 104.023 62.2536 103.971 62.121 105.179C62.051 106.056 62.0842 107.117 62.5888 107.857Z" fill="#C47355"/>
<path d="M58.8132 71.8665L61.3142 73.1631C62.1961 73.5734 63.0228 74.0932 63.7747 74.7101C63.3189 75.7231 63.022 76.8002 62.8944 77.9036C62.2365 77.0839 61.4722 76.3555 60.6217 75.7378C59.8298 75.2147 58.909 74.8906 58.1686 74.2902C57.2957 73.583 58.3675 72.5885 58.8132 71.8665Z" fill="white"/>
<path d="M66.6587 74.3271L67.8264 75.8815C67.9058 75.9706 67.9616 76.0782 67.9884 76.1945C67.0893 75.773 66.1417 75.4638 65.167 75.2737C65.1135 75.2718 65.0611 75.2583 65.0134 75.2342C64.9657 75.21 64.9238 75.1757 64.8907 75.1337C64.8563 75.056 64.8498 74.9689 64.8723 74.8869C64.9453 74.303 64.8467 73.7104 64.5887 73.1815C64.4827 73.0165 64.4136 72.8306 64.3861 72.6364C64.3382 71.7745 65.2554 72.6806 65.469 72.8905C65.9003 73.3396 66.2979 73.8197 66.6587 74.3271V74.3271Z" fill="white"/>
<path opacity="0.41" d="M141.421 75.2737V78.5887C141.421 79.2841 141.284 79.9728 141.019 80.6154C140.753 81.258 140.363 81.842 139.872 82.3338C139.38 82.8257 138.796 83.216 138.154 83.4822C137.511 83.7484 136.823 83.8854 136.128 83.8854H91.2712C89.8677 83.8806 88.5235 83.3189 87.5339 82.3237C86.5442 81.3285 85.99 79.9812 85.9929 78.5777V75.2626L141.421 75.2737Z" fill="#AF2C2B"/>
<path opacity="0.43" d="M63.7452 107.978C63.3367 108.316 62.8462 108.54 62.3234 108.627C61.3252 108.785 60.3049 108.509 59.3399 108.207C56.2493 107.249 53.2442 106.034 50.3561 104.575C49.4058 104.096 48.4297 103.558 47.8588 102.66C47.2289 101.65 47.2216 100.38 47.2547 99.1936C47.3975 94.2262 47.8267 89.2712 48.5402 84.3533C48.8496 82.1764 48.8238 78.8061 50.1278 76.7286C50.5117 76.8396 50.8882 76.9749 51.2549 77.1338C51.7549 77.3017 52.1842 77.6324 52.4741 78.0731C52.7908 78.655 52.6582 79.377 52.5072 80.0326C51.1344 86.2905 50.1881 92.6344 49.6747 99.0205C49.6063 99.3185 49.6307 99.6303 49.7446 99.9141C49.8585 100.198 50.0565 100.44 50.3119 100.608C51.5663 101.741 52.9048 102.778 54.3158 103.709C56.5258 105.183 59.2073 106.87 61.8372 107.356C62.585 107.5 63.1964 107.507 63.7452 107.978Z" fill="#D9DBE2"/>
<path d="M180.461 22.1629H138.378C133.685 22.1629 129.88 25.9674 129.88 30.6605V34.2113C129.88 38.9044 133.685 42.7089 138.378 42.7089H180.461C185.154 42.7089 188.958 38.9044 188.958 34.2113V30.6605C188.958 25.9674 185.154 22.1629 180.461 22.1629Z" fill="white"/>
<path d="M165.878 49.4937L160.552 41.9317H165.878V49.4937Z" fill="white"/>
</g>
<defs>
<linearGradient id="paint0_linear_19_2" x1="112.646" y1="72.8795" x2="112.41" y2="105.301" gradientUnits="userSpaceOnUse">
<stop offset="0.01"/>
<stop offset="0.08" stop-opacity="0.69"/>
<stop offset="0.21" stop-opacity="0.32"/>
<stop offset="1" stop-opacity="0"/>
</linearGradient>
<linearGradient id="paint1_linear_19_2" x1="195.345" y1="134.212" x2="206.65" y2="134.212" gradientUnits="userSpaceOnUse">
<stop offset="0.01"/>
<stop offset="0.08" stop-opacity="0.69"/>
<stop offset="0.21" stop-opacity="0.32"/>
<stop offset="1" stop-opacity="0"/>
</linearGradient>
<linearGradient id="paint2_linear_19_2" x1="169.952" y1="117.257" x2="170.129" y2="176.854" gradientUnits="userSpaceOnUse">
<stop offset="0.01"/>
<stop offset="0.08" stop-opacity="0.69"/>
<stop offset="0.21" stop-opacity="0.32"/>
<stop offset="1" stop-opacity="0"/>
</linearGradient>
<linearGradient id="paint3_linear_19_2" x1="195.787" y1="134.34" x2="149.69" y2="142.591" gradientUnits="userSpaceOnUse">
<stop offset="0.01"/>
<stop offset="0.08" stop-opacity="0.69"/>
<stop offset="0.21" stop-opacity="0.32"/>
<stop offset="1" stop-opacity="0"/>
</linearGradient>
<linearGradient id="paint4_linear_19_2" x1="202.944" y1="126.237" x2="85.2894" y2="121.021" gradientUnits="userSpaceOnUse">
<stop offset="0.01"/>
<stop offset="0.08" stop-opacity="0.69"/>
<stop offset="0.21" stop-opacity="0.32"/>
<stop offset="1" stop-opacity="0"/>
</linearGradient>
<linearGradient id="paint5_linear_19_2" x1="202.697" y1="130.193" x2="171.753" y2="148.86" gradientUnits="userSpaceOnUse">
<stop offset="0.01"/>
<stop offset="0.08" stop-opacity="0.69"/>
<stop offset="0.21" stop-opacity="0.32"/>
<stop offset="1" stop-opacity="0"/>
</linearGradient>
<linearGradient id="paint6_linear_19_2" x1="55.0379" y1="134.212" x2="43.7336" y2="134.212" gradientUnits="userSpaceOnUse">
<stop offset="0.01"/>
<stop offset="0.08" stop-opacity="0.69"/>
<stop offset="0.21" stop-opacity="0.32"/>
<stop offset="1" stop-opacity="0"/>
</linearGradient>
<linearGradient id="paint7_linear_19_2" x1="80.4311" y1="117.257" x2="80.2543" y2="176.854" gradientUnits="userSpaceOnUse">
<stop offset="0.01"/>
<stop offset="0.08" stop-opacity="0.69"/>
<stop offset="0.21" stop-opacity="0.32"/>
<stop offset="1" stop-opacity="0"/>
</linearGradient>
<linearGradient id="paint8_linear_19_2" x1="54.5957" y1="134.34" x2="100.693" y2="142.591" gradientUnits="userSpaceOnUse">
<stop offset="0.01"/>
<stop offset="0.08" stop-opacity="0.69"/>
<stop offset="0.21" stop-opacity="0.32"/>
<stop offset="1" stop-opacity="0"/>
</linearGradient>
<linearGradient id="paint9_linear_19_2" x1="47.682" y1="130.193" x2="78.6299" y2="148.86" gradientUnits="userSpaceOnUse">
<stop offset="0.01"/>
<stop offset="0.08" stop-opacity="0.69"/>
<stop offset="0.21" stop-opacity="0.32"/>
<stop offset="1" stop-opacity="0"/>
</linearGradient>
<clipPath id="clip0_19_2">
<rect width="250" height="188.424" fill="white"/>
</clipPath>
</defs>
</svg>
