<svg width="250" height="189" viewBox="0 0 250 189" fill="none" xmlns="http://www.w3.org/2000/svg">
<path opacity="0.3" d="M164.319 39.4306C192.444 46.1181 214.669 67.2431 221.194 94.4306C226.044 114.649 221.819 135.499 189.162 143.081C118.619 159.456 42.4312 154.049 33.3 121.268C24.1687 88.4868 41.1125 32.2368 81.425 28.7681C104.412 26.7806 138.887 33.3806 164.319 39.4306Z" fill="#AF2C2B"/>
<path d="M59.3312 132.487H52.6812V153.281H59.3312V132.487Z" fill="#AF2C2B"/>
<path d="M51.8313 136.181H45.7063V155.156H51.8313V136.181Z" fill="#AF2C2B"/>
<path d="M140.144 141.806H115.012V147.899H140.144V141.806Z" fill="#AF2C2B"/>
<path d="M168.194 144.574H77.8686L56.4312 76.7993H146.762L168.194 144.574Z" fill="#AF2C2B"/>
<path d="M155.037 136.593H85.975L69.5938 84.7806H138.65L155.037 136.593Z" fill="white"/>
<path d="M136.725 109.681H122.425L118.413 96.9993H132.719L136.725 109.681Z" stroke="#AF2C2B" stroke-width="2.03" stroke-miterlimit="10"/>
<path d="M140.319 120.218L143.144 129.156H93.1624L83.0562 97.1868H107.75L110.587 106.156H105.687L108.237 114.237H123.281" stroke="#AF2C2B" stroke-width="2.03" stroke-miterlimit="10"/>
<path d="M127.575 129.149L124.244 118.612" stroke="#AF2C2B" stroke-width="2.03" stroke-miterlimit="10"/>
<path d="M105.688 106.156H98.0876L95.0188 109.481" stroke="#AF2C2B" stroke-width="2.03" stroke-miterlimit="10"/>
<path d="M85.8938 106.156H91.275" stroke="#AF2C2B" stroke-width="2.03" stroke-miterlimit="10"/>
<path d="M95.7876 124.418H102.119" stroke="#AF2C2B" stroke-width="2.03" stroke-miterlimit="10"/>
<path d="M99.825 100.143H103.781" stroke="#AF2C2B" stroke-width="2.03" stroke-miterlimit="10"/>
<path d="M80.8501 90.2181H99.7501" stroke="#AF2C2B" stroke-width="2.03" stroke-miterlimit="10"/>
<path d="M101.856 90.2181H103.775" stroke="#AF2C2B" stroke-width="2.03" stroke-miterlimit="10"/>
<path d="M74.3125 116.999L81.9938 141.299H106.287L74.3125 116.999ZM79.675 124.387L97.95 138.268H84.0687L79.675 124.387Z" fill="black"/>
<path d="M176.744 144.574H77.8501L82.2876 139.037H181.175L176.744 144.574Z" fill="#C9C9C9"/>
<path d="M202.675 84.7556C202.675 84.7556 222.919 96.0993 218.181 110.749C213.444 125.399 199.225 130.124 199.225 130.124L195.206 121.774L202.675 84.7556Z" fill="#75311F"/>
<path opacity="0.1" d="M202.675 84.7556C202.675 84.7556 222.919 96.0993 218.181 110.749C213.444 125.399 199.225 130.124 199.225 130.124L195.206 121.774L202.675 84.7556Z" fill="black"/>
<path d="M180.456 62.3556L180.4 68.4868L185.681 69.8556L184.156 59.7556L180.456 62.3556Z" fill="#75311F"/>
<path d="M178.019 54.2681C177.442 54.0912 176.83 54.0611 176.239 54.1804C175.647 54.2997 175.095 54.5647 174.632 54.9514C174.169 55.3381 173.81 55.8342 173.587 56.3948C173.364 56.9554 173.285 57.5628 173.356 58.1618C173.669 61.0056 174.656 64.9681 177.769 64.1181C182.531 62.8181 181.05 56.6181 181.05 56.6181C180.293 55.5533 179.239 54.7357 178.019 54.2681V54.2681Z" fill="#75311F"/>
<path d="M165.463 78.1056C169.54 73.3362 174.989 69.9405 181.067 68.3813C187.145 66.8221 193.555 67.1755 199.425 69.3931C204.65 71.3868 209.2 75.1368 209.188 82.1306C209.156 98.5493 199.694 111.612 202.563 125.356L173.944 130.156L169.769 112.574C169.381 110.91 168.653 109.343 167.63 107.974C166.607 106.605 165.311 105.462 163.825 104.618C160.831 102.943 157.513 99.8306 157.981 94.3681C158.4 89.5118 161 83.3618 165.463 78.1056Z" fill="#AF2C2B"/>
<path d="M178.781 58.8618C178.781 58.8618 178.781 57.4931 180.031 57.9431C181.281 58.3931 180.538 60.1931 179.7 60.1993C178.863 60.2056 178.781 58.8618 178.781 58.8618Z" fill="#75311F"/>
<path opacity="0.1" d="M179.75 92.3368C179.75 92.3368 174.306 100.249 183.562 104.556C192.819 108.862 189.612 127.218 189.612 127.218L202.544 124.668C202.544 124.668 200.319 117.743 205.431 102.537C210.544 87.3306 180.719 76.2118 180.719 76.2118L179.75 92.3368Z" fill="black"/>
<path d="M171.988 50.4618C171.988 50.4618 171.363 54.9806 175.706 56.4681C180.05 57.9556 170.194 69.0868 180.406 76.7993C185.344 80.5493 183.706 86.5618 186.956 91.4306C188.535 93.824 190.594 95.8628 193.004 97.4176C195.413 98.9724 198.119 100.009 200.95 100.462C204.591 101.037 208.32 100.411 211.575 98.6806C213.182 97.8028 214.581 96.5903 215.679 95.1249C216.777 93.6595 217.547 91.9755 217.938 90.1868C219.106 84.0743 215.05 78.1368 210.288 74.1181C202.844 67.8681 190.756 63.0181 188.225 52.8681C186.106 44.4368 172.388 44.0368 171.988 50.4618Z" fill="black"/>
<path d="M182.456 78.1056C178.987 71.7181 169.525 72.0493 166.706 78.7306C165.807 81.0224 165.444 83.4894 165.644 85.9431C166.362 98.9306 169.869 115.593 162.056 116.749C154.244 117.906 137.75 106.206 137.75 106.206L134.794 110.062C134.794 110.062 157.575 138.187 174.475 122.287C188.044 109.531 189.025 90.2243 182.456 78.1056Z" fill="#75311F"/>
<path d="M202.544 124.643L204.931 158.924H164.444L173.944 130.174C173.944 130.174 188.319 127.524 202.544 124.643Z" fill="#AF2C2B"/>
<path d="M126.886 110.966L125.087 109.115L134.723 99.7501C134.95 99.5295 135.256 99.4081 135.572 99.4126C135.889 99.4171 136.191 99.5472 136.411 99.7743L136.551 99.9177C136.771 100.145 136.893 100.45 136.888 100.767C136.884 101.083 136.754 101.385 136.527 101.606L126.89 110.971L126.886 110.966Z" fill="#AF2C2B"/>
<path d="M126.875 110.962L123.663 112.274L125.069 109.099L126.875 110.962Z" fill="#AF2C2B"/>
<path d="M138.338 107.556C138.338 107.556 135.575 101.231 131.156 101.381C126.738 101.531 131.488 109.599 134.794 110.087L138.338 107.556Z" fill="#75311F"/>
<path opacity="0.1" d="M189.613 127.193L186.163 158.924H204.931L202.544 124.643L189.613 127.193Z" fill="black"/>
<path d="M115.281 158.924H111.163L118.413 146.318H122.531L115.281 158.924Z" fill="#AF2C2B"/>
<path d="M138.294 158.924H142.412L135.162 146.318H131.044L138.294 158.924Z" fill="#AF2C2B"/>
<path d="M65.4938 145.224H41.4563V160.024H65.4938V145.224Z" fill="#C9C9C9"/>
<path d="M56.4937 148.362H50.4499C49.5248 148.362 48.7749 149.112 48.7749 150.037C48.7749 150.962 49.5248 151.712 50.4499 151.712H56.4937C57.4187 151.712 58.1687 150.962 58.1687 150.037C58.1687 149.112 57.4187 148.362 56.4937 148.362Z" fill="#AF2C2B"/>
<path d="M93.8875 46.9993H64.5437V67.7931H93.8875V46.9993Z" fill="#AF2C2B"/>
<path d="M67.8625 64.0368H90.575" stroke="#C9C9C9" stroke-width="1.015" stroke-miterlimit="10"/>
<path d="M74.2438 55.0118H69.2251V64.0368H74.2438V55.0118Z" stroke="#C9C9C9" stroke-width="1.015" stroke-miterlimit="10"/>
<path d="M74.2437 64.0368H78.0437V52.7118L74.2437 50.7618V64.0368Z" stroke="#C9C9C9" stroke-width="1.015" stroke-miterlimit="10"/>
<path d="M85.2812 57.3993H78.0437V64.0368H85.2812V57.3993Z" stroke="#C9C9C9" stroke-width="1.015" stroke-miterlimit="10"/>
<path d="M84.1 54.1743H80.375V57.3993H84.1V54.1743Z" stroke="#C9C9C9" stroke-width="1.015" stroke-miterlimit="10"/>
<path d="M89.2125 60.3243H85.2812V64.0306H89.2125V60.3243Z" stroke="#C9C9C9" stroke-width="1.015" stroke-miterlimit="10"/>
<path d="M147.8 42.4743H110.944V68.5868H147.8V42.4743Z" fill="#AF2C2B"/>
<path d="M117.163 47.2868V63.7806H141.575V57.6681H133.375V47.2868H117.163Z" stroke="#C9C9C9" stroke-width="1.015" stroke-miterlimit="10"/>
<path d="M124.906 63.7806V57.8181L122.844 54.9618" stroke="#C9C9C9" stroke-width="1.015" stroke-miterlimit="10"/>
<path d="M124.431 47.2868V53.2993" stroke="#C9C9C9" stroke-width="1.015" stroke-miterlimit="10"/>
<path d="M136.863 52.2743H140.819" stroke="#C9C9C9" stroke-width="1.015" stroke-miterlimit="10"/>
<path d="M136.863 50.2931H140.819" stroke="#C9C9C9" stroke-width="1.015" stroke-miterlimit="10"/>
<path d="M133.325 47.2868H129.369V51.2431H133.325V47.2868Z" stroke="#C9C9C9" stroke-width="1.015" stroke-miterlimit="10"/>
<path d="M124.906 60.3493H119.363" stroke="#C9C9C9" stroke-width="1.015" stroke-miterlimit="10"/>
<path d="M133.325 63.7806V60.7243" stroke="#C9C9C9" stroke-width="1.015" stroke-miterlimit="10"/>
</svg>
