<svg width="250" height="189" viewBox="0 0 250 189" fill="none" xmlns="http://www.w3.org/2000/svg">
<path d="M111.775 120.862C111.725 120.863 111.675 120.852 111.63 120.829C111.585 120.806 111.547 120.772 111.519 120.731C110.322 119.13 108.584 118.019 106.628 117.607C104.673 117.196 102.634 117.51 100.894 118.493C100.85 118.515 100.802 118.526 100.753 118.526C100.704 118.526 100.656 118.515 100.612 118.493C100.568 118.475 100.528 118.447 100.495 118.411C100.463 118.375 100.439 118.333 100.425 118.287C99.7589 116.17 98.3682 114.355 96.497 113.162C94.6259 111.969 92.3941 111.473 90.1937 111.762C90.1485 111.767 90.1027 111.763 90.0592 111.749C90.0158 111.736 89.9757 111.713 89.9415 111.683C89.9074 111.653 89.8799 111.616 89.8609 111.575C89.8419 111.533 89.8317 111.489 89.8312 111.443C89.8999 108.418 87.1624 106.018 84.8624 104.537C80.4776 101.724 75.5424 99.8811 70.3874 99.1306C68.3124 98.8306 61.3374 98.2181 58.7374 102.881C58.6966 102.952 58.6295 103.006 58.5502 103.029C58.4709 103.052 58.3857 103.044 58.3124 103.006C54.5624 100.968 51.2999 100.112 48.3124 100.374C44.5999 100.712 41.3749 103.068 40.4749 106.118C40.4374 106.237 40.4062 106.349 40.3749 106.468C40.2701 107.055 40.0185 107.605 39.6437 108.068C39.2154 108.478 38.6943 108.778 38.1249 108.943L37.6687 109.118C36.7118 109.543 35.9115 110.257 35.3793 111.159C34.8471 112.061 34.6096 113.106 34.6999 114.149C34.7087 114.231 34.6847 114.313 34.6332 114.378C34.5817 114.442 34.5068 114.484 34.4249 114.493C34.3842 114.498 34.3428 114.495 34.3033 114.484C34.2637 114.473 34.2268 114.454 34.1948 114.428C34.1627 114.403 34.1361 114.371 34.1166 114.335C34.0971 114.299 34.085 114.259 34.0812 114.218C33.9795 113.041 34.2468 111.862 34.846 110.844C35.4452 109.826 36.3466 109.019 37.4249 108.537L37.9124 108.356C38.376 108.228 38.8037 107.995 39.1624 107.674C39.4637 107.283 39.6653 106.824 39.7499 106.337C39.7812 106.218 39.8124 106.093 39.8499 105.974C40.8249 102.687 44.2687 100.137 48.2312 99.7868C51.2937 99.5118 54.5999 100.349 58.3374 102.343C61.2437 97.6118 68.3374 98.2243 70.4687 98.5368C75.7129 99.2997 80.7335 101.175 85.1937 104.037C88.5249 106.181 90.3374 108.624 90.4499 111.118C92.6819 110.915 94.9184 111.456 96.8101 112.658C98.7018 113.86 100.142 115.655 100.906 117.762C102.773 116.818 104.914 116.562 106.951 117.04C108.988 117.518 110.791 118.698 112.044 120.374C112.067 120.408 112.084 120.446 112.092 120.486C112.101 120.526 112.102 120.567 112.094 120.607C112.086 120.647 112.071 120.686 112.048 120.72C112.026 120.754 111.997 120.783 111.962 120.806C111.908 120.845 111.842 120.865 111.775 120.862V120.862Z" fill="#AF2C2B"/>
<path d="M206.706 32.9368H136.419V35.3118H206.706V32.9368Z" fill="white"/>
<path d="M206.706 35.6243H136.419C136.336 35.6243 136.256 35.5914 136.198 35.5328C136.139 35.4742 136.106 35.3947 136.106 35.3118V32.9618C136.106 32.8789 136.139 32.7995 136.198 32.7409C136.256 32.6822 136.336 32.6493 136.419 32.6493H206.706C206.789 32.6493 206.869 32.6822 206.927 32.7409C206.986 32.7995 207.019 32.8789 207.019 32.9618V35.3368C207.012 35.4153 206.977 35.4885 206.919 35.5418C206.861 35.5951 206.785 35.6246 206.706 35.6243V35.6243ZM136.706 34.9993H206.394V33.2493H136.731L136.706 34.9993Z" fill="#AF2C2B"/>
<path d="M206.706 40.3306H136.419V42.7056H206.706V40.3306Z" fill="white"/>
<path d="M206.706 43.0181H136.419C136.336 43.0181 136.256 42.9851 136.198 42.9265C136.139 42.8679 136.106 42.7884 136.106 42.7056V40.3306C136.106 40.2477 136.139 40.1682 136.198 40.1096C136.256 40.051 136.336 40.0181 136.419 40.0181H206.706C206.789 40.0181 206.869 40.051 206.927 40.1096C206.986 40.1682 207.019 40.2477 207.019 40.3306V42.7056C207.019 42.7884 206.986 42.8679 206.927 42.9265C206.869 42.9851 206.789 43.0181 206.706 43.0181ZM136.706 42.3931H206.394V40.6431H136.731L136.706 42.3931Z" fill="#AF2C2B"/>
<path d="M139.9 27.5368H133.938V49.0931H139.9V27.5368Z" fill="white"/>
<path d="M139.894 49.4056H133.937C133.855 49.4056 133.775 49.3727 133.717 49.3141C133.658 49.2554 133.625 49.176 133.625 49.0931V27.5368C133.625 27.454 133.658 27.3745 133.717 27.3159C133.775 27.2573 133.855 27.2243 133.937 27.2243H139.894C139.977 27.2243 140.056 27.2573 140.115 27.3159C140.173 27.3745 140.206 27.454 140.206 27.5368V49.0931C140.206 49.176 140.173 49.2554 140.115 49.3141C140.056 49.3727 139.977 49.4056 139.894 49.4056ZM134.269 48.7806H139.6V27.8493H134.25L134.269 48.7806Z" fill="#AF2C2B"/>
<path d="M163.156 27.5368H159.856V49.0931H163.156V27.5368Z" fill="white"/>
<path d="M163.125 49.4056H159.831C159.748 49.4056 159.669 49.3727 159.61 49.3141C159.552 49.2554 159.519 49.176 159.519 49.0931V27.5368C159.519 27.454 159.552 27.3745 159.61 27.3159C159.669 27.2573 159.748 27.2243 159.831 27.2243H163.125C163.208 27.2243 163.287 27.2573 163.346 27.3159C163.405 27.3745 163.438 27.454 163.438 27.5368V49.0931C163.438 49.176 163.405 49.2554 163.346 49.3141C163.287 49.3727 163.208 49.4056 163.125 49.4056ZM160.144 48.7806H162.813V27.8493H160.144V48.7806Z" fill="#AF2C2B"/>
<path d="M209.687 27.5368H203.725V49.0931H209.687V27.5368Z" fill="white"/>
<path d="M209.688 49.4056H203.75C203.667 49.4056 203.588 49.3727 203.529 49.3141C203.47 49.2554 203.438 49.176 203.438 49.0931V27.5368C203.438 27.454 203.47 27.3745 203.529 27.3159C203.588 27.2573 203.667 27.2243 203.75 27.2243H209.713C209.795 27.2259 209.873 27.2594 209.932 27.3176C209.99 27.3759 210.023 27.4545 210.025 27.5368V49.0931C210.025 49.1363 210.016 49.1791 209.999 49.2187C209.982 49.2584 209.957 49.294 209.925 49.3234C209.893 49.3528 209.856 49.3752 209.815 49.3894C209.774 49.4035 209.731 49.409 209.688 49.4056ZM204.062 48.7806H209.375V27.8493H204.037L204.062 48.7806Z" fill="#AF2C2B"/>
<path d="M136.087 27.4118C136.005 27.4118 135.925 27.3789 135.866 27.3203C135.808 27.2617 135.775 27.1822 135.775 27.0993V25.4993C135.775 25.4164 135.808 25.337 135.866 25.2784C135.925 25.2198 136.005 25.1868 136.087 25.1868C136.17 25.1868 136.25 25.2198 136.308 25.2784C136.367 25.337 136.4 25.4164 136.4 25.4993V27.0993C136.4 27.1822 136.367 27.2617 136.308 27.3203C136.25 27.3789 136.17 27.4118 136.087 27.4118V27.4118Z" fill="#AF2C2B"/>
<path d="M138.444 27.4118C138.361 27.4118 138.281 27.3789 138.223 27.3203C138.164 27.2617 138.131 27.1822 138.131 27.0993V25.4993C138.131 25.4164 138.164 25.337 138.223 25.2784C138.281 25.2198 138.361 25.1868 138.444 25.1868C138.526 25.1868 138.606 25.2198 138.665 25.2784C138.723 25.337 138.756 25.4164 138.756 25.4993V27.0993C138.756 27.1822 138.723 27.2617 138.665 27.3203C138.606 27.3789 138.526 27.4118 138.444 27.4118V27.4118Z" fill="#AF2C2B"/>
<path d="M205.55 27.4118C205.467 27.4118 205.388 27.3789 205.329 27.3203C205.27 27.2617 205.238 27.1822 205.238 27.0993V25.4993C205.238 25.4164 205.27 25.337 205.329 25.2784C205.388 25.2198 205.467 25.1868 205.55 25.1868C205.633 25.1868 205.712 25.2198 205.771 25.2784C205.83 25.337 205.863 25.4164 205.863 25.4993V27.0993C205.863 27.1822 205.83 27.2617 205.771 27.3203C205.712 27.3789 205.633 27.4118 205.55 27.4118V27.4118Z" fill="#AF2C2B"/>
<path d="M207.912 27.4118C207.829 27.4118 207.75 27.3789 207.691 27.3203C207.633 27.2617 207.6 27.1822 207.6 27.0993V25.4993C207.6 25.4164 207.633 25.337 207.691 25.2784C207.75 25.2198 207.829 25.1868 207.912 25.1868C207.995 25.1868 208.075 25.2198 208.133 25.2784C208.192 25.337 208.225 25.4164 208.225 25.4993V27.0993C208.225 27.1822 208.192 27.2617 208.133 27.3203C208.075 27.3789 207.995 27.4118 207.912 27.4118V27.4118Z" fill="#AF2C2B"/>
<path d="M164.681 125.099H158.731V156.306H164.681V125.099Z" fill="white"/>
<path d="M164.681 156.618H158.75C158.667 156.618 158.588 156.585 158.529 156.527C158.47 156.468 158.438 156.388 158.438 156.306V125.099C158.439 125.017 158.473 124.938 158.531 124.88C158.589 124.822 158.668 124.788 158.75 124.787H164.7C164.783 124.787 164.862 124.82 164.921 124.878C164.98 124.937 165.012 125.016 165.012 125.099V156.306C165.013 156.348 165.004 156.39 164.987 156.43C164.97 156.469 164.945 156.504 164.914 156.533C164.883 156.563 164.847 156.585 164.807 156.6C164.766 156.614 164.724 156.621 164.681 156.618ZM159.056 155.993H164.375V125.412H159.05L159.056 155.993Z" fill="#231F20"/>
<path d="M201.112 125.099H195.162V156.306H201.112V125.099Z" fill="white"/>
<path d="M201.106 156.618H195.162C195.079 156.618 195 156.585 194.941 156.527C194.883 156.468 194.85 156.388 194.85 156.306V125.099C194.85 125.016 194.883 124.937 194.941 124.878C195 124.82 195.079 124.787 195.162 124.787H201.106C201.189 124.787 201.268 124.82 201.327 124.878C201.386 124.937 201.419 125.016 201.419 125.099V156.306C201.419 156.388 201.386 156.468 201.327 156.527C201.268 156.585 201.189 156.618 201.106 156.618ZM195.481 155.993H200.8V125.412H195.481V155.993Z" fill="#231F20"/>
<path d="M219.625 92.0681H193.875V120.993H219.625V92.0681Z" fill="white"/>
<path d="M219.619 121.306H193.875C193.792 121.306 193.713 121.273 193.654 121.214C193.595 121.155 193.562 121.076 193.562 120.993V92.0681C193.562 91.9852 193.595 91.9057 193.654 91.8471C193.713 91.7885 193.792 91.7556 193.875 91.7556H219.619C219.702 91.7556 219.781 91.7885 219.84 91.8471C219.898 91.9057 219.931 91.9852 219.931 92.0681V120.993C219.931 121.076 219.898 121.155 219.84 121.214C219.781 121.273 219.702 121.306 219.619 121.306ZM194.188 120.681H219.306V92.3806H194.188V120.681Z" fill="#AF2C2B"/>
<path d="M193.912 92.0681H123.131V120.993H193.912V92.0681Z" fill="white"/>
<path d="M193.913 121.306H123.125C123.042 121.306 122.963 121.273 122.904 121.214C122.845 121.155 122.812 121.076 122.812 120.993V92.0681C122.812 91.9852 122.845 91.9057 122.904 91.8471C122.963 91.7885 123.042 91.7556 123.125 91.7556H193.913C193.995 91.7556 194.075 91.7885 194.133 91.8471C194.192 91.9057 194.225 91.9852 194.225 92.0681V120.993C194.225 121.076 194.192 121.155 194.133 121.214C194.075 121.273 193.995 121.306 193.913 121.306ZM123.444 120.681H193.6V92.3806H123.444V120.681Z" fill="#AF2C2B"/>
<path d="M214.244 48.7993H188.462V91.9993H214.244V48.7993Z" fill="white"/>
<path d="M214.244 92.3368H188.462C188.38 92.3368 188.3 92.3039 188.241 92.2453C188.183 92.1867 188.15 92.1072 188.15 92.0243V48.7993C188.15 48.7164 188.183 48.637 188.241 48.5784C188.3 48.5197 188.38 48.4868 188.462 48.4868H214.244C214.327 48.4868 214.406 48.5197 214.465 48.5784C214.523 48.637 214.556 48.7164 214.556 48.7993V91.9993C214.56 92.0424 214.554 92.0858 214.54 92.1266C214.526 92.1674 214.503 92.2049 214.474 92.2366C214.445 92.2684 214.409 92.2936 214.369 92.3109C214.33 92.3281 214.287 92.337 214.244 92.3368ZM188.75 91.7118H213.906V49.1118H188.75V91.7118Z" fill="#AF2C2B"/>
<path d="M231.644 121.481H33.7937C33.7108 121.481 33.6313 121.448 33.5727 121.389C33.5141 121.33 33.4812 121.251 33.4812 121.168C33.4812 121.085 33.5141 121.006 33.5727 120.947C33.6313 120.889 33.7108 120.856 33.7937 120.856H231.644C231.727 120.856 231.806 120.889 231.865 120.947C231.923 121.006 231.956 121.085 231.956 121.168C231.956 121.251 231.923 121.33 231.865 121.389C231.806 121.448 231.727 121.481 231.644 121.481Z" fill="#AF2C2B"/>
<path d="M83.7124 55.0118C83.7124 55.0118 94.5062 77.9118 95.9499 81.2181C97.3937 84.5243 90.9936 92.1743 88.5124 90.3118C86.0311 88.4493 83.7124 55.0118 83.7124 55.0118Z" fill="#231F20"/>
<path d="M58.9 152.337C58.9 152.337 58.475 155.106 59.1125 156.174C59.9837 157.676 60.501 159.356 60.625 161.087C60.1139 161.657 59.4902 162.116 58.7931 162.433C58.0961 162.75 57.3408 162.92 56.575 162.931C54.0188 162.931 51.4625 161.012 51.175 160.093C50.8875 159.174 53.2375 149.368 53.2375 149.368L58.9 152.337Z" fill="white"/>
<path d="M56.5563 163.237C53.8125 163.237 51.1813 161.224 50.8625 160.174C50.5688 159.218 52.5188 150.937 52.9125 149.287C52.9248 149.241 52.9467 149.198 52.9769 149.162C53.0071 149.125 53.0448 149.095 53.0875 149.074C53.1302 149.053 53.1773 149.042 53.225 149.042C53.2728 149.042 53.3199 149.053 53.3625 149.074L59.0438 152.056C59.102 152.085 59.1492 152.133 59.1784 152.191C59.2077 152.25 59.2174 152.316 59.2063 152.381C59.0938 153.118 58.9063 155.212 59.3813 156.006C60.2674 157.533 60.7913 159.244 60.9125 161.006C60.9185 161.047 60.9155 161.089 60.9036 161.129C60.8917 161.169 60.8713 161.206 60.8438 161.237C60.3106 161.854 59.6529 162.351 58.914 162.696C58.175 163.04 57.3716 163.225 56.5563 163.237V163.237ZM53.4313 149.824C52.3438 154.412 51.3 159.431 51.4563 159.993C51.6938 160.749 54.125 162.612 56.5563 162.612C57.2591 162.604 57.9532 162.455 58.5974 162.173C59.2415 161.892 59.8227 161.484 60.3063 160.974C60.1844 159.34 59.6952 157.755 58.875 156.337C58.2875 155.356 58.4938 153.212 58.5938 152.518L53.4313 149.824Z" fill="#231F20"/>
<path d="M80.625 90.1743L68.3063 93.5868L65.4563 57.9993C65.4563 57.9993 75.625 55.5868 78.125 56.7118C80.625 57.8368 80.625 90.1743 80.625 90.1743Z" fill="#231F20"/>
<path d="M68.3062 93.8993C68.2421 93.8959 68.1798 93.8766 68.125 93.8431C68.0877 93.8163 68.0567 93.7817 68.0341 93.7418C68.0114 93.7019 67.9977 93.6575 67.9937 93.6118L65.1437 58.0243C65.136 57.9504 65.156 57.8761 65.1999 57.8161C65.2438 57.756 65.3084 57.7144 65.3812 57.6993C65.8 57.5993 75.7 55.2681 78.2375 56.4493C80.775 57.6306 80.9187 84.7618 80.925 90.1993C80.9257 90.268 80.9032 90.335 80.8613 90.3894C80.8193 90.4438 80.7603 90.4825 80.6937 90.4993L68.3875 93.9118L68.3062 93.8993ZM65.8062 58.2743L68.6062 93.2181L80.3187 89.9743C80.3187 74.4681 79.4687 57.7118 77.9937 57.0368C75.85 56.0243 67.3812 57.8806 65.7875 58.2431L65.8062 58.2743Z" fill="#231F20"/>
<path d="M76.5125 146.568V154.899L80.4875 156.037L80.3937 154.331L82.1937 156.131C82.1937 156.131 92.8749 158.049 92.8187 156.631C92.7624 155.212 91.6812 154.424 90.3187 153.718C88.8749 152.956 85.0687 150.806 85.0687 150.806L84.5 144.699" fill="white"/>
<path d="M90.8312 157.456C87.9129 157.321 85.0077 156.981 82.1374 156.437C82.0731 156.427 82.0137 156.396 81.9687 156.349L80.7187 155.131L80.7687 156.018C80.772 156.068 80.7628 156.118 80.7421 156.164C80.7214 156.21 80.6898 156.25 80.6499 156.281C80.6115 156.313 80.5656 156.335 80.5165 156.345C80.4674 156.354 80.4165 156.352 80.3687 156.337L76.3937 155.199C76.3288 155.18 76.2718 155.141 76.2312 155.087C76.1906 155.033 76.1687 154.967 76.1687 154.899V146.568C76.1687 146.485 76.2016 146.406 76.2602 146.347C76.3188 146.289 76.3983 146.256 76.4812 146.256C76.5641 146.256 76.6436 146.289 76.7022 146.347C76.7608 146.406 76.7937 146.485 76.7937 146.568V154.662L80.1187 155.618L80.05 154.368C80.047 154.305 80.063 154.243 80.096 154.19C80.1289 154.136 80.1772 154.094 80.2346 154.068C80.2919 154.042 80.3557 154.035 80.4175 154.046C80.4794 154.057 80.5364 154.087 80.5812 154.131L82.3124 155.862C86.8874 156.674 92.0562 157.199 92.4812 156.631C92.425 155.449 91.5124 154.724 90.1562 154.012C88.7999 153.299 84.9312 151.118 84.8937 151.093C84.8492 151.069 84.8115 151.034 84.7842 150.991C84.7569 150.949 84.7408 150.9 84.7375 150.849L84.1687 144.743C84.1644 144.702 84.1683 144.661 84.1802 144.622C84.1921 144.583 84.2118 144.546 84.238 144.515C84.2642 144.483 84.2965 144.458 84.3329 144.439C84.3693 144.42 84.4091 144.409 84.4499 144.406C84.5322 144.4 84.6135 144.426 84.6774 144.478C84.7412 144.531 84.7828 144.605 84.7937 144.687L85.3437 150.631C86.05 151.031 89.1812 152.793 90.45 153.456C91.7187 154.118 93.0375 155.037 93.1 156.637C93.1049 156.726 93.0882 156.816 93.0512 156.897C93.0142 156.979 92.958 157.05 92.8874 157.106C92.6124 157.337 91.8375 157.456 90.8312 157.456Z" fill="#231F20"/>
<path d="M57.4188 93.5368L50 151.774C50 151.774 50.3125 154.087 55.3312 154.374C60.35 154.662 59.8438 153.481 59.8438 153.481L71.7812 112.099L75 148.931L85.8375 149.599L83.6812 89.0243L57.4188 93.5368Z" fill="#231F20"/>
<path d="M56.8187 154.731C56.3687 154.731 55.8749 154.731 55.3374 154.681C50.1249 154.387 49.7124 151.924 49.7124 151.818V151.712L57.1062 93.4743C57.1154 93.4084 57.1451 93.347 57.1911 93.2988C57.2371 93.2506 57.297 93.218 57.3624 93.2056L83.6562 88.6931C83.6989 88.6848 83.7429 88.6861 83.7851 88.6969C83.8272 88.7077 83.8664 88.7277 83.8999 88.7556C83.9351 88.7833 83.964 88.8184 83.9845 88.8583C84.005 88.8982 84.0166 88.942 84.0186 88.9868L86.1686 149.562C86.1729 149.605 86.1666 149.649 86.1502 149.689C86.1339 149.729 86.1081 149.765 86.0749 149.793C86.045 149.824 86.0089 149.847 85.9689 149.862C85.929 149.877 85.8862 149.884 85.8437 149.881L74.9999 149.212C74.9261 149.208 74.8564 149.177 74.8035 149.125C74.7507 149.073 74.7183 149.004 74.7124 148.931L71.6374 113.762L60.1874 153.493C60.2071 153.659 60.1648 153.826 60.0687 153.962C59.7062 154.474 58.6374 154.731 56.8187 154.731ZM50.3374 151.762C50.4062 152.018 51.0374 153.818 55.3749 154.062C58.4999 154.237 59.3124 153.831 59.5124 153.649C59.5624 153.606 59.5749 153.574 59.5749 153.568C59.5625 153.541 59.5561 153.511 59.5561 153.481C59.5561 153.45 59.5625 153.421 59.5749 153.393L71.5124 112.012C71.5336 111.942 71.578 111.882 71.6383 111.841C71.6986 111.8 71.771 111.781 71.8436 111.787C71.9163 111.793 71.9846 111.824 72.0361 111.876C72.0877 111.927 72.1192 111.995 72.1249 112.068L75.3187 148.637L85.5436 149.262L83.4124 89.3868L57.6999 93.7993L50.3374 151.762Z" fill="#231F20"/>
<path d="M67.7562 53.5243C67.7562 53.5243 71.6187 94.4868 69.7249 96.9493C67.8312 99.4118 59.3749 102.674 55.5687 99.6431C51.7624 96.6118 52.5937 65.4681 54.3187 62.8181C59.0249 58.8556 67.7562 53.5243 67.7562 53.5243Z" fill="#AF2C2B"/>
<path d="M83.7124 55.0118C83.7124 55.0118 91.7686 94.8368 90.6249 95.9556C89.4811 97.0743 81.6499 99.5056 79.9436 98.3681C78.2374 97.2306 74.5374 54.8993 74.5374 54.8993C74.5374 54.8993 81.2499 52.9618 83.7124 55.0118Z" fill="#AF2C2B"/>
<path d="M73.6875 51.8806L75.1875 56.8806C75.1875 56.8806 75.225 59.3806 71.6437 59.5868C68.0625 59.7931 66.875 57.6681 66.875 57.6681L64.375 48.2431C64.375 48.2431 65.3062 44.5993 62.9187 39.4556C62.9187 39.4556 67.8125 38.8306 73.6 37.7368C73.6 37.7368 75.9875 44.9118 76.3812 47.6181C76.775 50.3243 73.6875 51.8806 73.6875 51.8806Z" fill="white"/>
<path d="M71.1186 59.9118C67.7998 59.9118 66.6373 57.9118 66.5873 57.8181C66.5838 57.7953 66.5838 57.7721 66.5873 57.7493L64.1248 48.3181C64.1124 48.2667 64.1124 48.2132 64.1248 48.1618C64.1248 48.1618 64.9936 44.5556 62.6873 39.5868C62.666 39.5426 62.6557 39.4939 62.6571 39.4448C62.6586 39.3957 62.6718 39.3477 62.6957 39.3048C62.7196 39.2619 62.7535 39.2254 62.7944 39.1984C62.8354 39.1713 62.8823 39.1545 62.9311 39.1493C62.9811 39.1493 67.8811 38.5243 73.5936 37.4306C73.668 37.4145 73.7457 37.4268 73.8115 37.4649C73.8774 37.503 73.9267 37.5643 73.9498 37.6368C74.0436 37.9306 76.3436 44.8681 76.7436 47.5681C77.1061 50.0681 74.8686 51.5931 74.0873 52.0306L75.5123 56.7868C75.5154 56.8159 75.5154 56.8452 75.5123 56.8743C75.5123 56.8743 75.5123 59.6556 71.6748 59.8931L71.1186 59.9118ZM67.1498 57.5431C67.3123 57.8056 68.4873 59.4681 71.6248 59.2743C74.6436 59.0806 74.8561 57.2243 74.8748 56.9181L73.3873 51.9681C73.3666 51.8973 73.3715 51.8215 73.4012 51.754C73.431 51.6865 73.4836 51.6317 73.5498 51.5993C73.5498 51.5993 76.4561 50.1056 76.0998 47.6618C75.7436 45.2181 73.8436 39.3993 73.4123 38.0931C68.7561 38.9743 64.6623 39.5431 63.4123 39.7118C65.4373 44.3368 64.8498 47.6681 64.7311 48.2368L67.1498 57.5431Z" fill="#231F20"/>
<path d="M62.6686 47.8618C62.6686 47.8618 58.9936 43.9056 59.4499 41.0868C59.9061 38.2681 65.1499 39.8368 65.1499 39.8368C65.1499 39.8368 66.1811 46.6556 65.1499 48.5181C64.1186 50.3806 62.6686 47.8618 62.6686 47.8618Z" fill="#231F20"/>
<path d="M64.2687 49.5431C63.3437 49.5431 62.5687 48.2931 62.3937 48.0493C62.0437 47.6681 58.6437 43.8806 59.1187 41.0493C59.1611 40.7528 59.2681 40.4692 59.4323 40.2186C59.5965 39.968 59.8137 39.7566 60.0687 39.5993C61.7624 38.5493 65.0687 39.5306 65.2124 39.5993C65.2694 39.6148 65.3206 39.6468 65.3595 39.6913C65.3985 39.7358 65.4234 39.7907 65.4312 39.8493C65.4749 40.1306 66.4687 46.7993 65.4312 48.7306C65.3358 48.963 65.1778 49.1643 64.9748 49.3122C64.7717 49.4601 64.5316 49.5487 64.2812 49.5681L64.2687 49.5431ZM62.2187 39.7368C61.5963 39.7049 60.9767 39.8409 60.4249 40.1306C60.2435 40.2379 60.0893 40.3857 59.9744 40.5624C59.8595 40.7391 59.7869 40.94 59.7624 41.1493C59.3312 43.7743 62.8874 47.6118 62.8874 47.6556C62.9034 47.6717 62.9162 47.6908 62.9249 47.7118C63.1937 48.1806 63.7937 48.9243 64.2562 48.9243C64.4687 48.9243 64.6749 48.7431 64.8812 48.4056C65.6624 46.9993 65.1687 42.1556 64.8812 40.1181C64.0126 39.8827 63.1184 39.7546 62.2187 39.7368V39.7368Z" fill="#231F20"/>
<path d="M65.8937 47.4868C65.6383 47.0648 65.252 46.7378 64.7937 46.5556C64.3627 46.4006 63.9079 46.3223 63.4499 46.3243C63.1981 46.3013 62.9443 46.3333 62.7062 46.4181C62.5464 46.4948 62.4039 46.6033 62.2874 46.7368C61.9807 47.0243 61.7877 47.4125 61.7437 47.8306C61.7465 48.1671 61.8323 48.4977 61.9937 48.7931C62.1403 49.1278 62.3316 49.441 62.5624 49.7243C62.7987 50.0032 63.0881 50.2325 63.4137 50.3987C63.7393 50.565 64.0946 50.6649 64.4591 50.6929C64.8236 50.7208 65.19 50.676 65.5371 50.5613C65.8842 50.4465 66.2051 50.264 66.4812 50.0243" fill="white"/>
<path d="M64.6625 51.0118H64.4375C63.6194 50.9448 62.8606 50.5587 62.325 49.9368C62.072 49.6313 61.8617 49.2928 61.7 48.9306C61.5142 48.5893 61.4175 48.2067 61.4187 47.8181C61.463 47.3253 61.6852 46.8654 62.0437 46.5243C62.1885 46.3613 62.365 46.2295 62.5625 46.1368C62.8419 46.0338 63.1406 45.9932 63.4375 46.0181C63.9335 46.0183 64.426 46.1028 64.8937 46.2681C65.4141 46.4781 65.8526 46.8508 66.1437 47.3306C66.1868 47.4019 66.1998 47.4873 66.1799 47.5682C66.16 47.6491 66.1087 47.7187 66.0375 47.7618C65.9662 47.8049 65.8807 47.818 65.7998 47.798C65.719 47.7781 65.6493 47.7269 65.6062 47.6556C65.3878 47.2912 65.0565 47.0081 64.6625 46.8493C64.2609 46.7086 63.8379 46.6388 63.4125 46.6431C63.2016 46.6196 62.9882 46.6431 62.7875 46.7118C62.6655 46.7729 62.557 46.8579 62.4687 46.9618C62.2155 47.1937 62.0537 47.5085 62.0125 47.8493C62.0219 48.1354 62.0968 48.4154 62.2312 48.6681C62.3696 48.9763 62.546 49.2661 62.7562 49.5306C63.1848 50.0261 63.7908 50.3336 64.4437 50.3868C64.7682 50.4065 65.0934 50.3613 65.4003 50.254C65.7072 50.1467 65.9896 49.9794 66.2312 49.7618C66.2907 49.7042 66.3703 49.6719 66.4531 49.6719C66.5359 49.6719 66.6155 49.7042 66.675 49.7618C66.7041 49.7904 66.7272 49.8244 66.743 49.862C66.7588 49.8995 66.7669 49.9398 66.7669 49.9806C66.7669 50.0213 66.7588 50.0617 66.743 50.0992C66.7272 50.1368 66.7041 50.1708 66.675 50.1993C66.1249 50.7053 65.4096 50.994 64.6625 51.0118V51.0118Z" fill="#231F20"/>
<path d="M72.7625 43.5868C72.7625 43.5868 75.3875 45.5618 75.1312 46.1493C74.875 46.7368 73.6312 46.8493 73.6312 46.8493" fill="white"/>
<path d="M73.6313 47.1743C73.5526 47.1746 73.4767 47.1451 73.4187 47.0918C73.3608 47.0385 73.3251 46.9653 73.3188 46.8868C73.3118 46.8049 73.3375 46.7235 73.3901 46.6603C73.4428 46.5971 73.5182 46.5573 73.6 46.5493C74.0313 46.5118 74.725 46.3243 74.85 46.0431C74.85 45.7868 73.775 44.7493 72.5813 43.8493C72.5485 43.8247 72.5208 43.7939 72.4999 43.7586C72.479 43.7232 72.4652 43.6842 72.4594 43.6435C72.4536 43.6029 72.4559 43.5615 72.4661 43.5218C72.4763 43.482 72.4942 43.4447 72.5188 43.4118C72.5434 43.379 72.5743 43.3513 72.6096 43.3304C72.6449 43.3095 72.684 43.2958 72.7246 43.29C72.7652 43.2842 72.8066 43.2864 72.8464 43.2966C72.8861 43.3068 72.9235 43.3247 72.9563 43.3493C74.2438 44.3181 75.7188 45.6118 75.4563 46.2868C75.1938 46.9618 73.8376 47.1556 73.6938 47.1681L73.6313 47.1743Z" fill="#231F20"/>
<path d="M71.1525 43.607C71.3644 43.4773 71.3873 43.1287 71.2035 42.8284C71.0197 42.5281 70.6988 42.3898 70.4868 42.5196C70.2749 42.6493 70.252 42.9979 70.4358 43.2982C70.6196 43.5985 70.9405 43.7368 71.1525 43.607Z" fill="#231F20"/>
<path d="M74.0055 42.6314C74.2175 42.5016 74.2403 42.153 74.0565 41.8527C73.8727 41.5524 73.5518 41.4141 73.3399 41.5439C73.1279 41.6736 73.1051 42.0222 73.2889 42.3225C73.4727 42.6228 73.7935 42.7611 74.0055 42.6314Z" fill="#231F20"/>
<path d="M74.6312 47.9118L72.3374 48.4681C72.3374 48.4681 72.4812 50.1681 73.7874 50.2493C75.0937 50.3306 74.6312 47.9118 74.6312 47.9118Z" fill="white"/>
<path d="M73.8499 50.5681H73.7499C72.4999 50.4868 72.0686 49.1806 72.0124 48.4993C72.006 48.4256 72.0266 48.3521 72.0702 48.2923C72.1139 48.2326 72.1777 48.1907 72.2499 48.1743L74.5374 47.6118C74.6212 47.5944 74.7086 47.61 74.7811 47.6556C74.8174 47.6782 74.8484 47.7083 74.8722 47.7438C74.8959 47.7794 74.9117 47.8196 74.9186 47.8618C74.9186 48.0306 75.2186 49.5431 74.6124 50.2306C74.5168 50.3381 74.3993 50.4238 74.2677 50.482C74.1362 50.5402 73.9937 50.5696 73.8499 50.5681ZM72.6936 48.6931C72.7811 49.1118 73.0499 49.8806 73.8061 49.9431C73.8712 49.9556 73.9385 49.9506 74.0011 49.9287C74.0637 49.9067 74.1193 49.8686 74.1624 49.8181C74.4008 49.3519 74.4735 48.8185 74.3686 48.3056L72.6936 48.6931Z" fill="#231F20"/>
<path d="M73.6874 51.8806C73.6874 51.8806 71.0749 52.5993 69.6624 52.2243C69.6624 52.2243 71.4936 54.9306 74.5436 54.8993L73.6874 51.8806Z" fill="#231F20"/>
<path d="M74.4936 55.2118C71.3686 55.2118 69.4936 52.5118 69.4061 52.3993C69.3714 52.3467 69.3534 52.2848 69.3545 52.2218C69.3556 52.1588 69.3758 52.0976 69.4123 52.0463C69.4487 51.9949 69.4999 51.9558 69.5591 51.934C69.6182 51.9122 69.6825 51.9089 69.7436 51.9243C71.0561 52.2743 73.5811 51.5868 73.6061 51.5806C73.6451 51.5692 73.686 51.5656 73.7263 51.5702C73.7667 51.5747 73.8058 51.5872 73.8412 51.607C73.8767 51.6268 73.9079 51.6534 73.933 51.6853C73.9581 51.7173 73.9766 51.7539 73.9874 51.7931L74.8436 54.8368C74.8563 54.8829 74.8578 54.9313 74.848 54.978C74.8383 55.0247 74.8175 55.0685 74.7874 55.1056C74.7603 55.145 74.7239 55.1771 74.6813 55.199C74.6388 55.2208 74.5914 55.2317 74.5436 55.2306L74.4936 55.2118ZM70.4124 52.6368C71.3706 53.7158 72.6917 54.4053 74.1249 54.5743L73.4999 52.2556C72.4902 52.5084 71.4533 52.6365 70.4124 52.6368V52.6368Z" fill="#231F20"/>
<path d="M71.875 114.018C71.794 114.004 71.7218 113.959 71.6738 113.892C71.6259 113.826 71.6061 113.743 71.6187 113.662C71.6187 113.531 73.7437 100.462 73.6062 98.1056C73.6037 98.0648 73.6093 98.024 73.6228 97.9855C73.6363 97.947 73.6573 97.9115 73.6847 97.8812C73.7121 97.851 73.7452 97.8265 73.7822 97.8092C73.8191 97.7919 73.8592 97.7822 73.9 97.7806C73.9818 97.7772 74.0618 97.806 74.1226 97.861C74.1834 97.9159 74.2201 97.9925 74.225 98.0743C74.3687 100.493 72.35 113.218 72.2375 113.762C72.2222 113.843 72.1758 113.916 72.1082 113.963C72.0405 114.011 71.9569 114.031 71.875 114.018V114.018Z" fill="white"/>
<path d="M60.6624 104.318C60.6139 104.318 60.5662 104.306 60.5229 104.284C60.4796 104.263 60.4418 104.232 60.4124 104.193C60.3626 104.127 60.3413 104.043 60.353 103.961C60.3647 103.879 60.4086 103.805 60.4749 103.756C61.3924 103.017 62.3757 102.364 63.4124 101.806C63.4493 101.789 63.4891 101.78 63.5296 101.779C63.57 101.778 63.6103 101.784 63.6481 101.799C63.6858 101.814 63.7204 101.835 63.7496 101.863C63.7789 101.891 63.8024 101.925 63.8186 101.962C63.8524 102.037 63.855 102.123 63.8257 102.2C63.7964 102.278 63.7377 102.34 63.6624 102.374C62.6741 102.92 61.7333 103.547 60.8499 104.249C60.7968 104.293 60.7308 104.317 60.6624 104.318Z" fill="white"/>
<path d="M83.475 103.362C83.4182 103.36 83.3626 103.345 83.3125 103.318L79.4812 101.018C79.4115 100.975 79.3614 100.906 79.3418 100.827C79.3222 100.747 79.3347 100.663 79.3765 100.593C79.4183 100.522 79.4861 100.471 79.5653 100.45C79.6445 100.429 79.7288 100.44 79.8 100.481L83.6312 102.781C83.6899 102.815 83.7356 102.868 83.7613 102.932C83.787 102.995 83.7913 103.065 83.7736 103.13C83.7559 103.196 83.7171 103.255 83.6632 103.296C83.6093 103.338 83.5432 103.361 83.475 103.362V103.362Z" fill="white"/>
<path d="M76.7811 35.6243L73.6561 36.2868C72.8047 34.5448 71.3456 33.1743 69.5537 32.4337C67.7618 31.693 65.7609 31.6333 63.928 32.2658C62.0951 32.8982 60.5568 34.1792 59.603 35.8674C58.6492 37.5555 58.3458 39.5342 58.7499 41.4306L69.0499 39.2493L77.1749 37.5306C77.4302 37.4767 77.6536 37.3236 77.796 37.105C77.9384 36.8864 77.9881 36.6202 77.9343 36.365C77.8804 36.1097 77.7273 35.8863 77.5087 35.7439C77.2901 35.6014 77.0239 35.5517 76.7686 35.6056L76.7811 35.6243Z" fill="white"/>
<path d="M58.7499 41.7431C58.6881 41.7428 58.6275 41.7255 58.5749 41.6931C58.5407 41.6703 58.5115 41.6408 58.4889 41.6064C58.4664 41.5721 58.451 41.5335 58.4436 41.4931C58.0295 39.5432 58.3347 37.5094 59.303 35.767C60.2713 34.0247 61.8373 32.6915 63.7119 32.0135C65.5864 31.3356 67.6429 31.3588 69.5017 32.0788C71.3605 32.7987 72.896 34.1669 73.8249 35.9306L76.7124 35.3056C77.0485 35.2348 77.3991 35.3 77.6874 35.4868C77.8305 35.5793 77.9539 35.6991 78.0506 35.8395C78.1473 35.9798 78.2153 36.1378 78.2507 36.3045C78.2861 36.4712 78.2883 36.6432 78.257 36.8107C78.2258 36.9782 78.1617 37.1379 78.0686 37.2806C77.9778 37.4253 77.8583 37.5499 77.7175 37.6466C77.5767 37.7434 77.4175 37.8103 77.2499 37.8431L69.1249 39.5618H69.0186L58.8124 41.7118L58.7499 41.7431ZM66.5311 32.1493C65.4171 32.1477 64.3163 32.3897 63.3057 32.8585C62.2952 33.3272 61.3994 34.0114 60.6813 34.863C59.9631 35.7145 59.4399 36.7129 59.1483 37.788C58.8568 38.8632 58.804 39.9891 58.9936 41.0868L68.9936 38.9743H69.1061L77.1249 37.2743C77.2116 37.2573 77.294 37.223 77.3672 37.1736C77.4405 37.1242 77.5031 37.0607 77.5515 36.9867C77.5998 36.9128 77.6329 36.8299 77.6487 36.743C77.6645 36.656 77.6628 36.5668 77.6436 36.4806C77.6075 36.3066 77.5042 36.1539 77.3561 36.0556C77.2059 35.9599 77.0244 35.9263 76.8499 35.9618V35.9618L73.7249 36.6243C73.657 36.6383 73.5863 36.6293 73.5241 36.5988C73.4619 36.5682 73.4116 36.5178 73.3811 36.4556C72.7578 35.1679 71.785 34.0813 70.5738 33.3199C69.3626 32.5585 67.9618 32.1529 66.5311 32.1493V32.1493Z" fill="#231F20"/>
<path d="M73.6562 36.2868C73.3687 36.1993 62.4062 38.5306 62.4062 38.5306Z" fill="white"/>
<path d="M62.4124 38.8431C62.3407 38.842 62.2714 38.8167 62.2159 38.7713C62.1603 38.7259 62.1216 38.6631 62.1062 38.5931C62.097 38.5533 62.0959 38.512 62.103 38.4717C62.11 38.4315 62.125 38.393 62.1472 38.3586C62.1693 38.3243 62.1981 38.2947 62.2318 38.2716C62.2656 38.2486 62.3036 38.2325 62.3437 38.2243C73.3874 35.8806 73.6437 35.9618 73.7437 35.9868C73.8223 36.0114 73.8884 36.0655 73.928 36.1378C73.9676 36.21 73.9777 36.2948 73.9562 36.3743C73.9338 36.4446 73.8882 36.5051 73.8268 36.546C73.7655 36.5868 73.6921 36.6057 73.6187 36.5993C73.0687 36.5993 66.6749 37.9431 62.4749 38.8306L62.4124 38.8431Z" fill="#231F20"/>
<path d="M67.625 35.9681C67.1133 34.3484 65.993 32.9906 64.5 32.1806Z" fill="white"/>
<path d="M67.625 36.2806C67.5577 36.2831 67.4916 36.2629 67.4371 36.2232C67.3827 36.1835 67.3432 36.1267 67.3251 36.0618C66.8447 34.5221 65.7877 33.2277 64.3751 32.4493C64.3391 32.4303 64.3073 32.4043 64.2814 32.3729C64.2556 32.3414 64.2364 32.3052 64.2247 32.2662C64.2131 32.2272 64.2093 32.1863 64.2137 32.1458C64.218 32.1054 64.2304 32.0662 64.2501 32.0306C64.2684 31.994 64.294 31.9615 64.3254 31.9352C64.3568 31.9089 64.3932 31.8893 64.4324 31.8776C64.4716 31.8659 64.5128 31.8623 64.5535 31.8671C64.5942 31.8719 64.6334 31.885 64.6688 31.9056C66.2315 32.7547 67.4001 34.1813 67.9251 35.8806C67.9375 35.9195 67.9421 35.9606 67.9384 36.0014C67.9347 36.0421 67.923 36.0817 67.9037 36.1179C67.8845 36.154 67.8582 36.1859 67.8265 36.2117C67.7947 36.2375 67.7581 36.2567 67.7188 36.2681C67.6888 36.2788 67.6568 36.2831 67.625 36.2806V36.2806Z" fill="#231F20"/>
<path d="M69.375 35.6056C68.8185 34.1604 67.9174 32.8731 66.75 31.8556Z" fill="white"/>
<path d="M69.3751 35.9181C69.3122 35.919 69.2507 35.9003 69.1991 35.8644C69.1475 35.8285 69.1085 35.7773 69.0876 35.7181C68.5463 34.3159 67.6735 33.0657 66.5438 32.0743C66.5071 32.0496 66.476 32.0174 66.4526 31.9798C66.4292 31.9422 66.4141 31.9001 66.4083 31.8562C66.4024 31.8123 66.4059 31.7677 66.4186 31.7253C66.4313 31.6829 66.4529 31.6437 66.4819 31.6102C66.5109 31.5768 66.5466 31.5499 66.5868 31.5313C66.627 31.5127 66.6707 31.5028 66.7149 31.5024C66.7592 31.502 66.803 31.5109 66.8436 31.5287C66.8841 31.5465 66.9204 31.5727 66.9501 31.6056C68.1576 32.6623 69.0906 33.9963 69.6688 35.4931C69.6839 35.5316 69.6911 35.5728 69.6901 35.6142C69.6892 35.6555 69.68 35.6963 69.6631 35.7341C69.6463 35.7719 69.6221 35.8059 69.5919 35.8343C69.5618 35.8627 69.5263 35.8848 69.4876 35.8993L69.3751 35.9181Z" fill="#231F20"/>
<path d="M62.5999 97.0368C62.5185 97.0353 62.4409 97.0027 62.3828 96.9458C62.3247 96.8889 62.2905 96.8119 62.2874 96.7306C62.2874 96.5181 61.7311 75.4431 61.4624 69.9993C61.2949 66.6864 60.9276 63.3867 60.3624 60.1181C60.3478 60.0369 60.3658 59.9532 60.4127 59.8853C60.4595 59.8174 60.5313 59.7708 60.6124 59.7556C60.6943 59.7408 60.7788 59.7587 60.8477 59.8055C60.9166 59.8522 60.9645 59.924 60.9811 60.0056C61.5468 63.3016 61.9162 66.6283 62.0874 69.9681C62.3561 75.4243 62.9061 96.4993 62.9124 96.7118C62.914 96.7534 62.9074 96.7949 62.8928 96.8338C62.8783 96.8728 62.8561 96.9084 62.8275 96.9387C62.799 96.969 62.7647 96.9932 62.7267 97.0101C62.6887 97.0269 62.6477 97.036 62.6061 97.0368H62.5999Z" fill="#231F20"/>
<path d="M54.0562 89.3181C53.9733 89.3231 53.8918 89.2949 53.8297 89.2398C53.7676 89.1847 53.7299 89.1072 53.7249 89.0243C53.72 88.9415 53.7481 88.86 53.8032 88.7979C53.8583 88.7357 53.9358 88.6981 54.0187 88.6931C54.1187 88.6931 63.9187 87.5806 66.8624 85.9743C66.8983 85.9537 66.938 85.9405 66.9791 85.9356C67.0203 85.9307 67.0619 85.9342 67.1017 85.9459C67.1414 85.9576 67.1783 85.9772 67.2103 86.0036C67.2422 86.03 67.2684 86.0625 67.2874 86.0993C67.3258 86.1726 67.3341 86.2578 67.3108 86.3371C67.2875 86.4164 67.2343 86.4835 67.1624 86.5243C64.1124 88.1868 54.4999 89.2681 54.0874 89.3118L54.0562 89.3181Z" fill="#231F20"/>
<path d="M84.0999 92.8993C84.0251 92.8986 83.9531 92.871 83.8969 92.8217C83.8407 92.7724 83.8041 92.7046 83.7936 92.6306C82.1561 81.1931 77.8436 57.0056 77.7999 56.7743C77.7853 56.6932 77.8033 56.6095 77.8502 56.5416C77.897 56.4737 77.9688 56.427 78.0499 56.4118C78.1317 56.399 78.2154 56.4187 78.2831 56.4665C78.3507 56.5143 78.3971 56.5866 78.4124 56.6681C78.4561 56.9118 82.7874 81.0931 84.4124 92.5431C84.4215 92.6256 84.3988 92.7084 84.3488 92.7746C84.2988 92.8409 84.2254 92.8855 84.1436 92.8993H84.0999Z" fill="#231F20"/>
<path d="M79.9626 86.0118C79.8904 86.0113 79.8207 85.9853 79.7658 85.9384C79.7109 85.8916 79.6744 85.8268 79.6626 85.7556C79.6544 85.7154 79.6541 85.6739 79.6619 85.6336C79.6698 85.5933 79.6854 85.5549 79.7081 85.5207C79.7307 85.4865 79.7599 85.457 79.7939 85.434C79.8279 85.4111 79.8661 85.395 79.9063 85.3868L88.1751 83.7368C88.258 83.7211 88.3437 83.7389 88.4134 83.7864C88.4832 83.8338 88.5312 83.9071 88.547 83.9899C88.5627 84.0728 88.5449 84.1586 88.4974 84.2283C88.4499 84.298 88.3767 84.3461 88.2938 84.3618L80.0001 86.0056L79.9626 86.0118Z" fill="#231F20"/>
<path d="M54.3 62.8181C54.3 62.8181 37.55 87.4181 45.7188 94.2431C53.2188 100.493 69.7688 90.1056 69.7688 90.1056L68.75 81.3181C68.75 81.3181 54.1813 88.2368 53.9688 84.9368C53.6563 80.0806 55.9688 78.2556 55.9688 78.2556L54.3 62.8181Z" fill="#231F20"/>
<path d="M68.125 71.9743L69.5687 101.974C69.5687 101.974 93.7063 109.356 101.35 97.9868L103.475 66.8306C103.475 66.8306 81.95 75.2806 68.125 71.9743Z" fill="white"/>
<path d="M85.2938 104.618C84.4063 104.618 83.4938 104.587 82.55 104.531C78.1075 104.23 73.7085 103.465 69.425 102.249C69.3638 102.231 69.3098 102.194 69.2705 102.144C69.2313 102.093 69.2089 102.032 69.2063 101.968L67.7625 71.9681C67.7596 71.9195 67.7682 71.8709 67.7878 71.8263C67.8074 71.7818 67.8373 71.7425 67.875 71.7118C67.9116 71.6807 67.955 71.6587 68.0018 71.6478C68.0486 71.637 68.0973 71.6375 68.1438 71.6493C81.7375 74.8931 103.094 66.5743 103.306 66.4931C103.355 66.4728 103.409 66.4656 103.461 66.4722C103.514 66.4788 103.564 66.4989 103.606 66.5306C103.649 66.5618 103.684 66.6033 103.707 66.6514C103.73 66.6994 103.74 66.7524 103.738 66.8056L101.638 97.9618C101.637 98.0178 101.62 98.0723 101.588 98.1181C98.75 102.399 93.125 104.618 85.2938 104.618ZM69.8438 101.712C72.2188 102.393 93.9188 108.256 101.019 97.8556L103.125 67.2743C99.1783 68.7272 95.1507 69.95 91.0625 70.9368C84.6688 72.4681 75.6063 73.9493 68.4563 72.3743L69.8438 101.712Z" fill="#231F20"/>
<path d="M66.1062 84.3118C65.993 83.6516 66.0423 82.9737 66.2499 82.3368C66.4595 81.9021 66.7453 81.5084 67.0937 81.1743C67.6795 80.5582 68.3059 79.9819 68.9687 79.4493C69.2415 79.1745 69.5702 78.9614 69.9325 78.8244C70.2948 78.6875 70.6822 78.6299 71.0687 78.6556C70.8252 79.7631 70.1765 80.7395 69.2499 81.3931C69.5582 81.042 69.9588 80.7843 70.4062 80.6493C70.7124 80.5556 71.1249 80.5743 71.2562 80.8618C71.2824 80.9579 71.2894 81.0581 71.2765 81.1569C71.2636 81.2556 71.2312 81.3508 71.1812 81.4368C70.8277 82.2051 70.2833 82.87 69.5999 83.3681L70.3374 82.9181C70.5223 82.7816 70.7362 82.6896 70.9624 82.6493C71.0746 82.6307 71.1898 82.6486 71.291 82.7004C71.3923 82.7521 71.4743 82.835 71.5249 82.9368C71.5709 83.1018 71.5531 83.2781 71.4749 83.4306C71.2865 83.8796 70.9689 84.2625 70.5624 84.5306C70.8289 84.3141 71.1443 84.166 71.4812 84.0993C71.6516 84.0712 71.8265 84.1049 71.9743 84.1943C72.1221 84.2836 72.2331 84.4228 72.2874 84.5868C72.309 84.7734 72.2695 84.962 72.1749 85.1243C71.6312 86.1743 70.2999 86.2931 69.6749 87.1743C69.2062 87.8368 69.4249 88.5431 68.4624 88.9431C66.1187 89.9306 66.2499 85.6868 66.1062 84.3118Z" fill="white"/>
<path d="M67.8437 89.4056C67.5842 89.4093 67.3295 89.3353 67.1124 89.1931C66.0437 88.5243 65.9187 86.3993 65.8624 84.9931C65.8624 84.7431 65.8624 84.5181 65.8187 84.3681C65.6998 83.6541 65.7599 82.9218 65.9937 82.2368C66.214 81.7666 66.5215 81.3424 66.8999 80.9868C67.5027 80.3559 68.1479 79.767 68.8312 79.2243C69.4562 78.7306 70.2874 78.1868 71.1937 78.3743C71.2738 78.3929 71.3435 78.4423 71.3874 78.5118C71.4111 78.546 71.4273 78.5849 71.4348 78.6259C71.4424 78.6668 71.4411 78.7089 71.4312 78.7493C71.3159 79.3027 71.1043 79.8316 70.8062 80.3118V80.3118C70.9692 80.2983 71.1326 80.334 71.2752 80.4142C71.4178 80.4944 71.533 80.6155 71.6062 80.7618C71.6543 80.8976 71.6725 81.0422 71.6595 81.1856C71.6466 81.3291 71.6028 81.4681 71.5312 81.5931C71.4072 81.8599 71.2631 82.1169 71.0999 82.3618C71.2623 82.3561 71.4227 82.3988 71.5607 82.4845C71.6987 82.5702 71.8081 82.695 71.8749 82.8431C71.9486 83.0873 71.9286 83.3503 71.8187 83.5806L71.7062 83.8118C71.922 83.8164 72.1306 83.8907 72.3007 84.0237C72.4708 84.1566 72.5933 84.341 72.6499 84.5493C72.69 84.8064 72.6391 85.0694 72.5062 85.2931C72.1621 85.8573 71.6571 86.3056 71.0562 86.5806C70.6555 86.7567 70.2958 87.0142 69.9999 87.3368C69.8746 87.5295 69.7798 87.7403 69.7187 87.9618C69.6571 88.242 69.5273 88.5027 69.3409 88.7207C69.1545 88.9388 68.9171 89.1075 68.6499 89.2118C68.3968 89.3297 68.1227 89.3956 67.8437 89.4056ZM70.7062 78.9431C70.1404 79.0425 69.6152 79.3029 69.1937 79.6931C68.5306 80.2162 67.9041 80.7842 67.3187 81.3931C66.9965 81.6974 66.7319 82.0573 66.5374 82.4556C66.3507 83.0474 66.3078 83.6752 66.4124 84.2868V84.2868C66.4124 84.4681 66.4124 84.6993 66.4562 84.9618C66.5187 86.0806 66.6374 88.1618 67.4374 88.6681C67.5826 88.7458 67.7447 88.7864 67.9093 88.7864C68.0739 88.7864 68.236 88.7458 68.3812 88.6681C68.5658 88.5968 68.7286 88.4786 68.8536 88.3252C68.9785 88.1717 69.0613 87.9883 69.0937 87.7931C69.1741 87.5127 69.2986 87.2469 69.4624 87.0056C69.8011 86.5898 70.2281 86.2546 70.7124 86.0243C71.2052 85.8062 71.6226 85.4474 71.9124 84.9931C71.9757 84.8946 72.0063 84.7787 71.9999 84.6618C71.9999 84.4993 71.7249 84.4056 71.5374 84.4181C71.2799 84.4735 71.0384 84.5868 70.8312 84.7493L70.7499 84.8056C70.681 84.8508 70.5971 84.867 70.5163 84.8506C70.4355 84.8342 70.3645 84.7866 70.3187 84.7181C70.2744 84.6495 70.2582 84.5665 70.2733 84.4862C70.2884 84.406 70.3337 84.3346 70.3999 84.2868L70.4749 84.2368C70.7958 84.005 71.0466 83.6893 71.1999 83.3243C71.2687 83.1681 71.2687 83.0931 71.2499 83.0618C71.2241 83.0263 71.1885 82.999 71.1474 82.9835C71.1063 82.9679 71.0616 82.9647 71.0187 82.9743C70.8431 83.0137 70.6773 83.0881 70.5312 83.1931L69.7937 83.6493C69.7251 83.6861 69.6452 83.696 69.5697 83.677C69.4942 83.658 69.4285 83.6115 69.3855 83.5466C69.3424 83.4817 69.3252 83.403 69.3371 83.3261C69.3491 83.2491 69.3893 83.1794 69.4499 83.1306C70.0886 82.6626 70.5965 82.0385 70.9249 81.3181C70.9999 81.1618 71.0249 81.0556 70.9999 81.0056C70.9749 80.9556 70.7374 80.8993 70.5312 80.9618C70.3651 81.0111 70.2056 81.0804 70.0562 81.1681C69.8644 81.3526 69.6551 81.518 69.4312 81.6618C69.3695 81.7076 69.2928 81.7285 69.2164 81.7204C69.14 81.7123 69.0694 81.6758 69.0187 81.6181C68.9686 81.5611 68.9409 81.4877 68.9409 81.4118C68.9409 81.3359 68.9686 81.2626 69.0187 81.2056C69.2 80.999 69.4106 80.82 69.6437 80.6743C70.1299 80.1895 70.494 79.5961 70.7062 78.9431V78.9431Z" fill="#231F20"/>
<path d="M104.744 80.0993C104.656 78.8493 104.262 77.4181 103.15 76.7806C102.808 76.5878 102.423 76.4829 102.03 76.4753C101.638 76.4677 101.249 76.5575 100.9 76.7368C100.835 76.7605 100.777 76.7987 100.729 76.8485C100.681 76.8984 100.646 76.9585 100.625 77.0243C100.581 77.2181 100.769 77.3868 100.944 77.4931C101.308 77.7181 101.704 77.8866 102.119 77.9931C101.783 77.9623 101.445 78.0365 101.153 78.2056C100.861 78.3746 100.628 78.6301 100.487 78.9368C100.899 79.4143 101.474 79.7217 102.1 79.7993C101.891 79.7459 101.671 79.7553 101.468 79.8265C101.264 79.8977 101.086 80.0274 100.956 80.1993C100.55 80.7743 100.875 80.9306 101.325 81.2743C101.128 81.2365 100.924 81.2561 100.737 81.3306C100.645 81.3721 100.567 81.4398 100.512 81.5253C100.458 81.6109 100.43 81.7105 100.431 81.8118C100.469 82.1806 100.931 82.2931 101.25 82.4806C101.508 82.6338 101.705 82.8726 101.806 83.1556C101.843 83.3145 101.895 83.4694 101.962 83.6181C102.587 84.7181 104.006 83.7993 104.344 83.0306C104.704 82.0982 104.841 81.0942 104.744 80.0993V80.0993Z" fill="white"/>
<path d="M102.787 84.4368C102.562 84.4351 102.342 84.3726 102.149 84.256C101.957 84.1394 101.799 83.973 101.694 83.7743C101.629 83.6543 101.58 83.526 101.55 83.3931L101.512 83.2556C101.437 83.0427 101.289 82.8633 101.094 82.7493L100.875 82.6431C100.575 82.4993 100.162 82.2993 100.119 81.8368C100.112 81.6727 100.154 81.5103 100.24 81.3701C100.326 81.23 100.451 81.1184 100.6 81.0493C100.425 80.8056 100.369 80.4868 100.706 80.0181C100.779 79.9113 100.867 79.8165 100.969 79.7368C100.696 79.5703 100.453 79.359 100.25 79.1118C100.21 79.0674 100.184 79.0125 100.176 78.9536C100.167 78.8948 100.175 78.8347 100.2 78.7806C100.372 78.394 100.669 78.0768 101.044 77.8806L100.775 77.7306C100.287 77.4306 100.281 77.1056 100.319 76.9243C100.351 76.8143 100.407 76.7127 100.483 76.6263C100.558 76.54 100.651 76.4711 100.756 76.4243C101.153 76.2239 101.593 76.1242 102.038 76.134C102.483 76.1438 102.918 76.2628 103.306 76.4806C104.594 77.2181 104.969 78.8306 105.056 80.0493C105.155 81.0955 105.01 82.1503 104.631 83.1306C104.462 83.4682 104.212 83.7588 103.903 83.9768C103.595 84.1948 103.237 84.3335 102.862 84.3806L102.787 84.4368ZM101.106 81.5681C101.025 81.5671 100.944 81.5819 100.869 81.6118C100.8 81.6493 100.737 81.7243 100.744 81.7806C100.75 81.8368 100.919 81.9681 101.15 82.0806L101.406 82.2056C101.73 82.3963 101.975 82.6951 102.1 83.0493C102.1 83.1118 102.137 83.1681 102.15 83.2306C102.17 83.3099 102.197 83.3872 102.231 83.4618C102.287 83.5772 102.377 83.6726 102.488 83.7352C102.6 83.7978 102.729 83.8246 102.856 83.8118C103.121 83.7701 103.373 83.6663 103.59 83.5088C103.807 83.3513 103.984 83.1446 104.106 82.9056C104.44 82.0189 104.569 81.0678 104.481 80.1243C104.4 79.0556 104.087 77.6556 103.037 77.0493C102.74 76.8837 102.407 76.7937 102.067 76.7872C101.727 76.7806 101.391 76.8578 101.087 77.0118C101.042 77.0291 101.001 77.0569 100.969 77.0931C101.024 77.1401 101.083 77.1839 101.144 77.2243C101.485 77.4351 101.855 77.5932 102.244 77.6931C102.32 77.7124 102.385 77.7601 102.427 77.8264C102.469 77.8926 102.484 77.9724 102.469 78.0493C102.455 78.1266 102.412 78.1959 102.35 78.2434C102.287 78.2909 102.209 78.3131 102.131 78.3056C101.889 78.2763 101.644 78.3152 101.423 78.4179C101.202 78.5206 101.015 78.683 100.881 78.8868C101.221 79.2226 101.659 79.4415 102.131 79.5118C102.214 79.5228 102.288 79.5655 102.34 79.6309C102.391 79.6963 102.415 79.7791 102.406 79.8618C102.394 79.9436 102.351 80.0175 102.286 80.0686C102.221 80.1197 102.138 80.1441 102.056 80.1368V80.1368C101.625 80.0806 101.387 80.1368 101.212 80.3993C101.037 80.6618 101.019 80.6806 101.4 80.9618L101.519 81.0556C101.573 81.0975 101.613 81.1567 101.63 81.2236C101.647 81.2906 101.641 81.3613 101.612 81.4243C101.585 81.4877 101.538 81.5404 101.479 81.5743C101.419 81.6082 101.349 81.6214 101.281 81.6118L101.106 81.5681Z" fill="#231F20"/>
<path d="M56.6748 69.3306C56.607 69.3316 56.5407 69.3101 56.4864 69.2694C56.4321 69.2286 56.3928 69.171 56.3748 69.1056C56.3533 69.026 56.3634 68.9413 56.403 68.869C56.4427 68.7968 56.5087 68.7427 56.5873 68.7181L66.7186 65.8243C66.8015 65.802 66.8899 65.8134 66.9643 65.8562C67.0387 65.899 67.0931 65.9696 67.1155 66.0525C67.1378 66.1353 67.1264 66.2237 67.0836 66.2981C67.0408 66.3726 66.9702 66.427 66.8873 66.4493L56.7623 69.3431C56.7326 69.3447 56.7029 69.3405 56.6748 69.3306V69.3306Z" fill="#231F20"/>
<path d="M77.1375 63.9556C77.0546 63.9556 76.9751 63.9227 76.9165 63.864C76.8579 63.8054 76.825 63.726 76.825 63.6431C76.825 63.5602 76.8579 63.4807 76.9165 63.4221C76.9751 63.3635 77.0546 63.3306 77.1375 63.3306L84.375 62.5056C84.4578 62.4965 84.5409 62.5206 84.606 62.5728C84.671 62.625 84.7127 62.7008 84.7218 62.7837C84.7309 62.8666 84.7068 62.9497 84.6546 63.0147C84.6024 63.0798 84.5266 63.1215 84.4437 63.1306L77.2062 63.9556H77.1375Z" fill="#231F20"/>
<path d="M188.537 48.7993H129.256V91.9993H188.537V48.7993Z" fill="white"/>
<path d="M188.537 92.3368H129.256C129.173 92.3368 129.094 92.3039 129.035 92.2453C128.977 92.1867 128.944 92.1072 128.944 92.0243V48.7993C128.944 48.7164 128.977 48.637 129.035 48.5784C129.094 48.5197 129.173 48.4868 129.256 48.4868H188.537C188.62 48.4868 188.7 48.5197 188.758 48.5784C188.817 48.637 188.85 48.7164 188.85 48.7993V91.9993C188.853 92.0424 188.848 92.0858 188.834 92.1266C188.819 92.1674 188.797 92.2049 188.768 92.2366C188.738 92.2684 188.703 92.2936 188.663 92.3109C188.623 92.3281 188.581 92.337 188.537 92.3368ZM129.569 91.7118H188.225V49.1118H129.569V91.7118Z" fill="#AF2C2B"/>
<path d="M205.706 128.562H152.938V144.399H205.706V128.562Z" fill="white"/>
<path d="M205.706 144.712H152.938C152.855 144.712 152.775 144.679 152.717 144.62C152.658 144.562 152.625 144.482 152.625 144.399V128.587C152.625 128.504 152.658 128.424 152.717 128.366C152.775 128.307 152.855 128.274 152.938 128.274H205.706C205.789 128.274 205.869 128.307 205.927 128.366C205.986 128.424 206.019 128.504 206.019 128.587V144.399C206.019 144.482 205.986 144.562 205.927 144.62C205.869 144.679 205.789 144.712 205.706 144.712ZM153.25 144.087H205.394V128.874H153.25V144.087Z" fill="#231F20"/>
<path d="M172 144.399H163.912L153.912 128.562H162.006L172 144.399Z" fill="#231F20"/>
<path d="M172.006 144.712H163.912C163.859 144.712 163.807 144.698 163.76 144.673C163.713 144.648 163.673 144.612 163.644 144.568L153.644 128.731C153.614 128.683 153.599 128.627 153.599 128.571C153.599 128.515 153.614 128.46 153.644 128.412C153.671 128.363 153.711 128.322 153.759 128.294C153.808 128.265 153.863 128.25 153.919 128.249H162.012C162.065 128.249 162.116 128.263 162.162 128.288C162.208 128.313 162.247 128.349 162.275 128.393L172.275 144.237C172.304 144.284 172.319 144.338 172.32 144.393C172.322 144.448 172.308 144.502 172.281 144.551C172.255 144.599 172.216 144.639 172.169 144.667C172.121 144.696 172.067 144.711 172.012 144.712H172.006ZM164.081 144.087H171.437L161.831 128.874H154.475L164.081 144.087Z" fill="#231F20"/>
<path d="M188.369 144.399H180.275L170.275 128.562H178.369L188.369 144.399Z" fill="#231F20"/>
<path d="M188.369 144.712H180.275C180.223 144.712 180.171 144.699 180.125 144.673C180.08 144.648 180.041 144.612 180.013 144.568L170.013 128.731C169.983 128.683 169.968 128.627 169.968 128.571C169.968 128.515 169.983 128.46 170.013 128.412C170.038 128.363 170.076 128.321 170.124 128.293C170.171 128.264 170.226 128.249 170.281 128.249H178.375C178.427 128.249 178.479 128.263 178.525 128.288C178.57 128.313 178.609 128.349 178.638 128.393L188.638 144.237C188.665 144.284 188.679 144.338 188.679 144.393C188.679 144.448 188.665 144.502 188.638 144.549C188.611 144.597 188.572 144.638 188.525 144.666C188.477 144.694 188.424 144.71 188.369 144.712ZM180.45 144.087H187.806L178.2 128.874H170.844L180.45 144.087Z" fill="#231F20"/>
<path d="M204.731 144.399H196.644L186.644 128.562H194.738L204.731 144.399Z" fill="#231F20"/>
<path d="M204.737 144.712H196.644C196.591 144.712 196.54 144.699 196.494 144.673C196.448 144.648 196.409 144.612 196.381 144.568L186.381 128.731C186.352 128.683 186.336 128.627 186.336 128.571C186.336 128.515 186.352 128.46 186.381 128.412C186.409 128.363 186.449 128.322 186.497 128.294C186.545 128.265 186.6 128.25 186.656 128.249H194.75C194.802 128.249 194.854 128.263 194.899 128.288C194.945 128.313 194.984 128.349 195.012 128.393L205 144.212C205.029 144.259 205.044 144.313 205.045 144.368C205.047 144.423 205.033 144.477 205.007 144.526C204.98 144.574 204.941 144.614 204.894 144.642C204.846 144.671 204.792 144.686 204.737 144.687V144.712ZM196.812 144.087H204.169L194.562 128.874H187.206L196.812 144.087Z" fill="#231F20"/>
<path d="M127.294 140.549H122.369C122.286 140.549 122.206 140.516 122.148 140.458C122.089 140.399 122.056 140.32 122.056 140.237C122.056 140.154 122.089 140.074 122.148 140.016C122.206 139.957 122.286 139.924 122.369 139.924H127.294C127.377 139.924 127.456 139.957 127.515 140.016C127.573 140.074 127.606 140.154 127.606 140.237C127.606 140.32 127.573 140.399 127.515 140.458C127.456 140.516 127.377 140.549 127.294 140.549Z" fill="#AF2C2B"/>
<path d="M105.119 146.881H100.894C100.811 146.881 100.731 146.848 100.673 146.789C100.614 146.73 100.581 146.651 100.581 146.568C100.583 146.486 100.616 146.407 100.675 146.349C100.733 146.291 100.811 146.257 100.894 146.256H105.119C105.202 146.256 105.281 146.289 105.34 146.347C105.398 146.406 105.431 146.485 105.431 146.568C105.431 146.651 105.398 146.73 105.34 146.789C105.281 146.848 105.202 146.881 105.119 146.881Z" fill="#AF2C2B"/>
<path d="M38.5999 132.456H34.0249C33.9425 132.454 33.864 132.421 33.8057 132.362C33.7474 132.304 33.714 132.225 33.7124 132.143C33.7124 132.06 33.7453 131.981 33.8039 131.922C33.8625 131.863 33.942 131.831 34.0249 131.831H38.5999C38.6828 131.831 38.7623 131.863 38.8209 131.922C38.8795 131.981 38.9124 132.06 38.9124 132.143C38.9124 132.226 38.8795 132.305 38.8209 132.364C38.7623 132.423 38.6828 132.456 38.5999 132.456Z" fill="#AF2C2B"/>
<path d="M205.425 156.712H186.775C186.692 156.712 186.613 156.679 186.554 156.62C186.495 156.562 186.462 156.482 186.462 156.399C186.462 156.316 186.495 156.237 186.554 156.178C186.613 156.12 186.692 156.087 186.775 156.087H205.425C205.508 156.087 205.587 156.12 205.646 156.178C205.704 156.237 205.737 156.316 205.737 156.399C205.737 156.482 205.704 156.562 205.646 156.62C205.587 156.679 205.508 156.712 205.425 156.712V156.712Z" fill="#231F20"/>
<path d="M167.3 156.712H155.212C155.13 156.712 155.05 156.679 154.991 156.62C154.933 156.562 154.9 156.482 154.9 156.399C154.9 156.316 154.933 156.237 154.991 156.178C155.05 156.12 155.13 156.087 155.212 156.087H167.3C167.383 156.087 167.462 156.12 167.521 156.178C167.579 156.237 167.612 156.316 167.612 156.399C167.612 156.482 167.579 156.562 167.521 156.62C167.462 156.679 167.383 156.712 167.3 156.712Z" fill="#231F20"/>
<path d="M111.456 129.637H108.287C108.204 129.637 108.125 129.604 108.066 129.545C108.008 129.487 107.975 129.407 107.975 129.324C107.975 129.241 108.008 129.162 108.066 129.103C108.125 129.045 108.204 129.012 108.287 129.012H111.456C111.539 129.012 111.618 129.045 111.677 129.103C111.736 129.162 111.769 129.241 111.769 129.324C111.769 129.407 111.736 129.487 111.677 129.545C111.618 129.604 111.539 129.637 111.456 129.637Z" fill="#AF2C2B"/>
<path d="M221.969 139.493H217.037C216.955 139.491 216.876 139.458 216.818 139.4C216.76 139.342 216.726 139.263 216.725 139.181C216.725 139.098 216.758 139.018 216.816 138.96C216.875 138.901 216.954 138.868 217.037 138.868H221.969C222.051 138.868 222.131 138.901 222.19 138.96C222.248 139.018 222.281 139.098 222.281 139.181C222.279 139.263 222.246 139.342 222.188 139.4C222.13 139.458 222.051 139.491 221.969 139.493V139.493Z" fill="#AF2C2B"/>
<path d="M144.437 65.1181H138.656C138.573 65.1181 138.494 65.0852 138.435 65.0266C138.377 64.9679 138.344 64.8885 138.344 64.8056V57.7243C138.344 57.6415 138.377 57.562 138.435 57.5034C138.494 57.4448 138.573 57.4118 138.656 57.4118H144.437C144.52 57.4118 144.6 57.4448 144.658 57.5034C144.717 57.562 144.75 57.6415 144.75 57.7243V64.8368C144.742 64.9142 144.706 64.9859 144.648 65.0379C144.59 65.0899 144.515 65.1185 144.437 65.1181ZM138.969 64.4931H144.125V58.0368H138.969V64.4931Z" fill="#AF2C2B"/>
<path d="M156.669 65.1181H150.881C150.799 65.1165 150.72 65.083 150.662 65.0248C150.604 64.9665 150.57 64.888 150.569 64.8056V57.7243C150.569 57.6415 150.602 57.562 150.66 57.5034C150.719 57.4448 150.798 57.4118 150.881 57.4118H156.669C156.751 57.4118 156.831 57.4448 156.89 57.5034C156.948 57.562 156.981 57.6415 156.981 57.7243V64.8368C156.972 64.9136 156.935 64.9845 156.878 65.0363C156.82 65.088 156.746 65.1171 156.669 65.1181V65.1181ZM151.194 64.4931H156.356V58.0368H151.194V64.4931Z" fill="#AF2C2B"/>
<path d="M168.894 65.1181H163.125C163.042 65.1181 162.963 65.0852 162.904 65.0266C162.845 64.9679 162.812 64.8885 162.812 64.8056V57.7243C162.812 57.6415 162.845 57.562 162.904 57.5034C162.963 57.4448 163.042 57.4118 163.125 57.4118H168.906C168.989 57.4118 169.069 57.4448 169.127 57.5034C169.186 57.562 169.219 57.6415 169.219 57.7243V64.8368C169.211 64.9164 169.173 64.9899 169.112 65.0422C169.052 65.0945 168.974 65.1217 168.894 65.1181V65.1181ZM163.425 64.4931H168.581V58.0368H163.425V64.4931Z" fill="#AF2C2B"/>
<path d="M181.125 65.1181H175.337C175.255 65.1165 175.176 65.083 175.118 65.0248C175.06 64.9665 175.027 64.888 175.025 64.8056V57.7243C175.025 57.6415 175.058 57.562 175.116 57.5034C175.175 57.4448 175.255 57.4118 175.337 57.4118H181.125C181.208 57.4118 181.287 57.4448 181.346 57.5034C181.404 57.562 181.437 57.6415 181.437 57.7243V64.8368C181.43 64.9142 181.393 64.9859 181.336 65.0379C181.278 65.0899 181.203 65.1185 181.125 65.1181ZM175.65 64.4931H180.812V58.0368H175.625L175.65 64.4931Z" fill="#AF2C2B"/>
<path d="M144.437 78.3431H138.656C138.573 78.3431 138.494 78.3101 138.435 78.2515C138.377 78.1929 138.344 78.1134 138.344 78.0306V70.9493C138.344 70.8664 138.377 70.7869 138.435 70.7283C138.494 70.6697 138.573 70.6368 138.656 70.6368H144.437C144.52 70.6368 144.6 70.6697 144.658 70.7283C144.717 70.7869 144.75 70.8664 144.75 70.9493V78.0306C144.75 78.1134 144.717 78.1929 144.658 78.2515C144.6 78.3101 144.52 78.3431 144.437 78.3431ZM138.969 77.7181H144.125V71.2618H138.969V77.7181Z" fill="#AF2C2B"/>
<path d="M156.669 78.3431H150.881C150.799 78.3415 150.72 78.308 150.662 78.2498C150.604 78.1915 150.57 78.1129 150.569 78.0306V70.9493C150.569 70.8664 150.602 70.7869 150.66 70.7283C150.719 70.6697 150.798 70.6368 150.881 70.6368H156.669C156.751 70.6368 156.831 70.6697 156.89 70.7283C156.948 70.7869 156.981 70.8664 156.981 70.9493V78.0306C156.98 78.1129 156.946 78.1915 156.888 78.2498C156.83 78.308 156.751 78.3415 156.669 78.3431V78.3431ZM151.194 77.7181H156.356V71.2618H151.194V77.7181Z" fill="#AF2C2B"/>
<path d="M168.894 78.3431H163.125C163.042 78.3431 162.963 78.3101 162.904 78.2515C162.845 78.1929 162.812 78.1134 162.812 78.0306V70.9493C162.812 70.8664 162.845 70.7869 162.904 70.7283C162.963 70.6697 163.042 70.6368 163.125 70.6368H168.906C168.989 70.6368 169.069 70.6697 169.127 70.7283C169.186 70.7869 169.219 70.8664 169.219 70.9493V78.0306C169.219 78.0727 169.21 78.1144 169.194 78.1531C169.177 78.1919 169.153 78.2269 169.123 78.2561C169.092 78.2853 169.057 78.308 169.017 78.323C168.978 78.3379 168.936 78.3447 168.894 78.3431ZM163.425 77.7181H168.581V71.2618H163.425V77.7181Z" fill="#AF2C2B"/>
<path d="M181.125 78.3431H175.337C175.255 78.3415 175.176 78.308 175.118 78.2498C175.06 78.1915 175.027 78.1129 175.025 78.0306V70.9493C175.025 70.8664 175.058 70.7869 175.116 70.7283C175.175 70.6697 175.255 70.6368 175.337 70.6368H181.125C181.208 70.6368 181.287 70.6697 181.346 70.7283C181.404 70.7869 181.437 70.8664 181.437 70.9493V78.0306C181.437 78.1134 181.404 78.1929 181.346 78.2515C181.287 78.3101 181.208 78.3431 181.125 78.3431ZM175.65 77.7181H180.812V71.2618H175.625L175.65 77.7181Z" fill="#AF2C2B"/>
<path d="M208.575 83.2681H202.794C202.711 83.2681 202.631 83.2352 202.573 83.1765C202.514 83.1179 202.481 83.0385 202.481 82.9556V75.8743C202.481 75.7914 202.514 75.712 202.573 75.6534C202.631 75.5948 202.711 75.5618 202.794 75.5618H208.575C208.658 75.5618 208.737 75.5948 208.796 75.6534C208.855 75.712 208.887 75.7914 208.887 75.8743V82.9618C208.886 83.0436 208.852 83.1215 208.794 83.1788C208.735 83.236 208.657 83.2681 208.575 83.2681ZM203.106 82.6431H208.262V76.1868H203.125L203.106 82.6431Z" fill="#AF2C2B"/>
<path d="M210.219 110.462H204.437C204.355 110.462 204.275 110.429 204.217 110.37C204.158 110.312 204.125 110.232 204.125 110.149V103.093C204.125 103.01 204.158 102.931 204.217 102.872C204.275 102.813 204.355 102.781 204.437 102.781H210.219C210.302 102.781 210.381 102.813 210.44 102.872C210.498 102.931 210.531 103.01 210.531 103.093V110.174C210.525 110.253 210.489 110.326 210.431 110.379C210.373 110.433 210.297 110.462 210.219 110.462ZM204.75 109.837H209.906V103.406H204.75V109.837Z" fill="#AF2C2B"/>
<path d="M200.831 64.2618H195.05C194.967 64.2618 194.888 64.2289 194.829 64.1703C194.77 64.1117 194.738 64.0322 194.738 63.9493V56.8743C194.738 56.7914 194.77 56.712 194.829 56.6534C194.888 56.5948 194.967 56.5618 195.05 56.5618H200.831C200.914 56.5618 200.994 56.5948 201.052 56.6534C201.111 56.712 201.144 56.7914 201.144 56.8743V63.9493C201.144 64.0322 201.111 64.1117 201.052 64.1703C200.994 64.2289 200.914 64.2618 200.831 64.2618V64.2618ZM195.363 63.6368H200.519V57.1868H195.363V63.6368Z" fill="#AF2C2B"/>
<path d="M149.437 106.974H143.656C143.573 106.974 143.494 106.941 143.435 106.883C143.377 106.824 143.344 106.745 143.344 106.662V99.5806C143.344 99.4977 143.377 99.4182 143.435 99.3596C143.494 99.301 143.573 99.2681 143.656 99.2681H149.437C149.52 99.2681 149.6 99.301 149.658 99.3596C149.717 99.4182 149.75 99.4977 149.75 99.5806V106.662C149.75 106.745 149.717 106.824 149.658 106.883C149.6 106.941 149.52 106.974 149.437 106.974V106.974ZM143.969 106.349H149.125V99.8931H143.969V106.349Z" fill="#AF2C2B"/>
<path d="M161.669 106.974H155.881C155.799 106.973 155.72 106.939 155.662 106.881C155.604 106.823 155.57 106.744 155.569 106.662V99.5806C155.57 99.4982 155.604 99.4196 155.662 99.3614C155.72 99.3031 155.799 99.2697 155.881 99.2681H161.669C161.751 99.2697 161.83 99.3031 161.888 99.3614C161.946 99.4196 161.98 99.4982 161.981 99.5806V106.662C161.98 106.744 161.946 106.823 161.888 106.881C161.83 106.939 161.751 106.973 161.669 106.974ZM156.194 106.349H161.356V99.8931H156.194V106.349Z" fill="#AF2C2B"/>
<path d="M137.206 106.974H131.425C131.342 106.974 131.263 106.941 131.204 106.883C131.145 106.824 131.113 106.745 131.113 106.662V99.5806C131.113 99.4977 131.145 99.4182 131.204 99.3596C131.263 99.301 131.342 99.2681 131.425 99.2681H137.206C137.289 99.2681 137.369 99.301 137.427 99.3596C137.486 99.4182 137.519 99.4977 137.519 99.5806V106.662C137.519 106.745 137.486 106.824 137.427 106.883C137.369 106.941 137.289 106.974 137.206 106.974V106.974ZM131.738 106.349H136.875V99.8931H131.719L131.738 106.349Z" fill="#AF2C2B"/>
<path d="M173.894 106.974H168.125C168.042 106.974 167.963 106.941 167.904 106.883C167.845 106.824 167.812 106.745 167.812 106.662V99.5806C167.812 99.4977 167.845 99.4182 167.904 99.3596C167.963 99.301 168.042 99.2681 168.125 99.2681H173.906C173.989 99.2681 174.069 99.301 174.127 99.3596C174.186 99.4182 174.219 99.4977 174.219 99.5806V106.662C174.219 106.704 174.21 106.746 174.194 106.784C174.177 106.823 174.153 106.858 174.123 106.887C174.092 106.917 174.057 106.939 174.017 106.954C173.978 106.969 173.936 106.976 173.894 106.974ZM168.425 106.349H173.581V99.8931H168.425V106.349Z" fill="#AF2C2B"/>
<path d="M186.125 106.974H180.337C180.255 106.973 180.176 106.939 180.118 106.881C180.06 106.823 180.027 106.744 180.025 106.662V99.5806C180.027 99.4982 180.06 99.4196 180.118 99.3614C180.176 99.3031 180.255 99.2697 180.337 99.2681H186.125C186.208 99.2681 186.287 99.301 186.346 99.3596C186.404 99.4182 186.437 99.4977 186.437 99.5806V106.662C186.437 106.745 186.404 106.824 186.346 106.883C186.287 106.941 186.208 106.974 186.125 106.974V106.974ZM180.65 106.349H185.812V99.8931H180.625L180.65 106.349Z" fill="#AF2C2B"/>
<path d="M42.8438 145.824H39.6562C39.5734 145.824 39.4939 145.791 39.4353 145.733C39.3767 145.674 39.3438 145.595 39.3438 145.512C39.3454 145.429 39.3788 145.351 39.437 145.293C39.4953 145.234 39.5739 145.201 39.6562 145.199H42.8438C42.9266 145.199 43.0061 145.232 43.0647 145.291C43.1233 145.349 43.1563 145.429 43.1563 145.512C43.1563 145.595 43.1233 145.674 43.0647 145.733C43.0061 145.791 42.9266 145.824 42.8438 145.824Z" fill="#AF2C2B"/>
<path d="M142.781 150.399H139.613C139.53 150.399 139.45 150.366 139.392 150.308C139.333 150.249 139.3 150.17 139.3 150.087C139.3 150.004 139.333 149.924 139.392 149.866C139.45 149.807 139.53 149.774 139.613 149.774H142.781C142.864 149.776 142.942 149.809 143 149.868C143.059 149.926 143.092 150.004 143.094 150.087C143.094 150.17 143.061 150.249 143.002 150.308C142.944 150.366 142.864 150.399 142.781 150.399Z" fill="#AF2C2B"/>
<path d="M141.019 128.587H137.5C137.417 128.587 137.338 128.554 137.279 128.495C137.22 128.437 137.188 128.357 137.188 128.274C137.188 128.191 137.22 128.112 137.279 128.053C137.338 127.995 137.417 127.962 137.5 127.962H141.019C141.102 127.962 141.181 127.995 141.24 128.053C141.298 128.112 141.331 128.191 141.331 128.274C141.331 128.357 141.298 128.437 141.24 128.495C141.181 128.554 141.102 128.587 141.019 128.587Z" fill="#AF2C2B"/>
<path d="M93.5063 134.918H90C89.9171 134.918 89.8376 134.885 89.779 134.827C89.7204 134.768 89.6875 134.688 89.6875 134.606C89.6875 134.523 89.7204 134.443 89.779 134.385C89.8376 134.326 89.9171 134.293 90 134.293H93.5188C93.6016 134.293 93.6811 134.326 93.7397 134.385C93.7983 134.443 93.8313 134.523 93.8313 134.606C93.8313 134.648 93.8228 134.689 93.8063 134.728C93.7898 134.767 93.7657 134.802 93.7353 134.831C93.705 134.86 93.6691 134.883 93.6297 134.898C93.5903 134.913 93.5483 134.92 93.5063 134.918V134.918Z" fill="#AF2C2B"/>
<path d="M225.487 129.637H223.75C223.667 129.637 223.588 129.604 223.529 129.545C223.47 129.487 223.438 129.407 223.438 129.324C223.438 129.241 223.47 129.162 223.529 129.103C223.588 129.045 223.667 129.012 223.75 129.012H225.513C225.595 129.012 225.675 129.045 225.733 129.103C225.792 129.162 225.825 129.241 225.825 129.324C225.825 129.407 225.792 129.487 225.733 129.545C225.675 129.604 225.595 129.637 225.513 129.637H225.487Z" fill="#AF2C2B"/>
</svg>
