<svg width="250" height="189" viewBox="0 0 250 189" fill="none" xmlns="http://www.w3.org/2000/svg">
<g clip-path="url(#clip0_21_131)">
<path opacity="0.18" d="M20.1263 61.9838C18.4501 67.6829 16.2711 73.6334 13.0623 78.2909C9.60217 83.3075 4.38199 85.6063 1.96346 91.461C-3.52012 104.697 3.07096 120.866 14.535 128.577C26.3403 136.443 41.7973 136.048 54.4407 142.46C60.7504 145.668 66.1621 150.481 72.4299 153.78C81.2009 158.369 91.2831 159.802 100.985 157.839C117.849 154.361 131.911 140.915 149.068 139.55C166.687 138.149 182.491 149.727 199.504 154.594C210.098 157.612 221.265 158.023 232.053 155.791C239.093 154.325 246.689 151.002 249.186 144.136C251.203 138.598 249.222 132.354 246.312 127.236C243.403 122.118 239.572 117.508 237.44 112.007C234.07 103.332 235.435 93.9754 235.303 84.9179C235.189 77.333 233.908 69.5626 232.675 62.0736C230.179 46.88 224.384 30.8483 210.974 22.0183C199.199 14.2838 184.125 13.8288 170.111 15.2476C156.097 16.6664 142.034 19.6955 128.05 17.9774C120.172 17.0136 112.563 14.5592 104.847 12.6914C90.1917 9.1474 74.6689 7.74658 60.1038 11.6378C45.5388 15.529 32.0394 25.3288 26.3343 39.2832C23.9996 44.9823 23.0238 51.1184 21.4733 57.0809C21.0602 58.6673 20.6112 60.3136 20.1263 61.9838Z" fill="#AF2C2B"/>
<path d="M228.574 123.866V132.582H213.938V123.866C213.936 122.548 213.412 121.284 212.481 120.352C211.55 119.419 210.287 118.894 208.969 118.891H56.4043C50.7153 118.885 45.2611 116.622 41.2379 112.6C37.2146 108.578 34.9508 103.124 34.9429 97.4355V80.015H49.5797V97.4355C49.5829 99.2445 50.3029 100.979 51.5821 102.258C52.8613 103.537 54.5953 104.257 56.4043 104.26H208.969C214.167 104.265 219.151 106.332 222.827 110.008C226.503 113.683 228.57 118.667 228.574 123.866V123.866Z" fill="#AF2C2B"/>
<path d="M228.575 123.866V130.529H221.349V118.173C221.349 115.838 216.56 109.522 210.268 109.792H58.733C52.7466 110.312 42.3601 108.247 42.3601 98.1659V80.015H49.5798V97.4355C49.5829 99.2445 50.303 100.979 51.5821 102.258C52.8613 103.537 54.5953 104.257 56.4043 104.26H208.969C214.167 104.265 219.151 106.332 222.827 110.008C226.503 113.683 228.57 118.667 228.575 123.866V123.866Z" fill="url(#paint0_linear_21_131)"/>
<path d="M91.018 87.5639H76.3931V109.798H91.018V87.5639Z" fill="#AF2C2B"/>
<path d="M91.1196 87.5639H83.9419V109.798H91.1196V87.5639Z" fill="url(#paint1_linear_21_131)"/>
<path d="M139.065 87.5639H124.44V109.798H139.065V87.5639Z" fill="#AF2C2B"/>
<path d="M186.969 87.5639H172.344V109.798H186.969V87.5639Z" fill="#AF2C2B"/>
<path d="M52.2377 77.5067H32.3687V82.5532H52.2377V77.5067Z" fill="#AF2C2B"/>
<path d="M231.233 130.08H211.364V135.126H231.233V130.08Z" fill="#AF2C2B"/>
<path d="M93.8317 85.3309H73.9626V90.3775H93.8317V85.3309Z" fill="#AF2C2B"/>
<path d="M138.975 87.6597H131.798V109.893H138.975V87.6597Z" fill="url(#paint2_linear_21_131)"/>
<path d="M187.017 87.6597H179.839V109.893H187.017V87.6597Z" fill="url(#paint3_linear_21_131)"/>
<path d="M141.598 85.3309H121.729V90.3775H141.598V85.3309Z" fill="#AF2C2B"/>
<path d="M189.369 85.3309H169.5V90.3775H189.369V85.3309Z" fill="#AF2C2B"/>
<path d="M69.5865 119.268H66.5693V179.115H69.5865V119.268Z" fill="#AF2C2B"/>
<path d="M72.1786 112.815V120.639C72.1786 121.592 71.8002 122.505 71.1266 123.179C70.453 123.852 69.5394 124.231 68.5867 124.231H67.126C66.1734 124.231 65.2598 123.852 64.5862 123.179C63.9126 122.505 63.5342 121.592 63.5342 120.639V118.933H68.03V112.815H72.1786Z" fill="#AF2C2B"/>
<path d="M72.1786 112.815V120.639C72.1786 121.592 71.8002 122.505 71.1266 123.179C70.453 123.852 69.5394 124.231 68.5867 124.231H67.126C66.1734 124.231 65.2598 123.852 64.5862 123.179C63.9126 122.505 63.5342 121.592 63.5342 120.639V118.933H64.3603C64.8424 118.934 65.32 118.839 65.7656 118.655C66.2112 118.471 66.616 118.201 66.9569 117.86C67.2979 117.519 67.5681 117.114 67.7523 116.668C67.9364 116.223 68.0308 115.745 68.03 115.263V112.869L72.1786 112.815Z" fill="url(#paint4_linear_21_131)"/>
<path d="M108.6 119.268H105.583V179.115H108.6V119.268Z" fill="#AF2C2B"/>
<path d="M111.192 112.815V120.639C111.192 121.592 110.814 122.505 110.14 123.179C109.467 123.852 108.553 124.231 107.6 124.231H106.14C105.187 124.231 104.273 123.852 103.6 123.179C102.926 122.505 102.548 121.592 102.548 120.639V118.933H107.05V112.815H111.192Z" fill="#AF2C2B"/>
<path d="M111.192 112.815V120.639C111.192 121.592 110.814 122.505 110.14 123.179C109.467 123.852 108.553 124.231 107.6 124.231H106.14C105.187 124.231 104.273 123.852 103.6 123.179C102.926 122.505 102.548 121.592 102.548 120.639V118.933H103.458C104.431 118.933 105.364 118.546 106.053 117.858C106.741 117.17 107.127 116.236 107.127 115.263V112.869L111.192 112.815Z" fill="url(#paint5_linear_21_131)"/>
<path d="M147.614 119.268H144.597V179.115H147.614V119.268Z" fill="#AF2C2B"/>
<path d="M150.212 112.815V120.639C150.212 121.592 149.834 122.505 149.16 123.179C148.486 123.852 147.573 124.231 146.62 124.231H145.153C144.201 124.231 143.287 123.852 142.614 123.179C141.94 122.505 141.562 121.592 141.562 120.639V118.933H146.057V112.815H150.212Z" fill="#AF2C2B"/>
<path d="M150.212 112.815V120.639C150.212 121.592 149.834 122.505 149.16 123.179C148.486 123.852 147.573 124.231 146.62 124.231H145.153C144.201 124.231 143.287 123.852 142.614 123.179C141.94 122.505 141.562 121.592 141.562 120.639V118.933H142.388C142.87 118.934 143.347 118.839 143.793 118.655C144.239 118.471 144.643 118.201 144.984 117.86C145.325 117.519 145.595 117.114 145.78 116.668C145.964 116.223 146.058 115.745 146.057 115.263V112.869L150.212 112.815Z" fill="url(#paint6_linear_21_131)"/>
<path d="M186.633 119.268H183.616V179.115H186.633V119.268Z" fill="#AF2C2B"/>
<path d="M189.225 112.815V120.639C189.225 121.592 188.847 122.505 188.173 123.179C187.5 123.852 186.586 124.231 185.634 124.231H184.173C183.22 124.231 182.307 123.852 181.633 123.179C180.959 122.505 180.581 121.592 180.581 120.639V118.933H185.077V112.815H189.225Z" fill="#AF2C2B"/>
<path d="M189.225 112.815V120.639C189.225 121.592 188.847 122.505 188.173 123.179C187.5 123.852 186.586 124.231 185.634 124.231H184.173C183.22 124.231 182.307 123.852 181.633 123.179C180.959 122.505 180.581 121.592 180.581 120.639V118.933H181.407C181.889 118.934 182.367 118.839 182.812 118.655C183.258 118.471 183.663 118.201 184.004 117.86C184.345 117.519 184.615 117.114 184.799 116.668C184.983 116.223 185.078 115.745 185.077 115.263V112.869L189.225 112.815Z" fill="url(#paint7_linear_21_131)"/>
<path d="M77.9436 74.7948L83.6367 80.4939L89.27 74.8666L77.9436 74.7948Z" fill="#AF2C2B"/>
<path d="M125.159 74.7948L130.858 80.4939L136.485 74.8666L125.159 74.7948Z" fill="#AF2C2B"/>
<path d="M172.93 74.7948L178.624 80.4939L184.251 74.8666L172.93 74.7948Z" fill="#AF2C2B"/>
<path d="M83.5468 72.053C94.5267 72.053 103.428 63.152 103.428 52.172C103.428 41.192 94.5267 32.291 83.5468 32.291C72.5668 32.291 63.6658 41.192 63.6658 52.172C63.6658 63.152 72.5668 72.053 83.5468 72.053Z" fill="white"/>
<path d="M131.199 72.053C142.179 72.053 151.08 63.152 151.08 52.172C151.08 41.192 142.179 32.291 131.199 32.291C120.219 32.291 111.318 41.192 111.318 52.172C111.318 63.152 120.219 72.053 131.199 72.053Z" fill="white"/>
<path d="M178.857 72.053C189.837 72.053 198.738 63.152 198.738 52.172C198.738 41.192 189.837 32.291 178.857 32.291C167.877 32.291 158.976 41.192 158.976 52.172C158.976 63.152 167.877 72.053 178.857 72.053Z" fill="white"/>
<path d="M186.633 175.822H65.8628V179.115H186.633V175.822Z" fill="#AF2C2B"/>
<path d="M186.633 175.822H65.8628V179.115H186.633V175.822Z" fill="url(#paint8_linear_21_131)"/>
<path d="M249.012 146.584H201.246V179.115H249.012V146.584Z" fill="#AF2C2B"/>
<path d="M68.3751 50.3224V56H67.6875V50.3224H68.3751ZM74.2558 50.3224V56H73.5904L70.4965 51.5422H70.4411V56H69.7536V50.3224H70.4189L73.5239 54.7913H73.5793V50.3224H74.2558ZM75.6315 56V50.3224H77.5499C77.9953 50.3224 78.3594 50.4028 78.6422 50.5635C78.9268 50.7225 79.1375 50.9378 79.2743 51.2095C79.4111 51.4812 79.4794 51.7843 79.4794 52.1188C79.4794 52.4533 79.4111 52.7573 79.2743 53.0309C79.1394 53.3044 78.9305 53.5225 78.6478 53.6851C78.365 53.8459 78.0027 53.9263 77.561 53.9263H76.186V53.3164H77.5388C77.8438 53.3164 78.0887 53.2638 78.2735 53.1584C78.4583 53.0531 78.5923 52.9107 78.6755 52.7315C78.7605 52.5504 78.803 52.3461 78.803 52.1188C78.803 51.8915 78.7605 51.6882 78.6755 51.5089C78.5923 51.3296 78.4574 51.1892 78.2707 51.0875C78.0841 50.984 77.8364 50.9323 77.5278 50.9323H76.319V56H75.6315ZM84.3129 50.3224H85.0005V54.0816C85.0005 54.4697 84.909 54.8162 84.726 55.1212C84.5449 55.4243 84.2889 55.6636 83.9581 55.8392C83.6272 56.0129 83.2391 56.0998 82.7937 56.0998C82.3483 56.0998 81.9602 56.0129 81.6294 55.8392C81.2985 55.6636 81.0416 55.4243 80.8587 55.1212C80.6775 54.8162 80.587 54.4697 80.587 54.0816V50.3224H81.2745V54.0261C81.2745 54.3034 81.3355 54.5501 81.4575 54.7663C81.5795 54.9807 81.7532 55.1498 81.9787 55.2737C82.206 55.3956 82.4777 55.4566 82.7937 55.4566C83.1098 55.4566 83.3814 55.3956 83.6088 55.2737C83.8361 55.1498 84.0098 54.9807 84.13 54.7663C84.2519 54.5501 84.3129 54.3034 84.3129 54.0261V50.3224ZM86.0629 50.9323V50.3224H90.3212V50.9323H88.5358V56H87.8483V50.9323H86.0629ZM93.4781 56V55.501L95.3522 53.4495C95.5721 53.2092 95.7532 53.0004 95.8955 52.823C96.0378 52.6437 96.1432 52.4755 96.2116 52.3184C96.2818 52.1595 96.3169 51.9931 96.3169 51.8194C96.3169 51.6198 96.2689 51.447 96.1728 51.301C96.0785 51.155 95.9491 51.0422 95.7846 50.9628C95.6202 50.8833 95.4353 50.8435 95.2302 50.8435C95.0121 50.8435 94.8217 50.8888 94.6591 50.9794C94.4983 51.0681 94.3736 51.1929 94.2848 51.3536C94.198 51.5144 94.1545 51.703 94.1545 51.9192H93.5003C93.5003 51.5865 93.577 51.2945 93.7304 51.0432C93.8838 50.7918 94.0926 50.5959 94.3569 50.4554C94.6231 50.315 94.9215 50.2447 95.2524 50.2447C95.585 50.2447 95.8798 50.315 96.1367 50.4554C96.3936 50.5959 96.5951 50.7853 96.7411 51.0237C96.8871 51.2622 96.9601 51.5274 96.9601 51.8194C96.9601 52.0282 96.9222 52.2325 96.8464 52.4321C96.7725 52.6298 96.6431 52.8507 96.4583 53.0946C96.2753 53.3368 96.0212 53.6325 95.6959 53.9818L94.4207 55.3457V55.3901H97.0599V56H93.4781Z" fill="#AF2C2B"/>
<path d="M34.7034 66.1504L40.4025 71.8435L46.0297 66.2162L34.7034 66.1504Z" fill="#AF2C2B"/>
<path d="M40.3068 63.4086C51.2867 63.4086 60.1878 54.5075 60.1878 43.5276C60.1878 32.5476 51.2867 23.6466 40.3068 23.6466C29.3268 23.6466 20.4258 32.5476 20.4258 43.5276C20.4258 54.5075 29.3268 63.4086 40.3068 63.4086Z" fill="white"/>
<path d="M28.3751 42.3224V48H27.6875V42.3224H28.3751ZM34.2558 42.3224V48H33.5904L30.4965 43.5422H30.4411V48H29.7536V42.3224H30.4189L33.5239 46.7913H33.5793V42.3224H34.2558ZM35.6315 48V42.3224H37.5499C37.9953 42.3224 38.3594 42.4028 38.6422 42.5635C38.9268 42.7225 39.1375 42.9378 39.2743 43.2095C39.4111 43.4812 39.4794 43.7843 39.4794 44.1188C39.4794 44.4533 39.4111 44.7573 39.2743 45.0309C39.1394 45.3044 38.9305 45.5225 38.6478 45.6851C38.365 45.8459 38.0027 45.9263 37.561 45.9263H36.186V45.3164H37.5388C37.8438 45.3164 38.0887 45.2638 38.2735 45.1584C38.4583 45.0531 38.5923 44.9107 38.6755 44.7315C38.7605 44.5504 38.803 44.3461 38.803 44.1188C38.803 43.8915 38.7605 43.6882 38.6755 43.5089C38.5923 43.3296 38.4574 43.1892 38.2707 43.0875C38.0841 42.984 37.8364 42.9323 37.5278 42.9323H36.319V48H35.6315ZM44.3129 42.3224H45.0005V46.0816C45.0005 46.4697 44.909 46.8162 44.726 47.1212C44.5449 47.4243 44.2889 47.6636 43.9581 47.8392C43.6272 48.0129 43.2391 48.0998 42.7937 48.0998C42.3483 48.0998 41.9602 48.0129 41.6294 47.8392C41.2985 47.6636 41.0416 47.4243 40.8587 47.1212C40.6775 46.8162 40.587 46.4697 40.587 46.0816V42.3224H41.2745V46.0261C41.2745 46.3034 41.3355 46.5501 41.4575 46.7663C41.5795 46.9807 41.7532 47.1498 41.9787 47.2737C42.206 47.3956 42.4777 47.4566 42.7937 47.4566C43.1098 47.4566 43.3814 47.3956 43.6088 47.2737C43.8361 47.1498 44.0098 46.9807 44.13 46.7663C44.2519 46.5501 44.3129 46.3034 44.3129 46.0261V42.3224ZM46.0629 42.9323V42.3224H50.3212V42.9323H48.5358V48H47.8483V42.9323H46.0629ZM55.4741 42.3224V48H54.7866V43.0432H54.7534L53.3672 43.9636V43.2649L54.7866 42.3224H55.4741Z" fill="#AF2C2B"/>
<path d="M116.375 50.3224V56H115.688V50.3224H116.375ZM122.256 50.3224V56H121.59L118.497 51.5422H118.441V56H117.754V50.3224H118.419L121.524 54.7913H121.579V50.3224H122.256ZM123.632 56V50.3224H125.55C125.995 50.3224 126.359 50.4028 126.642 50.5635C126.927 50.7225 127.138 50.9378 127.274 51.2095C127.411 51.4812 127.479 51.7843 127.479 52.1188C127.479 52.4533 127.411 52.7573 127.274 53.0309C127.139 53.3044 126.931 53.5225 126.648 53.6851C126.365 53.8459 126.003 53.9263 125.561 53.9263H124.186V53.3164H125.539C125.844 53.3164 126.089 53.2638 126.274 53.1584C126.458 53.0531 126.592 52.9107 126.675 52.7315C126.76 52.5504 126.803 52.3461 126.803 52.1188C126.803 51.8915 126.76 51.6882 126.675 51.5089C126.592 51.3296 126.457 51.1892 126.271 51.0875C126.084 50.984 125.836 50.9323 125.528 50.9323H124.319V56H123.632ZM132.313 50.3224H133V54.0816C133 54.4697 132.909 54.8162 132.726 55.1212C132.545 55.4243 132.289 55.6636 131.958 55.8392C131.627 56.0129 131.239 56.0998 130.794 56.0998C130.348 56.0998 129.96 56.0129 129.629 55.8392C129.299 55.6636 129.042 55.4243 128.859 55.1212C128.678 54.8162 128.587 54.4697 128.587 54.0816V50.3224H129.275V54.0261C129.275 54.3034 129.335 54.5501 129.457 54.7663C129.579 54.9807 129.753 55.1498 129.979 55.2737C130.206 55.3956 130.478 55.4566 130.794 55.4566C131.11 55.4566 131.381 55.3956 131.609 55.2737C131.836 55.1498 132.01 54.9807 132.13 54.7663C132.252 54.5501 132.313 54.3034 132.313 54.0261V50.3224ZM134.063 50.9323V50.3224H138.321V50.9323H136.536V56H135.848V50.9323H134.063ZM143.397 56.0776C143.031 56.0776 142.704 56.0148 142.418 55.8891C142.133 55.7634 141.907 55.5888 141.739 55.3651C141.572 55.1397 141.482 54.8781 141.467 54.5806H142.166C142.18 54.7636 142.243 54.9216 142.354 55.0547C142.465 55.1859 142.61 55.2875 142.789 55.3596C142.969 55.4317 143.167 55.4677 143.385 55.4677C143.629 55.4677 143.846 55.4252 144.034 55.3402C144.223 55.2552 144.371 55.1369 144.478 54.9853C144.585 54.8338 144.639 54.6582 144.639 54.4586C144.639 54.2498 144.587 54.0659 144.483 53.9069C144.38 53.7461 144.228 53.6205 144.029 53.5299C143.829 53.4393 143.585 53.3941 143.297 53.3941H142.842V52.7841H143.297C143.522 52.7841 143.72 52.7435 143.89 52.6622C144.062 52.5808 144.196 52.4663 144.292 52.3184C144.39 52.1705 144.439 51.9968 144.439 51.7972C144.439 51.605 144.396 51.4377 144.311 51.2954C144.226 51.1531 144.106 51.0422 143.951 50.9628C143.798 50.8833 143.616 50.8435 143.408 50.8435C143.212 50.8435 143.027 50.8796 142.853 50.9517C142.681 51.0219 142.541 51.1245 142.432 51.2594C142.323 51.3925 142.264 51.5533 142.254 51.7418H141.589C141.6 51.4442 141.69 51.1836 141.858 50.96C142.026 50.7345 142.246 50.5589 142.518 50.4332C142.791 50.3076 143.092 50.2447 143.419 50.2447C143.77 50.2447 144.071 50.3159 144.322 50.4582C144.574 50.5987 144.767 50.7844 144.902 51.0154C145.037 51.2465 145.104 51.496 145.104 51.7639C145.104 52.0837 145.02 52.3563 144.852 52.5818C144.686 52.8073 144.459 52.9634 144.173 53.0503V53.0946C144.531 53.1538 144.811 53.3063 145.013 53.5521C145.214 53.796 145.315 54.0982 145.315 54.4586C145.315 54.7673 145.231 55.0445 145.063 55.2903C144.896 55.5343 144.669 55.7265 144.381 55.8669C144.092 56.0074 143.764 56.0776 143.397 56.0776Z" fill="#AF2C2B"/>
<path d="M166.375 50.3224V56H165.688V50.3224H166.375ZM172.256 50.3224V56H171.59L168.497 51.5422H168.441V56H167.754V50.3224H168.419L171.524 54.7913H171.579V50.3224H172.256ZM173.632 56V50.3224H175.55C175.995 50.3224 176.359 50.4028 176.642 50.5635C176.927 50.7225 177.138 50.9378 177.274 51.2095C177.411 51.4812 177.479 51.7843 177.479 52.1188C177.479 52.4533 177.411 52.7573 177.274 53.0309C177.139 53.3044 176.931 53.5225 176.648 53.6851C176.365 53.8459 176.003 53.9263 175.561 53.9263H174.186V53.3164H175.539C175.844 53.3164 176.089 53.2638 176.274 53.1584C176.458 53.0531 176.592 52.9107 176.675 52.7315C176.76 52.5504 176.803 52.3461 176.803 52.1188C176.803 51.8915 176.76 51.6882 176.675 51.5089C176.592 51.3296 176.457 51.1892 176.271 51.0875C176.084 50.984 175.836 50.9323 175.528 50.9323H174.319V56H173.632ZM182.313 50.3224H183V54.0816C183 54.4697 182.909 54.8162 182.726 55.1212C182.545 55.4243 182.289 55.6636 181.958 55.8392C181.627 56.0129 181.239 56.0998 180.794 56.0998C180.348 56.0998 179.96 56.0129 179.629 55.8392C179.299 55.6636 179.042 55.4243 178.859 55.1212C178.678 54.8162 178.587 54.4697 178.587 54.0816V50.3224H179.275V54.0261C179.275 54.3034 179.335 54.5501 179.457 54.7663C179.579 54.9807 179.753 55.1498 179.979 55.2737C180.206 55.3956 180.478 55.4566 180.794 55.4566C181.11 55.4566 181.381 55.3956 181.609 55.2737C181.836 55.1498 182.01 54.9807 182.13 54.7663C182.252 54.5501 182.313 54.3034 182.313 54.0261V50.3224ZM184.063 50.9323V50.3224H188.321V50.9323H186.536V56H185.848V50.9323H184.063ZM191.345 54.8356V54.2701L193.84 50.3224H194.25V51.1984H193.973L192.088 54.1814V54.2257H195.448V54.8356H191.345ZM194.018 56V54.6638V54.4004V50.3224H194.672V56H194.018Z" fill="#AF2C2B"/>
<path d="M213.478 163.161C213.478 163.76 213.37 164.277 213.154 164.714C212.937 165.15 212.641 165.486 212.264 165.723C211.887 165.959 211.456 166.078 210.972 166.078C210.488 166.078 210.057 165.959 209.68 165.723C209.303 165.486 209.006 165.15 208.79 164.714C208.574 164.277 208.466 163.76 208.466 163.161C208.466 162.562 208.574 162.045 208.79 161.609C209.006 161.173 209.303 160.836 209.68 160.6C210.057 160.363 210.488 160.245 210.972 160.245C211.456 160.245 211.887 160.363 212.264 160.6C212.641 160.836 212.937 161.173 213.154 161.609C213.37 162.045 213.478 162.562 213.478 163.161ZM212.813 163.161C212.813 162.67 212.73 162.255 212.566 161.916C212.403 161.578 212.182 161.322 211.903 161.148C211.626 160.975 211.316 160.888 210.972 160.888C210.628 160.888 210.317 160.975 210.038 161.148C209.76 161.322 209.54 161.578 209.375 161.916C209.212 162.255 209.131 162.67 209.131 163.161C209.131 163.653 209.212 164.068 209.375 164.406C209.54 164.744 209.76 165 210.038 165.174C210.317 165.348 210.628 165.434 210.972 165.434C211.316 165.434 211.626 165.348 211.903 165.174C212.182 165 212.403 164.744 212.566 164.406C212.73 164.068 212.813 163.653 212.813 163.161ZM218.36 160.322H219.048V164.082C219.048 164.47 218.956 164.816 218.773 165.121C218.592 165.424 218.336 165.664 218.005 165.839C217.674 166.013 217.286 166.1 216.841 166.1C216.395 166.1 216.007 166.013 215.676 165.839C215.346 165.664 215.089 165.424 214.906 165.121C214.725 164.816 214.634 164.47 214.634 164.082V160.322H215.322V164.026C215.322 164.303 215.383 164.55 215.505 164.766C215.627 164.981 215.8 165.15 216.026 165.274C216.253 165.396 216.525 165.457 216.841 165.457C217.157 165.457 217.429 165.396 217.656 165.274C217.883 165.15 218.057 164.981 218.177 164.766C218.299 164.55 218.36 164.303 218.36 164.026V160.322ZM220.11 160.932V160.322H224.368V160.932H222.583V166H221.895V160.932H220.11ZM225.429 166V160.322H227.348C227.793 160.322 228.157 160.403 228.44 160.564C228.725 160.722 228.935 160.938 229.072 161.209C229.209 161.481 229.277 161.784 229.277 162.119C229.277 162.453 229.209 162.757 229.072 163.031C228.937 163.304 228.728 163.523 228.446 163.685C228.163 163.846 227.801 163.926 227.359 163.926H225.984V163.316H227.337C227.642 163.316 227.887 163.264 228.071 163.158C228.256 163.053 228.39 162.911 228.473 162.731C228.558 162.55 228.601 162.346 228.601 162.119C228.601 161.891 228.558 161.688 228.473 161.509C228.39 161.33 228.255 161.189 228.069 161.088C227.882 160.984 227.634 160.932 227.326 160.932H226.117V166H225.429ZM234.111 160.322H234.798V164.082C234.798 164.47 234.707 164.816 234.524 165.121C234.343 165.424 234.087 165.664 233.756 165.839C233.425 166.013 233.037 166.1 232.592 166.1C232.146 166.1 231.758 166.013 231.427 165.839C231.096 165.664 230.839 165.424 230.657 165.121C230.475 164.816 230.385 164.47 230.385 164.082V160.322H231.072V164.026C231.072 164.303 231.133 164.55 231.255 164.766C231.377 164.981 231.551 165.15 231.777 165.274C232.004 165.396 232.276 165.457 232.592 165.457C232.908 165.457 233.179 165.396 233.407 165.274C233.634 165.15 233.808 164.981 233.928 164.766C234.05 164.55 234.111 164.303 234.111 164.026V160.322ZM235.861 160.932V160.322H240.119V160.932H238.334V166H237.646V160.932H235.861Z" fill="white"/>
</g>
<defs>
<linearGradient id="paint0_linear_21_131" x1="134.575" y1="126.817" x2="137.868" y2="46.3831" gradientUnits="userSpaceOnUse">
<stop stop-opacity="0"/>
<stop offset="0.95"/>
</linearGradient>
<linearGradient id="paint1_linear_21_131" x1="78.3027" y1="103.637" x2="111.521" y2="85.7919" gradientUnits="userSpaceOnUse">
<stop stop-opacity="0"/>
<stop offset="0.95"/>
</linearGradient>
<linearGradient id="paint2_linear_21_131" x1="126.158" y1="103.739" x2="159.377" y2="85.8937" gradientUnits="userSpaceOnUse">
<stop stop-opacity="0"/>
<stop offset="0.95"/>
</linearGradient>
<linearGradient id="paint3_linear_21_131" x1="174.2" y1="103.739" x2="207.418" y2="85.8937" gradientUnits="userSpaceOnUse">
<stop stop-opacity="0"/>
<stop offset="0.95"/>
</linearGradient>
<linearGradient id="paint4_linear_21_131" x1="78.0633" y1="119.645" x2="51.1602" y2="116.077" gradientUnits="userSpaceOnUse">
<stop stop-opacity="0"/>
<stop offset="0.95"/>
</linearGradient>
<linearGradient id="paint5_linear_21_131" x1="117.083" y1="119.645" x2="90.1799" y2="116.077" gradientUnits="userSpaceOnUse">
<stop stop-opacity="0"/>
<stop offset="0.95"/>
</linearGradient>
<linearGradient id="paint6_linear_21_131" x1="156.097" y1="119.645" x2="129.194" y2="116.077" gradientUnits="userSpaceOnUse">
<stop stop-opacity="0"/>
<stop offset="0.95"/>
</linearGradient>
<linearGradient id="paint7_linear_21_131" x1="195.11" y1="119.645" x2="168.207" y2="116.077" gradientUnits="userSpaceOnUse">
<stop stop-opacity="0"/>
<stop offset="0.95"/>
</linearGradient>
<linearGradient id="paint8_linear_21_131" x1="125.997" y1="168.165" x2="126.547" y2="188.483" gradientUnits="userSpaceOnUse">
<stop stop-opacity="0"/>
<stop offset="0.95"/>
</linearGradient>
<clipPath id="clip0_21_131">
<rect width="250" height="188.424" fill="white"/>
</clipPath>
</defs>
</svg>
