<svg width="441" height="200" viewBox="0 0 441 200" fill="none" xmlns="http://www.w3.org/2000/svg">
<path d="M397.561 75.1005C397.561 71.7329 394.831 69.0029 391.463 69.0029C388.096 69.0029 385.366 71.7329 385.366 75.1005C385.366 78.4681 388.096 81.1981 391.463 81.1981C394.831 81.1981 397.561 78.4681 397.561 75.1005Z" fill="#AF2C2B" fill-opacity="0.6"/>
<path d="M388.548 79.5121V70.6428H391.709C392.396 70.6428 392.966 70.7614 393.42 70.998C393.876 71.2345 394.217 71.5623 394.442 71.9809C394.667 72.397 394.78 72.8775 394.78 73.4233C394.78 73.9658 394.665 74.4438 394.438 74.8565C394.212 75.2667 393.872 75.5858 393.416 75.8136C392.962 76.0418 392.392 76.156 391.705 76.156H389.31V75.0038H391.583C392.017 75.0038 392.369 74.9419 392.64 74.8175C392.915 74.6936 393.115 74.5131 393.242 74.2765C393.369 74.0394 393.433 73.755 393.433 73.4233C393.433 73.0882 393.368 72.7979 393.238 72.5526C393.111 72.3072 392.91 72.1199 392.636 71.9897C392.364 71.857 392.008 71.7906 391.566 71.7906H389.886V79.5121H388.548ZM392.926 75.5106L395.118 79.5121H393.593L391.445 75.5106H392.926Z" fill="white"/>
<path d="M124.39 90.238V118.049H127.348H130.306V107.141V96.2336L132.081 96.2809C133.824 96.3278 133.856 96.3277 135.165 96.8224C135.894 97.0936 137.067 97.6356 137.775 98.0238C138.493 98.4126 139.117 98.7307 139.18 98.7307C139.233 98.7307 139.285 98.778 139.285 98.8487C139.285 98.9073 139.349 98.9663 139.423 98.9663C139.666 98.9663 141.345 100.474 142.19 101.452C143.395 102.865 143.976 103.772 146.5 108.178C148.444 111.594 150.504 115.08 151.92 117.365L152.332 118.037L154.952 118.049C156.388 118.049 157.561 118.025 157.561 117.978C157.561 117.943 157.381 117.613 157.149 117.248C155.152 113.95 153.103 110.015 151.117 105.621C150.261 103.737 149.247 101.617 148.856 100.91C147.916 99.2019 146.521 97.1643 145.444 95.939L144.588 94.9614L145.55 94.4434C149.237 92.4526 152.1 88.8482 153.388 84.5487C153.917 82.7936 154.085 81.698 154.149 79.6956C154.223 77.3985 154.054 76.0321 153.441 73.9824C152.649 71.3321 151.645 69.5185 149.849 67.5038C147.641 65.0302 145.286 63.617 141.979 62.7687C141.071 62.5331 140.659 62.5214 132.715 62.4863L124.39 62.439V90.238ZM141.176 69.318C143.036 69.8717 144.388 70.7316 145.677 72.1687C146.775 73.4053 147.346 74.4302 147.853 76.1146C148.148 77.0804 148.201 77.4341 148.233 78.7648C148.307 81.156 147.853 82.9819 146.67 84.9492C145.687 86.5863 144.578 87.6346 142.845 88.5419C140.891 89.5668 140.849 89.5785 135.25 89.6253L130.306 89.6726V79.3541V69.0355L135.408 69.0824C139.771 69.118 140.595 69.1531 141.176 69.318Z" fill="#AF2C2B"/>
<path d="M183.076 109.217L187.596 110.145C186.771 112.808 185.16 115.017 182.766 116.772C180.371 118.506 177.554 119.373 174.313 119.373C170.039 119.373 166.582 117.876 163.939 114.883C161.298 111.869 159.976 107.926 159.976 103.055C159.976 98.0795 161.349 94.0644 164.095 91.0093C166.84 87.9337 170.287 86.3956 174.437 86.3956C178.524 86.3956 181.806 87.8098 184.283 90.6381C186.781 93.4659 188.06 97.6976 188.122 103.333H165.395C165.395 108.061 166.386 111.25 168.367 112.901C170.349 114.553 172.444 115.378 174.653 115.378C178.637 115.378 181.445 113.324 183.076 109.217ZM182.797 99.7103C182.756 97.9556 182.466 96.3971 181.93 95.0347C181.393 93.6722 180.485 92.5166 179.205 91.5669C177.925 90.5966 176.387 90.1117 174.591 90.1117C172.176 90.1117 170.122 90.9786 168.429 92.7127C166.758 94.4464 165.818 96.779 165.612 99.7103H182.797ZM219.861 76.2703V118.537H215.433V113.18C213.245 117.308 209.952 119.373 205.556 119.373C201.901 119.373 198.898 117.845 196.545 114.79C194.192 111.714 193.015 107.833 193.015 103.147C193.015 98.3581 194.181 94.3742 196.514 91.1951C198.846 87.9956 201.943 86.3956 205.803 86.3956C209.56 86.3956 212.625 88.1093 214.999 91.5356V76.2703H219.861ZM214.999 99.339C214.999 96.5932 214.163 94.3946 212.491 92.7434C210.819 91.0922 208.869 90.2664 206.639 90.2664C204.224 90.2664 202.232 91.3395 200.663 93.4864C199.115 95.6337 198.341 98.6473 198.341 102.528C198.341 106.719 199.053 109.908 200.478 112.096C201.922 114.284 203.894 115.378 206.392 115.378C208.662 115.378 210.664 114.429 212.399 112.53C214.133 110.63 214.999 108.401 214.999 105.841V99.339Z" fill="#AF2C2B"/>
<path d="M225.403 107.296L230.172 106.213C232.092 111.972 236.251 114.852 242.651 114.852C245.995 114.852 248.513 114.15 250.206 112.746C251.899 111.322 252.745 109.423 252.745 107.049C252.745 105.253 252.095 103.808 250.794 102.714C249.514 101.62 248.028 100.866 246.335 100.454L237.882 98.3477C235.694 97.7906 233.898 97.1194 232.494 96.335C231.111 95.5302 229.935 94.3019 228.964 92.6506C227.994 90.9989 227.509 89.1102 227.509 86.9838C227.509 83.4541 228.84 80.6467 231.503 78.5619C234.166 76.456 237.583 75.4033 241.753 75.4033C249.432 75.4033 254.479 78.8819 256.894 85.8384L252.095 87.2628C251.537 84.7858 250.226 82.9175 248.162 81.658C246.098 80.3784 243.9 79.7384 241.567 79.7384C239.255 79.7384 237.191 80.3472 235.374 81.5653C233.578 82.7833 232.68 84.5067 232.68 86.7365C232.68 89.8536 234.971 91.9589 239.554 93.0531L247.45 94.9419C254.675 96.676 258.287 100.567 258.287 106.616C258.287 110.269 256.925 113.314 254.2 115.75C251.496 118.165 247.677 119.373 242.743 119.373C233.991 119.373 228.211 115.347 225.403 107.296ZM286.372 109.216L290.893 110.145C290.067 112.808 288.457 115.017 286.062 116.772C283.668 118.506 280.85 119.373 277.609 119.373C273.336 119.373 269.879 117.876 267.236 114.883C264.594 111.869 263.273 107.926 263.273 103.055C263.273 98.0794 264.645 94.0643 267.391 91.0092C270.137 87.9336 273.584 86.3955 277.733 86.3955C281.82 86.3955 285.102 87.8097 287.58 90.638C290.078 93.4658 291.357 97.6975 291.419 103.333H268.691C268.691 108.06 269.682 111.25 271.664 112.901C273.646 114.553 275.741 115.378 277.95 115.378C281.934 115.378 284.741 113.324 286.372 109.216ZM286.093 99.7102C286.052 97.9555 285.763 96.397 285.226 95.0345C284.69 93.6721 283.781 92.5165 282.501 91.5667C281.221 90.5965 279.684 90.1116 277.888 90.1116C275.473 90.1116 273.419 90.9784 271.726 92.7126C270.054 94.4463 269.115 96.7789 268.908 99.7102H286.093ZM323.374 118.536H318.822V98.4409C318.822 95.5506 318.193 93.5175 316.934 92.3409C315.674 91.1643 314.147 90.576 312.351 90.576C309.874 90.576 307.789 91.5667 306.096 93.5482C304.424 95.5302 303.588 98.1414 303.588 101.382V118.536H298.727V87.2628H303.247V93.0219C305.786 88.6043 309.079 86.3955 313.125 86.3955C315.458 86.3955 317.44 87.0048 319.07 88.2223C320.721 89.4199 321.846 90.7721 322.445 92.2789C323.064 93.7858 323.374 96.5106 323.374 100.454V118.536ZM328.886 110.424L333.53 109.464C334.562 113.407 337.824 115.378 343.315 115.378C345.338 115.378 347.051 114.924 348.455 114.016C349.859 113.107 350.56 111.828 350.56 110.176C350.56 107.72 348.775 106.161 345.204 105.5L338.608 104.262C336.028 103.767 333.974 102.796 332.447 101.352C330.919 99.9062 330.155 97.997 330.155 95.6228C330.155 93.0014 331.198 90.8131 333.282 89.0584C335.368 87.2833 338.175 86.3955 341.705 86.3955C348.497 86.3955 352.687 89.0482 354.277 94.3536L349.818 95.3136C348.538 92.0516 345.906 90.4209 341.921 90.4209C339.94 90.4209 338.309 90.8341 337.029 91.6594C335.77 92.4648 335.141 93.5999 335.141 95.0658C335.141 97.3775 336.761 98.8331 340.002 99.4316L346.102 100.516C352.48 101.671 355.67 104.757 355.67 109.774C355.67 112.643 354.483 114.965 352.109 116.74C349.735 118.495 346.577 119.373 342.634 119.373C335.223 119.373 330.64 116.39 328.886 110.424ZM383.166 109.216L387.687 110.145C386.861 112.808 385.251 115.017 382.856 116.772C380.462 118.506 377.644 119.373 374.403 119.373C370.13 119.373 366.672 117.876 364.03 114.883C361.388 111.869 360.067 107.926 360.067 103.055C360.067 98.0794 361.439 94.0643 364.185 91.0092C366.93 87.9336 370.378 86.3955 374.527 86.3955C378.614 86.3955 381.897 87.8097 384.374 90.638C386.871 93.4658 388.151 97.6975 388.213 103.333H365.485C365.485 108.06 366.476 111.25 368.458 112.901C370.44 114.553 372.535 115.378 374.744 115.378C378.728 115.378 381.535 113.324 383.166 109.216ZM382.887 99.7102C382.846 97.9555 382.557 96.397 382.021 95.0345C381.483 93.6721 380.575 92.5165 379.296 91.5667C378.016 90.5965 376.478 90.1116 374.682 90.1116C372.266 90.1116 370.213 90.9784 368.52 92.7126C366.848 94.4463 365.909 96.7789 365.702 99.7102H382.887Z" fill="#AF2C2B" fill-opacity="0.6"/>
<path d="M60.9756 84.0745C74.1464 61.9911 60.9756 31.8507 54.3903 24.3901C54.3903 47.0553 42.7144 59.7604 34.6342 69.1536C26.5605 78.5536 21.4634 93.3258 21.4634 106.456C21.4634 118.328 25.6263 129.714 33.0363 138.109C40.4463 146.503 50.4961 151.219 60.9756 151.219C71.4551 151.219 81.5049 146.503 88.9151 138.109C96.3249 129.714 100.488 118.328 100.488 106.456C100.488 95.0267 93.5337 77.0614 87.3171 69.1536C75.5556 91.535 68.9376 91.535 60.9756 84.0745Z" fill="#AF2C2B" stroke="#AF2C2B" stroke-width="2.75" stroke-linecap="round" stroke-linejoin="round"/>
<path d="M128.172 144.39H126.136V128.134H136.092V129.921H128.172V135.053H134.734V136.697H128.172V144.39ZM140.284 128.134V130.206H138.271V128.134H140.284ZM140.224 132.362V144.39H138.355V132.362H140.224ZM145.822 144.39H143.952V132.362H145.596V135.173C146.175 133.846 146.755 132.989 147.334 132.6C147.922 132.203 148.521 132.004 149.133 132.004C149.323 132.004 149.569 132.021 149.871 132.052V133.839H149.49C148.458 133.839 147.6 134.224 146.918 134.994C146.235 135.764 145.869 136.776 145.822 138.031V144.39ZM150.526 141.27L152.312 140.901C152.709 142.417 153.964 143.176 156.076 143.176C156.854 143.176 157.513 143.001 158.053 142.652C158.593 142.302 158.862 141.81 158.862 141.175C158.862 140.23 158.176 139.631 156.802 139.377L154.265 138.9C153.273 138.709 152.483 138.337 151.896 137.781C151.308 137.225 151.014 136.49 151.014 135.578C151.014 134.569 151.415 133.727 152.217 133.053C153.019 132.37 154.099 132.028 155.457 132.028C158.068 132.028 159.68 133.049 160.292 135.089L158.577 135.458C158.084 134.204 157.072 133.577 155.54 133.577C154.778 133.577 154.15 133.736 153.658 134.053C153.174 134.362 152.932 134.8 152.932 135.363C152.932 136.252 153.555 136.812 154.801 137.042L157.147 137.459C159.601 137.903 160.827 139.091 160.827 141.02C160.827 142.123 160.371 143.017 159.458 143.7C158.545 144.374 157.33 144.712 155.814 144.712C152.963 144.712 151.201 143.564 150.526 141.27ZM168.914 143.104V144.581C168.255 144.668 167.683 144.712 167.199 144.712C164.873 144.712 163.709 143.497 163.709 141.067V133.827H161.578V132.362H163.709L163.793 129.337L165.532 129.17V132.362H168.223V133.827H165.532V141.377C165.532 142.616 166.175 143.235 167.461 143.235C167.89 143.235 168.374 143.191 168.914 143.104ZM178.989 128.134V130.206H176.977V128.134H178.989ZM178.93 132.362V144.39H177.06V132.362H178.93ZM192.137 144.39H190.386V136.661C190.386 135.55 190.144 134.767 189.66 134.315C189.176 133.862 188.588 133.636 187.897 133.636C186.944 133.636 186.142 134.017 185.492 134.78C184.848 135.542 184.527 136.546 184.527 137.793V144.39H182.657V132.362H184.396V134.577C185.373 132.878 186.639 132.028 188.195 132.028C189.092 132.028 189.854 132.262 190.481 132.731C191.117 133.192 191.549 133.712 191.78 134.291C192.018 134.871 192.137 135.919 192.137 137.435V144.39ZM200.355 140.067L202.188 139.65C202.927 141.865 204.527 142.973 206.988 142.973C208.274 142.973 209.243 142.703 209.894 142.163C210.545 141.616 210.87 140.885 210.87 139.972C210.87 139.281 210.62 138.725 210.12 138.304C209.628 137.884 209.056 137.594 208.405 137.435L205.154 136.625C204.312 136.411 203.621 136.153 203.081 135.851C202.55 135.542 202.097 135.069 201.724 134.434C201.351 133.799 201.164 133.073 201.164 132.255C201.164 130.897 201.677 129.817 202.701 129.015C203.725 128.205 205.039 127.801 206.642 127.801C209.596 127.801 211.537 129.139 212.466 131.814L210.62 132.362C210.406 131.409 209.902 130.691 209.108 130.206C208.314 129.714 207.468 129.468 206.571 129.468C205.682 129.468 204.888 129.702 204.189 130.171C203.499 130.639 203.153 131.302 203.153 132.16C203.153 133.358 204.035 134.168 205.797 134.589L208.834 135.315C211.613 135.982 213.002 137.479 213.002 139.805C213.002 141.21 212.478 142.382 211.43 143.319C210.39 144.247 208.921 144.712 207.023 144.712C203.657 144.712 201.434 143.163 200.355 140.067ZM225.281 144.39H223.423C223.351 144.009 223.28 143.287 223.208 142.223C222.382 143.882 220.978 144.712 218.993 144.712C217.643 144.712 216.607 144.355 215.884 143.64C215.161 142.925 214.8 142.068 214.8 141.067C214.8 139.853 215.317 138.857 216.349 138.079C217.381 137.292 219.136 136.9 221.613 136.9C221.946 136.9 222.478 136.915 223.208 136.947C223.208 135.994 223.133 135.307 222.982 134.887C222.839 134.458 222.53 134.117 222.053 133.862C221.577 133.608 220.95 133.482 220.172 133.482C218.274 133.482 217.17 134.204 216.86 135.649L215.134 135.351C215.555 133.136 217.325 132.028 220.445 132.028C222.105 132.028 223.28 132.398 223.971 133.136C224.669 133.866 225.019 135.137 225.019 136.947V142.056C225.019 142.905 225.106 143.683 225.281 144.39ZM223.208 138.376C222.446 138.328 221.866 138.304 221.47 138.304C219.993 138.304 218.845 138.547 218.028 139.031C217.21 139.516 216.801 140.222 216.801 141.151C216.801 141.739 217.02 142.239 217.456 142.652C217.901 143.064 218.54 143.271 219.374 143.271C220.501 143.271 221.426 142.862 222.148 142.044C222.879 141.226 223.244 140.266 223.244 139.162C223.244 138.94 223.232 138.678 223.208 138.376ZM233.76 132.362V133.827H230.902V144.39H229.032V133.827H226.983V132.362H229.032C229.064 130.433 229.433 129.19 230.14 128.634C230.854 128.079 231.723 127.801 232.748 127.801C233.248 127.801 233.82 127.856 234.462 127.967V129.456C234.058 129.353 233.673 129.301 233.307 129.301C232.49 129.301 231.882 129.484 231.485 129.849C231.096 130.206 230.902 130.881 230.902 131.874V132.362H233.76ZM243.406 140.805L245.145 141.163C244.828 142.187 244.208 143.037 243.287 143.711C242.366 144.379 241.283 144.712 240.036 144.712C238.393 144.712 237.063 144.136 236.047 142.985C235.03 141.826 234.522 140.309 234.522 138.436C234.522 136.522 235.05 134.978 236.106 133.803C237.162 132.62 238.488 132.028 240.084 132.028C241.656 132.028 242.918 132.572 243.871 133.66C244.832 134.748 245.324 136.375 245.348 138.543H236.606C236.606 140.361 236.987 141.588 237.75 142.223C238.512 142.858 239.318 143.176 240.167 143.176C241.7 143.176 242.78 142.385 243.406 140.805ZM243.3 137.149C243.283 136.475 243.172 135.875 242.966 135.351C242.76 134.827 242.41 134.382 241.918 134.017C241.426 133.644 240.834 133.458 240.143 133.458C239.215 133.458 238.424 133.791 237.774 134.458C237.13 135.125 236.769 136.022 236.69 137.149H243.3ZM253.494 143.104V144.581C252.835 144.668 252.263 144.712 251.779 144.712C249.453 144.712 248.289 143.497 248.289 141.067V133.827H246.158V132.362H248.289L248.373 129.337L250.112 129.17V132.362H252.803V133.827H250.112V141.377C250.112 142.616 250.755 143.235 252.041 143.235C252.469 143.235 252.954 143.191 253.494 143.104ZM263.795 132.362L258.972 145.796C258.273 147.733 257.158 148.702 255.625 148.702C255.141 148.702 254.605 148.618 254.018 148.451V146.986C254.502 147.098 254.919 147.153 255.268 147.153C255.864 147.153 256.36 146.982 256.757 146.641C257.162 146.3 257.563 145.474 257.96 144.164L253.803 132.362H255.709L258.924 141.401L262.223 132.362H263.795ZM282.445 142.604V144.39H271.929V128.134H282.219V129.921H273.966V135.089H280.516V136.744H273.966V142.604H282.445ZM294.604 144.39H292.854V136.661C292.854 135.55 292.612 134.767 292.127 134.315C291.643 133.862 291.056 133.636 290.365 133.636C289.412 133.636 288.61 134.017 287.959 134.78C287.316 135.542 286.995 136.546 286.995 137.793V144.39H285.125V132.362H286.863V134.577C287.84 132.878 289.106 132.028 290.662 132.028C291.56 132.028 292.322 132.262 292.949 132.731C293.584 133.192 294.017 133.712 294.247 134.291C294.485 134.871 294.604 135.919 294.604 137.435V144.39ZM308.169 130.48V131.969C307.312 131.969 306.736 132.068 306.442 132.266C306.157 132.465 305.966 132.822 305.871 133.339C306.641 134.228 307.026 135.196 307.026 136.244C307.026 137.34 306.605 138.281 305.763 139.067C304.93 139.853 303.806 140.246 302.393 140.246C302.076 140.246 301.802 140.222 301.572 140.174C301.135 140.087 300.861 140.043 300.75 140.043C300.536 140.043 300.278 140.151 299.976 140.365C299.674 140.571 299.523 140.842 299.523 141.175C299.523 141.651 299.741 141.961 300.178 142.103C300.615 142.246 301.643 142.338 303.262 142.378C304.636 142.417 305.648 142.513 306.3 142.663C306.959 142.806 307.514 143.132 307.967 143.64C308.42 144.14 308.646 144.756 308.646 145.486C308.646 147.781 306.629 148.928 302.596 148.928C300.682 148.928 299.285 148.638 298.404 148.059C297.53 147.487 297.094 146.721 297.094 145.76C297.094 144.593 297.705 143.791 298.928 143.354C298.141 142.838 297.749 142.191 297.749 141.413C297.749 140.484 298.304 139.773 299.416 139.281C298.376 138.44 297.856 137.38 297.856 136.102C297.856 134.91 298.3 133.934 299.19 133.172C300.079 132.409 301.162 132.028 302.441 132.028C303.346 132.028 304.168 132.199 304.906 132.541C305.025 131.755 305.299 131.211 305.728 130.909C306.164 130.607 306.823 130.457 307.705 130.457C307.792 130.457 307.947 130.464 308.169 130.48ZM302.453 138.817C303.247 138.817 303.894 138.575 304.394 138.09C304.894 137.598 305.144 136.963 305.144 136.185C305.144 135.391 304.882 134.744 304.359 134.243C303.842 133.736 303.215 133.482 302.477 133.482C301.77 133.482 301.143 133.72 300.595 134.196C300.047 134.664 299.773 135.335 299.773 136.209C299.773 136.987 300.02 137.618 300.512 138.102C301.004 138.579 301.651 138.817 302.453 138.817ZM300.214 143.902C299.34 144.283 298.904 144.835 298.904 145.558C298.904 146.169 299.261 146.641 299.976 146.975C300.698 147.316 301.615 147.487 302.727 147.487C303.759 147.487 304.704 147.34 305.561 147.046C306.419 146.76 306.847 146.272 306.847 145.581C306.847 145.208 306.72 144.902 306.466 144.664C306.212 144.426 305.863 144.275 305.418 144.212C304.981 144.148 304.216 144.101 303.12 144.069C301.81 144.037 300.841 143.982 300.214 143.902ZM312.254 128.134V130.206H310.241V128.134H312.254ZM312.195 132.362V144.39H310.325V132.362H312.195ZM325.402 144.39H323.651V136.661C323.651 135.55 323.409 134.767 322.925 134.315C322.44 133.862 321.853 133.636 321.162 133.636C320.21 133.636 319.408 134.017 318.757 134.78C318.114 135.542 317.792 136.546 317.792 137.793V144.39H315.922V132.362H317.661V134.577C318.638 132.878 319.904 132.028 321.46 132.028C322.357 132.028 323.12 132.262 323.747 132.731C324.382 133.192 324.815 133.712 325.045 134.291C325.283 134.871 325.402 135.919 325.402 137.435V144.39ZM337.085 140.805L338.824 141.163C338.506 142.187 337.887 143.037 336.966 143.711C336.045 144.379 334.961 144.712 333.715 144.712C332.071 144.712 330.741 144.136 329.725 142.985C328.709 141.826 328.201 140.309 328.201 138.436C328.201 136.522 328.729 134.978 329.785 133.803C330.841 132.62 332.166 132.028 333.762 132.028C335.335 132.028 336.597 132.572 337.55 133.66C338.51 134.748 339.002 136.375 339.026 138.543H330.285C330.285 140.361 330.666 141.588 331.428 142.223C332.19 142.858 332.996 143.176 333.846 143.176C335.378 143.176 336.458 142.385 337.085 140.805ZM336.978 137.149C336.962 136.475 336.851 135.875 336.644 135.351C336.438 134.827 336.089 134.382 335.597 134.017C335.104 133.644 334.513 133.458 333.822 133.458C332.893 133.458 332.103 133.791 331.452 134.458C330.809 135.125 330.448 136.022 330.368 137.149H336.978ZM349.781 140.805L351.519 141.163C351.201 142.187 350.582 143.037 349.661 143.711C348.741 144.379 347.657 144.712 346.41 144.712C344.766 144.712 343.437 144.136 342.42 142.985C341.404 141.826 340.896 140.309 340.896 138.436C340.896 136.522 341.424 134.978 342.48 133.803C343.536 132.62 344.862 132.028 346.458 132.028C348.03 132.028 349.292 132.572 350.245 133.66C351.205 134.748 351.698 136.375 351.721 138.543H342.98C342.98 140.361 343.361 141.588 344.123 142.223C344.886 142.858 345.692 143.176 346.541 143.176C348.073 143.176 349.153 142.385 349.781 140.805ZM349.673 137.149C349.658 136.475 349.546 135.875 349.34 135.351C349.133 134.827 348.784 134.382 348.292 134.017C347.8 133.644 347.208 133.458 346.517 133.458C345.588 133.458 344.799 133.791 344.147 134.458C343.504 135.125 343.143 136.022 343.063 137.149H349.673ZM356.402 144.39H354.532V132.362H356.176V135.173C356.755 133.846 357.335 132.989 357.915 132.6C358.502 132.203 359.101 132.004 359.713 132.004C359.903 132.004 360.149 132.021 360.451 132.052V133.839H360.07C359.038 133.839 358.18 134.224 357.498 134.994C356.815 135.764 356.45 136.776 356.402 138.031V144.39ZM364.512 128.134V130.206H362.5V128.134H364.512ZM364.453 132.362V144.39H362.583V132.362H364.453ZM377.66 144.39H375.909V136.661C375.909 135.55 375.667 134.767 375.183 134.315C374.699 133.862 374.111 133.636 373.421 133.636C372.468 133.636 371.666 134.017 371.015 134.78C370.372 135.542 370.05 136.546 370.05 137.793V144.39H368.181V132.362H369.919V134.577C370.896 132.878 372.162 132.028 373.718 132.028C374.615 132.028 375.378 132.262 376.005 132.731C376.64 133.192 377.073 133.712 377.303 134.291C377.541 134.871 377.66 135.919 377.66 137.435V144.39ZM391.225 130.48V131.969C390.367 131.969 389.792 132.068 389.498 132.266C389.212 132.465 389.021 132.822 388.926 133.339C389.697 134.228 390.081 135.196 390.081 136.244C390.081 137.34 389.66 138.281 388.819 139.067C387.985 139.853 386.862 140.246 385.449 140.246C385.131 140.246 384.857 140.222 384.627 140.174C384.19 140.087 383.917 140.043 383.805 140.043C383.591 140.043 383.333 140.151 383.031 140.365C382.729 140.571 382.579 140.842 382.579 141.175C382.579 141.651 382.797 141.961 383.234 142.103C383.67 142.246 384.699 142.338 386.318 142.378C387.692 142.417 388.704 142.513 389.355 142.663C390.014 142.806 390.57 143.132 391.022 143.64C391.475 144.14 391.701 144.756 391.701 145.486C391.701 147.781 389.684 148.928 385.651 148.928C383.738 148.928 382.341 148.638 381.459 148.059C380.586 147.487 380.149 146.721 380.149 145.76C380.149 144.593 380.76 143.791 381.983 143.354C381.197 142.838 380.804 142.191 380.804 141.413C380.804 140.484 381.36 139.773 382.471 139.281C381.431 138.44 380.911 137.38 380.911 136.102C380.911 134.91 381.356 133.934 382.245 133.172C383.134 132.409 384.218 132.028 385.497 132.028C386.401 132.028 387.223 132.199 387.961 132.541C388.081 131.755 388.355 131.211 388.783 130.909C389.22 130.607 389.879 130.457 390.76 130.457C390.848 130.457 391.002 130.464 391.225 130.48ZM385.508 138.817C386.302 138.817 386.949 138.575 387.449 138.09C387.95 137.598 388.2 136.963 388.2 136.185C388.2 135.391 387.938 134.744 387.414 134.243C386.898 133.736 386.27 133.482 385.532 133.482C384.825 133.482 384.198 133.72 383.65 134.196C383.102 134.664 382.829 135.335 382.829 136.209C382.829 136.987 383.075 137.618 383.567 138.102C384.06 138.579 384.706 138.817 385.508 138.817ZM383.269 143.902C382.396 144.283 381.96 144.835 381.96 145.558C381.96 146.169 382.317 146.641 383.031 146.975C383.754 147.316 384.671 147.487 385.782 147.487C386.814 147.487 387.759 147.34 388.617 147.046C389.474 146.76 389.903 146.272 389.903 145.581C389.903 145.208 389.776 144.902 389.522 144.664C389.268 144.426 388.919 144.275 388.474 144.212C388.037 144.148 387.271 144.101 386.175 144.069C384.865 144.037 383.897 143.982 383.269 143.902Z" fill="#9E9E9E"/>
</svg>
