<svg width="300" height="200" viewBox="0 0 300 200" fill="none" xmlns="http://www.w3.org/2000/svg">
<path d="M69.4975 94.8749L55.082 136.387L116.67 157.774L131.086 116.262L69.4975 94.8749Z" fill="#EBEBEB"/>
<path d="M131.08 116.252C130.837 116.395 130.581 116.514 130.316 116.608L128.08 117.512L119.808 120.748L92.376 131.248L92.148 131.332L92.02 131.128L91.704 130.632L75.896 105.408L71.16 97.7282L69.9 95.6242C69.7441 95.3848 69.6102 95.1317 69.5 94.8682C69.6889 95.0819 69.8564 95.3137 70 95.5602L71.356 97.6042L76.248 105.2L92.208 130.332C92.312 130.504 92.42 130.672 92.52 130.828L92.164 130.708L119.66 120.376L128 117.3L130.276 116.5C130.535 116.391 130.805 116.308 131.08 116.252Z" fill="#E0E0E0"/>
<path d="M55.0809 136.4C54.9969 136.26 61.6049 132.18 69.8369 127.284C78.0689 122.388 84.8129 118.536 84.8969 118.676C84.9809 118.816 78.3729 122.896 70.1369 127.792C61.9009 132.688 55.1649 136.52 55.0809 136.4Z" fill="#E0E0E0"/>
<path d="M105.548 125.244C105.7 125.192 108.316 132.444 111.388 141.408C114.46 150.372 116.824 157.712 116.668 157.764C116.512 157.816 113.9 150.564 110.828 141.6C107.756 132.636 105.392 125.296 105.548 125.244Z" fill="#E0E0E0"/>
<path d="M251.242 84.0701L190.299 94.3997L197.261 135.478L258.204 125.148L251.242 84.0701Z" fill="#E0E0E0"/>
<path d="M251.236 84.0881C251.099 84.3171 250.941 84.5327 250.764 84.7321L249.32 86.5041L243.92 92.9681C239.284 98.4361 232.94 105.92 225.92 114.208L225.772 114.384L225.572 114.272L225.084 114.004L200.436 100.252L193 96.0281L191 94.8561C190.759 94.7319 190.531 94.5831 190.32 94.4121C190.575 94.5055 190.821 94.6206 191.056 94.7561L193.116 95.8401L200.64 99.9041L225.368 113.504L225.856 113.772L225.508 113.836L243.644 92.7041L249.176 86.3561C249.812 85.6481 250.316 85.0801 250.7 84.6481C250.864 84.4475 251.043 84.2603 251.236 84.0881Z" fill="#EBEBEB"/>
<path d="M197.257 135.492C197.125 135.412 200.753 129.004 205.361 121.18C209.969 113.356 213.817 107.076 213.949 107.156C214.081 107.236 210.453 113.64 205.845 121.468C201.237 129.296 197.389 135.568 197.257 135.492Z" fill="#EBEBEB"/>
<path d="M234.121 103.2C234.225 103.088 239.721 107.908 246.349 113.972C252.977 120.036 258.305 125.044 258.197 125.172C258.089 125.3 252.621 120.456 245.969 114.4C239.317 108.344 234.001 103.324 234.121 103.2Z" fill="#EBEBEB"/>
<path d="M190.327 18.7749L179.348 46.6895L220.763 62.9785L231.742 35.064L190.327 18.7749Z" fill="#EBEBEB"/>
<path d="M231.728 35.4361C231.56 35.5299 231.381 35.6037 231.196 35.6561L229.648 36.2161L223.916 38.1961L204.912 44.5961L204.756 44.6481L204.676 44.5041L204.476 44.1601L194.4 26.5161C193.14 24.2801 192.116 22.4561 191.384 21.1481L190.584 19.6801C190.482 19.5125 190.397 19.3357 190.328 19.1521C190.452 19.303 190.562 19.465 190.656 19.6361C190.872 20.0001 191.16 20.4761 191.524 21.0681L194.652 26.3761C197.276 30.9081 200.872 37.1081 204.84 43.9761L205.04 44.3241L204.804 44.2321L223.84 37.9441L229.6 36.0681L231.172 35.6001C231.353 35.5308 231.539 35.4759 231.728 35.4361Z" fill="#E0E0E0"/>
<path d="M179.336 47.0681C179.28 46.9721 183.9 44.3681 189.652 41.2561C195.404 38.1441 200.108 35.7041 200.16 35.8001C200.212 35.8961 195.6 38.5001 189.844 41.6001C184.088 44.7001 179.388 47.1681 179.336 47.0681Z" fill="#E0E0E0"/>
<path d="M214.064 40.8642C214.172 40.8322 215.756 45.8442 217.6 52.0642C219.444 58.2842 220.86 63.3362 220.752 63.3682C220.644 63.4002 219.06 58.3922 217.216 52.1682C215.372 45.9442 213.956 40.8962 214.064 40.8642Z" fill="#E0E0E0"/>
<path d="M264.631 182.832C264.631 182.888 213.303 182.936 150.003 182.936C86.7032 182.936 35.3672 182.888 35.3672 182.832C35.3672 182.776 86.6832 182.728 150.003 182.728C213.323 182.728 264.631 182.772 264.631 182.832Z" fill="#4D4D4D"/>
<path d="M46.6791 73.7839L52.3991 71.7559L49.9391 68.4719C49.8172 67.7463 49.7583 67.0116 49.7631 66.2759C49.7644 65.8971 49.8293 65.5212 49.9551 65.1639C50.094 64.7143 50.2945 64.2862 50.5511 63.8919C50.6148 63.8248 50.6554 63.7393 50.6673 63.6476C50.6791 63.5559 50.6615 63.4628 50.617 63.3818C50.5725 63.3008 50.5033 63.236 50.4196 63.1968C50.3359 63.1577 50.2418 63.1461 50.1511 63.1639C49.7511 63.2639 48.9991 64.1759 48.6591 65.5279C48.3191 66.8799 47.3911 64.8879 47.0591 64.1719C46.7271 63.4559 45.5191 61.2799 45.2111 61.2119C44.7631 61.1119 44.5751 61.5759 44.9431 62.2839C45.3111 62.9919 46.2591 65.1999 45.8671 65.3679C45.4751 65.5359 43.7511 61.8479 43.7511 61.8479C43.7511 61.8479 43.5111 60.9999 43.0551 61.1799C42.2311 61.4999 44.3631 65.2799 44.5751 65.6319C44.7231 65.8799 44.3071 66.0759 44.1751 65.8039C44.0431 65.5319 42.5311 62.0879 41.6911 62.4079C41.0471 62.6519 43.4151 65.5319 43.3311 66.4079C43.2471 67.2839 41.7591 64.0439 41.1511 64.2999C40.9271 64.3959 40.7511 64.4999 41.8951 66.2439C42.4554 67.0598 43.0575 67.8462 43.6991 68.5999L46.6871 73.7759" fill="#C0C0C0"/>
<path d="M98.1633 80.7759C98.1633 80.7759 95.3393 74.1839 93.3913 70.9799C91.5553 67.9639 89.1233 67.4759 87.8273 67.3799C87.29 67.2147 86.7382 67.1008 86.1793 67.0399L75.5993 66.9559C73.2869 66.9769 71.0527 67.7965 69.2753 69.2759C68.7833 69.6759 65.1233 73.9239 60.2633 79.9719L51.7633 70.7719L46.6953 73.7719C46.6953 73.7719 52.1993 92.7759 59.0953 91.4719C63.1993 90.7079 66.3993 87.8599 66.3993 87.8599L71.7793 83.5239L71.9033 84.2439C72.0113 85.1199 72.2833 86.5359 72.4913 87.3919C73.1393 90.1079 73.5033 93.6839 72.0913 96.0519C72.0913 96.0519 70.1753 97.5199 71.6913 99.1319H91.6313C91.6313 99.1319 94.4553 97.2159 91.8753 95.0879L90.2753 91.0439L91.3193 86.1079L91.7193 84.1319L93.4753 87.1399C93.4753 87.1399 96.9473 91.5079 100.559 90.9719C104.899 90.3239 107.415 82.4159 103.499 71.9599L98.7793 73.3959L98.1633 80.7759Z" fill="black"/>
<g opacity="0.4">
<path opacity="0.4" d="M46.6797 73.7839L47.1797 75.3679L52.8117 71.9319L51.7477 70.7839L46.6797 73.7839Z" fill="black"/>
</g>
<g opacity="0.2">
<path opacity="0.2" d="M72.087 96.0519C72.9251 95.9264 73.7291 95.6328 74.4509 95.1888C75.1726 94.7447 75.7972 94.1594 76.287 93.4679C76.8002 92.7713 77.1704 91.9801 77.3764 91.1398C77.5823 90.2995 77.6199 89.4268 77.487 88.5719C77.4652 88.2681 77.3799 87.9723 77.2366 87.7036C77.0933 87.4348 76.8951 87.1992 76.655 87.0119C76.027 86.6119 75.167 86.8199 74.515 86.4719C73.979 86.1879 73.695 85.6039 73.315 85.1239C72.935 84.6439 72.427 83.8999 71.875 84.1399C71.875 84.1399 72.543 87.6599 72.835 89.2279C73.127 90.7959 73.235 93.0479 72.671 94.6919C72.5264 95.1651 72.3306 95.6211 72.087 96.0519Z" fill="black"/>
</g>
<path d="M59.4473 83.1999C59.453 82.6365 59.553 82.0781 59.7433 81.5479C59.8656 81.0012 60.0342 80.4659 60.2473 79.9479C60.2464 80.5117 60.1462 81.0709 59.9513 81.5999C59.829 82.1465 59.6604 82.6818 59.4473 83.1999Z" fill="#4D4D4D"/>
<path d="M60.7105 82.34C60.4077 81.5851 60.2451 80.7813 60.2305 79.968C60.4134 80.3325 60.5299 80.7267 60.5745 81.132C60.688 81.5241 60.7339 81.9326 60.7105 82.34Z" fill="#4D4D4D"/>
<path d="M98.7361 59.0559L91.4961 70.7839L97.1921 72.3719L103.512 62.6239L98.7361 59.0559Z" fill="white"/>
<path d="M98.2838 69.0479L98.5278 70.7639L99.5398 72.0639L99.6398 73.1279L103.272 72.0239L101.804 66.8239C101.921 66.1237 101.97 65.4136 101.948 64.7039L100.948 66.0279L100.672 63.8679L98.6278 62.2239C98.5748 62.1849 98.5146 62.1568 98.4507 62.1411C98.3867 62.1254 98.3204 62.1225 98.2553 62.1326C98.1903 62.1426 98.1279 62.1654 98.0717 62.1996C98.0155 62.2338 97.9666 62.2787 97.9278 62.3319C97.8589 62.428 97.8263 62.5455 97.8358 62.6634C97.8453 62.7813 97.8963 62.892 97.9798 62.9759L99.6238 64.4239L99.7318 66.2119L98.5318 65.1079C98.4145 64.9983 98.2691 64.9235 98.1118 64.8919L96.4598 64.5599C96.4009 64.5484 96.3403 64.5494 96.2818 64.5627C96.2233 64.576 96.1682 64.6013 96.12 64.6371C96.0719 64.6728 96.0317 64.7182 96.002 64.7703C95.9724 64.8225 95.9539 64.8802 95.9478 64.9399C95.9376 65.0388 95.962 65.1382 96.0166 65.2213C96.0713 65.3043 96.1529 65.366 96.2478 65.3959L97.7518 65.8559L99.2718 67.3919L97.7838 66.8239L95.7638 67.1079C95.6691 67.1232 95.5831 67.172 95.5215 67.2454C95.4598 67.3189 95.4265 67.412 95.4278 67.5079C95.4278 67.614 95.4699 67.7157 95.5449 67.7907C95.6199 67.8657 95.7217 67.9079 95.8278 67.9079L97.1118 67.8359L97.8678 68.0719L96.1318 68.5319C96.0536 68.5514 95.9848 68.5977 95.9372 68.6627C95.8897 68.7278 95.8666 68.8075 95.8718 68.8879C95.8738 68.9347 95.8852 68.9806 95.9053 69.0228C95.9255 69.0651 95.954 69.1029 95.9891 69.1339C96.0242 69.1649 96.0652 69.1885 96.1097 69.2033C96.1541 69.218 96.2011 69.2237 96.2478 69.2199L98.2838 69.0479Z" fill="#C0C0C0"/>
<g opacity="0.4">
<path opacity="0.4" d="M98.7595 73.396L98.6035 75.316L104.112 73.8L103.48 71.96L98.7595 73.396Z" fill="black"/>
</g>
<path d="M91.4953 70.7999C91.4953 70.7999 91.0073 70.1399 91.0473 70.0279C91.0873 69.9159 97.9353 58.6399 97.9353 58.6399L98.7353 59.0719L91.4953 70.7999Z" fill="#4D4D4D"/>
<path d="M100.548 61.9998C100.579 61.9688 100.617 61.9464 100.659 61.9348C100.701 61.9232 100.746 61.9228 100.788 61.9336C100.831 61.9444 100.87 61.9661 100.901 61.9965C100.933 62.0269 100.956 62.065 100.968 62.107C100.98 62.1491 100.981 62.1936 100.971 62.2361C100.961 62.2787 100.94 62.3179 100.91 62.3499C100.88 62.3819 100.843 62.4055 100.801 62.4185C100.759 62.4314 100.714 62.4333 100.672 62.4238C100.632 62.4116 100.596 62.3903 100.567 62.3617C100.537 62.333 100.515 62.2979 100.501 62.259C100.488 62.2202 100.483 62.1786 100.489 62.1378C100.494 62.097 100.509 62.0579 100.532 62.0238" fill="#4D4D4D"/>
<path d="M95.9983 76.476C95.9473 76.5828 95.8767 76.6791 95.7903 76.76C95.5409 76.9931 95.2324 77.1535 94.8983 77.224C94.3704 77.3317 93.8262 77.3317 93.2983 77.224C92.6262 77.0645 91.93 77.0333 91.2463 77.132C90.4445 77.3656 89.7052 77.7756 89.0823 78.332C88.3663 78.88 87.6103 79.56 86.5943 79.88C86.0746 80.0277 85.5306 80.0698 84.9943 80.004C84.4453 79.9198 83.9082 79.7707 83.3943 79.56C82.3463 79.16 81.3423 78.568 80.2383 78.168C79.1744 77.7531 78.0094 77.6722 76.8983 77.936C75.8143 78.16 74.7983 78.536 73.7863 78.736C71.9778 79.1258 70.0896 78.8652 68.4543 78C67.3468 77.429 66.388 76.6071 65.6543 75.6C65.3872 75.2364 65.163 74.8431 64.9863 74.428C65.0143 74.428 65.2063 74.86 65.7223 75.552C66.4719 76.5194 67.4287 77.3067 68.5223 77.856C70.1347 78.687 71.9871 78.9276 73.7583 78.536C74.7543 78.32 75.7583 77.94 76.8703 77.708C78.0194 77.4325 79.2253 77.5148 80.3263 77.944C81.4543 78.344 82.4623 78.936 83.4903 79.344C83.9889 79.5492 84.5098 79.6955 85.0423 79.78C85.5515 79.8419 86.0678 79.8039 86.5623 79.668C87.5223 79.372 88.2743 78.716 88.9943 78.168C89.6425 77.6042 90.4096 77.194 91.2383 76.968C91.9408 76.8721 92.6553 76.9128 93.3423 77.088C93.852 77.2036 94.3794 77.2172 94.8943 77.128C95.2173 77.0729 95.5205 76.9351 95.7743 76.728C95.8537 76.6482 95.9285 76.5641 95.9983 76.476Z" fill="#FAFAFA"/>
<path d="M98.2796 84.0959C98.1541 83.514 98.099 82.919 98.1156 82.3239C98.0602 81.7307 98.0777 81.1329 98.1676 80.5439C98.2931 81.1259 98.3482 81.7208 98.3316 82.3159C98.3868 82.9092 98.3694 83.5069 98.2796 84.0959Z" fill="#4D4D4D"/>
<path d="M85.8027 157.644C85.9747 158.34 90.0547 181.216 90.0547 181.216L96.3067 180.748L95.1627 157.388L85.8027 157.644Z" fill="#C0C0C0"/>
<path d="M96.4945 181.112L96.4745 180.452L89.8145 180.592L89.8545 182.76H90.2545C92.0865 182.82 99.5745 182.944 100.786 182.58C102.154 182.184 96.4945 181.112 96.4945 181.112Z" fill="black"/>
<g opacity="0.3">
<path opacity="0.3" d="M92.2583 182.664C92.1399 182.137 91.8271 181.674 91.3823 181.368C90.9276 181.049 90.3754 180.901 89.8223 180.948L89.8583 182.672L92.2583 182.664Z" fill="black"/>
</g>
<g opacity="0.3">
<path opacity="0.3" d="M99.2635 181.728C99.2635 181.728 101.263 182.22 101.011 182.528C100.759 182.836 93.1995 182.976 89.8555 182.764V182.624L98.6875 182.536C98.6875 182.536 98.8795 181.748 99.2635 181.728Z" fill="black"/>
</g>
<path d="M89.7598 182.62H89.8718H90.1998L91.3998 182.648C92.4198 182.648 93.8238 182.668 95.3798 182.648C96.9358 182.628 98.3398 182.568 99.3598 182.516L100.56 182.448L100.884 182.424H101H100.884H100.556L99.3558 182.468C98.3398 182.504 96.9318 182.552 95.3798 182.576C93.8278 182.6 92.4198 182.608 91.3998 182.608H89.7598V182.62Z" fill="#4D4D4D"/>
<path d="M98.6955 182.628C98.7425 182.439 98.8138 182.258 98.9075 182.088C99.0223 181.927 99.1566 181.78 99.3075 181.652C99.1054 181.721 98.9368 181.864 98.8354 182.052C98.7167 182.219 98.6666 182.425 98.6955 182.628Z" fill="#4D4D4D"/>
<path d="M96.7185 181.74C96.7185 181.74 96.8265 181.644 96.9225 181.5C97.0185 181.356 97.0745 181.232 97.0545 181.22C97.0345 181.208 96.9465 181.316 96.8545 181.46C96.7625 181.604 96.6985 181.728 96.7185 181.74Z" fill="#4D4D4D"/>
<path d="M96.1759 181.484C96.1759 181.484 96.2959 181.432 96.4079 181.336C96.5199 181.24 96.5959 181.148 96.5839 181.132C96.5719 181.116 96.4639 181.184 96.3519 181.28C96.2399 181.376 96.1599 181.472 96.1759 181.484Z" fill="#4D4D4D"/>
<path d="M95.8223 180.908C95.9342 180.946 96.053 180.958 96.1703 180.944C96.2865 180.956 96.4039 180.942 96.5143 180.904C96.4019 180.869 96.2835 180.856 96.1663 180.868C96.0501 180.859 95.9333 180.873 95.8223 180.908Z" fill="#4D4D4D"/>
<path d="M95.6992 180.5C95.8189 180.574 95.9587 180.609 96.0992 180.6C96.2356 180.62 96.3748 180.599 96.4992 180.54C96.3661 180.53 96.2324 180.53 96.0992 180.54C95.9673 180.515 95.8335 180.501 95.6992 180.5Z" fill="#4D4D4D"/>
<path d="M96.9316 181.2C97.0734 181.222 97.2178 181.222 97.3596 181.2C97.5121 181.18 97.6622 181.146 97.8076 181.096C97.8985 181.073 97.9859 181.038 98.0676 180.992C98.0919 180.979 98.1133 180.962 98.1305 180.94C98.1477 180.919 98.1604 180.894 98.1676 180.868C98.175 180.838 98.1724 180.807 98.1601 180.778C98.1478 180.75 98.1265 180.727 98.0996 180.712C97.9372 180.637 97.7543 180.619 97.5803 180.66C97.4063 180.702 97.2511 180.8 97.1396 180.94C97.0771 181.019 97.0321 181.11 97.0076 181.208C97.0076 181.276 97.0076 181.316 97.0076 181.316C97.0458 181.192 97.1083 181.076 97.1916 180.976C97.2877 180.868 97.4125 180.788 97.5516 180.748C97.7179 180.692 97.8994 180.7 98.0596 180.772C98.1276 180.816 98.1036 180.892 98.0316 180.932C97.9553 180.973 97.8749 181.007 97.7916 181.032C97.6494 181.082 97.5037 181.12 97.3556 181.148C97.0956 181.2 96.9316 181.2 96.9316 181.2Z" fill="#4D4D4D"/>
<path d="M97.0436 181.2C97.0896 181.116 97.1038 181.018 97.0836 180.924C97.0684 180.819 97.0272 180.72 96.9636 180.636C96.9245 180.576 96.8711 180.527 96.8083 180.493C96.7455 180.458 96.6751 180.44 96.6036 180.44C96.5829 180.443 96.5632 180.451 96.5455 180.462C96.5278 180.473 96.5125 180.488 96.5006 180.505C96.4887 180.522 96.4803 180.541 96.476 180.562C96.4717 180.582 96.4715 180.603 96.4756 180.624C96.4863 180.688 96.5123 180.748 96.5516 180.8C96.6106 180.887 96.6805 180.966 96.7596 181.036C96.8282 181.108 96.9134 181.161 97.0076 181.192C97.0076 181.192 96.9196 181.124 96.7996 181C96.7296 180.928 96.6679 180.849 96.6156 180.764C96.5556 180.684 96.5116 180.532 96.6156 180.512C96.6718 180.518 96.7262 180.535 96.7752 180.564C96.8241 180.592 96.8665 180.63 96.8996 180.676C96.9607 180.75 97.0032 180.838 97.0236 180.932C97.0393 181.02 97.046 181.11 97.0436 181.2Z" fill="#4D4D4D"/>
<path d="M89.8555 180.932C89.8555 180.932 90.0475 180.912 90.3475 180.932C90.7345 180.971 91.1051 181.108 91.4235 181.332C91.7294 181.55 91.9678 181.849 92.1115 182.196C92.2195 182.46 92.2315 182.636 92.2475 182.636C92.2562 182.595 92.2562 182.553 92.2475 182.512C92.2334 182.399 92.208 182.288 92.1715 182.18C92.0367 181.814 91.794 181.497 91.4755 181.272C91.1467 181.037 90.7588 180.898 90.3555 180.872C90.2344 180.86 90.1125 180.86 89.9915 180.872C89.8995 180.912 89.8555 180.924 89.8555 180.932Z" fill="#4D4D4D"/>
<path d="M93.0801 182.048C93.3997 182.113 93.7263 182.137 94.0521 182.12C94.3771 182.129 94.7021 182.1 95.0201 182.032C95.0201 182.008 94.5841 182.032 94.0481 182.032C93.5121 182.032 93.0841 182.028 93.0801 182.048Z" fill="#4D4D4D"/>
<path d="M91.7793 182.072C91.7793 182.072 91.8153 182.156 91.8633 182.248C91.9113 182.34 91.9353 182.42 91.9593 182.42C91.9833 182.42 91.9913 182.32 91.9353 182.216C91.8793 182.112 91.7953 182.056 91.7793 182.072Z" fill="#4D4D4D"/>
<path d="M91.2793 181.512C91.2793 181.512 91.3073 181.592 91.3753 181.656C91.4433 181.72 91.5153 181.76 91.5313 181.744C91.5473 181.728 91.5033 181.664 91.4313 181.6C91.3593 181.536 91.2913 181.5 91.2793 181.512Z" fill="#4D4D4D"/>
<path d="M90.5707 181.268C90.5707 181.288 90.6627 181.288 90.7627 181.316C90.8627 181.344 90.9307 181.392 90.9467 181.38C90.9627 181.368 90.9067 181.28 90.7867 181.244C90.6667 181.208 90.5627 181.248 90.5707 181.268Z" fill="#4D4D4D"/>
<path d="M90.0664 181.156C90.0664 181.156 90.0984 181.204 90.1544 181.224C90.2104 181.244 90.2624 181.244 90.2704 181.224C90.2784 181.204 90.2384 181.172 90.1824 181.152C90.1264 181.132 90.0744 181.136 90.0664 181.156Z" fill="#4D4D4D"/>
<path d="M69.8995 155.736C69.8675 156.452 67.2715 178.728 67.2715 178.728L73.3875 180.084L79.0315 157.388L69.8995 155.736Z" fill="#C0C0C0"/>
<path d="M73.6623 180.676L73.8023 180.036L67.2983 178.584L66.8223 180.7L67.2223 180.812C68.9863 181.308 76.2303 183.212 77.4983 183.144C78.9063 183.068 73.6623 180.676 73.6623 180.676Z" fill="black"/>
<g opacity="0.3">
<path opacity="0.3" d="M69.1991 181.2C69.2116 180.66 69.0186 180.135 68.6591 179.732C68.2935 179.314 67.7921 179.037 67.2431 178.952L66.8671 180.636L69.1991 181.2Z" fill="black"/>
</g>
<g opacity="0.3">
<path opacity="0.3" d="M76.2063 181.936C76.2063 181.936 78.0183 182.888 77.7143 183.136C77.4103 183.384 70.0223 181.708 66.8223 180.708L66.8623 180.576L75.4623 182.576C75.4623 182.576 75.8263 181.864 76.2063 181.936Z" fill="black"/>
</g>
<path d="M66.7637 180.54L66.8717 180.576L67.1877 180.668L68.3517 180.98C69.3397 181.236 70.7037 181.576 72.2197 181.92C73.7357 182.264 75.1157 182.548 76.1157 182.74L77.3157 182.96L77.6397 183.012H77.7557L77.6437 182.984L77.3237 182.916L76.1237 182.672C75.1237 182.464 73.7477 182.176 72.2317 181.832C70.7157 181.488 69.3517 181.156 68.3597 180.912L67.1997 180.64L66.8797 180.564C66.8424 180.55 66.8033 180.542 66.7637 180.54Z" fill="#4D4D4D"/>
<path d="M75.4395 182.676C75.5317 182.504 75.6445 182.344 75.7755 182.2C75.9279 182.072 76.0943 181.962 76.2714 181.872C76.0605 181.895 75.8648 181.993 75.7195 182.148C75.5614 182.281 75.4611 182.47 75.4395 182.676Z" fill="#4D4D4D"/>
<path d="M73.7303 181.344C73.7303 181.344 73.8623 181.276 73.9863 181.156C74.1103 181.036 74.1983 180.932 74.1823 180.92C74.1663 180.908 74.0543 180.988 73.9303 181.104C73.8063 181.22 73.7143 181.328 73.7303 181.344Z" fill="#4D4D4D"/>
<path d="M73.2622 180.968C73.3552 180.959 73.4445 180.928 73.5222 180.876C73.6542 180.808 73.7542 180.736 73.7422 180.72C73.7302 180.704 73.6142 180.74 73.4822 180.808C73.3502 180.876 73.2542 180.948 73.2622 180.968Z" fill="#4D4D4D"/>
<path d="M73.0586 180.324C72.64 180.316 72.2344 180.469 71.9252 180.752C71.6161 181.034 71.427 181.424 71.3968 181.842C71.3667 182.259 71.4978 182.673 71.7632 182.996C72.0285 183.32 72.408 183.53 72.8234 183.583C73.2387 183.635 73.6585 183.526 73.9961 183.279C74.3337 183.031 74.5636 182.664 74.6383 182.252C74.713 181.84 74.627 181.415 74.3979 181.064C74.1687 180.714 73.814 180.465 73.4066 180.368C73.2949 180.329 73.1764 180.314 73.0586 180.324Z" fill="#4D4D4D"/>
<path d="M73.0351 179.896C73.1313 179.992 73.2538 180.057 73.3871 180.084C73.5141 180.134 73.6527 180.148 73.7871 180.124C73.6657 180.075 73.5398 180.037 73.4111 180.012C73.2887 179.964 73.1631 179.925 73.0351 179.896Z" fill="#4D4D4D"/>
<path d="M74.0664 180.868C74.1943 180.918 74.3293 180.947 74.4664 180.956C74.6207 180.97 74.7761 180.97 74.9304 180.956C75.0222 180.952 75.1133 180.938 75.2024 180.916C75.2569 180.902 75.304 180.867 75.3344 180.82C75.3469 180.791 75.3508 180.76 75.3459 180.73C75.3409 180.699 75.3272 180.671 75.3064 180.648C75.1655 180.537 74.9915 180.477 74.8124 180.477C74.6333 180.477 74.4593 180.537 74.3184 180.648C74.2368 180.708 74.1698 180.786 74.1224 180.876C74.0904 180.936 74.0864 180.976 74.0904 180.976C74.1582 180.865 74.2464 180.769 74.3504 180.692C74.4682 180.61 74.6069 180.562 74.7504 180.556C74.9255 180.54 75.0999 180.592 75.2384 180.7C75.2944 180.76 75.2384 180.824 75.1704 180.848C75.088 180.871 75.0036 180.885 74.9184 180.892C74.7679 180.902 74.6169 180.902 74.4664 180.892C74.2264 180.888 74.0704 180.856 74.0664 180.868Z" fill="#4D4D4D"/>
<path d="M74.1709 180.908C74.1709 180.908 74.2589 180.832 74.2789 180.652C74.2872 180.546 74.2694 180.441 74.2269 180.344C74.2027 180.276 74.1624 180.216 74.1094 180.168C74.0564 180.12 73.9923 180.085 73.9229 180.068C73.902 180.067 73.8812 180.07 73.8616 180.077C73.842 180.084 73.8241 180.095 73.8088 180.109C73.7935 180.123 73.7812 180.14 73.7726 180.159C73.764 180.178 73.7594 180.199 73.7589 180.22C73.7542 180.284 73.7652 180.349 73.7909 180.408C73.8267 180.506 73.8751 180.598 73.9349 180.684C73.9857 180.769 74.0555 180.842 74.1389 180.896C74.1389 180.896 74.0709 180.808 73.9829 180.66C73.933 180.573 73.8915 180.482 73.8589 180.388C73.8189 180.292 73.8149 180.136 73.9229 180.144C74.0309 180.152 74.1149 180.276 74.1589 180.368C74.2007 180.455 74.2226 180.551 74.2229 180.648C74.2152 180.736 74.1977 180.823 74.1709 180.908Z" fill="#4D4D4D"/>
<path d="M67.2598 178.924C67.2598 178.924 67.4478 178.948 67.7358 179.048C68.1026 179.172 68.4307 179.39 68.6878 179.68C68.9331 179.966 69.0938 180.315 69.1518 180.688C69.1682 180.839 69.1762 180.992 69.1758 181.144C69.1758 181.144 69.1958 181.1 69.2038 181.024C69.2164 180.91 69.2164 180.794 69.2038 180.68C69.1599 180.294 69.001 179.93 68.7478 179.636C68.4799 179.334 68.1338 179.113 67.7478 178.996C67.6304 178.96 67.5098 178.936 67.3878 178.924C67.3454 178.917 67.3021 178.917 67.2598 178.924Z" fill="#4D4D4D"/>
<path d="M70.1231 180.776C70.4169 180.915 70.7275 181.016 71.0471 181.076C71.3614 181.163 71.6851 181.211 72.0111 181.22C72.0111 181.2 71.5831 181.128 71.0671 181.004C70.5511 180.88 70.1311 180.756 70.1231 180.776Z" fill="#4D4D4D"/>
<path d="M68.8555 180.488C68.8555 180.488 68.8555 180.58 68.8955 180.68C68.9355 180.78 68.9235 180.864 68.9475 180.868C68.9715 180.872 69.0035 180.78 68.9755 180.668C68.9475 180.556 68.8715 180.476 68.8555 180.488Z" fill="#4D4D4D"/>
<path d="M68.5 179.828C68.5 179.828 68.5 179.912 68.564 179.988C68.628 180.064 68.676 180.12 68.692 180.112C68.708 180.104 68.692 180.028 68.632 179.952C68.572 179.876 68.52 179.816 68.5 179.828Z" fill="#4D4D4D"/>
<path d="M67.8711 179.42C67.8711 179.444 67.9591 179.46 68.0471 179.512C68.1351 179.564 68.1951 179.628 68.2151 179.62C68.2351 179.612 68.2151 179.512 68.0871 179.448C67.9591 179.384 67.8711 179.4 67.8711 179.42Z" fill="#4D4D4D"/>
<path d="M67.4102 179.2C67.4102 179.2 67.4302 179.256 67.4782 179.288C67.5262 179.32 67.5782 179.332 67.5902 179.312C67.6022 179.292 67.5902 179.256 67.5222 179.224C67.4542 179.192 67.4222 179.176 67.4102 179.2Z" fill="#4D4D4D"/>
<path d="M92.8584 56.5279C92.6944 56.0519 92.2904 55.6959 92.0944 55.2319C91.8024 54.5359 92.0184 53.7479 92.0944 52.9999C92.1704 52.2519 92.0144 51.3399 91.3304 51.0319C91.031 50.9539 90.737 50.8564 90.4504 50.7399C89.9144 50.4039 89.9424 49.6439 89.8944 49.0159C89.8621 48.6007 89.7564 48.1944 89.5824 47.8159L89.6944 47.7799C90.0997 47.6818 90.5266 47.7294 90.9003 47.9145C91.274 48.0995 91.5707 48.4101 91.7384 48.7919C91.8124 48.9517 91.8445 49.1276 91.832 49.3032C91.8194 49.4788 91.7624 49.6484 91.6664 49.7959C91.584 49.9188 91.4627 50.0105 91.322 50.0562C91.1813 50.1019 91.0293 50.099 90.8904 50.0479C90.7828 49.9919 90.6967 49.9019 90.6454 49.792C90.5941 49.6821 90.5804 49.5584 90.6064 49.4399C90.64 49.3543 90.7022 49.2829 90.7823 49.2377C90.8624 49.1925 90.9557 49.1764 91.0464 49.1919C91.107 49.1971 91.1658 49.2151 91.2189 49.2447C91.2721 49.2744 91.3182 49.315 91.3544 49.3639C91.4024 49.4359 91.4064 49.4879 91.4144 49.4839C91.4224 49.4799 91.4144 49.4319 91.4144 49.3439C91.3805 49.2797 91.3322 49.2242 91.2732 49.1818C91.2142 49.1395 91.1461 49.1114 91.0744 49.0999C90.9714 49.0807 90.8652 49.089 90.7664 49.1239C90.7046 49.147 90.6486 49.1833 90.6023 49.2302C90.556 49.2772 90.5205 49.3338 90.4984 49.3959C90.4521 49.5471 90.46 49.7096 90.5205 49.8556C90.5811 50.0016 90.6907 50.122 90.8304 50.1959C91.005 50.2724 91.2006 50.2863 91.3842 50.2353C91.5679 50.1843 91.7283 50.0715 91.8384 49.9159C91.9599 49.7431 92.0348 49.5419 92.0559 49.3317C92.0769 49.1215 92.0433 48.9094 91.9584 48.7159C91.7906 48.3108 91.4927 47.973 91.1118 47.7558C90.7309 47.5385 90.2885 47.4541 89.8544 47.5159C89.9485 47.3572 90.0082 47.1804 90.0296 46.9971C90.0509 46.8138 90.0335 46.6281 89.9784 46.4519C89.9048 46.2373 89.7834 46.0422 89.6233 45.8815C89.4633 45.7207 89.2687 45.5984 89.0544 45.5239C88.6789 45.3859 88.2707 45.3636 87.8824 45.4599C87.5539 45.5397 87.2414 45.675 86.9584 45.8599C86.6984 46.0279 86.4984 46.2119 86.3064 46.3359C86.1474 46.4507 85.9613 46.5224 85.7664 46.5439C85.5987 46.5594 85.4302 46.5246 85.2824 46.4439C85.2824 46.4439 85.4064 46.6359 85.7704 46.6359C85.9852 46.63 86.1942 46.565 86.3744 46.4479C86.5864 46.3279 86.7984 46.1479 87.0464 45.9999C87.3242 45.8074 87.6428 45.6816 87.9772 45.6323C88.3116 45.5831 88.6529 45.6117 88.9744 45.7159C89.1598 45.7796 89.3283 45.8848 89.4669 46.0234C89.6056 46.162 89.7107 46.3305 89.7744 46.5159C89.8337 46.7019 89.8392 46.9008 89.7904 47.0897C89.7415 47.2787 89.6403 47.45 89.4984 47.5839C89.2957 47.2154 88.9972 46.9086 88.6344 46.6959C87.8344 46.2439 86.6344 46.4639 86.2344 47.2879L79.6704 45.0319C79.2589 44.686 78.7668 44.4494 78.2397 44.3438C77.7126 44.2382 77.1674 44.2672 76.6544 44.4279L76.5184 44.4039C76.1394 44.3684 75.7576 44.4318 75.4104 44.5879C74.9747 44.8323 74.5947 45.1647 74.2944 45.5639C74.1145 45.7711 73.9024 45.948 73.6664 46.0879C73.6247 46.1064 73.5819 46.1224 73.5384 46.1359C73.2476 46.1688 72.9548 46.1795 72.6624 46.1679C72.1104 46.0399 71.5384 45.7239 70.8584 45.6559C70.4782 45.6045 70.0916 45.6317 69.7224 45.7359C69.3302 45.8515 68.9782 46.0746 68.7064 46.3799C68.4206 46.7 68.2638 47.1148 68.2664 47.5439C68.2716 47.8519 68.3201 48.1575 68.4104 48.4519C68.2629 48.8479 68.1975 49.2699 68.2184 49.6919C68.2464 50.2479 68.4064 50.8319 68.4144 51.3759C68.2536 51.5015 68.0703 51.5952 67.8744 51.6519C67.5304 51.7599 67.1584 51.8119 66.8064 51.9479C66.4768 52.0822 66.1799 52.2855 65.9356 52.5443C65.6913 52.803 65.5054 53.1112 65.3904 53.4479C65.2804 53.717 65.2389 54.0091 65.2696 54.2981C65.3003 54.5872 65.4023 54.864 65.5664 55.1039C65.4824 55.469 65.4804 55.8482 65.5607 56.2141C65.6409 56.58 65.8013 56.9235 66.0304 57.2199C66.3945 57.5659 66.7378 57.9332 67.0584 58.3199C67.4904 58.9879 67.4264 59.8479 67.5384 60.6359C67.6504 61.4239 68.1024 62.3199 68.8984 62.3719C69.5384 62.4119 70.0984 61.8759 70.7544 61.9279C71.6504 61.9999 72.0184 63.0759 72.5384 63.8119C72.8741 64.2744 73.3276 64.6384 73.8516 64.8664C74.3757 65.0943 74.9512 65.1777 75.5184 65.1079C76.3184 64.9999 77.1424 64.5679 77.9384 64.7679C78.9424 65.0239 79.5384 66.1999 80.5744 66.3479C81.3344 66.4559 82.0424 65.9479 82.6104 65.4279C83.1784 64.9079 83.7504 64.3079 84.5104 64.1719C85.4224 64.0079 86.3024 64.5719 87.2224 64.6839C87.8196 64.7555 88.4246 64.6499 88.9622 64.3804C89.4999 64.1108 89.9464 63.6892 90.2464 63.1679C90.7504 62.2519 90.7464 61.1279 91.2224 60.1959C91.5866 59.6022 91.9873 59.0318 92.4224 58.4879C92.7984 57.9239 93.0904 57.1999 92.8584 56.5279ZM66.5384 53.5759C66.4646 53.5602 66.3882 53.5602 66.3144 53.5759C66.3144 53.5759 66.3824 53.5759 66.4944 53.6199L66.3704 53.7119C65.9959 54.0239 65.7252 54.4424 65.5944 54.9119C65.4953 54.6993 65.4406 54.4686 65.4337 54.2341C65.4268 53.9995 65.4679 53.766 65.5544 53.5479C65.6643 53.2413 65.8381 52.9614 66.0643 52.727C66.2905 52.4925 66.5639 52.3088 66.8664 52.1879C67.1864 52.0679 67.5504 52.0159 67.9224 51.9039C68.0835 51.8585 68.2372 51.7898 68.3784 51.6999C68.3614 51.9178 68.2972 52.1293 68.1904 52.3199C67.8464 52.9159 67.1184 53.1679 66.5384 53.5759ZM71.0184 46.2159C70.4867 46.3164 69.986 46.5403 69.5566 46.8696C69.1273 47.1989 68.7812 47.6244 68.5464 48.1119C68.5056 47.9321 68.4842 47.7484 68.4824 47.5639C68.4805 47.1902 68.6157 46.8287 68.8624 46.5479C69.1096 46.2875 69.4165 46.0913 69.7567 45.9763C70.0968 45.8613 70.4599 45.8309 70.8144 45.8879C71.1829 45.9363 71.5441 46.029 71.8904 46.1639C71.5988 46.1592 71.3073 46.1766 71.0184 46.2159ZM74.3104 45.9399C74.2304 45.9759 74.1464 45.9999 74.0664 46.0279C74.183 45.922 74.2939 45.8098 74.3984 45.6919C74.6816 45.3043 75.0376 44.9756 75.4464 44.7239C75.7483 44.5757 76.0822 44.5042 76.4184 44.5159C76.2449 44.5794 76.0786 44.6612 75.9224 44.7599C75.3624 45.1199 74.9184 45.6599 74.3104 45.9399Z" fill="#4D4D4D"/>
<path d="M88.539 59.6799C88.851 57.7119 88.755 54.4799 88.587 51.8359C88.5518 51.2724 88.4029 50.7219 88.1493 50.2174C87.8957 49.713 87.5427 49.2651 87.1114 48.9007C86.6801 48.5363 86.1795 48.263 85.6398 48.0972C85.1001 47.9314 84.5325 47.8765 83.971 47.9359L77.095 48.6639C76.7482 48.7 76.4277 48.8653 76.1972 49.1269C75.9667 49.3886 75.8431 49.7273 75.851 50.0759L76.559 66.9679H74.959V70.0279C74.959 71.7084 75.6265 73.3199 76.8148 74.5082C78.003 75.6964 79.6146 76.3639 81.295 76.3639C82.9754 76.3639 84.587 75.6964 85.7752 74.5082C86.9634 73.3199 87.631 71.7084 87.631 70.0279V67.3799C87.631 67.3799 85.983 66.8399 84.983 66.8959H84.739C84.739 65.3479 84.867 64.1359 84.867 64.1359C84.867 64.1359 87.911 63.6439 88.539 59.6799Z" fill="#C0C0C0"/>
<path d="M87.559 54.3999C87.5591 54.5323 87.5079 54.6595 87.4161 54.755C87.3244 54.8505 87.1993 54.9067 87.067 54.9119C87.0021 54.9173 86.9368 54.9096 86.875 54.8892C86.8132 54.8689 86.7561 54.8362 86.7071 54.7933C86.6582 54.7503 86.6185 54.698 86.5903 54.6393C86.5621 54.5806 86.546 54.5169 86.543 54.4519C86.5429 54.3195 86.5941 54.1922 86.6858 54.0967C86.7775 54.0012 86.9027 53.945 87.035 53.9399C87.0997 53.935 87.1648 53.9431 87.2264 53.9636C87.288 53.9842 87.3448 54.0169 87.3936 54.0597C87.4424 54.1026 87.4822 54.1547 87.5106 54.2131C87.539 54.2715 87.5554 54.335 87.559 54.3999Z" fill="#4D4D4D"/>
<path d="M87.8871 53.5199C87.8231 53.5839 87.4391 53.2999 86.8911 53.2999C86.3431 53.2999 85.9431 53.5759 85.8831 53.5079C85.8231 53.4399 85.9191 53.3599 86.0951 53.2319C86.3308 53.0707 86.6096 52.9843 86.8951 52.9839C87.1822 52.9819 87.4625 53.0716 87.6951 53.2399C87.8591 53.3679 87.9191 53.4879 87.8871 53.5199Z" fill="#4D4D4D"/>
<path d="M82.2113 54.3999C82.2124 54.5319 82.1621 54.6592 82.071 54.7547C81.9799 54.8503 81.8552 54.9067 81.7233 54.9119C81.6584 54.9173 81.5931 54.9096 81.5313 54.8892C81.4695 54.8689 81.4124 54.8362 81.3635 54.7933C81.3145 54.7503 81.2748 54.698 81.2466 54.6393C81.2184 54.5806 81.2023 54.5169 81.1993 54.4519C81.1971 54.3195 81.2471 54.1917 81.3384 54.0959C81.4297 54.0001 81.555 53.944 81.6873 53.9399C81.752 53.935 81.8171 53.9431 81.8787 53.9636C81.9403 53.9842 81.9972 54.0169 82.046 54.0597C82.0948 54.1026 82.1345 54.1547 82.1629 54.2131C82.1913 54.2715 82.2077 54.335 82.2113 54.3999Z" fill="#4D4D4D"/>
<path d="M82.5102 53.62C82.4462 53.688 82.0622 53.404 81.5142 53.404C80.9662 53.404 80.5662 53.68 80.5062 53.612C80.4462 53.544 80.5422 53.464 80.7182 53.336C80.9521 53.1713 81.2321 53.0845 81.5182 53.088C81.8056 53.084 82.0865 53.1739 82.3182 53.344C82.4822 53.472 82.5422 53.6 82.5102 53.62Z" fill="#4D4D4D"/>
<path d="M84.4944 57.676C84.7825 57.5859 85.0809 57.5322 85.3824 57.516C85.5224 57.516 85.6544 57.476 85.6784 57.38C85.6869 57.2406 85.655 57.1017 85.5864 56.98C85.4544 56.644 85.3184 56.288 85.1864 55.916C84.6144 54.404 84.1984 53.16 84.2624 53.136C84.7144 54.0049 85.0982 54.9076 85.4104 55.836C85.5464 56.212 85.6784 56.564 85.8104 56.908C85.8987 57.0763 85.9242 57.2706 85.8824 57.456C85.8615 57.5052 85.8298 57.5491 85.7896 57.5845C85.7495 57.6198 85.7019 57.6456 85.6504 57.66C85.5735 57.6811 85.4941 57.6919 85.4144 57.692C85.1083 57.726 84.7991 57.7207 84.4944 57.676Z" fill="#4D4D4D"/>
<path d="M84.8744 64.1479C83.0081 64.1765 81.1705 63.6863 79.5664 62.7319C79.5664 62.7319 80.8544 65.4559 84.8184 65.0839L84.8744 64.1479Z" fill="#EB996E"/>
<path d="M84.2633 58.996C84.1592 58.8647 84.0235 58.7621 83.8688 58.6977C83.7142 58.6333 83.5457 58.6093 83.3793 58.628C83.2586 58.6393 83.1415 58.675 83.035 58.7327C82.9284 58.7904 82.8347 58.8691 82.7593 58.964C82.6857 59.0549 82.642 59.1663 82.6341 59.283C82.6262 59.3997 82.6546 59.516 82.7153 59.6159C82.804 59.7126 82.9191 59.7811 83.0463 59.8131C83.1736 59.8451 83.3074 59.8391 83.4313 59.796C83.6881 59.7088 83.9258 59.573 84.1313 59.396C84.1931 59.3515 84.246 59.2959 84.2873 59.232C84.3079 59.2019 84.3189 59.1664 84.3189 59.1299C84.3189 59.0935 84.3079 59.058 84.2873 59.028" fill="#EB996E"/>
<path d="M82.8865 58.056C82.9745 58.056 82.9745 58.644 83.4825 59.064C83.9905 59.484 84.6225 59.42 84.6265 59.504C84.6305 59.588 84.4865 59.62 84.2265 59.628C83.8793 59.6324 83.5419 59.5133 83.2745 59.292C83.0148 59.0826 82.8481 58.7794 82.8105 58.448C82.7985 58.2 82.8465 58.052 82.8865 58.056Z" fill="#4D4D4D"/>
<path d="M82.7549 52.664C82.7029 52.812 82.1549 52.74 81.5149 52.82C80.8749 52.9 80.3549 53.072 80.2709 52.936C80.2309 52.876 80.3229 52.736 80.5309 52.592C80.8079 52.4104 81.1251 52.2992 81.4549 52.268C81.7832 52.2285 82.1161 52.2669 82.4269 52.38C82.6629 52.476 82.7989 52.592 82.7549 52.664Z" fill="#4D4D4D"/>
<path d="M87.6864 52.4C87.5904 52.524 87.2104 52.4 86.7584 52.4C86.3064 52.4 85.9224 52.484 85.8344 52.352C85.7944 52.288 85.8344 52.164 86.0224 52.048C86.2464 51.9049 86.5088 51.8338 86.7744 51.844C87.0408 51.8481 87.2993 51.9348 87.5144 52.092C87.6744 52.212 87.7264 52.34 87.6864 52.4Z" fill="#4D4D4D"/>
<path d="M90.063 48.2999C89.791 47.2439 88.991 46.2679 87.919 46.0679C87.219 45.9399 86.503 46.1439 85.795 46.0999C85.207 46.0639 84.995 45.5959 84.439 45.4119C83.511 45.1079 82.799 44.0759 80.795 44.2919C80.259 44.3519 79.571 44.9719 79.079 45.6759C78.311 45.3439 77.299 45.6999 76.747 45.9439C75.599 46.4439 74.883 47.7359 74.655 49.0479C74.427 50.3599 74.615 51.7079 74.799 53.0279C74.883 53.6279 74.967 54.2279 75.055 54.8359C75.0876 55.2363 75.1948 55.627 75.371 55.9879L74.459 64.4679C74.9155 64.6139 75.397 64.6654 75.874 64.6191C76.3511 64.5729 76.8137 64.43 77.2337 64.199C77.6537 63.9681 78.0222 63.6539 78.3168 63.2759C78.6113 62.8978 78.8258 62.4636 78.947 61.9999C79.299 60.3319 78.371 58.6359 78.519 56.9359C78.607 55.9239 79.179 54.9839 79.175 53.9679C79.1684 53.6339 79.1201 53.3019 79.031 52.9799C80.631 51.6719 81.055 50.6199 80.987 49.3799C81.4808 49.7252 82.0647 49.9184 82.667 49.9359C83.515 49.9359 84.399 49.6159 85.191 49.9359C85.7361 50.2148 86.2171 50.6045 86.603 51.0799C87.039 51.5119 87.603 51.9079 88.203 51.8239C88.4898 51.7561 88.7687 51.6582 89.035 51.5319C89.1688 51.4686 89.315 51.4357 89.463 51.4357C89.611 51.4357 89.7572 51.4686 89.891 51.5319C90.2148 50.4854 90.274 49.3749 90.063 48.2999Z" fill="#4D4D4D"/>
<path d="M66.3671 56.9839C66.7773 57.2814 67.2186 57.5335 67.6831 57.7359C68.2281 57.9655 68.8119 58.089 69.4031 58.0999C70.1869 58.1208 70.9567 57.8895 71.5991 57.4399C71.9844 57.1739 72.3095 56.8299 72.5535 56.4303C72.7974 56.0306 72.9547 55.5842 73.0151 55.1199C73.0773 54.6046 72.9721 54.0829 72.7151 53.6319C72.5822 53.4008 72.3937 53.2066 72.1667 53.0669C71.9397 52.9272 71.6813 52.8464 71.4151 52.8319C71.1433 52.8248 70.8774 52.9125 70.6631 53.0799C70.4457 53.2617 70.2847 53.5018 70.1991 53.7719C70.1047 54.0503 70.0831 54.3483 70.1363 54.6374C70.1895 54.9266 70.3158 55.1973 70.5031 55.4239C70.9106 55.8975 71.4609 56.226 72.0711 56.3599C72.7014 56.5086 73.3563 56.5195 73.9911 56.3919C74.6282 56.2651 75.2268 55.9911 75.7391 55.5919C76.2351 55.2079 76.6111 54.6903 76.8231 54.0999C77.0313 53.5319 77.081 52.918 76.9671 52.3239C76.9128 52.0429 76.8128 51.7726 76.6711 51.5239C76.5417 51.2748 76.357 51.0586 76.1311 50.8919C75.9218 50.726 75.6659 50.6295 75.3991 50.6159C75.2754 50.6117 75.1529 50.6416 75.045 50.7022C74.937 50.7629 74.8479 50.852 74.7871 50.9599C74.6707 51.1799 74.6435 51.4364 74.7111 51.6759C74.7882 51.9139 74.9261 52.1276 75.1111 52.2959C75.7695 52.8529 76.6124 53.1433 77.4741 53.11C78.3358 53.0766 79.1538 52.722 79.7671 52.1159C80.1789 51.6915 80.4797 51.1722 80.6431 50.6039C80.7779 50.1174 80.82 49.6099 80.7671 49.1079C80.8041 49.2383 80.8256 49.3725 80.8311 49.5079C80.8596 49.8884 80.8244 50.271 80.7271 50.6399C80.5686 51.227 80.2693 51.7666 79.8551 52.2119C79.2915 52.8005 78.5375 53.1703 77.7271 53.2559C77.2384 53.3191 76.7419 53.2787 76.2699 53.1375C75.7978 52.9962 75.3608 52.7572 74.9871 52.4359C74.7799 52.2467 74.6278 52.0047 74.5471 51.7359C74.4658 51.4481 74.4987 51.14 74.6391 50.8759C74.7164 50.7388 74.8293 50.6251 74.9659 50.5469C75.1025 50.4687 75.2577 50.429 75.4151 50.4319C75.7247 50.4447 76.0225 50.5537 76.2671 50.7439C76.5158 50.9263 76.7197 51.1629 76.8631 51.4359C77.0174 51.7086 77.1268 52.0044 77.1871 52.3119C77.3116 52.9429 77.2604 53.596 77.0391 54.1999C76.8151 54.8309 76.4171 55.3856 75.8911 55.7999C75.3506 56.2161 74.7207 56.501 74.0511 56.6319C73.3896 56.7638 72.7075 56.7515 72.0511 56.5959C71.3959 56.4501 70.8052 56.0965 70.3671 55.5879C70.1604 55.3292 70.0228 55.0223 69.9671 54.6959C69.9178 54.3743 69.9438 54.0457 70.0431 53.7359C70.1399 53.4236 70.3246 53.1459 70.5751 52.9359C70.8292 52.7406 71.1428 52.6388 71.4631 52.6479C71.7632 52.664 72.0543 52.7561 72.309 52.9157C72.5638 53.0752 72.7737 53.2969 72.9191 53.5599C73.1912 54.0463 73.3019 54.6066 73.2351 55.1599C73.1685 55.6473 72.9997 56.1152 72.7398 56.5329C72.48 56.9506 72.1349 57.3087 71.7271 57.5839C71.059 58.0453 70.2583 58.2757 69.4471 58.2399C68.8425 58.2227 68.2473 58.0868 67.6951 57.8399C67.3452 57.6898 67.0147 57.4977 66.7111 57.2679C66.6071 57.1919 66.5351 57.1239 66.4831 57.0839L66.3671 56.9839Z" fill="white"/>
<path d="M90.2956 50.0919C90.2389 50.1456 90.1741 50.1901 90.1036 50.2239C89.9076 50.3333 89.6957 50.4115 89.4756 50.4559C89.1245 50.5272 88.7627 50.5272 88.4116 50.4559C87.9473 50.3462 87.5173 50.1236 87.1596 49.8079C86.7287 49.4244 86.3919 48.9467 86.1756 48.4119C86.1037 48.2579 86.0638 48.091 86.0583 47.9212C86.0528 47.7513 86.0818 47.5822 86.1436 47.4239C86.2201 47.2532 86.3509 47.1125 86.5156 47.0239C86.6046 46.9776 86.7034 46.9535 86.8036 46.9535C86.9039 46.9535 87.0027 46.9776 87.0916 47.0239C87.2629 47.1235 87.3957 47.278 87.4683 47.4624C87.5408 47.6467 87.5491 47.8502 87.4916 48.0399C87.422 48.2258 87.3152 48.3955 87.1776 48.5385C87.04 48.6816 86.8746 48.7951 86.6916 48.8719C85.9548 49.1899 85.122 49.2029 84.3756 48.9079C84.0027 48.7733 83.6448 48.6004 83.3076 48.3919C82.9708 48.1968 82.6648 47.9528 82.3996 47.6679C82.2575 47.5171 82.171 47.3225 82.1543 47.116C82.1376 46.9096 82.1917 46.7035 82.3076 46.5319C82.376 46.4487 82.4658 46.3858 82.5673 46.3498C82.6688 46.3139 82.7781 46.3063 82.8836 46.3279C83.0772 46.3707 83.2497 46.4796 83.3716 46.6359C83.4932 46.7896 83.5493 46.9851 83.5276 47.1799C83.5025 47.3622 83.4246 47.5332 83.3036 47.6719C83.0813 47.9286 82.7663 48.0868 82.4276 48.1119C82.1229 48.1337 81.8169 48.0943 81.5276 47.9959C81.2671 47.9132 81.0119 47.8143 80.7636 47.6999C80.3237 47.5162 79.9391 47.2212 79.6476 46.8439C79.4349 46.5467 79.333 46.1844 79.3596 45.8199C79.3735 45.5923 79.4542 45.3739 79.5916 45.1919C79.6395 45.1289 79.6993 45.0759 79.7676 45.0359C79.5661 45.2544 79.4509 45.5387 79.4436 45.8359C79.4332 46.1755 79.539 46.5086 79.7436 46.7799C80.0292 47.1364 80.4028 47.4121 80.8276 47.5799C81.3235 47.8304 81.872 47.9593 82.4276 47.9559C82.5732 47.9421 82.7145 47.8997 82.8436 47.831C82.9727 47.7624 83.0869 47.6689 83.1796 47.5559C83.2829 47.4512 83.3454 47.313 83.3556 47.1663C83.3659 47.0195 83.3233 46.874 83.2356 46.7559C83.0556 46.5199 82.6716 46.4159 82.4916 46.6599C82.4456 46.721 82.4124 46.7907 82.3939 46.865C82.3753 46.9392 82.3718 47.0163 82.3836 47.0919C82.4071 47.2546 82.4765 47.4072 82.5836 47.5319C82.8353 47.7957 83.1236 48.022 83.4396 48.2039C83.7635 48.4045 84.1082 48.5695 84.4676 48.6959C84.8086 48.8378 85.1743 48.9109 85.5436 48.9109C85.913 48.9109 86.2786 48.8378 86.6196 48.6959C86.7739 48.6312 86.9134 48.5358 87.0297 48.4155C87.1459 48.2951 87.2364 48.1524 87.2956 47.9959C87.3447 47.8475 87.3408 47.6867 87.2846 47.5408C87.2285 47.395 87.1235 47.2731 86.9876 47.1959C86.924 47.1671 86.855 47.1519 86.7851 47.1514C86.7152 47.1509 86.646 47.1651 86.5819 47.193C86.5179 47.2209 86.4603 47.2619 86.4131 47.3134C86.3658 47.3648 86.3299 47.4257 86.3076 47.4919C86.2568 47.6269 86.2331 47.7705 86.2379 47.9147C86.2427 48.0588 86.2759 48.2006 86.3356 48.3319C86.5366 48.8438 86.8512 49.3033 87.2556 49.6759C87.5893 49.9841 87.9929 50.2065 88.4316 50.3239C88.7648 50.4086 89.1115 50.4263 89.4516 50.3759C89.7443 50.3192 90.0282 50.2237 90.2956 50.0919Z" fill="white"/>
<path d="M78.7424 59.3959C78.6948 59.4507 78.638 59.4967 78.5744 59.5319C78.397 59.6471 78.1985 59.7259 77.9904 59.7639C77.6613 59.8318 77.32 59.8097 77.0024 59.6999C76.7835 59.6364 76.5806 59.5268 76.4074 59.3784C76.2343 59.2301 76.0948 59.0465 75.9984 58.8399C75.9334 58.7081 75.913 58.5588 75.9404 58.4144C75.9679 58.2701 76.0416 58.1386 76.1504 58.0399C76.2736 57.9449 76.4248 57.8933 76.5804 57.8933C76.736 57.8933 76.8872 57.9449 77.0104 58.0399C77.2583 58.242 77.4465 58.5077 77.555 58.8086C77.6636 59.1094 77.6882 59.4341 77.6264 59.7479C77.5856 60.0954 77.4584 60.4272 77.2565 60.7129C77.0546 60.9987 76.7843 61.2294 76.4704 61.3839C76.1248 61.5299 75.7493 61.5916 75.3751 61.5638C75.0009 61.5359 74.6387 61.4194 74.3184 61.2239C73.9872 61.038 73.7048 60.7762 73.4944 60.4599C73.3875 60.3015 73.3149 60.1226 73.2811 59.9346C73.2474 59.7465 73.2533 59.5535 73.2984 59.3679C73.3465 59.1822 73.4447 59.0134 73.5824 58.8799C73.6526 58.8115 73.7359 58.7581 73.8274 58.723C73.9189 58.688 74.0165 58.6719 74.1144 58.6759C74.2943 58.6895 74.4675 58.7493 74.6175 58.8495C74.7675 58.9497 74.889 59.0869 74.9704 59.2479C75.1187 59.5381 75.1994 59.8581 75.2064 60.1839C75.2182 60.4839 75.1886 60.784 75.1184 61.0759C74.9926 61.6066 74.7146 62.089 74.3184 62.4639C74.035 62.7381 73.6768 62.9223 73.2889 62.9935C72.901 63.0647 72.5008 63.0196 72.1384 62.8639C71.9449 62.7795 71.7686 62.6602 71.6184 62.5119C71.5642 62.4637 71.5182 62.407 71.4824 62.3439C71.6875 62.5254 71.9196 62.6738 72.1704 62.7839C72.4681 62.899 72.7896 62.9388 73.1064 62.8999C73.5231 62.8494 73.9113 62.6623 74.2104 62.3679C74.5719 62.0075 74.8219 61.5506 74.9304 61.0519C74.995 60.7755 75.0193 60.4912 75.0024 60.2079C74.9938 59.9135 74.9186 59.625 74.7824 59.3639C74.7179 59.2331 74.6207 59.1212 74.5001 59.0392C74.3795 58.9572 74.2398 58.9078 74.0944 58.8959C73.9475 58.9049 73.808 58.9637 73.699 59.0626C73.5899 59.1615 73.5178 59.2945 73.4944 59.4399C73.4566 59.5967 73.4524 59.7597 73.482 59.9183C73.5117 60.0768 73.5745 60.2273 73.6664 60.3599C73.8586 60.6466 74.1146 60.8848 74.4144 61.0559C74.71 61.2356 75.0441 61.3423 75.389 61.3674C75.734 61.3924 76.08 61.335 76.3984 61.1999C76.6814 61.0596 76.9253 60.8513 77.1082 60.5938C77.291 60.3362 77.4073 60.0373 77.4464 59.7239C77.5029 59.446 77.4846 59.158 77.3932 58.8895C77.3018 58.621 77.1407 58.3816 76.9264 58.1959C76.8334 58.1229 76.7186 58.0832 76.6004 58.0832C76.4822 58.0832 76.3674 58.1229 76.2744 58.1959C76.1937 58.2705 76.1389 58.3689 76.118 58.4769C76.0972 58.5848 76.1113 58.6966 76.1584 58.7959C76.2425 58.9838 76.3649 59.152 76.5178 59.2898C76.6708 59.4276 76.8508 59.5318 77.0464 59.5959C77.3453 59.7065 77.6673 59.7396 77.9824 59.6919C78.2508 59.6373 78.5078 59.5372 78.7424 59.3959Z" fill="white"/>
<path d="M62.2188 156.632C62.2188 156.632 64.8947 161.832 71.8707 159.304C71.8707 159.304 78.7028 163.016 85.2388 158.86C85.2388 158.86 93.6987 159.992 98.3027 157.764L92.3987 106.708L91.6467 98.8679H72.9628C72.9628 98.8679 67.4188 101.392 66.5268 113.716C65.6348 126.04 63.7268 142.968 63.7268 142.968L62.2188 156.632Z" fill="#4D4D4D"/>
<path d="M84.8393 159.016C84.8393 159.016 84.8393 158.964 84.8393 158.86C84.8393 158.756 84.8153 158.6 84.7993 158.408C84.7673 158.008 84.7233 157.412 84.6633 156.664C84.5513 155.152 84.4033 152.96 84.2433 150.264C83.9193 144.848 83.5753 137.352 83.3953 129.064C83.2153 120.776 83.2353 113.276 83.3233 107.864C83.3673 105.148 83.4153 102.952 83.4673 101.436C83.4913 100.684 83.5113 100.1 83.5273 99.688C83.5273 99.496 83.5273 99.344 83.5273 99.232C83.5221 99.1814 83.5221 99.1305 83.5273 99.08C83.5334 99.1304 83.5334 99.1815 83.5273 99.232V99.688C83.5273 100.088 83.5273 100.688 83.5073 101.436C83.5073 102.964 83.4633 105.16 83.4313 107.864C83.3833 113.292 83.3833 120.792 83.5633 129.064C83.7433 137.336 84.0673 144.836 84.3633 150.264C84.5113 152.968 84.6313 155.156 84.7193 156.664C84.7593 157.412 84.7913 158 84.8153 158.408C84.8153 158.6 84.8153 158.752 84.8353 158.864C84.8408 158.914 84.8422 158.965 84.8393 159.016Z" fill="white"/>
<path d="M86.4784 144.4C86.4784 144.4 86.5184 144.344 86.6224 144.316C86.7764 144.282 86.9371 144.302 87.0784 144.372C87.1855 144.424 87.2795 144.5 87.3535 144.594C87.4276 144.687 87.4798 144.796 87.5064 144.912C87.5217 145.061 87.4933 145.212 87.4246 145.346C87.3559 145.479 87.2499 145.59 87.1194 145.665C86.989 145.739 86.8397 145.774 86.6897 145.766C86.5397 145.757 86.3954 145.705 86.2744 145.616C86.1878 145.533 86.1209 145.432 86.0787 145.32C86.0364 145.208 86.0199 145.087 86.0304 144.968C86.0419 144.811 86.1068 144.663 86.2144 144.548C86.2904 144.472 86.3544 144.456 86.3584 144.464C86.2516 144.614 86.1892 144.792 86.1784 144.976C86.1786 145.069 86.1983 145.161 86.2362 145.245C86.2741 145.33 86.3294 145.406 86.3984 145.468C86.4904 145.526 86.5964 145.558 86.7051 145.56C86.8138 145.563 86.9211 145.536 87.0156 145.482C87.1101 145.428 87.1881 145.35 87.2415 145.255C87.2948 145.16 87.3214 145.053 87.3184 144.944C87.3016 144.852 87.2649 144.765 87.211 144.689C87.1571 144.613 87.0873 144.55 87.0064 144.504C86.8451 144.416 86.6609 144.38 86.4784 144.4Z" fill="white"/>
<path d="M86.0635 129.24C86.0635 129.24 86.1035 129.188 86.2075 129.16C86.3613 129.124 86.5229 129.144 86.6635 129.216C86.7723 129.266 86.8678 129.341 86.9422 129.435C87.0166 129.529 87.0677 129.639 87.0915 129.756C87.1052 129.904 87.0759 130.054 87.007 130.186C86.9382 130.318 86.8326 130.428 86.7031 130.502C86.5735 130.576 86.4254 130.611 86.2765 130.602C86.1276 130.594 85.9842 130.543 85.8635 130.456C85.7752 130.375 85.7072 130.275 85.6648 130.163C85.6224 130.051 85.6069 129.931 85.6195 129.812C85.6324 129.662 85.6959 129.521 85.7995 129.412C85.8795 129.332 85.9395 129.32 85.9435 129.328C85.8372 129.477 85.7748 129.653 85.7635 129.836C85.7635 129.929 85.7831 130.021 85.821 130.105C85.8589 130.19 85.9143 130.266 85.9835 130.328C86.0749 130.387 86.1808 130.42 86.2896 130.424C86.3985 130.427 86.5062 130.4 86.6011 130.347C86.6959 130.293 86.7742 130.215 86.8276 130.12C86.8809 130.025 86.9071 129.917 86.9035 129.808C86.8861 129.717 86.8497 129.63 86.7967 129.553C86.7436 129.477 86.6751 129.412 86.5955 129.364C86.4332 129.274 86.2489 129.231 86.0635 129.24Z" fill="white"/>
<path d="M85.8188 115.832C85.8188 115.832 85.8588 115.78 85.9668 115.752C86.1193 115.716 86.2795 115.736 86.4188 115.808C86.5278 115.858 86.6236 115.933 86.6986 116.027C86.7736 116.121 86.8257 116.23 86.8508 116.348C86.8652 116.497 86.8362 116.647 86.7671 116.78C86.6981 116.913 86.592 117.023 86.4617 117.097C86.3315 117.171 86.1825 117.206 86.033 117.197C85.8834 117.189 85.7395 117.137 85.6188 117.048C85.5313 116.967 85.4638 116.866 85.4214 116.754C85.3791 116.643 85.3631 116.523 85.3748 116.404C85.3858 116.248 85.4492 116.1 85.5548 115.984C85.6348 115.908 85.6948 115.892 85.7028 115.9C85.5941 116.048 85.5302 116.224 85.5188 116.408C85.5182 116.501 85.538 116.594 85.5767 116.678C85.6153 116.763 85.672 116.839 85.7428 116.9C85.8341 116.958 85.9396 116.99 86.0479 116.993C86.1561 116.996 86.2631 116.969 86.3573 116.916C86.4515 116.862 86.5293 116.784 86.5824 116.69C86.6355 116.595 86.6619 116.488 86.6588 116.38C86.6414 116.288 86.6051 116.202 86.552 116.125C86.4989 116.049 86.4304 115.984 86.3508 115.936C86.1865 115.852 86.0023 115.816 85.8188 115.832Z" fill="white"/>
<path d="M85.3439 101.488C85.3439 101.488 85.3839 101.432 85.4879 101.404C85.6423 101.37 85.8036 101.391 85.9439 101.464C86.0522 101.515 86.1472 101.59 86.2215 101.684C86.2958 101.777 86.3473 101.887 86.3719 102.004C86.3924 102.155 86.3647 102.308 86.2929 102.443C86.2211 102.577 86.1088 102.685 85.9719 102.752C85.8433 102.832 85.6934 102.87 85.5423 102.861C85.3913 102.853 85.2466 102.798 85.1279 102.704C85.0413 102.621 84.9744 102.52 84.9322 102.408C84.8899 102.296 84.8735 102.175 84.8839 102.056C84.8998 101.906 84.9644 101.766 85.0679 101.656C85.1479 101.58 85.2079 101.564 85.2119 101.572C85.1051 101.722 85.0427 101.9 85.0319 102.084C85.0322 102.177 85.0519 102.269 85.0898 102.353C85.1276 102.438 85.1829 102.514 85.2519 102.576C85.3439 102.634 85.4499 102.666 85.5586 102.668C85.6673 102.671 85.7746 102.644 85.8691 102.59C85.9636 102.536 86.0417 102.458 86.095 102.363C86.1483 102.268 86.1749 102.161 86.1719 102.052C86.1551 101.96 86.1184 101.873 86.0645 101.797C86.0106 101.721 85.9408 101.658 85.8599 101.612C85.7043 101.52 85.5245 101.476 85.3439 101.488Z" fill="white"/>
<path d="M109.697 85.96L204.045 85.276L206.673 149.42L108.977 148.516L109.697 85.96Z" fill="black"/>
<path d="M109.691 85.96L154.347 49.828C155.265 49.0865 156.41 48.684 157.59 48.6884C158.769 48.6928 159.911 49.1037 160.823 49.852L204.043 85.276" fill="black"/>
<g opacity="0.3">
<path opacity="0.3" d="M109.691 85.96L154.347 49.828C155.265 49.0865 156.41 48.684 157.59 48.6884C158.769 48.6928 159.911 49.1037 160.823 49.852L204.043 85.276" fill="black"/>
</g>
<path d="M108.976 148.516C108.86 148.404 116.412 140.156 125.848 130.096C135.284 120.036 143.024 111.968 143.144 112.076C143.264 112.184 135.708 120.432 126.272 130.496C116.836 140.56 109.096 148.624 108.976 148.516Z" fill="#4D4D4D"/>
<path d="M206.672 149.42C206.552 149.528 199.196 141.448 190.244 131.376C181.292 121.304 174.132 113.048 174.244 112.94C174.356 112.832 181.72 120.912 190.672 130.988C199.624 141.064 206.8 149.312 206.672 149.42Z" fill="#4D4D4D"/>
<g opacity="0.5">
<path opacity="0.5" d="M204.043 85.276L156.663 123.124L109.695 85.96" fill="black"/>
</g>
<path d="M114.445 89.4639L114.301 59.9999L196.913 59.0199L197.845 90.0239L156.661 122.628L114.445 89.4639Z" fill="#FAFAFA"/>
<path d="M114.444 89.464C114.444 89.464 114.712 89.664 115.22 90.06L117.46 91.804L126 98.472L156.724 122.56H156.62L197.792 89.944L197.752 90.028C197.576 84.116 197.388 77.908 197.196 71.596C197.072 67.344 196.944 63.144 196.82 59.024L196.924 59.124L114.312 60.064L114.376 60C114.408 69.268 114.436 76.632 114.452 81.68C114.452 84.204 114.452 86.148 114.452 87.464V88.956C114.452 89.292 114.452 89.464 114.452 89.464C114.452 89.464 114.452 89.296 114.452 88.964C114.452 88.632 114.452 88.132 114.452 87.48C114.452 86.164 114.424 84.224 114.404 81.704C114.372 76.648 114.324 69.28 114.264 60V59.932H114.328L196.944 58.92H197.044V59.024C197.168 63.14 197.292 67.34 197.42 71.592C197.612 77.908 197.796 84.112 197.976 90.028V90.08L197.936 90.112L156.736 122.7L156.684 122.74L156.632 122.7L125.928 98.532L117.44 91.832L115.2 90.072C114.696 89.672 114.444 89.464 114.444 89.464Z" fill="#4D4D4D"/>
<path d="M183.856 73.86C183.856 73.916 171.22 74.04 155.64 74.132C140.06 74.224 127.42 74.26 127.42 74.2C127.42 74.14 140.052 74.02 155.64 73.924C171.228 73.828 183.856 73.8 183.856 73.86Z" fill="#4D4D4D"/>
<path d="M183.856 82.18C183.856 82.24 171.22 82.364 155.64 82.456C140.06 82.548 127.42 82.58 127.42 82.524C127.42 82.468 140.052 82.344 155.64 82.248C171.228 82.152 183.856 82.124 183.856 82.18Z" fill="#4D4D4D"/>
<path d="M183.856 91.7759C183.856 91.8319 171.22 91.9559 155.64 92.0519C140.06 92.1479 127.42 92.1759 127.42 92.1159C127.42 92.0559 140.052 91.9359 155.64 91.8439C171.228 91.7519 183.856 91.7159 183.856 91.7759Z" fill="#4D4D4D"/>
<path d="M183.856 101.368C183.856 101.428 171.804 101.544 156.936 101.636C142.068 101.728 130.016 101.752 130.012 101.696C130.008 101.64 142.064 101.52 156.936 101.428C171.808 101.336 183.856 101.312 183.856 101.368Z" fill="#4D4D4D"/>
<path d="M173.289 109.788C173.181 109.806 173.071 109.814 172.961 109.812L172.009 109.84L168.521 109.896L157.005 110.06C152.509 110.136 148.433 110.16 145.485 110.164H141.997H141.045C140.935 110.166 140.825 110.159 140.717 110.144C140.825 110.126 140.935 110.118 141.045 110.12L141.997 110.096L145.485 110.036L157.001 109.872C161.497 109.796 165.573 109.772 168.517 109.768H172.009H172.961C173.07 109.768 173.18 109.774 173.289 109.788Z" fill="#4D4D4D"/>
<path d="M162.652 117.884C162.652 117.94 159.96 117.988 156.652 117.988C153.344 117.988 150.652 117.94 150.652 117.884C150.652 117.828 153.348 117.78 156.652 117.78C159.956 117.78 162.652 117.824 162.652 117.884Z" fill="#4D4D4D"/>
<path d="M190.461 111.348C195.972 111.348 200.441 106.88 200.441 101.368C200.441 95.8563 195.972 91.3881 190.461 91.3881C184.949 91.3881 180.481 95.8563 180.481 101.368C180.481 106.88 184.949 111.348 190.461 111.348Z" fill="#4D4D4D"/>
<path d="M187.865 111.348C193.377 111.348 197.845 106.88 197.845 101.368C197.845 95.8563 193.377 91.3881 187.865 91.3881C182.353 91.3881 177.885 95.8563 177.885 101.368C177.885 106.88 182.353 111.348 187.865 111.348Z" fill="white"/>
<path d="M189.132 96.724V105.02H187.6V98H185.844V96.708L189.132 96.724Z" fill="#EBEBEB"/>
<path d="M115.092 46.54H124.22L122.984 45.124V41.728C122.984 40.8454 122.633 39.9989 122.009 39.3748C121.385 38.7507 120.538 38.4 119.656 38.4C119.219 38.4 118.786 38.4861 118.383 38.6534C117.979 38.8207 117.613 39.0659 117.304 39.375C116.995 39.6841 116.75 40.051 116.584 40.4548C116.417 40.8585 116.331 41.2912 116.332 41.728V44.956L115.092 46.54Z" fill="black"/>
<path d="M118.4 46.0921C118.41 46.2909 118.463 46.4852 118.553 46.6623C118.644 46.8395 118.771 46.9954 118.926 47.1197C119.082 47.2441 119.262 47.3342 119.454 47.384C119.647 47.4337 119.848 47.4421 120.044 47.4085C120.24 47.3749 120.427 47.3001 120.592 47.1891C120.757 47.078 120.897 46.9332 121.002 46.7642C121.107 46.5953 121.175 46.4059 121.202 46.2087C121.229 46.0115 121.213 45.8109 121.156 45.6201" fill="black"/>
<path d="M120.164 37.0159H119.268V38.9199H120.164V37.0159Z" fill="black"/>
<path d="M132.964 40.296C132.937 40.2176 132.915 40.1374 132.9 40.056C132.86 39.884 132.808 39.656 132.74 39.352C132.656 38.9694 132.548 38.5926 132.416 38.224C132.336 38.008 132.28 37.764 132.172 37.52L131.832 36.744C131.216 35.4331 130.4 34.2265 129.412 33.168C128.114 31.7999 126.543 30.7204 124.8 30C123.807 29.5822 122.768 29.2867 121.704 29.12C120.556 28.9528 119.392 28.9339 118.24 29.064C117.634 29.1278 117.032 29.232 116.44 29.376C116.14 29.44 115.848 29.556 115.544 29.648C115.239 29.7327 114.94 29.841 114.652 29.972C113.426 30.4676 112.286 31.1519 111.272 32C109.021 33.8556 107.435 36.3923 106.752 39.228C106.392 40.7472 106.304 42.3181 106.492 43.868C106.657 45.4713 107.122 47.0291 107.864 48.46L108.096 48.896L108.124 48.952V49.012C107.384 51.412 106.664 53.812 105.96 56.104L105.772 55.932L111.488 52.952L111.556 52.916L111.62 52.964C114.01 54.8068 116.955 55.7822 119.972 55.7298C122.99 55.6775 125.899 54.6006 128.224 52.676C129.416 51.6796 130.431 50.4896 131.228 49.156C131.865 48.0423 132.355 46.8511 132.688 45.612C132.912 44.6709 133.046 43.7105 133.088 42.744C133.088 42.344 133.088 42 133.088 41.692C133.088 41.384 133.04 41.14 133.024 40.928C133.008 40.716 132.992 40.576 132.984 40.46C132.978 40.4068 132.978 40.3531 132.984 40.3C132.998 40.351 133.007 40.4032 133.012 40.456C133.012 40.5733 133.032 40.7293 133.072 40.924C133.096 41.136 133.124 41.388 133.16 41.692C133.196 41.996 133.16 42.352 133.16 42.748C133.137 43.723 133.017 44.6932 132.8 45.644C132.48 46.9022 131.996 48.1126 131.36 49.244C130.563 50.6066 129.54 51.824 128.336 52.844C126.861 54.0752 125.14 54.9782 123.289 55.4927C121.438 56.0072 119.499 56.1215 117.6 55.828C115.365 55.473 113.253 54.5701 111.452 53.2H111.588L105.88 56.188L105.592 56.34L105.688 56.016L107.848 48.924V49.04L107.612 48.596C106.855 47.1336 106.38 45.5419 106.212 43.904C106.016 42.3178 106.108 40.7094 106.484 39.156C107.184 36.2649 108.805 33.68 111.104 31.792C112.141 30.9335 113.306 30.2413 114.556 29.74C114.849 29.607 115.153 29.4974 115.464 29.412C115.772 29.324 116.068 29.208 116.376 29.144C116.977 28.9961 117.588 28.8918 118.204 28.832C119.375 28.703 120.559 28.7272 121.724 28.904C122.802 29.0827 123.854 29.3888 124.86 29.816C126.621 30.5577 128.206 31.6648 129.508 33.064C130.496 34.1421 131.306 35.3708 131.908 36.704C132.024 36.984 132.136 37.244 132.236 37.504C132.336 37.764 132.396 38 132.472 38.22C132.602 38.5915 132.702 38.9727 132.772 39.36C132.828 39.66 132.876 39.896 132.908 40.072C132.931 40.1453 132.95 40.2202 132.964 40.296Z" fill="#4D4D4D"/>
<path d="M243.323 135.284C244.631 139.704 243.639 145.388 242.055 149.716C240.446 154.087 237.483 157.829 233.599 160.4C233.167 160.684 232.611 160.96 232.155 160.716C231.987 160.582 231.849 160.413 231.753 160.22C231.657 160.027 231.605 159.815 231.599 159.6C230.664 154.821 231.302 149.867 233.419 145.481C235.535 141.095 239.016 137.513 243.339 135.272" fill="black"/>
<g opacity="0.2">
<path opacity="0.2" d="M243.323 135.284C244.631 139.704 243.639 145.388 242.055 149.716C240.446 154.087 237.483 157.829 233.599 160.4C233.167 160.684 232.611 160.96 232.155 160.716C231.987 160.582 231.849 160.413 231.753 160.22C231.657 160.027 231.605 159.815 231.599 159.6C230.664 154.821 231.302 149.867 233.419 145.481C235.535 141.095 239.016 137.513 243.339 135.272" fill="black"/>
</g>
<path d="M223.675 114.304C226.427 114.228 228.243 117.288 228.519 120.032C228.795 122.776 228.187 125.632 228.991 128.256C229.999 131.6 233.143 134 234.087 137.372C235.207 141.344 233.027 145.468 232.923 149.592C232.871 151.592 233.323 153.628 232.943 155.592C232.627 157.272 231.737 158.79 230.427 159.888C229.116 160.986 227.466 161.595 225.756 161.612C224.047 161.629 222.384 161.052 221.052 159.981C219.72 158.91 218.801 157.409 218.451 155.736C217.807 152.648 219.171 149.364 218.355 146.312C217.751 144.06 215.999 142.144 215.855 139.816C215.687 137.044 217.831 134.648 218.231 131.9C218.631 129.152 217.239 126.468 217.031 123.696C216.659 118.728 218.715 114.828 223.671 114.296" fill="black"/>
<path d="M229.707 170.884C229.745 170.795 229.773 170.703 229.791 170.608C229.839 170.4 229.899 170.132 229.971 169.808C230.119 169.116 230.371 168.112 230.651 166.876C232.214 160.436 234.443 154.177 237.303 148.2C237.851 147.052 238.307 146.132 238.631 145.496L238.995 144.764C239.042 144.68 239.079 144.592 239.107 144.5C239.046 144.572 238.994 144.651 238.951 144.736L238.551 145.448C238.199 146.068 237.715 146.98 237.147 148.12C234.188 154.07 231.949 160.351 230.479 166.832C230.203 168.076 229.999 169.088 229.879 169.792C229.827 170.116 229.783 170.384 229.747 170.592C229.723 170.687 229.71 170.785 229.707 170.884Z" fill="#4D4D4D"/>
<path d="M223.787 127.856C223.789 128.003 223.802 128.151 223.827 128.296C223.863 128.604 223.915 129.024 223.979 129.552L224.591 134.172C225.107 138.072 225.819 143.456 226.567 149.412C227.315 155.368 227.959 160.764 228.419 164.672C228.651 166.604 228.839 168.18 228.975 169.296C229.043 169.824 229.095 170.244 229.135 170.552C229.149 170.699 229.173 170.844 229.207 170.988C229.22 170.842 229.22 170.694 229.207 170.548C229.179 170.236 229.143 169.816 229.095 169.284C228.979 168.164 228.819 166.588 228.623 164.648C228.223 160.736 227.595 155.336 226.847 149.38C226.099 143.424 225.359 138.04 224.791 134.144C224.503 132.22 224.267 130.652 224.103 129.54C224.015 129.012 223.947 128.596 223.899 128.288C223.875 128.141 223.838 127.996 223.787 127.856Z" fill="#4D4D4D"/>
<path d="M239.314 165.48H218.41V167.92H239.314V165.48Z" fill="#4D4D4D"/>
<path d="M220.352 167.92L222.804 182.728H235.772L237.468 167.92H220.352Z" fill="#4D4D4D"/>
<path d="M237.535 167.82C237.535 167.88 233.675 167.972 228.911 168.032C224.147 168.092 220.287 168.092 220.287 168.032C220.287 167.972 224.147 167.88 228.911 167.82C233.675 167.76 237.535 167.764 237.535 167.82Z" fill="white"/>
<path d="M236.823 175.232H236.707H236.359C235.913 175.248 235.466 175.231 235.023 175.18C234.31 175.11 233.629 174.853 233.047 174.436C232.682 174.172 232.387 173.823 232.187 173.42C231.955 172.958 231.911 172.425 232.063 171.932C232.15 171.655 232.324 171.415 232.559 171.245C232.794 171.075 233.077 170.985 233.367 170.988C233.675 171.013 233.962 171.156 234.167 171.388C234.367 171.631 234.505 171.919 234.567 172.228C234.819 173.492 233.931 174.9 232.567 175.34C231.203 175.78 229.539 175.02 228.859 173.64C228.681 173.291 228.578 172.91 228.555 172.52C228.528 172.113 228.635 171.708 228.859 171.368C228.977 171.195 229.131 171.05 229.311 170.942C229.49 170.835 229.691 170.767 229.899 170.744C230.114 170.732 230.328 170.776 230.52 170.871C230.713 170.967 230.878 171.11 230.999 171.288C231.241 171.63 231.366 172.041 231.355 172.46C231.347 172.865 231.244 173.262 231.055 173.62C230.687 174.312 230.102 174.866 229.391 175.196C228.718 175.513 227.998 175.717 227.259 175.8C226.547 175.903 225.822 175.84 225.139 175.616C224.479 175.394 223.914 174.954 223.539 174.368C223.365 174.089 223.255 173.774 223.219 173.448C223.183 173.121 223.221 172.79 223.331 172.48C223.423 172.184 223.595 171.918 223.826 171.711C224.058 171.505 224.342 171.366 224.647 171.308C224.929 171.265 225.217 171.294 225.485 171.394C225.752 171.493 225.99 171.659 226.175 171.876C226.328 172.086 226.421 172.334 226.445 172.593C226.469 172.852 226.423 173.113 226.311 173.348C226.125 173.762 225.818 174.111 225.431 174.348C225.106 174.555 224.758 174.724 224.395 174.852C224.063 174.98 223.755 175.08 223.475 175.16C223.048 175.285 222.614 175.383 222.175 175.456L221.831 175.508H221.715C221.715 175.508 221.751 175.508 221.827 175.476L222.167 175.408C222.463 175.344 222.903 175.244 223.455 175.072C223.727 174.988 224.031 174.88 224.359 174.752C224.713 174.621 225.051 174.451 225.367 174.244C225.721 174.01 226 173.678 226.167 173.288C226.268 173.076 226.309 172.84 226.287 172.606C226.264 172.372 226.179 172.149 226.039 171.96C225.869 171.765 225.653 171.617 225.41 171.528C225.167 171.44 224.906 171.415 224.651 171.456C224.377 171.512 224.122 171.641 223.915 171.83C223.708 172.019 223.556 172.26 223.475 172.528C223.375 172.813 223.341 173.118 223.375 173.419C223.41 173.72 223.512 174.008 223.675 174.264C224.029 174.81 224.558 175.22 225.175 175.428C225.831 175.637 226.526 175.694 227.207 175.596C227.922 175.512 228.619 175.314 229.271 175.008C229.943 174.694 230.494 174.17 230.843 173.516C231.03 173.194 231.125 172.827 231.118 172.454C231.111 172.082 231.002 171.719 230.803 171.404C230.704 171.254 230.567 171.132 230.406 171.052C230.246 170.971 230.066 170.934 229.887 170.944C229.71 170.965 229.539 171.024 229.387 171.116C229.234 171.208 229.103 171.333 229.003 171.48C228.803 171.782 228.709 172.142 228.735 172.504C228.756 172.866 228.85 173.219 229.011 173.544C229.647 174.836 231.211 175.58 232.479 175.144C233.747 174.708 234.587 173.412 234.355 172.252C234.304 171.97 234.18 171.706 233.995 171.488C233.909 171.386 233.805 171.302 233.687 171.241C233.568 171.18 233.439 171.143 233.307 171.132C233.051 171.129 232.801 171.207 232.593 171.356C232.385 171.505 232.23 171.717 232.151 171.96C232.005 172.417 232.042 172.913 232.255 173.344C232.439 173.73 232.713 174.066 233.055 174.324C233.618 174.736 234.278 174.996 234.971 175.08C235.41 175.137 235.852 175.166 236.295 175.168H236.643L236.823 175.232Z" fill="white"/>
</svg>
