<svg width="300" height="300" viewBox="0 0 300 300" fill="none" xmlns="http://www.w3.org/2000/svg">
<path opacity="0.7" d="M40.7577 100.254C40.7577 100.254 24.0297 143.454 47.5377 186.954C71.0457 230.454 119.466 253.434 158.22 273.084C196.974 292.734 237.216 283.164 256.338 250.98C275.46 218.796 249.234 195.822 249.198 149.928C249.162 104.034 256.068 91.8841 231.198 53.1121C206.328 14.3401 145.362 5.75409 99.2577 34.5121C53.1537 63.2701 40.7577 100.254 40.7577 100.254Z" fill="white"/>
<path d="M79.1997 256.542C93.3597 271.494 128.124 266.016 143.184 256.542C192.084 225.792 277.752 174.6 281.634 100.44C283.284 68.9221 255.486 52.3681 243.876 47.5141C216 35.8501 185.4 32.3521 155.19 31.0021C123.648 29.5921 89.7897 30.6901 61.4037 46.0801C50.6397 51.9061 40.4877 59.4001 33.5397 69.6001C26.4837 79.9681 22.4217 92.3161 21.3417 104.778C19.6077 124.878 25.0137 145.032 33.1917 163.476C41.3697 181.92 52.2717 198.996 62.2797 216.516C68.8137 227.934 67.2957 243.948 79.1997 256.542Z" fill="black"/>
<path opacity="0.7" d="M79.1997 256.542C93.3597 271.494 128.124 266.016 143.184 256.542C192.084 225.792 277.752 174.6 281.634 100.44C283.284 68.9221 255.486 52.3681 243.876 47.5141C216 35.8501 185.4 32.3521 155.19 31.0021C123.648 29.5921 89.7897 30.6901 61.4037 46.0801C50.6397 51.9061 40.4877 59.4001 33.5397 69.6001C26.4837 79.9681 22.4217 92.3161 21.3417 104.778C19.6077 124.878 25.0137 145.032 33.1917 163.476C41.3697 181.92 52.2717 198.996 62.2797 216.516C68.8137 227.934 67.2957 243.948 79.1997 256.542Z" fill="white"/>
<path d="M84.7268 84.3681L55.9556 75.6768C54.839 75.3395 53.6604 75.9712 53.3231 77.0878L48.2057 94.028C47.8684 95.1445 48.5001 96.3232 49.6167 96.6605L78.3879 105.352C79.5045 105.689 80.6831 105.057 81.0204 103.941L86.1378 87.0006C86.4751 85.884 85.8433 84.7054 84.7268 84.3681Z" stroke="#868686" stroke-width="1.00285" stroke-miterlimit="10"/>
<path d="M52.3088 79.7041L85.0148 89.6161" stroke="#868686" stroke-miterlimit="10"/>
<path d="M51.3117 82.9861L84.0237 92.8981" stroke="#868686" stroke-miterlimit="10"/>
<path d="M74.0703 99.036C73.9871 99.3122 73.9606 99.6023 73.9926 99.889C74.0246 100.176 74.1143 100.453 74.2563 100.704C73.766 100.946 73.202 100.993 72.6783 100.836C72.3448 100.735 72.0411 100.554 71.7938 100.309C71.5465 100.063 71.3632 99.761 71.2599 99.4282C71.1567 99.0955 71.1366 98.7425 71.2016 98.4001C71.2665 98.0578 71.4144 97.7367 71.6323 97.4648C71.8502 97.193 72.1314 96.9787 72.4514 96.8408C72.7714 96.703 73.1203 96.6457 73.4675 96.6741C73.8148 96.7024 74.1498 96.8155 74.4432 97.0034C74.7366 97.1914 74.9794 97.4484 75.1503 97.752C74.8937 97.8832 74.666 98.0643 74.4805 98.2848C74.2951 98.5054 74.1556 98.7607 74.0703 99.036Z" stroke="#868686" stroke-miterlimit="10"/>
<path d="M78.1443 100.272C78.0215 100.675 77.782 101.033 77.456 101.3C77.13 101.567 76.7322 101.731 76.3128 101.771C75.8935 101.812 75.4715 101.728 75.1002 101.529C74.7289 101.33 74.425 101.025 74.2269 100.653C74.0288 100.281 73.9454 99.8589 73.9873 99.4397C74.0292 99.0204 74.1945 98.6231 74.4623 98.2978C74.73 97.9725 75.0882 97.7339 75.4916 97.6122C75.895 97.4906 76.3253 97.4912 76.7283 97.6142C77.2685 97.779 77.7211 98.1516 77.9866 98.65C78.2522 99.1484 78.3089 99.7319 78.1443 100.272Z" stroke="#868686" stroke-miterlimit="10"/>
<path d="M280.282 125.26L256.492 118.05C255.379 117.713 254.203 118.342 253.866 119.455L249.696 133.213C249.359 134.326 249.988 135.502 251.101 135.839L274.891 143.049C276.004 143.386 277.18 142.757 277.517 141.644L281.686 127.886C282.024 126.773 281.395 125.597 280.282 125.26Z" stroke="#868686" stroke-miterlimit="10"/>
<path d="M253.225 121.572L281.047 130.002" stroke="#868686" stroke-miterlimit="10"/>
<path d="M252.377 124.368L280.193 132.798" stroke="#868686" stroke-miterlimit="10"/>
<path d="M271.734 138C271.662 138.234 271.639 138.481 271.666 138.724C271.693 138.968 271.769 139.203 271.89 139.416C271.628 139.544 271.338 139.606 271.046 139.597C270.754 139.587 270.469 139.507 270.214 139.363C269.96 139.219 269.745 139.015 269.588 138.769C269.43 138.523 269.334 138.243 269.309 137.952C269.284 137.661 269.331 137.368 269.444 137.099C269.557 136.83 269.734 136.592 269.96 136.407C270.186 136.221 270.453 136.093 270.739 136.035C271.025 135.976 271.322 135.987 271.602 136.068C272.048 136.202 272.424 136.503 272.652 136.908C272.433 137.018 272.238 137.171 272.08 137.359C271.923 137.547 271.805 137.765 271.734 138V138Z" stroke="#868686" stroke-miterlimit="10"/>
<path d="M275.196 139.068C275.089 139.407 274.885 139.707 274.609 139.93C274.333 140.153 273.997 140.29 273.643 140.322C273.29 140.355 272.935 140.282 272.622 140.114C272.31 139.945 272.054 139.687 271.888 139.374C271.721 139.06 271.651 138.704 271.687 138.351C271.722 137.997 271.861 137.662 272.087 137.388C272.312 137.113 272.613 136.912 272.953 136.808C273.293 136.705 273.656 136.704 273.996 136.806C274.224 136.875 274.436 136.988 274.62 137.139C274.804 137.29 274.956 137.476 275.068 137.686C275.18 137.897 275.248 138.127 275.27 138.364C275.292 138.602 275.267 138.841 275.196 139.068V139.068Z" stroke="#868686" stroke-miterlimit="10"/>
<path d="M242.208 59.5287L207.479 75.429L215.751 93.4973L250.48 77.597L242.208 59.5287Z" stroke="#868686" stroke-miterlimit="10"/>
<path d="M247.495 75L242.239 63.522C241.748 63.7462 241.188 63.7666 240.682 63.5788C240.176 63.391 239.765 63.0103 239.539 62.52L211.465 75.372C211.689 75.8631 211.71 76.423 211.522 76.929C211.334 77.4351 210.953 77.8461 210.463 78.072L215.719 89.55C215.962 89.4384 216.226 89.3759 216.493 89.3662C216.761 89.3565 217.028 89.3997 217.278 89.4933C217.529 89.587 217.759 89.7292 217.955 89.9119C218.151 90.0946 218.308 90.3142 218.419 90.558L246.487 77.7C246.375 77.4566 246.313 77.1936 246.303 76.926C246.294 76.6584 246.337 76.3915 246.43 76.1407C246.524 75.8898 246.666 75.6599 246.849 75.4642C247.032 75.2685 247.251 75.1107 247.495 75Z" stroke="#868686" stroke-miterlimit="10"/>
<path d="M232.16 80.6575C234.446 78.9013 234.876 75.6242 233.12 73.3379C231.363 71.0517 228.086 70.622 225.8 72.3782C223.514 74.1344 223.084 77.4115 224.84 79.6977C226.596 81.984 229.874 82.4137 232.16 80.6575Z" stroke="#868686" stroke-miterlimit="10"/>
<path d="M230.4 79.0439L230.79 79.8959L230.418 80.0639L230.034 79.2239C229.377 79.5099 228.64 79.5566 227.952 79.3559V78.8339C228.56 79.0179 229.213 78.9861 229.8 78.7439L228.918 76.7999C228.006 76.9739 227.064 77.1059 226.614 76.1219C226.29 75.4139 226.518 74.5619 227.61 73.9559L227.22 73.0979L227.592 72.9299L228 73.7999C228.54 73.5658 229.134 73.4868 229.716 73.5719V74.0939C229.204 74.0199 228.681 74.0799 228.198 74.2679L229.098 76.2359C230.028 76.0499 231.018 75.8819 231.498 76.8779C231.798 77.5679 231.54 78.4379 230.4 79.0439ZM228.684 76.2779L227.832 74.3999C227.094 74.8139 226.932 75.3659 227.148 75.8339C227.4 76.4219 228 76.3979 228.678 76.2779H228.684ZM230.946 77.1239C230.682 76.5239 230.046 76.5839 229.338 76.7219L230.184 78.5759C231 78.1439 231.156 77.5979 230.94 77.1239H230.946Z" fill="#868686"/>
<path d="M50.546 141.835L23.84 144.239L25.0901 158.129L51.7961 155.725L50.546 141.835Z" stroke="#868686" stroke-width="1.00404" stroke-miterlimit="10"/>
<path d="M49.65 152.916L48.894 144.126C48.5178 144.158 48.1445 144.039 47.8555 143.796C47.5666 143.553 47.3855 143.206 47.352 142.83L25.848 144.69C25.878 145.066 25.7588 145.438 25.5163 145.727C25.2737 146.016 24.9273 146.197 24.552 146.232L25.308 155.022C25.4944 155.006 25.6822 155.026 25.8607 155.082C26.0391 155.139 26.2047 155.23 26.348 155.35C26.4912 155.47 26.6093 155.618 26.6955 155.784C26.7816 155.95 26.8341 156.132 26.85 156.318L48.354 154.458C48.3239 154.082 48.4431 153.71 48.6856 153.421C48.9282 153.133 49.2746 152.951 49.65 152.916V152.916Z" stroke="#868686" stroke-miterlimit="10"/>
<path d="M40.7398 149.262C40.8024 149.982 40.65 150.705 40.302 151.338C39.9539 151.972 39.4258 152.488 38.7844 152.821C38.143 153.154 37.4172 153.29 36.6987 153.211C35.9803 153.131 35.3015 152.841 34.7482 152.376C34.1949 151.91 33.792 151.292 33.5904 150.598C33.3889 149.903 33.3977 149.165 33.6158 148.476C33.834 147.787 34.2516 147.178 34.8158 146.726C35.3801 146.274 36.0656 146 36.7858 145.938C37.2638 145.896 37.7454 145.949 38.2029 146.093C38.6605 146.238 39.0851 146.471 39.4524 146.78C39.8197 147.088 40.1225 147.467 40.3434 147.893C40.5643 148.319 40.699 148.784 40.7398 149.262V149.262Z" stroke="#868686" stroke-miterlimit="10"/>
<path d="M37.4403 151.578L37.4943 152.232H37.2123L37.1523 151.584C36.6536 151.617 36.1591 151.475 35.7543 151.182L35.8863 150.846C36.2443 151.106 36.68 151.237 37.1223 151.218L36.9963 149.724C36.3543 149.628 35.7003 149.49 35.6403 148.74C35.5923 148.194 35.9403 147.684 36.8043 147.54L36.7503 146.886H37.0323L37.0863 147.528C37.5024 147.501 37.9178 147.591 38.2863 147.786L38.1723 148.128C37.8521 147.962 37.495 147.879 37.1343 147.888L37.2603 149.394C37.9143 149.49 38.6103 149.616 38.6763 150.378C38.7123 150.936 38.3343 151.446 37.4403 151.578ZM36.9603 149.352L36.8343 147.93C36.2343 148.032 36.0183 148.356 36.0483 148.716C36.0783 149.076 36.4803 149.274 36.9603 149.352ZM38.2503 150.444C38.2083 149.994 37.7823 149.844 37.2843 149.796L37.4043 151.218C38.0283 151.116 38.2803 150.804 38.2503 150.444Z" fill="#868686"/>
<path d="M266.597 67.626C269.48 67.626 271.817 65.289 271.817 62.406C271.817 59.5231 269.48 57.186 266.597 57.186C263.714 57.186 261.377 59.5231 261.377 62.406C261.377 65.289 263.714 67.626 266.597 67.626Z" stroke="#868686" stroke-miterlimit="10"/>
<path d="M266.831 65.304V66.24H266.399V65.31C265.684 65.2959 264.995 65.0352 264.449 64.572L264.683 64.104C265.161 64.523 265.765 64.7683 266.399 64.8V62.658C265.499 62.436 264.599 62.16 264.599 61.08C264.599 60.3 265.163 59.622 266.399 59.526V58.572H266.807V59.502C267.396 59.5145 267.97 59.6911 268.463 60.012L268.259 60.492C267.824 60.2114 267.324 60.0481 266.807 60.018V62.178C267.725 62.4 268.697 62.658 268.697 63.756C268.721 64.542 268.127 65.232 266.831 65.304ZM266.423 62.07V60.036C265.583 60.108 265.223 60.54 265.223 61.056C265.199 61.674 265.751 61.902 266.399 62.07H266.423ZM268.127 63.786C268.127 63.144 267.527 62.922 266.831 62.748V64.8C267.725 64.722 268.127 64.308 268.127 63.786Z" fill="#868686"/>
<path d="M232.218 132.241C235.024 131.58 236.763 128.769 236.101 125.963C235.44 123.157 232.629 121.418 229.823 122.079C227.017 122.741 225.278 125.551 225.94 128.357C226.601 131.164 229.412 132.902 232.218 132.241Z" stroke="#868686" stroke-miterlimit="10"/>
<path d="M229.704 129.744L229.218 130.542L228.87 130.326L229.356 129.534C228.752 129.15 228.302 128.566 228.084 127.884L228.528 127.608C228.716 128.212 229.103 128.734 229.626 129.09L230.754 127.26C230.1 126.606 229.47 125.892 230.034 124.974C230.442 124.308 231.276 124.026 232.392 124.596L232.884 123.792L233.232 124.008L232.746 124.8C233.238 125.121 233.634 125.568 233.892 126.096L233.466 126.402C233.24 125.937 232.899 125.536 232.476 125.238L231.342 127.08C232.014 127.752 232.704 128.478 232.128 129.414C231.714 130.086 230.85 130.356 229.704 129.744ZM231.054 126.744L232.116 125.01C231.366 124.632 230.82 124.8 230.55 125.238C230.226 125.796 230.568 126.282 231.054 126.774V126.744ZM231.606 129.096C231.942 128.55 231.552 128.052 231.042 127.536L229.974 129.276C230.772 129.72 231.33 129.6 231.6 129.126L231.606 129.096Z" fill="#868686"/>
<path d="M156.109 26.4001C156.538 27.3392 156.679 28.3843 156.514 29.4034C156.348 30.4224 155.885 31.3696 155.181 32.1251C154.478 32.8806 153.566 33.4106 152.561 33.648C151.557 33.8854 150.504 33.8196 149.537 33.4588C148.57 33.0981 147.731 32.4587 147.127 31.6214C146.523 30.7841 146.181 29.7865 146.144 28.7548C146.107 27.7232 146.377 26.7037 146.919 25.8253C147.462 24.9469 148.252 24.2491 149.191 23.8201C149.815 23.5343 150.489 23.3744 151.174 23.3494C151.859 23.3244 152.543 23.435 153.186 23.6746C153.828 23.9143 154.417 24.2784 154.919 24.7461C155.421 25.2137 155.825 25.7758 156.109 26.4001V26.4001Z" stroke="#868686" stroke-miterlimit="10"/>
<path d="M152.778 31.098L153.168 31.95L152.796 32.124L152.4 31.278C151.742 31.564 151.006 31.6107 150.318 31.41V30.888C150.923 31.071 151.573 31.0414 152.16 30.804L151.272 28.848C150.36 29.022 149.418 29.148 148.968 28.17C148.644 27.456 148.872 26.61 149.97 26.004L149.58 25.146L149.946 24.978L150.336 25.824C150.875 25.5899 151.47 25.5109 152.052 25.596V26.118C151.539 26.0454 151.017 26.1053 150.534 26.292L151.434 28.26C152.364 28.074 153.354 27.912 153.834 28.902C154.2 29.622 153.924 30.492 152.778 31.098ZM151.062 28.332L150.216 26.478C149.478 26.892 149.316 27.444 149.532 27.906C149.79 28.47 150.384 28.452 151.062 28.332ZM153.324 29.178C153.054 28.578 152.424 28.644 151.716 28.776L152.562 30.63C153.348 30.198 153.54 29.658 153.324 29.178Z" fill="#868686"/>
<path d="M138.529 237.798C139.173 239.209 139.384 240.779 139.136 242.31C138.888 243.841 138.191 245.264 137.134 246.399C136.077 247.534 134.708 248.33 133.198 248.687C131.689 249.044 130.108 248.945 128.654 248.403C127.201 247.861 125.941 246.9 125.034 245.642C124.127 244.384 123.613 242.885 123.558 241.335C123.503 239.785 123.908 238.254 124.723 236.934C125.538 235.615 126.726 234.567 128.137 233.922C129.073 233.494 130.085 233.255 131.115 233.218C132.144 233.181 133.17 233.348 134.135 233.708C135.1 234.067 135.985 234.614 136.739 235.316C137.493 236.018 138.101 236.861 138.529 237.798V237.798Z" stroke="#868686" stroke-miterlimit="10"/>
<path d="M133.519 244.866L134.119 246.15L133.561 246.402L132.961 245.13C131.975 245.562 130.869 245.634 129.835 245.334L129.871 244.554C130.781 244.825 131.758 244.777 132.637 244.416L131.299 241.488C129.937 241.746 128.515 241.938 127.843 240.468C127.351 239.4 127.699 238.122 129.343 237.21L128.743 235.932L129.295 235.674L129.895 236.946C130.707 236.597 131.6 236.478 132.475 236.604V237.384C131.707 237.276 130.924 237.367 130.201 237.648L131.545 240.6C132.943 240.324 134.431 240.078 135.115 241.566C135.631 242.652 135.247 243.96 133.519 244.866ZM130.951 240.708L129.673 237.924C128.575 238.524 128.329 239.37 128.653 240.078C129.037 240.924 129.925 240.894 130.951 240.708ZM134.347 241.986C133.945 241.104 132.991 241.176 131.947 241.386L133.219 244.17C134.401 243.516 134.671 242.7 134.347 241.986Z" fill="#868686"/>
<path d="M26.1962 115.938C25.031 116.962 23.5885 117.617 22.0511 117.82C20.5137 118.024 18.9505 117.767 17.5589 117.083C16.1674 116.398 15.0101 115.316 14.2334 113.974C13.4566 112.632 13.0954 111.089 13.1952 109.541C13.295 107.994 13.8514 106.511 14.7942 105.279C15.7369 104.048 17.0236 103.124 18.4915 102.623C19.9595 102.123 21.5428 102.069 23.0413 102.469C24.5398 102.869 25.8861 103.703 26.9102 104.868C27.5904 105.642 28.1115 106.542 28.4438 107.517C28.7761 108.492 28.913 109.523 28.8466 110.551C28.7803 111.579 28.5121 112.584 28.0574 113.508C27.6026 114.433 26.9701 115.258 26.1962 115.938Z" stroke="#868686" stroke-miterlimit="10"/>
<path d="M18.0005 113.178L16.9445 114.108L16.5365 113.646L17.5865 112.728C16.8908 111.905 16.5027 110.866 16.4885 109.788L17.2505 109.596C17.2509 110.541 17.5701 111.459 18.1565 112.2L20.5565 110.076C19.9145 108.846 19.3205 107.538 20.5565 106.476C21.4445 105.702 22.7645 105.666 24.1085 106.974L25.2005 106.05L25.6025 106.506L24.5525 107.43C25.111 108.109 25.4722 108.929 25.5965 109.8L24.8525 110.046C24.733 109.279 24.4213 108.554 23.9465 107.94L21.5045 110.082C22.1705 111.336 22.8365 112.692 21.6065 113.778C20.7125 114.558 19.3505 114.6 18.0005 113.178ZM21.2405 109.518L23.5385 107.496C22.6265 106.62 21.7385 106.626 21.1865 107.136C20.4665 107.748 20.7545 108.6 21.2225 109.518H21.2405ZM20.9945 113.118C21.7265 112.482 21.3845 111.588 20.8805 110.628L18.5825 112.65C19.5245 113.616 20.4005 113.652 21.0005 113.136L20.9945 113.118Z" fill="#868686"/>
<path d="M62.0956 182.826C62.1793 180.735 60.552 178.972 58.4611 178.888C56.3701 178.805 54.6072 180.432 54.5236 182.523C54.44 184.614 56.0672 186.377 58.1582 186.46C60.2491 186.544 62.012 184.917 62.0956 182.826Z" stroke="#868686" stroke-width="1.0008" stroke-miterlimit="10"/>
<path d="M59.3999 183.408L59.8319 183.93L59.6099 184.116L59.1779 183.6C58.772 183.926 58.2647 184.1 57.7439 184.092L57.6599 183.72C58.1179 183.732 58.5664 183.588 58.9319 183.312L57.9359 182.112C57.3359 182.406 56.6999 182.676 56.1959 182.076C55.8359 181.644 55.8359 181.002 56.4839 180.366L56.0459 179.844L56.2739 179.658L56.7059 180.174C57.04 179.909 57.4406 179.741 57.8639 179.688L57.9719 180.048C57.6011 180.1 57.2486 180.242 56.9459 180.462L57.9479 181.662C58.5479 181.356 59.2259 181.062 59.7479 181.662C60.1139 182.106 60.1019 182.766 59.3999 183.408ZM57.6839 181.8L56.7359 180.666C56.3039 181.098 56.2979 181.512 56.5319 181.8C56.7659 182.088 57.2339 182.01 57.6839 181.8ZM59.4299 181.962C59.1299 181.608 58.6979 181.758 58.2299 181.992L59.1779 183.126C59.6399 182.67 59.6699 182.25 59.4299 181.956V181.962Z" fill="#868686"/>
<path d="M178.553 257.502C179.032 258.077 179.33 258.782 179.409 259.527C179.487 260.271 179.343 261.022 178.995 261.685C178.647 262.348 178.11 262.892 177.452 263.25C176.795 263.608 176.046 263.762 175.3 263.695C174.554 263.627 173.846 263.339 173.264 262.869C172.681 262.398 172.252 261.765 172.029 261.05C171.806 260.336 171.801 259.571 172.012 258.853C172.224 258.135 172.644 257.495 173.219 257.016C173.992 256.374 174.987 256.065 175.987 256.156C176.987 256.247 177.91 256.731 178.553 257.502V257.502Z" stroke="#868686" stroke-miterlimit="10"/>
<path d="M177.115 261.432L177.553 261.954L177.325 262.14L176.893 261.624C176.489 261.95 175.984 262.125 175.465 262.116L175.381 261.744C175.839 261.759 176.289 261.615 176.653 261.336L175.657 260.136C175.057 260.43 174.415 260.7 173.917 260.1C173.551 259.668 173.551 259.026 174.199 258.39L173.767 257.868L173.995 257.682L174.427 258.198C174.76 257.931 175.161 257.762 175.585 257.712L175.693 258.072C175.32 258.124 174.966 258.266 174.661 258.486L175.669 259.686C176.269 259.38 176.947 259.086 177.469 259.686C177.817 260.13 177.805 260.79 177.115 261.432ZM175.393 259.8L174.445 258.666C174.007 259.098 174.001 259.512 174.241 259.8C174.481 260.088 174.937 260.034 175.393 259.8ZM177.133 259.968C176.833 259.608 176.401 259.758 175.933 259.968L176.881 261.102C177.349 260.694 177.379 260.274 177.133 259.986V259.968Z" fill="#868686"/>
<path d="M74.9322 41.8103C75.1232 39.7281 73.59 37.8853 71.5078 37.6943C69.4256 37.5034 67.5828 39.0365 67.3919 41.1187C67.2009 43.201 68.7341 45.0437 70.8163 45.2347C72.8985 45.4256 74.7413 43.8925 74.9322 41.8103Z" stroke="#868686" stroke-miterlimit="10"/>
<path d="M72.6422 42.972L73.0742 43.494L72.8462 43.68L72.4142 43.164C72.0111 43.4913 71.5053 43.6655 70.9862 43.656L70.9022 43.284C71.3601 43.2961 71.8086 43.1522 72.1742 42.876L71.1782 41.676C70.5782 41.97 69.9362 42.24 69.4382 41.64C69.0782 41.208 69.0722 40.566 69.7262 39.93L69.2882 39.408L69.5162 39.222L69.9482 39.738C70.2816 39.4717 70.6825 39.3034 71.1062 39.252L71.2142 39.612C70.8433 39.6635 70.4909 39.8057 70.1882 40.026L71.1902 41.226C71.7902 40.92 72.4682 40.626 72.9902 41.226C73.3442 41.67 73.3262 42.33 72.6422 42.972ZM70.9142 41.358L69.9662 40.2C69.5342 40.632 69.5222 41.046 69.7622 41.334C70.0022 41.622 70.4582 41.574 70.9142 41.358ZM72.6602 41.52C72.3602 41.166 71.9222 41.316 71.4602 41.52L72.4082 42.654C72.8702 42.234 72.9002 41.814 72.6602 41.52Z" fill="#868686"/>
<path opacity="0.2" d="M156.486 196.686C156.486 196.686 151.86 220.164 123.486 225.486C123.486 225.486 116.076 231.396 113.61 234.894C111.144 238.392 98.0101 244.338 84.6301 262.89C71.2501 281.442 51.3301 222.528 51.3301 222.528L95.3581 165.348L156.486 196.686Z" fill="black" fill-opacity="0.7"/>
<path d="M181.704 86.448C181.704 86.448 197.004 78.966 200.37 80.256C203.736 81.546 206.97 89.286 194.1 96.696C181.23 104.106 185.07 117.912 185.07 117.912H194.25C194.25 117.912 199.758 120.156 201.9 123.042C204.042 125.928 205.572 135.768 206.796 139.104C208.02 142.44 207.396 145.782 204.042 146.868C204.042 146.868 201.9 156.204 202.512 160.344C203.124 164.484 202.818 167.148 198.84 167.652C197.839 167.756 196.828 167.642 195.875 167.316C194.923 166.991 194.053 166.462 193.325 165.767C192.598 165.072 192.03 164.227 191.661 163.29C191.292 162.354 191.132 161.349 191.19 160.344L188.13 171.432L190.272 175.692C193.298 176.863 196.095 178.557 198.534 180.696C202.818 184.368 207.102 185.37 205.878 189.462C204.654 193.554 202.206 197.964 189.354 192.852C176.502 187.74 165.792 167.652 165.792 167.652L158.07 97.608L181.704 86.448Z" fill="white"/>
<path opacity="0.4" d="M197.808 126.684C190.872 136.14 198.546 147.03 198.546 147.03C198.546 147.03 193.746 149.706 193.608 156.534C193.554 159.372 194.268 163.338 195.12 167.01C193.873 166.421 192.832 165.47 192.132 164.281C191.432 163.092 191.106 161.721 191.196 160.344L188.13 171.432L190.272 175.686C192.526 176.549 194.65 177.718 196.584 179.16C194.682 183.528 194.1 188.928 194.268 194.496C192.597 194.052 190.956 193.503 189.354 192.852C176.502 187.734 165.792 167.652 165.792 167.652L158.07 97.602L181.704 86.448C181.704 86.448 190.062 82.362 195.786 80.748C195.342 86.1 196.386 91.638 197.142 94.722C196.166 95.4365 195.15 96.0956 194.1 96.696C181.248 104.106 185.07 117.912 185.07 117.912H194.256C194.256 117.912 199.488 120.048 201.732 122.826C200.198 123.859 198.867 125.167 197.808 126.684Z" fill="black"/>
<path d="M157.8 185.4C157.8 185.4 141.156 218.034 111.156 225.438C111.156 225.438 110.01 231.894 104.934 234.666C102.222 236.142 91.2779 252.54 81.6719 267.51L28.4639 234.87C31.7399 231.63 35.4719 227.898 39.2639 224.004C50.3639 212.688 62.2079 200.004 65.8319 193.728C69.0719 188.148 73.1699 178.464 76.7399 169.362C81.3119 157.722 85.0319 147.03 85.0319 147.03L102.768 127.314L130.65 96.3121L131.85 100.278L157.8 185.4Z" fill="white"/>
<path opacity="0.4" d="M130.674 96.312L157.8 185.4C157.8 185.4 141.156 218.034 111.156 225.438C111.156 225.438 110.01 231.894 104.934 234.666C102.498 235.992 93.4322 249.342 84.6602 262.866C87.9122 251.706 97.3262 233.916 97.3262 233.916C91.2842 226.758 93.0482 219.216 95.4662 221.364C97.8842 223.512 103.962 229.548 104.346 229.926C101.676 226.782 101.058 221.856 101.058 221.856C101.058 221.856 108.546 226.836 109.152 218.856C109.758 210.876 104.664 191.376 104.664 191.376L91.2901 140.1L130.674 96.312Z" fill="black"/>
<path d="M158.07 97.608L181.704 86.448C181.704 86.448 197.004 78.966 200.37 80.256C203.736 81.546 206.97 89.286 194.1 96.696C181.23 104.106 185.07 117.912 185.07 117.912H194.25C194.25 117.912 199.758 120.156 201.9 123.042C204.042 125.928 205.572 135.768 206.796 139.104C208.02 142.44 207.396 145.782 204.042 146.868C204.042 146.868 201.9 156.204 202.512 160.344C203.124 164.484 202.818 167.148 198.84 167.652C197.839 167.756 196.828 167.642 195.875 167.316C194.923 166.991 194.053 166.462 193.325 165.767C192.598 165.072 192.03 164.227 191.661 163.29C191.292 162.354 191.132 161.349 191.19 160.344L188.13 171.432L190.272 175.692C193.298 176.863 196.095 178.557 198.534 180.696C202.818 184.368 207.102 185.37 205.878 189.462C204.654 193.554 202.206 197.964 189.354 192.852C176.502 187.74 165.792 167.652 165.792 167.652" stroke="#868686" stroke-linecap="round" stroke-linejoin="round"/>
<path d="M204.041 146.868C199.451 148.11 194.099 147.192 192.107 139.068C190.115 130.944 194.099 122.268 196.697 121.47" stroke="#868686" stroke-linecap="round" stroke-linejoin="round"/>
<path d="M191.189 160.344C191.189 160.344 190.883 149.898 194.711 147.318" stroke="#868686" stroke-linecap="round" stroke-linejoin="round"/>
<path opacity="0.4" d="M79.5719 212.226C79.5719 212.226 68.3579 210.828 65.8559 205.812C63.7859 201.66 52.5659 217.212 39.2879 224.004C50.3879 212.688 62.2319 200.004 65.8559 193.728C69.0959 188.148 73.1939 178.464 76.7639 169.362C76.5839 176.91 72.5639 188.466 73.7099 194.484C72.4819 194.809 71.4313 195.604 70.7856 196.698C70.1399 197.792 69.951 199.096 70.2599 200.328C71.1179 205.11 79.5719 212.226 79.5719 212.226Z" fill="black"/>
<path d="M157.8 185.4C157.8 185.4 141.156 218.034 111.15 225.438C111.15 225.438 110.01 231.894 104.934 234.666C102.222 236.142 91.2839 252.54 81.6659 267.51" stroke="#868686" stroke-linecap="round" stroke-linejoin="round"/>
<path d="M28.4639 234.87C41.2799 222.204 60.9779 202.122 65.8559 193.728C73.2359 181.026 85.0559 147.024 85.0559 147.024L130.656 96.3121" stroke="#868686" stroke-linecap="round" stroke-linejoin="round"/>
<path d="M104.635 135.042C104.635 135.042 111.643 141.318 113.635 147.042" stroke="#868686" stroke-linecap="round" stroke-linejoin="round"/>
<path d="M187.356 43.6321H111.954C109.724 43.6321 107.916 45.44 107.916 47.6701V208.188C107.916 210.418 109.724 212.226 111.954 212.226H187.356C189.586 212.226 191.394 210.418 191.394 208.188V47.6701C191.394 45.44 189.586 43.6321 187.356 43.6321Z" fill="#868686"/>
<path d="M166.2 48.2221L164.604 51.1441C164.435 51.4611 164.184 51.7267 163.876 51.9126C163.569 52.0985 163.217 52.1978 162.858 52.2001H136.458C136.099 52.1982 135.748 52.1003 135.439 51.9168C135.131 51.7332 134.878 51.4706 134.706 51.1561L133.116 48.2341C132.945 47.9183 132.692 47.6546 132.383 47.4708C132.075 47.2871 131.723 47.1901 131.364 47.1901H112.914C112.651 47.1908 112.391 47.2435 112.148 47.345C111.906 47.4465 111.686 47.5949 111.501 47.7816C111.315 47.9683 111.169 48.1898 111.07 48.4332C110.97 48.6766 110.92 48.9372 110.922 49.2001V207C110.922 207.529 111.131 208.036 111.505 208.411C111.878 208.785 112.385 208.996 112.914 208.998H186.39C186.653 209 186.914 208.949 187.158 208.849C187.402 208.75 187.623 208.603 187.81 208.417C187.997 208.231 188.145 208.011 188.246 207.767C188.348 207.524 188.4 207.263 188.4 207V49.2001C188.4 48.6702 188.189 48.162 187.815 47.7873C187.44 47.4126 186.932 47.2021 186.402 47.2021H167.958C167.6 47.1986 167.248 47.2915 166.939 47.471C166.63 47.6505 166.374 47.9099 166.2 48.2221Z" fill="black" stroke="#868686" stroke-linecap="round" stroke-linejoin="round"/>
<path d="M143.928 49.638C144.521 49.638 145.002 49.1571 145.002 48.564C145.002 47.9708 144.521 47.49 143.928 47.49C143.334 47.49 142.854 47.9708 142.854 48.564C142.854 49.1571 143.334 49.638 143.928 49.638Z" stroke="white" stroke-miterlimit="10"/>
<path d="M156.449 48.5641C156.448 48.6956 156.408 48.8237 156.334 48.9324C156.26 49.0412 156.156 49.1256 156.034 49.1751C155.912 49.2246 155.778 49.2369 155.65 49.2106C155.521 49.1842 155.403 49.1203 155.31 49.0269C155.218 48.9335 155.155 48.8149 155.13 48.6858C155.104 48.5568 155.118 48.4232 155.168 48.3019C155.219 48.1805 155.304 48.0768 155.414 48.0039C155.523 47.931 155.652 47.8921 155.783 47.8921C155.871 47.8921 155.958 47.9095 156.039 47.9434C156.121 47.9772 156.194 48.0268 156.256 48.0893C156.318 48.1518 156.367 48.2259 156.4 48.3074C156.433 48.3889 156.45 48.4761 156.449 48.5641V48.5641Z" stroke="white" stroke-miterlimit="10"/>
<path d="M153.462 48.144H146.934C146.879 48.144 146.824 48.1549 146.774 48.1761C146.723 48.1973 146.677 48.2283 146.639 48.2674C146.6 48.3065 146.57 48.3528 146.549 48.4038C146.529 48.4547 146.519 48.5092 146.52 48.564C146.52 48.6738 146.563 48.7791 146.641 48.8568C146.718 48.9344 146.824 48.978 146.934 48.978H153.462C153.571 48.978 153.677 48.9344 153.754 48.8568C153.832 48.7791 153.876 48.6738 153.876 48.564C153.876 48.5092 153.866 48.4547 153.846 48.4038C153.825 48.3528 153.795 48.3065 153.756 48.2674C153.718 48.2283 153.672 48.1973 153.621 48.1761C153.571 48.1549 153.516 48.144 153.462 48.144Z" fill="white"/>
<path d="M124.583 51.1921H117.545V54.1801H124.583V51.1921Z" stroke="#868686" stroke-linecap="round" stroke-linejoin="round"/>
<path d="M125.67 51.696H124.578V53.682H125.67V51.696Z" stroke="#868686" stroke-linecap="round" stroke-linejoin="round"/>
<path d="M174.455 53.1001H173.207V54.1861H174.455V53.1001Z" stroke="#868686" stroke-linecap="round" stroke-linejoin="round"/>
<path d="M176.893 52.0081H175.645V54.1861H176.893V52.0081Z" stroke="#868686" stroke-linecap="round" stroke-linejoin="round"/>
<path d="M179.328 50.916H178.08V54.18H179.328V50.916Z" stroke="#868686" stroke-linecap="round" stroke-linejoin="round"/>
<path d="M181.758 49.8241H180.51V54.1801H181.758V49.8241Z" stroke="#868686" stroke-linecap="round" stroke-linejoin="round"/>
<path opacity="0.5" d="M187.884 82.056H111.42V154.986H187.884V82.056Z" fill="white"/>
<path d="M132.54 70.4102V71.6762C132.54 73.2422 131.79 74.0762 130.254 74.0762H129.528V77.7422H127.992V67.9922H130.254C131.79 67.9922 132.54 68.8442 132.54 70.4102ZM129.54 69.3902V72.6962H130.266C130.752 72.6962 131.016 72.4742 131.016 71.7782V70.3082C131.016 69.6122 130.752 69.3902 130.266 69.3902H129.54Z" fill="#868686"/>
<path d="M138.042 77.7601H136.494L136.224 75.9901H134.346L134.076 77.7601H132.666L134.232 67.9921H136.476L138.042 77.7601ZM134.538 74.6641H136.02L135.294 69.7261H135.264L134.538 74.6641Z" fill="#868686"/>
<path d="M139.506 74.5262L137.568 67.9922H139.2L140.358 72.4442H140.388L141.546 67.9922H143.01L141.072 74.5262V77.7602H139.536L139.506 74.5262Z" fill="#868686"/>
<path d="M146.832 74.9282H146.862L147.894 67.9922H150.03V77.7602H148.578V70.7582L147.546 77.7602H146.094L144.978 70.8542V77.7602H143.58V67.9922H145.716L146.832 74.9282Z" fill="#868686"/>
<path d="M152.682 72.1082H154.8V73.5062H152.694V76.3682H155.346V77.7602H151.146V67.9922H155.346V69.3902H152.694L152.682 72.1082Z" fill="#868686"/>
<path d="M157.68 70.6862H157.65V77.7602H156.27V67.9922H158.196L159.744 73.8422V67.9922H161.112V77.7602H159.54L157.68 70.6862Z" fill="#868686"/>
<path d="M161.795 67.9922H166.541V69.3902H164.933V77.7602H163.397V69.3902H161.795V67.9922Z" fill="#868686"/>
<path d="M169.277 67.884C170.765 67.884 171.533 68.778 171.533 70.338V70.644H170.081V70.242C170.081 69.54 169.805 69.276 169.313 69.276C168.821 69.276 168.551 69.54 168.551 70.242C168.551 70.944 168.857 71.484 169.859 72.36C171.143 73.494 171.551 74.298 171.551 75.414C171.551 76.98 170.765 77.874 169.259 77.874C167.753 77.874 166.973 76.98 166.973 75.414V74.814H168.425V75.516C168.425 76.212 168.731 76.464 169.217 76.464C169.703 76.464 170.015 76.212 170.015 75.516C170.015 74.82 169.709 74.274 168.701 73.392C167.417 72.264 167.015 71.454 167.015 70.338C167.015 68.778 167.783 67.884 169.277 67.884Z" fill="#868686"/>
<path d="M181.757 90.894H117.545V100.488H181.757V90.894Z" fill="white" stroke="#868686" stroke-linecap="round" stroke-linejoin="round"/>
<path d="M181.757 108.888H117.545V118.482H181.757V108.888Z" fill="white" stroke="#868686" stroke-linecap="round" stroke-linejoin="round"/>
<path d="M181.757 125.25H117.545V134.844H181.757V125.25Z" fill="white" stroke="#868686" stroke-linecap="round" stroke-linejoin="round"/>
<path d="M147.947 138.342H117.545V149.574H147.947V138.342Z" fill="white" stroke="#868686" stroke-linecap="round" stroke-linejoin="round"/>
<path d="M181.763 138.342H151.361V149.574H181.763V138.342Z" fill="white" stroke="#868686" stroke-linecap="round" stroke-linejoin="round"/>
<path d="M121.547 89.2201V89.4781H119.537V86.6401H121.487V86.8981H119.843V87.9121H121.307V88.1641H119.843V89.2201H121.547Z" fill="#868686"/>
<path d="M125.711 88.242V89.478H125.399V88.278C125.399 87.828 125.171 87.594 124.799 87.594C124.699 87.5898 124.599 87.6074 124.507 87.6457C124.414 87.6839 124.331 87.7419 124.263 87.8156C124.195 87.8892 124.144 87.9768 124.113 88.0722C124.083 88.1676 124.073 88.2686 124.085 88.368V89.484H123.797V88.284C123.797 87.834 123.569 87.6 123.197 87.6C123.097 87.5958 122.997 87.6134 122.905 87.6517C122.812 87.6899 122.729 87.7479 122.661 87.8216C122.593 87.8952 122.542 87.9828 122.511 88.0782C122.481 88.1736 122.471 88.2746 122.483 88.374V89.49H122.195V87.36H122.471V87.75C122.553 87.6174 122.67 87.5095 122.808 87.4377C122.946 87.3658 123.102 87.3328 123.257 87.342C123.415 87.3288 123.572 87.365 123.708 87.4457C123.843 87.5264 123.95 87.6475 124.013 87.792C124.101 87.6478 124.225 87.5298 124.374 87.4506C124.523 87.3713 124.691 87.3338 124.859 87.342C124.977 87.3341 125.096 87.3523 125.206 87.3954C125.316 87.4386 125.416 87.5055 125.497 87.5915C125.579 87.6775 125.64 87.7804 125.677 87.8928C125.714 88.0053 125.726 88.1245 125.711 88.242Z" fill="#868686"/>
<path d="M128.106 88.1582V89.4782H127.83V89.1482C127.749 89.267 127.639 89.3622 127.509 89.4244C127.379 89.4866 127.236 89.5134 127.092 89.5022C126.612 89.5022 126.318 89.2502 126.318 88.9022C126.318 88.5542 126.528 88.3022 127.14 88.3022H127.8V88.1702C127.8 87.8042 127.59 87.6062 127.2 87.6062C126.942 87.6022 126.69 87.6917 126.492 87.8582L126.36 87.6422C126.609 87.4499 126.916 87.3483 127.23 87.3542C127.343 87.3357 127.459 87.3431 127.569 87.3758C127.679 87.4086 127.779 87.4658 127.864 87.5433C127.948 87.6207 128.014 87.7163 128.056 87.8228C128.098 87.9293 128.115 88.044 128.106 88.1582ZM127.818 88.8422V88.4882H127.146C126.732 88.4882 126.6 88.6502 126.6 88.8722C126.6 89.0942 126.798 89.2742 127.14 89.2742C127.281 89.2783 127.42 89.239 127.538 89.1618C127.656 89.0846 127.748 88.973 127.8 88.8422H127.818Z" fill="#868686"/>
<path d="M128.82 86.6762C128.822 86.6215 128.845 86.5696 128.884 86.5315C128.923 86.4934 128.976 86.4721 129.03 86.4722C129.084 86.4722 129.136 86.4937 129.175 86.5319C129.213 86.5702 129.234 86.6221 129.234 86.6762C129.234 86.7303 129.213 86.7822 129.175 86.8204C129.136 86.8587 129.084 86.8802 129.03 86.8802C128.976 86.8802 128.923 86.8589 128.884 86.8208C128.845 86.7827 128.822 86.7308 128.82 86.6762ZM128.886 87.3482H129.174V89.4782H128.886V87.3482Z" fill="#868686"/>
<path d="M129.979 86.4719H130.267V89.4719H129.979V86.4719Z" fill="#868686"/>
<path d="M123.534 96.6V96.858H121.524V94.02H123.474V94.278H121.8V95.286H123.27V95.544H121.8V96.6H123.534Z" fill="#868686"/>
<path d="M127.697 95.6101V96.8461H127.409V95.6461C127.409 95.1961 127.181 94.9621 126.809 94.9621C126.709 94.9569 126.61 94.9737 126.517 95.0112C126.424 95.0488 126.341 95.1062 126.273 95.1794C126.205 95.2526 126.154 95.3399 126.123 95.435C126.092 95.5301 126.083 95.6309 126.095 95.7301V96.852H125.807V95.652C125.807 95.202 125.579 94.968 125.207 94.968C125.107 94.9629 125.008 94.9797 124.915 95.0172C124.822 95.0548 124.739 95.1122 124.671 95.1854C124.603 95.2586 124.552 95.3459 124.521 95.441C124.49 95.5361 124.481 95.6369 124.493 95.736V96.858H124.199V94.722H124.475V95.1121C124.558 94.981 124.675 94.8746 124.813 94.8039C124.952 94.7333 125.106 94.7008 125.261 94.7101C125.418 94.6986 125.575 94.7356 125.71 94.8161C125.845 94.8966 125.952 95.0166 126.017 95.1601C126.104 95.0153 126.229 94.897 126.378 94.8177C126.527 94.7384 126.695 94.7012 126.863 94.7101C126.98 94.7048 127.096 94.7251 127.204 94.7694C127.312 94.8138 127.409 94.8811 127.489 94.9668C127.568 95.0524 127.628 95.1543 127.664 95.2654C127.7 95.3765 127.711 95.4941 127.697 95.6101Z" fill="#868686"/>
<path d="M130.085 95.5262V96.8462H129.809V96.5162C129.729 96.6343 129.619 96.7289 129.49 96.79C129.362 96.8512 129.219 96.8769 129.077 96.8642C128.597 96.8642 128.297 96.6122 128.297 96.2642C128.297 95.9162 128.513 95.6642 129.125 95.6642H129.803V95.5382C129.803 95.1722 129.593 94.9742 129.203 94.9742C128.943 94.9709 128.689 95.0602 128.489 95.2262L128.363 95.0102C128.61 94.8143 128.918 94.7123 129.233 94.7222C129.344 94.7077 129.457 94.7181 129.564 94.7526C129.67 94.7872 129.768 94.845 129.85 94.922C129.931 94.999 129.995 95.0931 130.035 95.1976C130.076 95.3021 130.093 95.4144 130.085 95.5262ZM129.803 96.2042V95.8562H129.131C128.717 95.8562 128.585 96.0182 128.585 96.2402C128.585 96.4622 128.783 96.6422 129.125 96.6422C129.27 96.6505 129.413 96.6126 129.535 96.5339C129.657 96.4551 129.751 96.3397 129.803 96.2042Z" fill="#868686"/>
<path d="M130.799 94.0381C130.8 93.9834 130.823 93.9315 130.862 93.8934C130.902 93.8554 130.954 93.8341 131.009 93.8341C131.036 93.8333 131.063 93.838 131.089 93.8478C131.114 93.8577 131.137 93.8726 131.157 93.8917C131.177 93.9107 131.192 93.9334 131.203 93.9586C131.213 93.9837 131.219 94.0108 131.219 94.0381C131.219 94.0938 131.197 94.1472 131.157 94.1866C131.118 94.226 131.065 94.2481 131.009 94.2481C130.953 94.2481 130.9 94.226 130.86 94.1866C130.821 94.1472 130.799 94.0938 130.799 94.0381ZM130.865 94.7101H131.153V96.8461H130.865V94.7101Z" fill="#868686"/>
<path d="M131.965 93.834H132.247V96.834H131.965V93.834Z" fill="#868686"/>
<path d="M134.999 95.61V96.846H134.711V95.646C134.724 95.5574 134.717 95.467 134.69 95.3815C134.663 95.296 134.618 95.2176 134.557 95.152C134.496 95.0864 134.421 95.0353 134.337 95.0024C134.254 94.9695 134.164 94.9557 134.075 94.962C133.973 94.9535 133.87 94.9676 133.774 95.0035C133.678 95.0393 133.591 95.096 133.519 95.1693C133.448 95.2427 133.393 95.331 133.359 95.428C133.326 95.5249 133.314 95.6281 133.325 95.73V96.852H133.037V94.716H133.313V95.112C133.4 94.9784 133.521 94.8702 133.663 94.7985C133.805 94.7269 133.964 94.6942 134.123 94.704C134.243 94.6944 134.364 94.7115 134.477 94.754C134.589 94.7966 134.691 94.8636 134.775 94.9502C134.859 95.0368 134.922 95.1409 134.961 95.255C135 95.3691 135.013 95.4903 134.999 95.61Z" fill="#868686"/>
<path d="M137.399 95.526V96.846H137.123V96.516C137.044 96.6341 136.934 96.7287 136.805 96.7899C136.676 96.8511 136.533 96.8767 136.391 96.864C135.905 96.864 135.611 96.612 135.611 96.264C135.611 95.916 135.821 95.664 136.433 95.664H137.111V95.538C137.111 95.172 136.907 94.974 136.511 94.974C136.253 94.97 136.001 95.0595 135.803 95.226L135.671 95.01C135.919 94.8151 136.227 94.7131 136.541 94.722C136.653 94.7065 136.767 94.7162 136.874 94.7503C136.982 94.7844 137.08 94.8421 137.162 94.9192C137.245 94.9963 137.309 95.0908 137.35 95.1958C137.391 95.3008 137.408 95.4136 137.399 95.526ZM137.111 96.204V95.856H136.445C136.031 95.856 135.893 96.018 135.893 96.24C135.893 96.462 136.091 96.642 136.433 96.642C136.579 96.6517 136.724 96.6144 136.847 96.5356C136.97 96.4567 137.065 96.3405 137.117 96.204H137.111Z" fill="#868686"/>
<path d="M141.707 95.6099V96.8459H141.419V95.6459C141.419 95.1959 141.191 94.9619 140.819 94.9619C140.719 94.9568 140.62 94.9736 140.527 95.0111C140.434 95.0487 140.351 95.1061 140.283 95.1793C140.215 95.2525 140.164 95.3398 140.133 95.4349C140.102 95.53 140.093 95.6308 140.105 95.7299V96.8519H139.799V95.6519C139.799 95.2019 139.571 94.9679 139.199 94.9679C139.099 94.9628 139 94.9796 138.907 95.0171C138.814 95.0547 138.731 95.1121 138.663 95.1853C138.595 95.2585 138.544 95.3458 138.513 95.4409C138.482 95.536 138.473 95.6367 138.485 95.7359V96.8579H138.197V94.7219H138.473V95.1119C138.556 94.9809 138.673 94.8745 138.811 94.8038C138.95 94.7331 139.104 94.7007 139.259 94.7099C139.416 94.6967 139.574 94.733 139.709 94.8137C139.845 94.8943 139.952 95.0154 140.015 95.1599C140.103 95.0157 140.227 94.8977 140.376 94.8185C140.525 94.7393 140.693 94.7018 140.861 94.7099C140.979 94.7029 141.097 94.7218 141.206 94.7654C141.316 94.8089 141.414 94.876 141.495 94.9618C141.576 95.0477 141.637 95.1503 141.673 95.2623C141.71 95.3743 141.722 95.493 141.707 95.6099Z" fill="#868686"/>
<path d="M144.353 95.868H142.553C142.568 96.0772 142.666 96.2717 142.825 96.4089C142.983 96.5461 143.19 96.6149 143.399 96.6C143.522 96.6034 143.644 96.5799 143.757 96.5312C143.87 96.4825 143.971 96.4097 144.053 96.318L144.215 96.504C144.062 96.6647 143.865 96.7767 143.648 96.8259C143.432 96.8751 143.205 96.8593 142.998 96.7805C142.79 96.7017 142.611 96.5634 142.481 96.3829C142.352 96.2025 142.279 95.9879 142.271 95.766C142.264 95.6253 142.285 95.4845 142.335 95.3525C142.384 95.2205 142.46 95.1 142.558 94.9987C142.656 94.8974 142.774 94.8173 142.904 94.7635C143.034 94.7097 143.174 94.6833 143.315 94.686C143.455 94.6832 143.595 94.7096 143.725 94.7635C143.854 94.8175 143.971 94.8977 144.068 94.9993C144.165 95.1008 144.24 95.2214 144.288 95.3534C144.336 95.4853 144.356 95.6259 144.347 95.766C144.347 95.766 144.353 95.838 144.353 95.868ZM142.553 95.652H144.065C144.065 95.4515 143.985 95.2592 143.844 95.1174C143.702 94.9756 143.509 94.896 143.309 94.896C143.108 94.896 142.916 94.9756 142.774 95.1174C142.633 95.2592 142.553 95.4515 142.553 95.652Z" fill="#868686"/>
<path d="M148.53 95.772C148.53 96.462 148.272 96.864 147.852 96.864C147.793 96.8673 147.734 96.8584 147.678 96.8378C147.623 96.8172 147.572 96.7853 147.529 96.7442C147.486 96.7031 147.452 96.6537 147.43 96.5989C147.407 96.5442 147.395 96.4853 147.396 96.426C147.313 96.5647 147.194 96.6786 147.051 96.7556C146.909 96.8326 146.748 96.8701 146.586 96.864C146.31 96.864 146.044 96.754 145.848 96.5582C145.652 96.3624 145.542 96.0969 145.542 95.82C145.542 95.5431 145.652 95.2776 145.848 95.0818C146.044 94.886 146.31 94.776 146.586 94.776C146.746 94.7692 146.905 94.805 147.046 94.8799C147.188 94.9548 147.306 95.066 147.39 95.202V94.8H147.654V96.336C147.654 96.564 147.768 96.648 147.906 96.648C148.152 96.648 148.314 96.336 148.314 95.79C148.321 95.5733 148.282 95.3576 148.2 95.1569C148.117 94.9562 147.994 94.7751 147.837 94.6252C147.681 94.4753 147.494 94.36 147.29 94.2867C147.086 94.2135 146.869 94.1839 146.652 94.2C146.438 94.2 146.226 94.2422 146.028 94.3242C145.83 94.4063 145.65 94.5265 145.498 94.678C145.347 94.8296 145.227 95.0095 145.145 95.2075C145.063 95.4055 145.02 95.6177 145.02 95.832C145.02 96.0463 145.063 96.2585 145.145 96.4565C145.227 96.6545 145.347 96.8345 145.498 96.986C145.65 97.1375 145.83 97.2578 146.028 97.3398C146.226 97.4218 146.438 97.464 146.652 97.464C146.923 97.4633 147.189 97.4018 147.432 97.284L147.498 97.482C147.234 97.6065 146.945 97.67 146.652 97.668C146.165 97.668 145.698 97.4746 145.354 97.1303C145.01 96.7859 144.816 96.3189 144.816 95.832C144.816 95.3451 145.01 94.8781 145.354 94.5338C145.698 94.1894 146.165 93.996 146.652 93.996C146.895 93.9785 147.138 94.0116 147.367 94.0933C147.596 94.175 147.806 94.3035 147.982 94.4705C148.159 94.6376 148.299 94.8395 148.393 95.0636C148.488 95.2877 148.534 95.5289 148.53 95.772ZM147.39 95.814C147.4 95.707 147.387 95.5993 147.352 95.4976C147.318 95.3959 147.263 95.3024 147.19 95.2232C147.118 95.144 147.03 95.0808 146.931 95.0375C146.833 94.9943 146.727 94.9719 146.619 94.9719C146.512 94.9719 146.406 94.9943 146.308 95.0375C146.209 95.0808 146.121 95.144 146.049 95.2232C145.976 95.3024 145.921 95.3959 145.886 95.4976C145.852 95.5993 145.839 95.707 145.848 95.814C145.839 95.921 145.852 96.0287 145.886 96.1304C145.921 96.2321 145.976 96.3256 146.049 96.4048C146.121 96.484 146.209 96.5472 146.308 96.5905C146.406 96.6337 146.512 96.6561 146.619 96.6561C146.727 96.6561 146.833 96.6337 146.931 96.5905C147.03 96.5472 147.118 96.484 147.19 96.4048C147.263 96.3256 147.318 96.2321 147.352 96.1304C147.387 96.0287 147.4 95.921 147.39 95.814Z" fill="#868686"/>
<path d="M150.99 95.8681H149.19C149.196 95.9721 149.223 96.074 149.268 96.1678C149.314 96.2615 149.377 96.3454 149.455 96.4145C149.533 96.4836 149.624 96.5367 149.723 96.5706C149.822 96.6045 149.926 96.6186 150.03 96.6121C150.153 96.6154 150.275 96.592 150.388 96.5432C150.501 96.4945 150.602 96.4218 150.684 96.3301L150.846 96.5161C150.693 96.6768 150.496 96.7888 150.279 96.838C150.063 96.8872 149.836 96.8714 149.629 96.7926C149.421 96.7138 149.242 96.5755 149.112 96.395C148.983 96.2146 148.91 96 148.902 95.7781C148.894 95.6373 148.916 95.4966 148.965 95.3646C149.015 95.2326 149.091 95.1121 149.189 95.0108C149.287 94.9095 149.404 94.8294 149.535 94.7756C149.665 94.7218 149.805 94.6954 149.946 94.6981C150.086 94.6953 150.226 94.7217 150.355 94.7756C150.485 94.8295 150.602 94.9098 150.699 95.0113C150.796 95.1129 150.871 95.2335 150.919 95.3654C150.967 95.4974 150.987 95.6379 150.978 95.7781C150.978 95.7781 150.99 95.8381 150.99 95.8681ZM149.19 95.6521H150.702C150.702 95.4516 150.622 95.2593 150.48 95.1175C150.339 94.9757 150.146 94.8961 149.946 94.8961C149.745 94.8961 149.553 94.9757 149.411 95.1175C149.27 95.2593 149.19 95.4516 149.19 95.6521Z" fill="#868686"/>
<path d="M155.106 95.6102V96.8462H154.8V95.6462C154.8 95.1962 154.572 94.9622 154.2 94.9622C154.1 94.957 154 94.9738 153.907 95.0114C153.815 95.0489 153.732 95.1063 153.663 95.1795C153.595 95.2528 153.544 95.34 153.513 95.4351C153.483 95.5303 153.473 95.631 153.486 95.7302V96.8522H153.198V95.6522C153.198 95.2022 152.97 94.9682 152.598 94.9682C152.498 94.963 152.398 94.9798 152.305 95.0174C152.213 95.0549 152.13 95.1123 152.061 95.1856C151.993 95.2588 151.942 95.346 151.911 95.4411C151.881 95.5363 151.871 95.637 151.884 95.7362V96.8582H151.596V94.7222H151.872V95.1122C151.954 94.9816 152.07 94.8755 152.207 94.8048C152.344 94.7341 152.498 94.7014 152.652 94.7102C152.809 94.6983 152.967 94.7351 153.103 94.8155C153.24 94.896 153.348 95.0163 153.414 95.1602C153.499 95.0155 153.623 94.897 153.771 94.8177C153.919 94.7383 154.086 94.7011 154.254 94.7102C154.372 94.7022 154.49 94.7205 154.601 94.7636C154.711 94.8067 154.81 94.8737 154.892 94.9596C154.973 95.0456 155.034 95.1485 155.071 95.261C155.108 95.3734 155.12 95.4927 155.106 95.6102Z" fill="#868686"/>
<path d="M157.493 95.5262V96.8462H157.199V96.5162C157.119 96.6338 157.009 96.728 156.881 96.7892C156.752 96.8503 156.609 96.8762 156.467 96.8642C155.981 96.8642 155.688 96.6122 155.688 96.2642C155.688 95.9162 155.897 95.6642 156.509 95.6642H157.199V95.5382C157.199 95.1722 156.995 94.9742 156.599 94.9742C156.341 94.9702 156.089 95.0597 155.891 95.2262L155.759 95.0102C156.007 94.8152 156.315 94.7133 156.629 94.7222C156.742 94.7057 156.856 94.7146 156.964 94.7483C157.072 94.7819 157.172 94.8395 157.255 94.9167C157.338 94.9939 157.402 95.0887 157.443 95.1942C157.485 95.2997 157.502 95.4132 157.493 95.5262ZM157.205 96.2042V95.8562H156.539C156.125 95.8562 155.987 96.0182 155.987 96.2402C155.987 96.4622 156.185 96.6422 156.527 96.6422C156.671 96.6492 156.814 96.6107 156.934 96.532C157.055 96.4534 157.148 96.3386 157.199 96.2042H157.205Z" fill="#868686"/>
<path d="M158.215 94.0381C158.215 93.9966 158.227 93.956 158.25 93.9215C158.273 93.8869 158.306 93.86 158.344 93.8441C158.383 93.8282 158.425 93.8241 158.466 93.8322C158.507 93.8403 158.544 93.8603 158.573 93.8896C158.603 93.919 158.623 93.9564 158.631 93.9972C158.639 94.0379 158.635 94.0801 158.619 94.1185C158.603 94.1569 158.576 94.1897 158.542 94.2127C158.507 94.2358 158.466 94.2481 158.425 94.2481C158.369 94.2481 158.316 94.226 158.276 94.1866C158.237 94.1472 158.215 94.0938 158.215 94.0381ZM158.275 94.7101H158.563V96.8461H158.275V94.7101Z" fill="#868686"/>
<path d="M159.365 93.834H159.653V96.834H159.365V93.834Z" fill="#868686"/>
<path d="M160.272 96.6421C160.271 96.6135 160.276 96.5851 160.286 96.5585C160.297 96.5319 160.313 96.5078 160.333 96.4875C160.353 96.4673 160.377 96.4514 160.404 96.4409C160.431 96.4303 160.459 96.4253 160.488 96.4261C160.545 96.4261 160.6 96.4489 160.64 96.4894C160.681 96.5299 160.704 96.5848 160.704 96.6421C160.704 96.7 160.681 96.7555 160.641 96.797C160.6 96.8385 160.545 96.8625 160.488 96.8641C160.459 96.8641 160.43 96.8583 160.404 96.8471C160.377 96.8359 160.353 96.8194 160.333 96.7987C160.313 96.778 160.297 96.7535 160.286 96.7266C160.276 96.6997 160.271 96.671 160.272 96.6421Z" fill="#868686"/>
<path d="M161.04 95.778C161.036 95.6335 161.061 95.4897 161.115 95.3555C161.169 95.2213 161.25 95.0998 161.353 94.9984C161.456 94.897 161.579 94.818 161.714 94.7663C161.849 94.7146 161.993 94.6914 162.138 94.698C162.303 94.6872 162.467 94.7204 162.615 94.7942C162.762 94.868 162.888 94.9798 162.978 95.118L162.762 95.262C162.694 95.1656 162.605 95.0869 162.5 95.0326C162.396 94.9783 162.28 94.95 162.162 94.95C161.954 94.9678 161.76 95.063 161.618 95.2169C161.477 95.3707 161.399 95.5721 161.399 95.781C161.399 95.99 161.477 96.1913 161.618 96.3452C161.76 96.4991 161.954 96.5943 162.162 96.612C162.28 96.6132 162.396 96.5853 162.501 96.5309C162.605 96.4765 162.695 96.3972 162.762 96.3L162.978 96.4441C162.887 96.5814 162.761 96.6925 162.614 96.7662C162.467 96.8399 162.302 96.8736 162.138 96.864C161.993 96.8708 161.848 96.8474 161.713 96.7953C161.577 96.7433 161.454 96.6637 161.351 96.5617C161.248 96.4597 161.167 96.3373 161.113 96.2025C161.06 96.0676 161.035 95.9231 161.04 95.778Z" fill="#868686"/>
<path d="M163.29 95.7781C163.29 95.5633 163.354 95.3534 163.473 95.1748C163.592 94.9962 163.762 94.857 163.96 94.7748C164.159 94.6926 164.377 94.6711 164.588 94.713C164.798 94.7549 164.992 94.8583 165.144 95.0102C165.296 95.1621 165.399 95.3556 165.441 95.5663C165.483 95.7769 165.461 95.9953 165.379 96.1937C165.297 96.3922 165.158 96.5618 164.979 96.6811C164.801 96.8004 164.591 96.8641 164.376 96.8641C164.232 96.8692 164.088 96.8445 163.954 96.7917C163.82 96.7389 163.699 96.6591 163.597 96.5572C163.495 96.4554 163.415 96.3336 163.362 96.1996C163.309 96.0656 163.285 95.9221 163.29 95.7781ZM165.168 95.7781C165.163 95.6202 165.111 95.4672 165.019 95.3386C164.928 95.21 164.8 95.1117 164.652 95.0559C164.504 95.0002 164.343 94.9897 164.189 95.0256C164.035 95.0616 163.895 95.1424 163.787 95.2579C163.679 95.3734 163.608 95.5183 163.583 95.6743C163.557 95.8303 163.579 95.9903 163.644 96.1341C163.71 96.2778 163.817 96.3989 163.951 96.4819C164.086 96.5648 164.242 96.606 164.4 96.6001C164.505 96.5987 164.609 96.576 164.705 96.5335C164.801 96.491 164.887 96.4295 164.959 96.3527C165.031 96.2759 165.086 96.1855 165.122 96.0867C165.158 95.988 165.174 95.883 165.168 95.7781Z" fill="#868686"/>
<path d="M169.566 95.6102V96.8462H169.278V95.6462C169.278 95.1962 169.05 94.9622 168.678 94.9622C168.578 94.957 168.479 94.9738 168.386 95.0114C168.293 95.0489 168.21 95.1063 168.142 95.1795C168.074 95.2528 168.023 95.34 167.992 95.4351C167.961 95.5303 167.952 95.631 167.964 95.7302V96.8522H167.676V95.6522C167.676 95.2022 167.448 94.9682 167.076 94.9682C166.976 94.963 166.877 94.9798 166.784 95.0174C166.691 95.0549 166.608 95.1123 166.54 95.1856C166.472 95.2588 166.421 95.346 166.39 95.4411C166.359 95.5363 166.35 95.637 166.362 95.7362V96.8582H166.074V94.7222H166.35V95.1122C166.432 94.9816 166.548 94.8755 166.685 94.8048C166.823 94.7341 166.976 94.7014 167.13 94.7102C167.288 94.6983 167.446 94.7351 167.582 94.8155C167.718 94.896 167.826 95.0163 167.892 95.1602C167.978 95.0159 168.102 94.8978 168.25 94.8185C168.398 94.7393 168.565 94.7018 168.732 94.7102C168.849 94.705 168.965 94.7252 169.073 94.7696C169.181 94.8139 169.278 94.8812 169.358 94.9669C169.437 95.0526 169.497 95.1545 169.533 95.2656C169.569 95.3767 169.58 95.4943 169.566 95.6102Z" fill="#868686"/>
<path d="M122.034 113.736L122.538 114.024L122.448 114.192L121.938 113.898V114.498H121.752V113.898L121.242 114.192L121.146 114.024L121.656 113.736L121.146 113.454L121.242 113.28L121.752 113.58V112.98H121.938V113.58L122.448 113.28L122.538 113.454L122.034 113.736Z" fill="#868686"/>
<path d="M123.683 113.736L124.187 114.024L124.091 114.192L123.587 113.898V114.498H123.395V113.898L122.891 114.192L122.789 114.024L123.299 113.736L122.789 113.454L122.891 113.28L123.395 113.58V112.98H123.599V113.58L124.103 113.28L124.199 113.454L123.683 113.736Z" fill="#868686"/>
<path d="M125.327 113.736L125.831 114.024L125.735 114.192L125.231 113.898V114.498H125.045V113.898L124.541 114.192L124.445 114.024L124.949 113.736L124.445 113.454L124.541 113.28L125.045 113.58V112.98H125.231V113.58L125.735 113.28L125.831 113.454L125.327 113.736Z" fill="#868686"/>
<path d="M126.972 113.736L127.476 114.024L127.386 114.192L126.876 113.898V114.498H126.69V113.898L126.18 114.192L126.084 114.024L126.594 113.736L126.084 113.454L126.18 113.28L126.69 113.58V112.98H126.876V113.58L127.386 113.28L127.476 113.454L126.972 113.736Z" fill="#868686"/>
<path d="M128.623 113.736L129.127 114.024L129.031 114.192L128.527 113.898V114.498H128.335V113.898L127.831 114.192L127.729 114.024L128.239 113.736L127.729 113.454L127.831 113.28L128.335 113.58V112.98H128.527V113.58L129.031 113.28L129.127 113.454L128.623 113.736Z" fill="#868686"/>
<path d="M130.267 113.736L130.771 114.024L130.675 114.192L130.171 113.898V114.498H129.985V113.898L129.481 114.192L129.385 114.024L129.889 113.736L129.385 113.454L129.481 113.28L129.985 113.58V112.98H130.201V113.58L130.705 113.28L130.801 113.454L130.267 113.736Z" fill="#868686"/>
<path d="M131.91 113.736L132.414 114.024L132.324 114.192L131.814 113.898V114.498H131.628V113.898L131.118 114.192L131.022 114.024L131.532 113.736L131.022 113.454L131.118 113.28L131.628 113.58V112.98H131.814V113.58L132.324 113.28L132.414 113.454L131.91 113.736Z" fill="#868686"/>
<path d="M133.56 113.736L134.064 114.024L133.968 114.192L133.458 113.898V114.498H133.272V113.898L132.768 114.192L132.666 114.024L133.176 113.736L132.666 113.454L132.768 113.28L133.272 113.58V112.98H133.458V113.58L133.968 113.28L134.064 113.454L133.56 113.736Z" fill="#868686"/>
<path d="M135.204 113.736L135.708 114.024L135.612 114.192L135.108 113.898V114.498H134.922V113.898L134.418 114.192L134.322 114.024L134.826 113.736L134.322 113.454L134.418 113.28L134.922 113.58V112.98H135.108V113.58L135.612 113.28L135.708 113.454L135.204 113.736Z" fill="#868686"/>
<path d="M136.847 113.736L137.351 114.024L137.261 114.192L136.751 113.898V114.498H136.565V113.898L136.055 114.192L135.959 114.024L136.463 113.736L135.959 113.454L136.055 113.28L136.565 113.58V112.98H136.751V113.58L137.261 113.28L137.351 113.454L136.847 113.736Z" fill="#868686"/>
<path d="M138.498 113.736L138.996 114.024L138.906 114.192L138.396 113.898V114.498H138.21V113.898L137.706 114.192L137.604 114.024L138.114 113.736L137.604 113.454L137.706 113.28L138.21 113.58V112.98H138.396V113.58L138.906 113.28L138.996 113.454L138.498 113.736Z" fill="#868686"/>
<path d="M121.763 105.6C121.763 106.2 121.325 106.572 120.605 106.572H119.843V107.466H119.537V104.64H120.599C121.325 104.64 121.763 105 121.763 105.6ZM121.463 105.6C121.463 105.144 121.163 104.886 120.593 104.886H119.843V106.308H120.599C121.163 106.32 121.463 106.062 121.463 105.6Z" fill="#868686"/>
<path d="M123.942 106.158V107.478H123.666V107.148C123.585 107.266 123.474 107.361 123.344 107.422C123.214 107.483 123.071 107.508 122.928 107.496C122.448 107.496 122.154 107.25 122.154 106.896C122.154 106.542 122.364 106.296 122.976 106.296H123.654V106.17C123.654 105.804 123.444 105.606 123.054 105.606C122.795 105.602 122.544 105.691 122.346 105.858L122.214 105.642C122.461 105.447 122.769 105.345 123.084 105.354C123.196 105.338 123.309 105.348 123.417 105.382C123.524 105.416 123.623 105.474 123.705 105.551C123.787 105.628 123.851 105.723 123.892 105.828C123.933 105.933 123.95 106.046 123.942 106.158ZM123.654 106.836V106.488H123C122.586 106.488 122.454 106.65 122.454 106.872C122.454 107.094 122.652 107.274 122.994 107.274C123.136 107.278 123.276 107.239 123.394 107.16C123.512 107.082 123.603 106.968 123.654 106.836Z" fill="#868686"/>
<path d="M124.428 107.238L124.554 107.01C124.777 107.167 125.043 107.251 125.316 107.25C125.718 107.25 125.886 107.112 125.886 106.896C125.886 106.344 124.506 106.782 124.506 105.936C124.506 105.588 124.806 105.336 125.346 105.336C125.611 105.333 125.872 105.401 126.102 105.534L125.976 105.762C125.788 105.64 125.569 105.578 125.346 105.582C124.962 105.582 124.794 105.732 124.794 105.936C124.794 106.536 126.174 106.08 126.174 106.896C126.174 107.268 125.85 107.496 125.292 107.496C124.983 107.506 124.68 107.416 124.428 107.238Z" fill="#868686"/>
<path d="M126.408 107.238L126.54 107.01C126.761 107.167 127.025 107.251 127.296 107.25C127.704 107.25 127.896 107.112 127.896 106.896C127.896 106.344 126.516 106.782 126.516 105.936C126.516 105.588 126.816 105.336 127.362 105.336C127.625 105.332 127.885 105.4 128.112 105.534L127.986 105.762C127.807 105.646 127.599 105.583 127.386 105.582C126.996 105.582 126.828 105.732 126.828 105.936C126.828 106.536 128.208 106.08 128.208 106.896C128.208 107.268 127.884 107.496 127.332 107.496C127.003 107.519 126.677 107.428 126.408 107.238Z" fill="#868686"/>
<path d="M131.777 105.348L130.967 107.478H130.697L130.025 105.732L129.353 107.478H129.077L128.279 105.348H128.555L129.221 107.148L129.905 105.348H130.157L130.835 107.148L131.513 105.348H131.777Z" fill="#868686"/>
<path d="M131.934 106.41C131.934 106.195 131.998 105.985 132.117 105.807C132.236 105.628 132.406 105.489 132.604 105.407C132.803 105.325 133.021 105.303 133.232 105.345C133.443 105.387 133.636 105.49 133.788 105.642C133.94 105.794 134.043 105.988 134.085 106.198C134.127 106.409 134.106 106.627 134.023 106.826C133.941 107.024 133.802 107.194 133.623 107.313C133.445 107.432 133.235 107.496 133.02 107.496C132.876 107.501 132.733 107.476 132.599 107.424C132.465 107.371 132.343 107.291 132.241 107.189C132.139 107.087 132.059 106.966 132.006 106.832C131.954 106.698 131.929 106.554 131.934 106.41ZM133.812 106.41C133.812 106.2 133.729 105.999 133.58 105.85C133.432 105.702 133.23 105.618 133.02 105.618C132.81 105.618 132.609 105.702 132.46 105.85C132.311 105.999 132.228 106.2 132.228 106.41C132.228 106.62 132.311 106.822 132.46 106.97C132.609 107.119 132.81 107.202 133.02 107.202C133.23 107.202 133.432 107.119 133.58 106.97C133.729 106.822 133.812 106.62 133.812 106.41Z" fill="#868686"/>
<path d="M135.767 105.33V105.6H135.695C135.594 105.596 135.493 105.614 135.399 105.652C135.306 105.691 135.222 105.751 135.154 105.826C135.086 105.901 135.035 105.99 135.005 106.087C134.975 106.184 134.967 106.286 134.981 106.386V107.472H134.693V105.342H134.999V105.756C135.072 105.618 135.183 105.504 135.319 105.428C135.456 105.352 135.612 105.318 135.767 105.33Z" fill="#868686"/>
<path d="M138.211 104.472V107.472H137.935V107.052C137.849 107.192 137.728 107.306 137.583 107.383C137.439 107.46 137.276 107.497 137.113 107.49C136.839 107.47 136.584 107.347 136.397 107.146C136.211 106.945 136.107 106.681 136.107 106.407C136.107 106.133 136.211 105.869 136.397 105.668C136.584 105.467 136.839 105.344 137.113 105.324C137.273 105.318 137.431 105.353 137.573 105.427C137.715 105.501 137.836 105.61 137.923 105.744V104.466L138.211 104.472ZM137.929 106.41C137.921 106.255 137.867 106.107 137.775 105.982C137.683 105.857 137.557 105.763 137.412 105.709C137.267 105.655 137.109 105.646 136.958 105.681C136.807 105.716 136.67 105.794 136.564 105.907C136.457 106.019 136.386 106.16 136.358 106.312C136.331 106.465 136.349 106.622 136.41 106.764C136.471 106.906 136.572 107.028 136.701 107.113C136.831 107.198 136.982 107.244 137.137 107.244C137.245 107.246 137.352 107.225 137.452 107.184C137.552 107.142 137.642 107.08 137.716 107.001C137.791 106.923 137.848 106.83 137.885 106.728C137.921 106.626 137.936 106.518 137.929 106.41Z" fill="#868686"/>
<path d="M142.475 129V131.844H142.199V129.264H141.527V129H142.475Z" fill="#868686"/>
<path d="M145.091 131.568V131.832H143.099V131.622L144.299 130.464C144.617 130.152 144.683 129.96 144.683 129.768C144.683 129.438 144.449 129.234 144.017 129.234C143.873 129.225 143.728 129.249 143.593 129.304C143.459 129.359 143.34 129.444 143.243 129.552L143.033 129.372C143.161 129.235 143.318 129.127 143.492 129.056C143.666 128.986 143.854 128.954 144.041 128.964C144.641 128.964 144.983 129.258 144.983 129.732C144.974 129.905 144.927 130.074 144.847 130.227C144.766 130.381 144.653 130.515 144.515 130.62L143.549 131.568H145.091Z" fill="#868686"/>
<path d="M147.335 131.016C147.335 131.49 146.987 131.856 146.303 131.856C145.929 131.868 145.564 131.737 145.283 131.49L145.421 131.256C145.661 131.476 145.977 131.595 146.303 131.586C146.777 131.586 147.035 131.37 147.035 131.016C147.035 130.662 146.795 130.452 146.267 130.452H146.063V130.236L146.849 129.252H145.397V129H147.197V129.21L146.399 130.2C147.029 130.242 147.335 130.56 147.335 131.016Z" fill="#868686"/>
<path d="M150.155 131.082H149.585V131.832H149.297V131.082H147.695V130.872L149.201 128.988H149.525L148.073 130.8H149.303V130.14H149.585V130.8H150.155V131.082Z" fill="#868686"/>
<path d="M153.413 130.992C153.413 131.478 153.077 131.856 152.381 131.856C152.007 131.867 151.643 131.736 151.361 131.49L151.505 131.256C151.621 131.366 151.758 131.452 151.907 131.509C152.056 131.565 152.216 131.592 152.375 131.586C152.861 131.586 153.113 131.352 153.113 130.986C153.113 130.62 152.885 130.386 152.165 130.386H151.565L151.715 128.958H153.269V129.222H151.967L151.871 130.122H152.237C153.089 130.152 153.413 130.494 153.413 130.992Z" fill="#868686"/>
<path d="M155.915 130.98C155.914 131.103 155.888 131.225 155.837 131.337C155.786 131.449 155.713 131.549 155.622 131.632C155.53 131.714 155.423 131.777 155.306 131.815C155.189 131.854 155.066 131.868 154.943 131.856C154.187 131.856 153.779 131.328 153.779 130.434C153.779 129.54 154.307 128.964 155.075 128.964C155.311 128.955 155.545 129.009 155.753 129.12L155.633 129.354C155.466 129.258 155.274 129.212 155.081 129.222C154.481 129.222 154.073 129.612 154.073 130.386C154.073 130.452 154.073 130.53 154.073 130.614C154.156 130.458 154.282 130.329 154.437 130.243C154.591 130.157 154.767 130.117 154.943 130.128C155.064 130.113 155.188 130.123 155.304 130.159C155.421 130.195 155.529 130.255 155.621 130.336C155.713 130.416 155.786 130.515 155.837 130.626C155.888 130.737 155.915 130.858 155.915 130.98ZM155.627 130.98C155.627 130.602 155.351 130.38 154.913 130.38C154.825 130.369 154.736 130.376 154.651 130.401C154.566 130.426 154.487 130.467 154.419 130.523C154.35 130.58 154.294 130.649 154.253 130.727C154.212 130.806 154.188 130.892 154.181 130.98C154.181 131.292 154.439 131.58 154.931 131.58C155.017 131.594 155.104 131.589 155.188 131.566C155.271 131.543 155.348 131.502 155.415 131.446C155.481 131.39 155.534 131.321 155.571 131.242C155.607 131.164 155.627 131.079 155.627 130.992V130.98Z" fill="#868686"/>
<path d="M158.219 129V129.21L157.019 131.844H156.701L157.871 129.264H156.413V129.792H156.125V129H158.219Z" fill="#868686"/>
<path d="M160.71 131.04C160.71 131.544 160.284 131.856 159.606 131.856C158.928 131.856 158.514 131.544 158.514 131.04C158.512 130.879 158.565 130.721 158.664 130.594C158.763 130.466 158.903 130.376 159.06 130.338C158.929 130.303 158.814 130.224 158.733 130.115C158.653 130.007 158.611 129.873 158.616 129.738C158.616 129.276 159.006 128.988 159.606 128.988C160.206 128.988 160.608 129.276 160.608 129.738C160.606 129.874 160.56 130.005 160.478 130.113C160.396 130.221 160.282 130.3 160.152 130.338C160.311 130.375 160.452 130.464 160.553 130.592C160.655 130.719 160.71 130.877 160.71 131.04ZM160.41 131.04C160.41 130.692 160.11 130.47 159.606 130.47C159.102 130.47 158.808 130.692 158.808 131.04C158.808 131.388 159.102 131.64 159.606 131.64C160.11 131.64 160.41 131.4 160.41 131.034V131.04ZM159.6 130.236C160.044 130.236 160.308 130.038 160.308 129.726C160.308 129.414 160.026 129.216 159.6 129.216C159.174 129.216 158.898 129.408 158.898 129.726C158.898 130.044 159.162 130.236 159.6 130.236Z" fill="#868686"/>
<path d="M164.226 130.386C164.226 131.352 163.698 131.856 162.924 131.856C162.69 131.864 162.458 131.811 162.252 131.7L162.372 131.466C162.539 131.562 162.731 131.608 162.924 131.598C163.524 131.598 163.926 131.202 163.926 130.434C163.931 130.358 163.931 130.282 163.926 130.206C163.845 130.363 163.72 130.492 163.566 130.579C163.413 130.665 163.237 130.705 163.062 130.692C162.941 130.706 162.82 130.694 162.704 130.657C162.589 130.62 162.483 130.56 162.392 130.48C162.302 130.399 162.229 130.301 162.179 130.191C162.129 130.081 162.102 129.961 162.102 129.84C162.103 129.717 162.129 129.596 162.18 129.484C162.23 129.371 162.304 129.271 162.395 129.189C162.486 129.106 162.594 129.044 162.711 129.005C162.828 128.966 162.951 128.953 163.074 128.964C163.8 128.964 164.226 129.492 164.226 130.386ZM163.824 129.822C163.824 129.51 163.566 129.222 163.074 129.222C162.987 129.208 162.899 129.213 162.814 129.237C162.73 129.261 162.652 129.303 162.586 129.36C162.519 129.417 162.466 129.488 162.43 129.568C162.394 129.648 162.376 129.735 162.378 129.822C162.378 130.2 162.654 130.422 163.092 130.422C163.265 130.435 163.436 130.38 163.569 130.268C163.701 130.155 163.784 129.995 163.8 129.822H163.824Z" fill="#868686"/>
<path d="M165.425 129V131.844H165.131V129.264H164.459V129H165.425Z" fill="#868686"/>
<path d="M166.098 130.41C166.098 129.504 166.578 128.964 167.232 128.964C167.886 128.964 168.366 129.504 168.366 130.41C168.366 131.316 167.892 131.856 167.232 131.856C166.572 131.856 166.098 131.316 166.098 130.41ZM168.066 130.41C168.066 129.654 167.73 129.21 167.232 129.21C166.734 129.21 166.398 129.63 166.398 130.41C166.398 131.19 166.74 131.61 167.232 131.61C167.724 131.61 168.066 131.166 168.066 130.41Z" fill="#868686"/>
<path d="M169.566 129V131.844H169.272V129.264H168.6V129H169.566Z" fill="#868686"/>
<path d="M172.091 129V131.844H171.797V129.264H171.125V129H172.091Z" fill="#868686"/>
<path d="M173.55 129V131.844H173.262V129.264H172.59V129H173.55Z" fill="#868686"/>
<path d="M176.165 131.568V131.832H174.173V131.622L175.373 130.464C175.691 130.152 175.757 129.96 175.757 129.768C175.757 129.438 175.523 129.234 175.091 129.234C174.947 129.225 174.802 129.249 174.668 129.304C174.534 129.359 174.414 129.444 174.317 129.552L174.107 129.372C174.236 129.235 174.393 129.128 174.567 129.057C174.741 128.987 174.928 128.955 175.115 128.964C175.715 128.964 176.057 129.258 176.057 129.732C176.048 129.905 176.002 130.074 175.921 130.227C175.84 130.381 175.727 130.515 175.589 130.62L174.599 131.568H176.165Z" fill="#868686"/>
<path d="M177.318 129V131.844H177V129.264H176.334V129H177.318Z" fill="#868686"/>
<path d="M129.473 128.34V127.908C129.473 127.708 129.393 127.515 129.251 127.374C129.11 127.232 128.917 127.152 128.717 127.152H121.055C120.854 127.152 120.662 127.232 120.52 127.374C120.378 127.515 120.299 127.708 120.299 127.908V128.34H129.473Z" fill="#868686"/>
<path d="M120.299 128.934V132.114C120.299 132.315 120.378 132.507 120.52 132.649C120.662 132.79 120.854 132.87 121.055 132.87H128.717C128.917 132.87 129.11 132.79 129.251 132.649C129.393 132.507 129.473 132.315 129.473 132.114V128.934H120.299Z" fill="#868686"/>
<path d="M120.414 145.68C120.414 144.774 120.888 144.24 121.548 144.24C122.208 144.24 122.682 144.774 122.682 145.68C122.682 146.586 122.202 147.126 121.548 147.126C120.894 147.126 120.414 146.586 120.414 145.68ZM122.382 145.68C122.382 144.924 122.04 144.48 121.548 144.48C121.056 144.48 120.714 144.9 120.714 145.68C120.714 146.46 121.05 146.88 121.548 146.88C122.046 146.88 122.4 146.442 122.4 145.68H122.382Z" fill="#868686"/>
<path d="M125.28 146.31C125.28 146.814 124.854 147.126 124.176 147.126C123.498 147.126 123.084 146.814 123.084 146.31C123.081 146.149 123.134 145.992 123.234 145.865C123.333 145.738 123.473 145.65 123.63 145.614C123.503 145.573 123.392 145.493 123.312 145.385C123.232 145.278 123.188 145.148 123.186 145.014C123.186 144.552 123.576 144.264 124.176 144.264C124.776 144.264 125.178 144.552 125.178 145.014C125.175 145.148 125.129 145.278 125.049 145.386C124.968 145.493 124.856 145.573 124.728 145.614C124.886 145.65 125.026 145.738 125.127 145.865C125.227 145.991 125.281 146.148 125.28 146.31ZM124.98 146.31C124.98 145.962 124.68 145.746 124.176 145.746C123.672 145.746 123.378 145.962 123.378 146.31C123.378 146.658 123.678 146.91 124.176 146.91C124.674 146.91 124.98 146.658 124.98 146.304V146.31ZM124.2 145.506C124.644 145.506 124.908 145.308 124.908 145.002C124.908 144.696 124.626 144.486 124.2 144.486C123.774 144.486 123.498 144.678 123.498 144.996C123.498 145.314 123.738 145.506 124.2 145.506Z" fill="#868686"/>
<path d="M126.714 143.688H126.978L125.634 147.504H125.4L126.714 143.688Z" fill="#868686"/>
<path d="M128.999 146.838V147.102H127.007V146.892L128.207 145.74C128.525 145.422 128.585 145.23 128.585 145.038C128.585 144.708 128.357 144.504 127.925 144.504C127.78 144.495 127.634 144.519 127.499 144.574C127.364 144.629 127.243 144.714 127.145 144.822L126.941 144.642C127.069 144.505 127.226 144.398 127.4 144.328C127.575 144.259 127.762 144.229 127.949 144.24C128.549 144.24 128.885 144.528 128.885 145.002C128.879 145.175 128.835 145.345 128.755 145.498C128.675 145.652 128.562 145.786 128.423 145.89L127.457 146.838H128.999Z" fill="#868686"/>
<path d="M131.275 146.262C131.275 146.748 130.939 147.126 130.243 147.126C129.869 147.137 129.504 147.007 129.223 146.76L129.367 146.526C129.482 146.636 129.619 146.722 129.768 146.779C129.918 146.836 130.077 146.862 130.237 146.856C130.723 146.856 130.975 146.622 130.975 146.256C130.975 145.89 130.753 145.656 130.027 145.656H129.427L129.571 144.234H131.125V144.492H129.823L129.727 145.398H130.093C130.951 145.428 131.275 145.764 131.275 146.262Z" fill="#868686"/>
<path d="M121.74 142.434V142.596H120.492V140.832H121.692V141H120.672V141.6H121.584V141.762H120.672V142.416L121.74 142.434Z" fill="#868686"/>
<path d="M123.259 142.596L122.695 141.816L122.095 142.596H121.879L122.551 141.69L121.951 140.832H122.161L122.695 141.552L123.223 140.832H123.421L122.821 141.684L123.493 142.596H123.259Z" fill="#868686"/>
<path d="M125.13 141.438C125.13 141.81 124.854 142.038 124.41 142.038H123.936V142.596H123.75V140.832H124.41C124.854 140.832 125.13 141.06 125.13 141.438ZM124.944 141.438C124.944 141.156 124.758 140.994 124.404 140.994H123.936V141.876H124.404C124.758 141.876 124.944 141.714 124.944 141.438Z" fill="#868686"/>
<path d="M126.223 140.832H126.937C127.171 140.832 127.395 140.925 127.56 141.09C127.726 141.256 127.819 141.48 127.819 141.714C127.819 141.948 127.726 142.172 127.56 142.338C127.395 142.503 127.171 142.596 126.937 142.596H126.223V140.832ZM126.925 142.434C127.116 142.434 127.299 142.358 127.434 142.223C127.569 142.088 127.645 141.905 127.645 141.714C127.645 141.523 127.569 141.34 127.434 141.205C127.299 141.07 127.116 140.994 126.925 140.994H126.409V142.434H126.925Z" fill="#868686"/>
<path d="M129.264 141.774V142.596H129.09V142.386C129.041 142.461 128.973 142.521 128.893 142.56C128.813 142.599 128.723 142.616 128.634 142.608C128.34 142.608 128.154 142.452 128.154 142.224C128.154 141.996 128.286 141.846 128.664 141.846H129.084V141.768C129.089 141.719 129.083 141.669 129.066 141.622C129.049 141.576 129.021 141.534 128.985 141.499C128.949 141.465 128.906 141.44 128.859 141.425C128.811 141.41 128.761 141.406 128.712 141.414C128.55 141.411 128.393 141.467 128.268 141.57L128.19 141.438C128.343 141.317 128.535 141.253 128.73 141.258C128.801 141.247 128.874 141.253 128.942 141.275C129.01 141.297 129.073 141.334 129.124 141.384C129.176 141.434 129.215 141.495 129.24 141.563C129.264 141.63 129.272 141.703 129.264 141.774ZM129.084 142.194V141.978H128.67C128.412 141.978 128.328 142.08 128.328 142.218C128.328 142.356 128.454 142.464 128.664 142.464C128.753 142.47 128.842 142.448 128.917 142.401C128.993 142.353 129.051 142.283 129.084 142.2V142.194Z" fill="#868686"/>
<path d="M130.445 142.512C130.369 142.578 130.27 142.612 130.169 142.608C130.117 142.614 130.064 142.607 130.015 142.59C129.965 142.573 129.92 142.545 129.883 142.508C129.846 142.472 129.817 142.427 129.799 142.378C129.781 142.329 129.774 142.276 129.779 142.224V141.42H129.545V141.27H129.779V141H129.959V141.288H130.361V141.438H129.959V142.2C129.954 142.232 129.957 142.264 129.966 142.294C129.976 142.325 129.992 142.352 130.014 142.376C130.036 142.399 130.063 142.417 130.093 142.428C130.123 142.439 130.155 142.443 130.187 142.44C130.259 142.441 130.328 142.418 130.385 142.374L130.445 142.512Z" fill="#868686"/>
<path d="M131.88 141.99H130.8C130.809 142.12 130.869 142.24 130.967 142.326C131.065 142.411 131.192 142.454 131.322 142.446C131.399 142.449 131.475 142.435 131.546 142.405C131.616 142.375 131.679 142.33 131.73 142.272L131.832 142.392C131.767 142.463 131.687 142.519 131.598 142.556C131.509 142.594 131.412 142.611 131.316 142.608C131.225 142.613 131.134 142.599 131.049 142.567C130.964 142.535 130.886 142.485 130.821 142.422C130.756 142.358 130.705 142.281 130.672 142.197C130.638 142.112 130.623 142.021 130.626 141.93C130.621 141.843 130.634 141.756 130.664 141.674C130.694 141.593 130.741 141.518 130.801 141.455C130.861 141.392 130.934 141.342 131.014 141.308C131.094 141.274 131.181 141.257 131.268 141.258C131.357 141.251 131.446 141.264 131.529 141.296C131.612 141.328 131.687 141.378 131.748 141.442C131.81 141.506 131.856 141.583 131.884 141.668C131.912 141.752 131.921 141.842 131.91 141.93L131.88 141.99ZM130.77 141.852H131.712C131.699 141.736 131.644 141.63 131.557 141.552C131.47 141.474 131.358 141.431 131.241 141.431C131.125 141.431 131.012 141.474 130.925 141.552C130.838 141.63 130.783 141.736 130.77 141.852Z" fill="#868686"/>
<path d="M153.925 144.264V147.102H153.637V144.522H152.965V144.264H153.925Z" fill="#868686"/>
<path d="M156.54 146.838V147.102H154.548V146.892L155.748 145.74C156.066 145.422 156.132 145.23 156.132 145.038C156.132 144.708 155.898 144.504 155.466 144.504C155.322 144.495 155.177 144.519 155.043 144.574C154.909 144.629 154.789 144.714 154.692 144.822L154.482 144.642C154.611 144.506 154.768 144.399 154.942 144.329C155.116 144.26 155.303 144.229 155.49 144.24C156.09 144.24 156.432 144.528 156.432 145.002C156.423 145.175 156.377 145.344 156.296 145.497C156.215 145.651 156.102 145.785 155.964 145.89L154.998 146.838H156.54Z" fill="#868686"/>
<path d="M158.784 146.286C158.784 146.76 158.436 147.126 157.752 147.126C157.378 147.138 157.014 147.007 156.732 146.76L156.876 146.526C156.993 146.637 157.13 146.723 157.281 146.78C157.431 146.837 157.592 146.863 157.752 146.856C158.226 146.856 158.484 146.64 158.484 146.286C158.484 145.932 158.244 145.722 157.716 145.722H157.512V145.506L158.298 144.522H156.846V144.264H158.646V144.468L157.842 145.476C158.478 145.512 158.784 145.83 158.784 146.286Z" fill="#868686"/>
<path d="M153.061 141.714C153.059 141.593 153.082 141.473 153.128 141.362C153.174 141.25 153.242 141.149 153.329 141.065C153.415 140.981 153.518 140.915 153.631 140.872C153.744 140.829 153.864 140.809 153.985 140.814C154.104 140.81 154.222 140.831 154.333 140.875C154.443 140.92 154.543 140.987 154.627 141.072L154.513 141.192C154.444 141.123 154.363 141.069 154.273 141.033C154.183 140.997 154.087 140.98 153.991 140.982C153.889 140.973 153.787 140.985 153.691 141.017C153.594 141.05 153.506 141.102 153.431 141.17C153.356 141.239 153.296 141.323 153.255 141.416C153.214 141.509 153.192 141.609 153.192 141.711C153.192 141.813 153.214 141.913 153.255 142.006C153.296 142.099 153.356 142.183 153.431 142.251C153.506 142.32 153.594 142.372 153.691 142.405C153.787 142.437 153.889 142.449 153.991 142.44C154.088 142.444 154.184 142.427 154.274 142.391C154.364 142.354 154.445 142.3 154.513 142.23L154.627 142.35C154.543 142.437 154.442 142.505 154.331 142.549C154.219 142.594 154.099 142.614 153.979 142.608C153.859 142.613 153.739 142.593 153.627 142.55C153.515 142.508 153.413 142.442 153.327 142.359C153.241 142.275 153.173 142.175 153.127 142.064C153.082 141.953 153.059 141.834 153.061 141.714Z" fill="#868686"/>
<path d="M157.427 140.832L156.827 142.596H156.629L156.113 141.09L155.597 142.596H155.399L154.799 140.832H154.991L155.501 142.35L156.029 140.832H156.203L156.719 142.356L157.235 140.832H157.427Z" fill="#868686"/>
<path d="M138.185 162.348H136.601L136.259 163.11H135.947L137.243 160.272H137.543L138.839 163.11H138.521L138.185 162.348ZM138.071 162.108L137.399 160.584L136.715 162.108H138.071Z" fill="#868686"/>
<path d="M139.014 162.042C139.009 161.897 139.034 161.753 139.088 161.618C139.141 161.483 139.222 161.361 139.325 161.259C139.428 161.157 139.552 161.077 139.687 161.025C139.823 160.973 139.967 160.949 140.112 160.956C140.277 160.946 140.441 160.981 140.587 161.056C140.734 161.131 140.858 161.243 140.946 161.382L140.736 161.526C140.669 161.429 140.579 161.349 140.475 161.294C140.371 161.239 140.254 161.209 140.136 161.208C139.915 161.208 139.703 161.296 139.547 161.452C139.39 161.609 139.302 161.821 139.302 162.042C139.302 162.263 139.39 162.476 139.547 162.632C139.703 162.788 139.915 162.876 140.136 162.876C140.254 162.875 140.37 162.847 140.474 162.792C140.578 162.738 140.668 162.66 140.736 162.564L140.946 162.708C140.856 162.845 140.732 162.956 140.585 163.03C140.439 163.103 140.276 163.137 140.112 163.128C139.967 163.135 139.823 163.112 139.687 163.059C139.552 163.007 139.428 162.928 139.325 162.826C139.222 162.724 139.141 162.601 139.088 162.467C139.034 162.332 139.009 162.187 139.014 162.042Z" fill="#868686"/>
<path d="M142.657 162.978C142.53 163.082 142.37 163.135 142.207 163.128C142.126 163.133 142.046 163.122 141.971 163.093C141.896 163.065 141.827 163.021 141.77 162.964C141.714 162.907 141.67 162.839 141.641 162.764C141.613 162.689 141.601 162.608 141.607 162.528V161.22H141.229V160.974H141.601V160.506H141.889V160.974H142.543V161.22H141.889V162.492C141.881 162.544 141.885 162.596 141.901 162.645C141.917 162.695 141.944 162.74 141.979 162.778C142.015 162.815 142.059 162.844 142.108 162.862C142.157 162.88 142.209 162.887 142.261 162.882C142.376 162.884 142.488 162.846 142.579 162.774L142.657 162.978Z" fill="#868686"/>
<path d="M143.117 160.302C143.117 160.246 143.139 160.193 143.179 160.154C143.218 160.114 143.271 160.092 143.327 160.092C143.383 160.092 143.436 160.114 143.476 160.154C143.515 160.193 143.537 160.246 143.537 160.302C143.537 160.358 143.515 160.411 143.476 160.451C143.436 160.49 143.383 160.512 143.327 160.512C143.271 160.512 143.218 160.49 143.179 160.451C143.139 160.411 143.117 160.358 143.117 160.302ZM143.183 160.974H143.471V163.11H143.183V160.974Z" fill="#868686"/>
<path d="M144.053 162.042C144.053 161.828 144.117 161.618 144.236 161.439C144.355 161.261 144.524 161.122 144.722 161.039C144.92 160.957 145.138 160.935 145.349 160.976C145.559 161.018 145.753 161.121 145.905 161.272C146.057 161.423 146.161 161.616 146.204 161.827C146.246 162.037 146.226 162.255 146.144 162.454C146.063 162.652 145.925 162.822 145.747 162.942C145.569 163.062 145.36 163.127 145.145 163.128C145.001 163.133 144.857 163.108 144.723 163.056C144.589 163.003 144.466 162.923 144.364 162.821C144.262 162.72 144.181 162.598 144.128 162.464C144.074 162.33 144.049 162.186 144.053 162.042ZM145.931 162.042C145.923 161.887 145.869 161.738 145.777 161.613C145.685 161.489 145.558 161.394 145.413 161.34C145.267 161.287 145.109 161.278 144.958 161.313C144.807 161.349 144.67 161.428 144.564 161.541C144.458 161.654 144.387 161.795 144.36 161.948C144.333 162.101 144.352 162.258 144.414 162.4C144.476 162.542 144.578 162.663 144.708 162.748C144.838 162.832 144.99 162.877 145.145 162.876C145.253 162.877 145.36 162.856 145.459 162.814C145.558 162.772 145.647 162.709 145.721 162.631C145.795 162.553 145.851 162.46 145.888 162.359C145.924 162.257 145.939 162.149 145.931 162.042Z" fill="#868686"/>
<path d="M148.8 161.874V163.11H148.512V161.91C148.524 161.821 148.516 161.731 148.488 161.646C148.461 161.561 148.414 161.483 148.353 161.418C148.291 161.353 148.216 161.302 148.132 161.27C148.049 161.238 147.959 161.225 147.87 161.232C147.768 161.224 147.666 161.239 147.571 161.276C147.475 161.312 147.389 161.369 147.318 161.442C147.247 161.515 147.193 161.603 147.16 161.7C147.127 161.796 147.115 161.899 147.126 162V163.122H146.838V160.986H147.114V161.4C147.2 161.266 147.321 161.157 147.463 161.084C147.605 161.011 147.764 160.978 147.924 160.986C148.042 160.978 148.161 160.995 148.271 161.037C148.382 161.079 148.483 161.145 148.566 161.229C148.649 161.313 148.713 161.415 148.753 161.526C148.794 161.637 148.81 161.756 148.8 161.874Z" fill="#868686"/>
<path d="M150.984 160.53V161.646H152.448V161.904H150.984V163.104H150.684V160.266H152.628V160.524L150.984 160.53Z" fill="#868686"/>
<path d="M153.084 160.302C153.084 160.246 153.106 160.193 153.145 160.154C153.185 160.114 153.238 160.092 153.294 160.092C153.35 160.092 153.403 160.114 153.442 160.154C153.482 160.193 153.504 160.246 153.504 160.302C153.504 160.358 153.482 160.411 153.442 160.451C153.403 160.49 153.35 160.512 153.294 160.512C153.238 160.512 153.185 160.49 153.145 160.451C153.106 160.411 153.084 160.358 153.084 160.302ZM153.144 160.974H153.432V163.11H153.144V160.974Z" fill="#868686"/>
<path d="M156.209 160.974V162.852C156.232 162.997 156.22 163.145 156.175 163.284C156.129 163.423 156.052 163.549 155.948 163.653C155.845 163.756 155.718 163.834 155.579 163.879C155.44 163.925 155.292 163.937 155.147 163.914C154.787 163.93 154.433 163.815 154.151 163.59L154.295 163.368C154.531 163.563 154.829 163.667 155.135 163.662C155.675 163.662 155.921 163.41 155.921 162.888V162.6C155.831 162.735 155.707 162.843 155.562 162.916C155.417 162.988 155.255 163.022 155.093 163.014C154.951 163.025 154.808 163.006 154.673 162.959C154.538 162.912 154.414 162.838 154.309 162.741C154.204 162.643 154.121 162.526 154.063 162.395C154.006 162.264 153.977 162.122 153.977 161.979C153.977 161.836 154.006 161.695 154.063 161.564C154.121 161.433 154.204 161.315 154.309 161.218C154.414 161.121 154.538 161.046 154.673 160.999C154.808 160.952 154.951 160.933 155.093 160.944C155.258 160.938 155.422 160.973 155.569 161.048C155.716 161.122 155.841 161.233 155.933 161.37V160.962L156.209 160.974ZM155.933 161.988C155.938 161.827 155.895 161.668 155.809 161.532C155.723 161.395 155.598 161.288 155.45 161.223C155.303 161.158 155.139 161.138 154.981 161.167C154.822 161.195 154.675 161.271 154.56 161.383C154.444 161.495 154.364 161.639 154.331 161.797C154.298 161.955 154.313 162.119 154.373 162.268C154.434 162.418 154.537 162.546 154.671 162.636C154.805 162.726 154.962 162.774 155.123 162.774C155.228 162.781 155.334 162.766 155.433 162.73C155.532 162.693 155.622 162.637 155.698 162.565C155.774 162.492 155.834 162.404 155.875 162.307C155.915 162.21 155.935 162.105 155.933 162V161.988Z" fill="#868686"/>
<path d="M158.94 160.974V163.11H158.664V162.72C158.584 162.851 158.471 162.958 158.336 163.03C158.2 163.101 158.048 163.135 157.896 163.128C157.773 163.14 157.649 163.124 157.534 163.081C157.418 163.039 157.313 162.971 157.227 162.883C157.141 162.796 157.075 162.689 157.035 162.573C156.995 162.456 156.982 162.333 156.996 162.21V160.974H157.284V162.174C157.271 162.263 157.278 162.354 157.305 162.44C157.332 162.526 157.378 162.605 157.44 162.671C157.502 162.736 157.577 162.787 157.661 162.82C157.745 162.852 157.836 162.865 157.926 162.858C158.026 162.863 158.127 162.846 158.221 162.808C158.314 162.771 158.399 162.713 158.468 162.639C158.537 162.566 158.589 162.478 158.621 162.382C158.652 162.286 158.663 162.184 158.652 162.084V160.962L158.94 160.974Z" fill="#868686"/>
<path d="M160.799 160.956V161.238H160.727C160.625 161.234 160.523 161.252 160.429 161.291C160.334 161.33 160.25 161.39 160.181 161.465C160.112 161.541 160.061 161.631 160.031 161.728C160.001 161.826 159.993 161.929 160.007 162.03V163.116H159.719V160.98H159.995V161.4C160.069 161.254 160.186 161.134 160.329 161.055C160.472 160.976 160.636 160.942 160.799 160.956Z" fill="#868686"/>
<path d="M163.199 162.132H161.399C161.405 162.236 161.432 162.338 161.477 162.432C161.523 162.526 161.586 162.61 161.664 162.679C161.742 162.748 161.833 162.801 161.932 162.835C162.03 162.869 162.135 162.883 162.239 162.876C162.362 162.88 162.484 162.856 162.597 162.807C162.71 162.759 162.811 162.686 162.893 162.594L163.055 162.78C162.902 162.941 162.704 163.053 162.488 163.102C162.272 163.151 162.045 163.136 161.838 163.057C161.63 162.978 161.45 162.84 161.321 162.659C161.192 162.479 161.119 162.264 161.111 162.042C161.103 161.901 161.125 161.76 161.174 161.628C161.224 161.496 161.3 161.375 161.397 161.273C161.495 161.171 161.613 161.091 161.743 161.036C161.874 160.982 162.014 160.954 162.155 160.956C162.296 160.953 162.436 160.98 162.566 161.034C162.696 161.089 162.813 161.169 162.91 161.272C163.008 161.374 163.082 161.495 163.13 161.628C163.177 161.76 163.197 161.902 163.187 162.042C163.187 162.042 163.199 162.096 163.199 162.132ZM161.399 161.916H162.911C162.911 161.716 162.831 161.523 162.689 161.382C162.548 161.24 162.355 161.16 162.155 161.16C161.954 161.16 161.762 161.24 161.62 161.382C161.478 161.523 161.399 161.716 161.399 161.916Z" fill="#868686"/>
<path d="M139.458 174.492V175.74H138.348V174.54C137.357 174.509 136.394 174.199 135.57 173.646L136.17 172.29C136.811 172.738 137.558 173.011 138.336 173.082V171.222C137.094 170.916 135.714 170.508 135.714 168.912C135.714 167.712 136.572 166.716 138.336 166.512V165.276H139.446V166.476C140.244 166.521 141.019 166.756 141.708 167.16L141.15 168.528C140.627 168.218 140.048 168.014 139.446 167.928V169.824C140.682 170.112 142.044 170.526 142.044 172.098C142.056 173.28 141.21 174.282 139.458 174.492ZM138.348 169.572V168C137.748 168.132 137.52 168.456 137.52 168.822C137.52 169.188 137.856 169.416 138.348 169.572ZM140.262 172.254C140.262 171.864 139.938 171.654 139.458 171.486V173.022C140.016 172.902 140.262 172.614 140.262 172.254Z" fill="#868686"/>
<path d="M148.625 172.932V174.408H142.733V173.238L145.733 170.394C146.429 169.734 146.549 169.338 146.549 168.954C146.549 168.354 146.123 167.988 145.301 167.988C144.989 167.976 144.678 168.041 144.397 168.177C144.115 168.313 143.872 168.516 143.687 168.768L142.373 167.922C142.728 167.442 143.197 167.058 143.738 166.805C144.278 166.552 144.873 166.436 145.469 166.47C147.209 166.47 148.367 167.364 148.367 168.78C148.367 169.536 148.151 170.226 147.059 171.24L145.259 172.932H148.625Z" fill="#868686"/>
<path d="M149.352 170.508C149.352 167.934 150.78 166.47 152.694 166.47C154.608 166.47 156.036 167.934 156.036 170.508C156.036 173.082 154.62 174.54 152.694 174.54C150.768 174.54 149.352 173.082 149.352 170.508ZM154.224 170.508C154.224 168.708 153.624 168 152.694 168C151.764 168 151.182 168.732 151.182 170.508C151.182 172.284 151.782 173.01 152.694 173.01C153.606 173.01 154.2 172.278 154.2 170.508H154.224Z" fill="#868686"/>
<path d="M156.918 170.508C156.918 167.934 158.346 166.47 160.26 166.47C162.174 166.47 163.602 167.934 163.602 170.508C163.602 173.082 162.186 174.54 160.26 174.54C158.334 174.54 156.918 173.082 156.918 170.508ZM161.784 170.508C161.784 168.708 161.184 168 160.26 168C159.336 168 158.742 168.732 158.742 170.508C158.742 172.284 159.342 173.01 160.26 173.01C161.178 173.01 161.784 172.278 161.784 170.508Z" fill="#868686"/>
<path d="M162.091 194.268H137.215C135.671 194.266 134.192 193.653 133.101 192.562C132.01 191.471 131.396 189.991 131.395 188.448C131.395 186.904 132.008 185.423 133.099 184.331C134.19 183.238 135.67 182.624 137.215 182.622H162.091C162.855 182.622 163.613 182.773 164.319 183.066C165.026 183.359 165.668 183.788 166.208 184.329C166.749 184.87 167.177 185.512 167.469 186.219C167.761 186.926 167.911 187.683 167.911 188.448C167.911 189.992 167.297 191.472 166.206 192.563C165.114 193.655 163.634 194.268 162.091 194.268Z" fill="#868686"/>
<path d="M141.672 187.8C141.672 188.532 141.144 188.97 140.274 188.97H139.35V190.05H138.99V186.63H140.274C141.144 186.654 141.672 187.092 141.672 187.8ZM141.306 187.8C141.306 187.254 140.946 186.942 140.262 186.942H139.35V188.652H140.262C140.946 188.676 141.306 188.364 141.306 187.8Z" fill="white"/>
<path d="M144.295 188.478V190.074H143.965V189.672C143.868 189.816 143.735 189.931 143.579 190.006C143.422 190.081 143.249 190.113 143.077 190.098C142.477 190.098 142.141 189.798 142.141 189.348C142.141 188.898 142.393 188.622 143.131 188.622H143.947V188.466C143.947 188.028 143.701 187.788 143.221 187.788C142.908 187.783 142.604 187.89 142.363 188.088L142.207 187.83C142.505 187.595 142.877 187.472 143.257 187.482C143.394 187.462 143.534 187.474 143.666 187.516C143.798 187.559 143.919 187.631 144.019 187.727C144.119 187.823 144.196 187.94 144.244 188.07C144.291 188.201 144.309 188.34 144.295 188.478ZM143.947 189.3V188.88H143.143C142.645 188.88 142.483 189.078 142.483 189.342C142.483 189.606 142.723 189.828 143.131 189.828C143.305 189.839 143.479 189.794 143.626 189.699C143.773 189.604 143.885 189.464 143.947 189.3Z" fill="white"/>
<path d="M147.348 187.5L146.064 190.38C145.848 190.884 145.578 191.046 145.212 191.046C144.984 191.046 144.764 190.958 144.6 190.8L144.762 190.542C144.822 190.605 144.895 190.655 144.975 190.689C145.056 190.723 145.142 190.741 145.23 190.74C145.464 190.74 145.62 190.632 145.764 190.308L145.878 190.056L144.726 187.488H145.092L146.058 189.678L147 187.5H147.348Z" fill="white"/>
<path d="M150.281 190.098V190.662H150.035V190.104C149.605 190.101 149.19 189.943 148.865 189.66L149.009 189.378C149.293 189.631 149.656 189.777 150.035 189.792V188.508C149.495 188.376 148.949 188.208 148.949 187.56C148.949 187.092 149.285 186.684 150.035 186.63V186.066H150.281V186.6C150.633 186.606 150.976 186.71 151.271 186.9L151.151 187.188C150.889 187.024 150.59 186.927 150.281 186.906V188.202C150.833 188.334 151.415 188.49 151.415 189.144C151.415 189.642 151.055 190.056 150.281 190.098ZM150.035 188.166V186.966C149.531 187.008 149.303 187.266 149.303 187.566C149.303 187.866 149.633 188.058 150.035 188.166ZM151.055 189.192C151.055 188.802 150.701 188.67 150.281 188.592V189.792C150.815 189.75 151.055 189.504 151.055 189.192Z" fill="white"/>
<path d="M154.237 189.762V190.074H151.837V189.828L153.259 188.43C153.643 188.052 153.715 187.83 153.715 187.584C153.715 187.188 153.439 186.948 152.917 186.948C152.742 186.939 152.568 186.969 152.407 187.034C152.245 187.099 152.1 187.199 151.981 187.326L151.729 187.11C151.882 186.948 152.068 186.82 152.275 186.736C152.483 186.652 152.705 186.614 152.929 186.624C153.619 186.624 154.063 186.978 154.063 187.548C154.054 187.757 153.999 187.961 153.901 188.146C153.804 188.331 153.666 188.491 153.499 188.616L152.335 189.762H154.237Z" fill="white"/>
<path d="M154.656 188.364C154.656 187.272 155.226 186.624 156.018 186.624C156.81 186.624 157.386 187.272 157.386 188.364C157.386 189.456 156.786 190.104 156.018 190.104C155.25 190.104 154.656 189.456 154.656 188.364ZM157.026 188.364C157.026 187.452 156.618 186.948 156.018 186.948C155.418 186.948 155.01 187.452 155.01 188.364C155.01 189.276 155.424 189.78 156.018 189.78C156.612 189.78 157.026 189.276 157.026 188.364Z" fill="white"/>
<path d="M157.891 188.364C157.891 187.272 158.491 186.624 159.259 186.624C160.027 186.624 160.627 187.272 160.627 188.364C160.627 189.456 160.027 190.104 159.259 190.104C158.491 190.104 157.891 189.456 157.891 188.364ZM160.291 188.364C160.291 187.452 159.883 186.948 159.289 186.948C158.695 186.948 158.281 187.452 158.281 188.364C158.281 189.276 158.689 189.78 159.289 189.78C159.889 189.78 160.261 189.276 160.261 188.364H160.291Z" fill="white"/>
<path d="M112.014 175.944C112.914 189.774 106.506 205.176 106.506 205.176L71.8924 195.432L65.8564 193.728C71.8564 185.394 74.7124 168.978 73.1464 155.694C73.0264 154.692 72.9544 153.75 72.9004 152.85C72.3004 141.894 76.8544 138.69 80.7004 133.848C84.9004 128.604 94.2484 108.804 94.2484 104.118C94.2484 99.432 105.978 87.96 103.368 74.94C103.368 74.94 106.914 72.738 110.478 74.544C112.098 75.36 113.712 76.998 115.014 80.034C118.068 87.168 113.778 107.334 110.13 112.278L103.104 141.366C103.104 141.366 105.474 145.452 107.802 152.868C110.117 160.366 111.531 168.112 112.014 175.944Z" fill="white"/>
<path opacity="0.4" d="M72.9 152.85C74.862 158.22 76.944 161.85 76.764 169.374C76.584 176.898 72.564 188.478 73.71 194.496C73.0553 194.689 72.4441 195.007 71.91 195.432L65.874 193.728C71.874 185.394 74.73 168.978 73.164 155.694C73.026 154.692 72.954 153.75 72.9 152.85Z" fill="black"/>
<path opacity="0.4" d="M110.13 112.278L103.104 141.366C103.104 141.366 105.474 145.452 107.802 152.868C103.044 145.2 99 142.908 99 142.908C102.168 139.11 104.61 111.33 104.61 111.33C104.61 111.33 114.54 99.6602 113.61 87.4502C113.312 83.0008 112.252 78.6355 110.478 74.5442C112.098 75.3602 113.712 76.9982 115.014 80.0342C118.068 87.1682 113.778 107.334 110.13 112.278Z" fill="black"/>
<path d="M65.8564 193.728C71.8564 185.394 74.7124 168.978 73.1524 155.694C71.5924 142.41 76.5364 139.086 80.7064 133.842C84.8764 128.598 94.2484 108.804 94.2484 104.112C94.2484 99.42 105.972 87.966 103.368 74.94C103.368 74.94 110.85 70.302 115.014 80.034C118.068 87.174 113.778 107.334 110.13 112.284L103.11 141.366C103.11 141.366 110.604 154.296 112.014 175.944C112.914 189.774 106.506 205.182 106.506 205.182" stroke="#868686" stroke-linecap="round" stroke-linejoin="round"/>
<path d="M88.9922 216.246C88.9922 216.246 96.8702 221.094 101.466 228.762" stroke="#868686" stroke-linecap="round" stroke-linejoin="round"/>
<path d="M111.121 225.42C111.121 225.42 104.335 226.386 98.2025 219.048C94.2725 214.35 82.3385 212.226 79.6025 199.938" stroke="#868686" stroke-linecap="round" stroke-linejoin="round"/>
<path opacity="0.2" d="M209.749 261.756C192.379 253.446 202.897 246.786 178.999 236.472C155.101 226.158 154.861 217.344 157.741 197.076C160.621 176.808 158.341 155.25 165.289 153.42C172.237 151.59 159.853 123.636 167.953 113.754L207.817 191.298L209.749 261.756Z" fill="black" fill-opacity="0.7"/>
<path d="M274.471 260.946C273.655 258.612 272.827 256.062 272.185 253.746C271.357 250.746 270.709 248.346 269.185 245.556C268.945 245.112 268.687 244.644 268.399 244.14C266.773 241.242 264.547 237.276 263.245 232.404C262.369 229.122 263.245 221.04 264.061 213.204C264.661 207.576 265.207 202.266 265.045 199.254L264.997 198.186C264.589 190.308 263.737 173.916 261.997 169.386C260.287 165.018 258.691 164.364 255.781 163.2C255.481 163.068 255.181 162.948 254.833 162.804C253.741 162.348 251.881 161.388 249.739 160.278C244.909 157.776 238.897 154.662 235.843 154.278C232.986 153.957 230.096 154.091 227.281 154.674C223.519 151.788 217.117 148.074 215.209 147.996C213.649 147.918 210.241 148.896 208.609 149.406L207.787 149.67C206.753 148.869 205.658 148.15 204.511 147.522C204.433 147.48 204.355 147.45 204.289 147.42C202.171 146.55 198.973 146.52 197.227 146.568C196.699 146.568 196.285 146.622 196.099 146.64C192.805 141.57 189.565 136.524 188.155 134.31C185.215 129.654 176.113 110.496 176.023 110.31C176.012 110.285 175.996 110.264 175.975 110.247C175.954 110.23 175.929 110.219 175.903 110.214C175.875 110.21 175.847 110.21 175.819 110.214C175.111 110.01 169.897 108.684 167.803 113.736C165.511 119.238 168.781 131.316 171.973 135.702C173.509 137.814 177.703 146.43 181.957 155.346C180.865 156.36 172.129 164.43 167.887 165.936C164.413 167.166 165.229 184.974 165.883 199.272C166.129 204.552 166.333 209.094 166.273 211.824C166.153 217.104 175.759 224.376 185.071 231.408C193.471 237.78 202.183 244.362 203.203 249.144C203.485 250.488 204.289 251.58 205.249 252.81C206.851 254.85 208.915 257.256 209.791 261.81C210.049 263.178 212.245 264.966 213.991 267.888H277.015C276.487 266.466 275.491 263.874 274.471 260.946ZM187.069 166.086C190.123 172.482 192.013 176.286 192.469 176.712C192.925 177.138 192.895 179.166 192.883 181.14C192.817 182.868 192.877 184.599 193.063 186.318C192.319 186.972 187.621 191.25 186.673 194.718L182.683 190.02L181.675 175.278C182.275 174.642 186.379 170.304 187.069 166.086Z" fill="white"/>
<path opacity="0.4" d="M256.388 207.186C257.87 221.016 257.888 228.516 259.55 232.518C262.358 239.274 266.492 240.642 266.492 240.642C265.117 238.023 264.025 235.266 263.234 232.416C262.364 229.134 263.234 221.052 264.05 213.216C264.65 207.588 265.202 202.272 265.046 199.26L264.992 198.192C264.584 190.32 263.732 173.928 261.992 169.392C260.288 165.024 258.686 164.37 255.776 163.2C255.476 163.074 255.176 162.954 254.828 162.81C253.736 162.354 251.882 161.394 249.734 160.284C244.904 157.782 238.892 154.668 235.838 154.284C232.981 153.959 230.09 154.093 227.276 154.68C223.514 151.794 217.112 148.08 215.204 148.002C213.644 147.924 209.414 149.154 207.77 149.676C214.97 155.55 225.338 162.876 225.338 162.876C233.54 164.508 232.49 168.066 235.808 170.076C238.808 171.876 241.676 166.608 244.208 166.146C247.52 165.546 251.282 169.038 251.114 173.274C250.598 184.944 255.116 195.312 256.388 207.186Z" fill="black"/>
<path opacity="0.4" d="M214.927 164.328C214.927 164.328 208.429 158.928 205.327 157.128C202.225 155.328 201.727 149.124 204.175 147.618C204.268 147.562 204.373 147.529 204.481 147.522L204.259 147.42C202.141 146.55 198.943 146.514 197.197 146.568C200.797 153.27 203.671 158.412 204.445 159.54C207.055 163.308 214.927 164.328 214.927 164.328Z" fill="black"/>
<path opacity="0.4" d="M205.069 248.304C205.345 246.87 202.981 242.67 201.943 240.966C199.585 237.078 172.207 212.886 176.173 206.43C180.139 199.974 183.763 204.75 186.271 205.17C188.071 205.47 193.015 202.524 192.991 202.278C192.427 197.304 197.017 194.07 197.017 194.07C197.017 194.07 196.597 174.27 195.541 174.606C194.485 174.942 181.849 144.876 181.849 144.876C181.849 144.876 168.493 127.116 169.249 118.83C170.005 110.544 175.801 110.4 175.801 110.4V110.178C175.093 109.974 169.879 108.648 167.785 113.7C165.493 119.202 168.763 131.28 171.955 135.666C173.491 137.778 177.685 146.394 181.939 155.31C180.847 156.324 172.111 164.394 167.869 165.9C164.395 167.13 165.211 184.938 165.865 199.236C166.111 204.516 166.315 209.058 166.255 211.788C166.135 217.068 175.741 224.34 185.053 231.372C193.453 237.744 202.165 244.326 203.185 249.108C203.467 250.452 204.271 251.544 205.231 252.774C205.04 251.292 204.986 249.796 205.069 248.304ZM187.069 166.104C190.123 172.5 192.013 176.304 192.469 176.73C192.925 177.156 192.895 179.184 192.883 181.158C192.817 182.886 192.877 184.617 193.063 186.336C192.319 186.99 187.621 191.268 186.673 194.736L182.683 190.038L181.675 175.296C182.275 174.642 186.379 170.304 187.069 166.086V166.104Z" fill="black"/>
<path d="M211.2 164.25C208.519 163.406 206.164 161.755 204.456 159.522C201.714 155.85 190.944 139.122 187.962 134.406C184.98 129.69 175.8 110.4 175.8 110.4C175.8 110.4 170.16 108.51 167.964 113.778C165.768 119.046 168.774 130.95 172.116 135.534C175.458 140.118 191.34 175.416 192.6 176.556C193.86 177.696 191.97 187.116 194.496 189.396" stroke="#868686" stroke-linecap="round" stroke-linejoin="round"/>
<path d="M193.285 186.402C193.285 186.402 187.465 191.472 186.781 195.174L182.461 190.092L181.441 175.2C181.441 175.2 186.655 169.98 186.943 165.336" stroke="#868686" stroke-linecap="round" stroke-linejoin="round"/>
<path d="M182.177 155.328C182.177 155.328 172.511 164.448 167.915 166.074C163.319 167.7 166.673 201.87 166.445 211.764C166.217 221.658 201.215 238.896 203.363 249.024C204.215 253.056 207.743 253.878 209.897 261.624" stroke="#868686" stroke-linecap="round" stroke-linejoin="round"/>
<path d="M195.936 146.838C195.936 146.838 201.198 146.364 204.162 147.6C207.126 148.836 219.162 159.174 222.066 161.148C224.97 163.122 229.338 163.872 230.166 166.002" stroke="#868686" stroke-linecap="round" stroke-linejoin="round"/>
<path d="M207.703 149.886C207.703 149.886 213.103 148.086 215.167 148.188C217.231 148.29 224.995 152.868 228.475 155.928C231.142 158.294 234.213 160.16 237.541 161.436" stroke="#868686" stroke-linecap="round" stroke-linejoin="round"/>
<path d="M227.209 154.89C230.027 154.283 232.926 154.144 235.789 154.476C240.181 155.076 251.209 161.556 254.725 163.02C258.241 164.484 259.921 164.754 261.769 169.482C263.617 174.21 264.463 192.186 264.835 199.29C265.207 206.394 261.505 226.74 263.035 232.464C264.565 238.188 267.325 242.604 268.999 245.664" stroke="#868686" stroke-linecap="round" stroke-linejoin="round"/>
<path d="M181.441 175.2C181.441 175.2 180.601 171.69 179.401 171.24" stroke="#868686" stroke-linecap="round" stroke-linejoin="round"/>
<path d="M182.461 190.092C182.866 192.138 183.413 194.153 184.099 196.122C184.963 198.252 183.619 201.336 183.619 201.336" stroke="#868686" stroke-linecap="round" stroke-linejoin="round"/>
<path d="M186.781 195.174C186.643 198.582 190.033 202.566 190.855 202.002" stroke="#868686" stroke-linecap="round" stroke-linejoin="round"/>
<path d="M204.043 175.2C204.043 175.2 207.685 169.308 211.177 169.02C214.669 168.732 218.701 173.688 220.855 173.22C223.009 172.752 225.721 169.584 229.345 169.02C232.969 168.456 234.667 170.184 237.541 170.328C240.415 170.472 240.709 166.632 244.141 166.128C247.573 165.624 248.743 167.328 251.047 167.772C253.351 168.216 253.927 166.398 255.793 165.372" stroke="#868686" stroke-linecap="round" stroke-linejoin="round"/>
</svg>
