<svg width="300" height="300" viewBox="0 0 300 300" fill="none" xmlns="http://www.w3.org/2000/svg">
<path d="M44.8798 133.65C44.8798 133.65 41.2138 174.516 71.8798 205.338C102.546 236.16 149.4 243.198 187.2 249.906C225 256.614 256.89 238.2 265.296 206.028C273.702 173.856 245.742 161.136 234.48 122.28C223.218 83.4241 226.116 71.3581 195.48 44.8801C164.844 18.4021 110.814 26.7961 78.5998 63.0001C46.3858 99.2041 44.8798 133.65 44.8798 133.65Z" fill="black"/>
<path opacity="0.7" d="M44.8798 133.65C44.8798 133.65 41.2138 174.516 71.8798 205.338C102.546 236.16 149.4 243.198 187.2 249.906C225 256.614 256.89 238.2 265.296 206.028C273.702 173.856 245.742 161.136 234.48 122.28C223.218 83.4241 226.116 71.3581 195.48 44.8801C164.844 18.4021 110.814 26.7961 78.5998 63.0001C46.3858 99.2041 44.8798 133.65 44.8798 133.65Z" fill="white"/>
<path d="M274.8 259.644C274.8 261.162 220.8 262.398 154.2 262.398C87.5996 262.398 33.5996 261.162 33.5996 259.644C33.5996 258.126 87.5996 256.89 154.2 256.89C220.8 256.89 274.8 258.12 274.8 259.644Z" fill="black"/>
<path opacity="0.6" d="M274.8 259.644C274.8 261.162 220.8 262.398 154.2 262.398C87.5996 262.398 33.5996 261.162 33.5996 259.644C33.5996 258.126 87.5996 256.89 154.2 256.89C220.8 256.89 274.8 258.12 274.8 259.644Z" fill="white"/>
<path d="M231.407 163.746C231.371 163.746 231.809 161.574 231.851 161.436C232.355 159.888 234.251 157.182 236.051 157.188C236.354 157.197 236.652 157.27 236.925 157.401C237.199 157.533 237.441 157.721 237.637 157.952C237.832 158.183 237.977 158.454 238.062 158.745C238.146 159.036 238.169 159.342 238.127 159.642C237.995 160.926 236.843 162.042 235.799 162.642C234.599 163.392 231.407 163.746 231.407 163.746Z" fill="black"/>
<path d="M227.867 149.112C229.589 149.712 230.441 152.91 230.387 154.512C230.387 154.65 230.057 156.846 230.027 156.834H229.991C230.135 157.332 230.273 157.872 230.417 158.466C230.675 159.558 230.957 160.8 231.173 162.168C231.424 163.643 231.586 165.132 231.659 166.626C231.754 168.298 231.698 169.974 231.491 171.636C231.493 171.656 231.493 171.676 231.491 171.696C231.719 171.21 232.391 169.896 232.457 169.776C233.351 168.408 235.883 166.302 237.641 166.776C237.931 166.864 238.2 167.013 238.429 167.212C238.658 167.411 238.842 167.656 238.97 167.931C239.098 168.206 239.166 168.505 239.171 168.809C239.176 169.112 239.117 169.413 238.997 169.692C238.535 170.892 237.131 171.648 235.961 171.978C234.641 172.356 231.695 171.912 231.461 171.876C231.209 173.56 230.846 175.226 230.375 176.862C230.105 177.816 229.805 178.77 229.487 179.724C229.697 179.31 229.883 178.944 229.919 178.896C230.813 177.534 233.345 175.422 235.103 175.896C235.393 175.984 235.662 176.133 235.891 176.332C236.12 176.531 236.304 176.776 236.432 177.051C236.56 177.326 236.628 177.625 236.633 177.929C236.638 178.232 236.579 178.533 236.459 178.812C235.991 180.012 234.593 180.768 233.423 181.098C232.253 181.428 229.715 181.098 229.049 181.014L228.677 182.106C228.077 183.852 227.477 185.592 226.919 187.314C226.727 187.914 226.559 188.514 226.391 189.114C226.571 188.748 226.733 188.436 226.763 188.394C227.657 187.032 230.189 184.92 231.947 185.394C232.237 185.482 232.506 185.631 232.735 185.83C232.964 186.029 233.148 186.274 233.276 186.549C233.404 186.824 233.472 187.123 233.477 187.427C233.482 187.73 233.423 188.031 233.303 188.31C232.835 189.51 231.437 190.266 230.267 190.596C229.097 190.926 226.805 190.638 226.013 190.53C225.857 191.13 225.701 191.778 225.581 192.39C225.503 192.81 225.407 193.212 225.353 193.638C225.299 194.064 225.233 194.472 225.179 194.886C225.095 195.684 225.005 196.506 224.945 197.286C224.897 197.832 224.861 198.348 224.825 198.87C225.011 198.27 225.425 197.07 225.425 196.992C226.069 195.708 227.032 194.611 228.221 193.806C228.287 193.662 228.366 193.523 228.455 193.392C228.62 193.137 228.837 192.92 229.092 192.754C229.347 192.589 229.634 192.479 229.934 192.432C230.234 192.385 230.541 192.402 230.834 192.482C231.127 192.561 231.4 192.702 231.635 192.894C233.015 194.094 232.673 197.364 232.037 198.864C232.001 198.954 231.485 199.872 231.149 200.442C231.395 200.136 231.635 199.842 231.893 199.524C232.403 198.924 232.925 198.324 233.489 197.646L234.341 196.716C234.623 196.398 234.941 196.116 235.265 195.792C235.997 195.084 236.771 194.406 237.569 193.734C237.023 193.29 235.115 191.682 234.569 190.584C234.023 189.486 233.633 187.956 234.203 186.804C234.327 186.527 234.509 186.279 234.735 186.077C234.962 185.874 235.229 185.722 235.518 185.631C235.808 185.539 236.113 185.509 236.415 185.544C236.717 185.579 237.008 185.677 237.269 185.832C238.817 186.798 238.973 190.092 238.571 191.67C238.571 191.772 238.133 192.87 237.893 193.47C238.373 193.068 238.853 192.672 239.351 192.27C240.797 191.154 242.291 190.074 243.779 188.982C244.235 188.652 244.685 188.31 245.141 187.974C244.943 187.818 242.633 185.952 242.021 184.728C241.475 183.642 241.085 182.1 241.655 180.942C241.781 180.666 241.963 180.419 242.19 180.218C242.417 180.017 242.683 179.866 242.972 179.774C243.261 179.683 243.566 179.653 243.867 179.686C244.169 179.72 244.46 179.817 244.721 179.97C246.269 180.942 246.425 184.236 246.023 185.814C245.993 185.934 245.393 187.518 245.219 187.914C246.215 187.176 247.199 186.426 248.141 185.652C249.411 184.607 250.613 183.483 251.741 182.286C251.645 182.214 249.233 180.276 248.603 179.022C248.057 177.93 247.661 176.394 248.237 175.236C248.363 174.96 248.545 174.713 248.772 174.512C248.999 174.311 249.265 174.16 249.554 174.068C249.843 173.977 250.148 173.947 250.449 173.98C250.751 174.014 251.042 174.111 251.303 174.264C252.851 175.236 253.001 178.524 252.605 180.108C252.575 180.21 252.119 181.422 251.891 181.992L251.981 182.046C253.084 180.807 254.076 179.474 254.945 178.062C255.431 177.288 255.857 176.526 256.253 175.77C255.761 175.458 253.553 173.97 252.863 172.926C252.173 171.882 251.663 170.418 252.083 169.206C252.177 168.917 252.33 168.652 252.534 168.427C252.737 168.202 252.985 168.022 253.263 167.899C253.54 167.776 253.84 167.713 254.143 167.714C254.447 167.715 254.747 167.78 255.023 167.904C256.667 168.702 257.183 171.954 256.961 173.568C256.961 173.658 256.721 174.534 256.553 175.176C256.727 174.834 256.907 174.48 257.069 174.15C257.669 172.908 258.143 171.75 258.557 170.682C258.785 170.082 258.977 169.542 259.157 169.032C258.839 168.474 257.591 166.212 257.471 164.97C257.351 163.728 257.543 162.18 258.491 161.31C258.707 161.096 258.965 160.93 259.25 160.823C259.534 160.716 259.837 160.671 260.141 160.689C260.444 160.708 260.739 160.791 261.008 160.932C261.277 161.073 261.513 161.269 261.701 161.508C262.799 162.972 261.755 166.092 260.813 167.424C260.729 167.538 259.247 169.194 259.229 169.164V169.128C259.067 169.626 258.887 170.154 258.683 170.724C258.293 171.78 257.843 172.974 257.267 174.234C256.661 175.601 255.976 176.931 255.215 178.218C254.371 179.662 253.4 181.028 252.311 182.298L252.269 182.346C252.725 182.064 254.027 181.32 254.135 181.278C255.629 180.63 258.905 180.27 260.105 181.644C260.299 181.878 260.441 182.149 260.522 182.441C260.603 182.734 260.622 183.04 260.578 183.34C260.533 183.64 260.426 183.927 260.262 184.183C260.099 184.438 259.884 184.657 259.631 184.824C258.575 185.574 256.997 185.424 255.833 185.058C254.525 184.644 252.311 182.658 252.137 182.484C250.998 183.752 249.775 184.943 248.477 186.048C247.727 186.696 246.947 187.326 246.161 187.95C246.563 187.716 246.923 187.512 246.977 187.494C248.477 186.846 251.777 186.486 252.977 187.86C253.17 188.094 253.312 188.366 253.393 188.658C253.474 188.951 253.492 189.257 253.447 189.557C253.402 189.857 253.294 190.144 253.13 190.4C252.966 190.655 252.751 190.873 252.497 191.04C251.441 191.79 249.863 191.64 248.699 191.274C247.535 190.908 245.603 189.234 245.099 188.79L244.199 189.6C242.735 190.722 241.265 191.832 239.861 192.972C239.363 193.374 238.889 193.782 238.415 194.172L239.123 193.776C240.623 193.134 243.923 192.768 245.123 194.148C245.316 194.382 245.458 194.654 245.539 194.946C245.62 195.239 245.638 195.545 245.593 195.845C245.548 196.145 245.44 196.432 245.276 196.688C245.112 196.943 244.897 197.161 244.643 197.328C243.593 198.072 242.009 197.928 240.851 197.556C239.693 197.184 237.935 195.684 237.341 195.156C236.867 195.588 236.387 196.026 235.949 196.47C235.655 196.776 235.349 197.07 235.073 197.382L234.239 198.33C233.729 198.93 233.201 199.584 232.721 200.202C232.379 200.628 232.067 201.042 231.749 201.456C232.235 201.054 233.213 200.286 233.297 200.256C234.683 199.392 237.863 198.54 239.261 199.716C239.487 199.919 239.668 200.167 239.792 200.445C239.915 200.723 239.979 201.023 239.979 201.327C239.979 201.631 239.915 201.931 239.792 202.209C239.668 202.486 239.487 202.735 239.261 202.938C238.337 203.832 236.753 203.928 235.547 203.736C234.221 203.532 231.821 201.966 231.521 201.774C230.999 202.458 230.495 203.136 230.033 203.778C228.419 206.01 227.159 207.93 226.295 209.286L226.211 209.424L225.095 208.884C225.149 208.794 225.209 208.71 225.269 208.614C226.169 207.264 227.483 205.356 229.163 203.136C229.691 202.434 230.273 201.696 230.873 200.94C230.251 200.261 229.672 199.543 229.139 198.792C227.855 199.296 225.185 199.32 224.837 199.32C224.783 200.184 224.735 201.024 224.705 201.816C224.585 204.57 224.597 206.862 224.621 208.47C224.621 208.536 224.621 208.596 224.621 208.656L223.391 208.056C223.391 206.46 223.451 204.306 223.613 201.756C223.667 200.874 223.745 199.956 223.829 198.978C223.493 198.894 220.709 198.18 219.665 197.34C218.621 196.5 217.709 195.348 217.745 194.058C217.742 193.752 217.805 193.45 217.927 193.17C218.05 192.89 218.231 192.64 218.458 192.435C218.685 192.23 218.952 192.076 219.243 191.982C219.534 191.889 219.842 191.858 220.145 191.892C221.945 192.126 223.475 195.048 223.775 196.65C223.775 196.746 223.871 197.796 223.907 198.45C223.943 198.06 223.973 197.676 224.015 197.25C224.099 196.452 224.201 195.654 224.309 194.802C224.375 194.388 224.447 193.974 224.513 193.554C224.579 193.134 224.687 192.702 224.771 192.276C224.993 191.28 225.263 190.29 225.557 189.276C224.861 189.204 222.383 188.91 221.321 188.298C220.259 187.686 219.089 186.624 218.921 185.346C218.873 185.046 218.888 184.74 218.966 184.446C219.044 184.153 219.183 183.88 219.373 183.643C219.564 183.407 219.803 183.214 220.073 183.076C220.344 182.939 220.64 182.859 220.943 182.844C222.743 182.802 224.711 185.46 225.251 186.996C225.287 187.092 225.545 188.244 225.677 188.874C225.857 188.274 226.037 187.674 226.241 187.074C226.841 185.346 227.483 183.612 228.119 181.884C228.317 181.356 228.509 180.822 228.719 180.294C228.467 180.294 225.515 179.988 224.327 179.304C223.271 178.704 222.095 177.63 221.927 176.352C221.879 176.052 221.894 175.746 221.972 175.452C222.05 175.159 222.189 174.886 222.379 174.649C222.57 174.413 222.809 174.22 223.079 174.082C223.35 173.945 223.646 173.865 223.949 173.85C225.749 173.802 227.717 176.466 228.257 178.002C228.299 178.122 228.671 179.772 228.743 180.198C229.169 179.034 229.577 177.864 229.943 176.7C230.436 175.128 230.823 173.524 231.101 171.9C230.987 171.9 227.903 171.606 226.685 170.904C225.629 170.304 224.453 169.23 224.285 167.952C224.237 167.652 224.252 167.346 224.33 167.052C224.408 166.759 224.547 166.486 224.737 166.249C224.928 166.013 225.167 165.82 225.437 165.682C225.708 165.545 226.004 165.465 226.307 165.45C228.137 165.408 230.081 168.066 230.615 169.602C230.651 169.704 230.939 170.964 231.059 171.564H231.167C231.405 169.923 231.497 168.265 231.443 166.608C231.443 165.696 231.353 164.808 231.269 163.974C230.669 163.974 228.041 163.974 226.871 163.476C225.701 162.978 224.471 162.054 224.171 160.8C224.091 160.508 224.072 160.202 224.118 159.902C224.163 159.602 224.271 159.316 224.435 159.06C224.598 158.805 224.814 158.587 225.067 158.421C225.32 158.254 225.606 158.143 225.905 158.094C227.705 157.848 229.937 160.278 230.645 161.748C230.681 161.826 230.981 162.684 231.191 163.314C231.143 162.93 231.107 162.534 231.053 162.174C230.867 160.8 230.615 159.558 230.381 158.46C230.243 157.86 230.105 157.26 229.973 156.756C229.373 156.462 227.111 155.262 226.325 154.296C225.539 153.33 224.849 151.896 225.155 150.696C225.222 150.41 225.347 150.141 225.522 149.904C225.697 149.668 225.917 149.47 226.171 149.322C226.425 149.174 226.706 149.079 226.998 149.043C227.289 149.006 227.585 149.03 227.867 149.112Z" fill="black"/>
<path d="M260.891 177.27C259.463 177.21 256.607 175.746 256.607 175.746C256.607 175.746 258.143 174.156 258.251 174.072C259.529 173.052 262.589 171.84 264.113 172.872C264.361 173.048 264.568 173.273 264.723 173.534C264.878 173.795 264.976 174.086 265.012 174.387C265.047 174.688 265.019 174.994 264.93 175.284C264.84 175.574 264.691 175.841 264.491 176.07C263.669 177.042 262.109 177.318 260.891 177.27Z" fill="black"/>
<g opacity="0.5">
<path opacity="0.5" d="M231.407 163.746C231.371 163.746 231.809 161.574 231.851 161.436C232.355 159.888 234.251 157.182 236.051 157.188C236.354 157.197 236.652 157.27 236.925 157.401C237.199 157.533 237.441 157.721 237.637 157.952C237.832 158.183 237.977 158.454 238.062 158.745C238.146 159.036 238.169 159.342 238.127 159.642C237.995 160.926 236.843 162.042 235.799 162.642C234.599 163.392 231.407 163.746 231.407 163.746Z" fill="white"/>
<path opacity="0.5" d="M227.867 149.112C229.589 149.712 230.441 152.91 230.387 154.512C230.387 154.65 230.057 156.846 230.027 156.834H229.991C230.135 157.332 230.273 157.872 230.417 158.466C230.675 159.558 230.957 160.8 231.173 162.168C231.424 163.643 231.586 165.132 231.659 166.626C231.754 168.298 231.698 169.974 231.491 171.636C231.493 171.656 231.493 171.676 231.491 171.696C231.719 171.21 232.391 169.896 232.457 169.776C233.351 168.408 235.883 166.302 237.641 166.776C237.931 166.864 238.2 167.013 238.429 167.212C238.658 167.411 238.842 167.656 238.97 167.931C239.098 168.206 239.166 168.505 239.171 168.809C239.176 169.112 239.117 169.413 238.997 169.692C238.535 170.892 237.131 171.648 235.961 171.978C234.641 172.356 231.695 171.912 231.461 171.876C231.209 173.56 230.846 175.226 230.375 176.862C230.105 177.816 229.805 178.77 229.487 179.724C229.697 179.31 229.883 178.944 229.919 178.896C230.813 177.534 233.345 175.422 235.103 175.896C235.393 175.984 235.662 176.133 235.891 176.332C236.12 176.531 236.304 176.776 236.432 177.051C236.56 177.326 236.628 177.625 236.633 177.929C236.638 178.232 236.579 178.533 236.459 178.812C235.991 180.012 234.593 180.768 233.423 181.098C232.253 181.428 229.715 181.098 229.049 181.014L228.677 182.106C228.077 183.852 227.477 185.592 226.919 187.314C226.727 187.914 226.559 188.514 226.391 189.114C226.571 188.748 226.733 188.436 226.763 188.394C227.657 187.032 230.189 184.92 231.947 185.394C232.237 185.482 232.506 185.631 232.735 185.83C232.964 186.029 233.148 186.274 233.276 186.549C233.404 186.824 233.472 187.123 233.477 187.427C233.482 187.73 233.423 188.031 233.303 188.31C232.835 189.51 231.437 190.266 230.267 190.596C229.097 190.926 226.805 190.638 226.013 190.53C225.857 191.13 225.701 191.778 225.581 192.39C225.503 192.81 225.407 193.212 225.353 193.638C225.299 194.064 225.233 194.472 225.179 194.886C225.095 195.684 225.005 196.506 224.945 197.286C224.897 197.832 224.861 198.348 224.825 198.87C225.011 198.27 225.425 197.07 225.425 196.992C226.069 195.708 227.032 194.611 228.221 193.806C228.287 193.662 228.366 193.523 228.455 193.392C228.62 193.137 228.837 192.92 229.092 192.754C229.347 192.589 229.634 192.479 229.934 192.432C230.234 192.385 230.541 192.402 230.834 192.482C231.127 192.561 231.4 192.702 231.635 192.894C233.015 194.094 232.673 197.364 232.037 198.864C232.001 198.954 231.485 199.872 231.149 200.442C231.395 200.136 231.635 199.842 231.893 199.524C232.403 198.924 232.925 198.324 233.489 197.646L234.341 196.716C234.623 196.398 234.941 196.116 235.265 195.792C235.997 195.084 236.771 194.406 237.569 193.734C237.023 193.29 235.115 191.682 234.569 190.584C234.023 189.486 233.633 187.956 234.203 186.804C234.327 186.527 234.509 186.279 234.735 186.077C234.962 185.874 235.229 185.722 235.518 185.631C235.808 185.539 236.113 185.509 236.415 185.544C236.717 185.579 237.008 185.677 237.269 185.832C238.817 186.798 238.973 190.092 238.571 191.67C238.571 191.772 238.133 192.87 237.893 193.47C238.373 193.068 238.853 192.672 239.351 192.27C240.797 191.154 242.291 190.074 243.779 188.982C244.235 188.652 244.685 188.31 245.141 187.974C244.943 187.818 242.633 185.952 242.021 184.728C241.475 183.642 241.085 182.1 241.655 180.942C241.781 180.666 241.963 180.419 242.19 180.218C242.417 180.017 242.683 179.866 242.972 179.774C243.261 179.683 243.566 179.653 243.867 179.686C244.169 179.72 244.46 179.817 244.721 179.97C246.269 180.942 246.425 184.236 246.023 185.814C245.993 185.934 245.393 187.518 245.219 187.914C246.215 187.176 247.199 186.426 248.141 185.652C249.411 184.607 250.613 183.483 251.741 182.286C251.645 182.214 249.233 180.276 248.603 179.022C248.057 177.93 247.661 176.394 248.237 175.236C248.363 174.96 248.545 174.713 248.772 174.512C248.999 174.311 249.265 174.16 249.554 174.068C249.843 173.977 250.148 173.947 250.449 173.98C250.751 174.014 251.042 174.111 251.303 174.264C252.851 175.236 253.001 178.524 252.605 180.108C252.575 180.21 252.119 181.422 251.891 181.992L251.981 182.046C253.084 180.807 254.076 179.474 254.945 178.062C255.431 177.288 255.857 176.526 256.253 175.77C255.761 175.458 253.553 173.97 252.863 172.926C252.173 171.882 251.663 170.418 252.083 169.206C252.177 168.917 252.33 168.652 252.534 168.427C252.737 168.202 252.985 168.022 253.263 167.899C253.54 167.776 253.84 167.713 254.143 167.714C254.447 167.715 254.747 167.78 255.023 167.904C256.667 168.702 257.183 171.954 256.961 173.568C256.961 173.658 256.721 174.534 256.553 175.176C256.727 174.834 256.907 174.48 257.069 174.15C257.669 172.908 258.143 171.75 258.557 170.682C258.785 170.082 258.977 169.542 259.157 169.032C258.839 168.474 257.591 166.212 257.471 164.97C257.351 163.728 257.543 162.18 258.491 161.31C258.707 161.096 258.965 160.93 259.25 160.823C259.534 160.716 259.837 160.671 260.141 160.689C260.444 160.708 260.739 160.791 261.008 160.932C261.277 161.073 261.513 161.269 261.701 161.508C262.799 162.972 261.755 166.092 260.813 167.424C260.729 167.538 259.247 169.194 259.229 169.164V169.128C259.067 169.626 258.887 170.154 258.683 170.724C258.293 171.78 257.843 172.974 257.267 174.234C256.661 175.601 255.976 176.931 255.215 178.218C254.371 179.662 253.4 181.028 252.311 182.298L252.269 182.346C252.725 182.064 254.027 181.32 254.135 181.278C255.629 180.63 258.905 180.27 260.105 181.644C260.299 181.878 260.441 182.149 260.522 182.441C260.603 182.734 260.622 183.04 260.578 183.34C260.533 183.64 260.426 183.927 260.262 184.183C260.099 184.438 259.884 184.657 259.631 184.824C258.575 185.574 256.997 185.424 255.833 185.058C254.525 184.644 252.311 182.658 252.137 182.484C250.998 183.752 249.775 184.943 248.477 186.048C247.727 186.696 246.947 187.326 246.161 187.95C246.563 187.716 246.923 187.512 246.977 187.494C248.477 186.846 251.777 186.486 252.977 187.86C253.17 188.094 253.312 188.366 253.393 188.658C253.474 188.951 253.492 189.257 253.447 189.557C253.402 189.857 253.294 190.144 253.13 190.4C252.966 190.655 252.751 190.873 252.497 191.04C251.441 191.79 249.863 191.64 248.699 191.274C247.535 190.908 245.603 189.234 245.099 188.79L244.199 189.6C242.735 190.722 241.265 191.832 239.861 192.972C239.363 193.374 238.889 193.782 238.415 194.172L239.123 193.776C240.623 193.134 243.923 192.768 245.123 194.148C245.316 194.382 245.458 194.654 245.539 194.946C245.62 195.239 245.638 195.545 245.593 195.845C245.548 196.145 245.44 196.432 245.276 196.688C245.112 196.943 244.897 197.161 244.643 197.328C243.593 198.072 242.009 197.928 240.851 197.556C239.693 197.184 237.935 195.684 237.341 195.156C236.867 195.588 236.387 196.026 235.949 196.47C235.655 196.776 235.349 197.07 235.073 197.382L234.239 198.33C233.729 198.93 233.201 199.584 232.721 200.202C232.379 200.628 232.067 201.042 231.749 201.456C232.235 201.054 233.213 200.286 233.297 200.256C234.683 199.392 237.863 198.54 239.261 199.716C239.487 199.919 239.668 200.167 239.792 200.445C239.915 200.723 239.979 201.023 239.979 201.327C239.979 201.631 239.915 201.931 239.792 202.209C239.668 202.486 239.487 202.735 239.261 202.938C238.337 203.832 236.753 203.928 235.547 203.736C234.221 203.532 231.821 201.966 231.521 201.774C230.999 202.458 230.495 203.136 230.033 203.778C228.419 206.01 227.159 207.93 226.295 209.286L226.211 209.424L225.095 208.884C225.149 208.794 225.209 208.71 225.269 208.614C226.169 207.264 227.483 205.356 229.163 203.136C229.691 202.434 230.273 201.696 230.873 200.94C230.251 200.261 229.672 199.543 229.139 198.792C227.855 199.296 225.185 199.32 224.837 199.32C224.783 200.184 224.735 201.024 224.705 201.816C224.585 204.57 224.597 206.862 224.621 208.47C224.621 208.536 224.621 208.596 224.621 208.656L223.391 208.056C223.391 206.46 223.451 204.306 223.613 201.756C223.667 200.874 223.745 199.956 223.829 198.978C223.493 198.894 220.709 198.18 219.665 197.34C218.621 196.5 217.709 195.348 217.745 194.058C217.742 193.752 217.805 193.45 217.927 193.17C218.05 192.89 218.231 192.64 218.458 192.435C218.685 192.23 218.952 192.076 219.243 191.982C219.534 191.889 219.842 191.858 220.145 191.892C221.945 192.126 223.475 195.048 223.775 196.65C223.775 196.746 223.871 197.796 223.907 198.45C223.943 198.06 223.973 197.676 224.015 197.25C224.099 196.452 224.201 195.654 224.309 194.802C224.375 194.388 224.447 193.974 224.513 193.554C224.579 193.134 224.687 192.702 224.771 192.276C224.993 191.28 225.263 190.29 225.557 189.276C224.861 189.204 222.383 188.91 221.321 188.298C220.259 187.686 219.089 186.624 218.921 185.346C218.873 185.046 218.888 184.74 218.966 184.446C219.044 184.153 219.183 183.88 219.373 183.643C219.564 183.407 219.803 183.214 220.073 183.076C220.344 182.939 220.64 182.859 220.943 182.844C222.743 182.802 224.711 185.46 225.251 186.996C225.287 187.092 225.545 188.244 225.677 188.874C225.857 188.274 226.037 187.674 226.241 187.074C226.841 185.346 227.483 183.612 228.119 181.884C228.317 181.356 228.509 180.822 228.719 180.294C228.467 180.294 225.515 179.988 224.327 179.304C223.271 178.704 222.095 177.63 221.927 176.352C221.879 176.052 221.894 175.746 221.972 175.452C222.05 175.159 222.189 174.886 222.379 174.649C222.57 174.413 222.809 174.22 223.079 174.082C223.35 173.945 223.646 173.865 223.949 173.85C225.749 173.802 227.717 176.466 228.257 178.002C228.299 178.122 228.671 179.772 228.743 180.198C229.169 179.034 229.577 177.864 229.943 176.7C230.436 175.128 230.823 173.524 231.101 171.9C230.987 171.9 227.903 171.606 226.685 170.904C225.629 170.304 224.453 169.23 224.285 167.952C224.237 167.652 224.252 167.346 224.33 167.052C224.408 166.759 224.547 166.486 224.737 166.249C224.928 166.013 225.167 165.82 225.437 165.682C225.708 165.545 226.004 165.465 226.307 165.45C228.137 165.408 230.081 168.066 230.615 169.602C230.651 169.704 230.939 170.964 231.059 171.564H231.167C231.405 169.923 231.497 168.265 231.443 166.608C231.443 165.696 231.353 164.808 231.269 163.974C230.669 163.974 228.041 163.974 226.871 163.476C225.701 162.978 224.471 162.054 224.171 160.8C224.091 160.508 224.072 160.202 224.118 159.902C224.163 159.602 224.271 159.316 224.435 159.06C224.598 158.805 224.814 158.587 225.067 158.421C225.32 158.254 225.606 158.143 225.905 158.094C227.705 157.848 229.937 160.278 230.645 161.748C230.681 161.826 230.981 162.684 231.191 163.314C231.143 162.93 231.107 162.534 231.053 162.174C230.867 160.8 230.615 159.558 230.381 158.46C230.243 157.86 230.105 157.26 229.973 156.756C229.373 156.462 227.111 155.262 226.325 154.296C225.539 153.33 224.849 151.896 225.155 150.696C225.222 150.41 225.347 150.141 225.522 149.904C225.697 149.668 225.917 149.47 226.171 149.322C226.425 149.174 226.706 149.079 226.998 149.043C227.289 149.006 227.585 149.03 227.867 149.112Z" fill="white"/>
<path opacity="0.5" d="M260.891 177.27C259.463 177.21 256.607 175.746 256.607 175.746C256.607 175.746 258.143 174.156 258.251 174.072C259.529 173.052 262.589 171.84 264.113 172.872C264.361 173.048 264.568 173.273 264.723 173.534C264.878 173.795 264.976 174.086 265.012 174.387C265.047 174.688 265.019 174.994 264.93 175.284C264.84 175.573 264.691 175.841 264.491 176.07C263.669 177.042 262.109 177.318 260.891 177.27Z" fill="white"/>
</g>
<path d="M244.2 213C244.2 213 235.536 192.12 230.688 193.026C225.84 193.932 239.004 226.314 239.004 226.314C239.004 226.314 223.8 197.58 213.396 197.58C202.992 197.58 217.206 229.38 230.364 239.946C230.364 239.946 209.58 217.554 197.46 222.396C185.34 227.238 221.706 249.93 221.706 249.93C221.706 249.93 200.574 243.276 203.004 248.418C205.434 253.56 212.004 254.472 212.004 254.472L188.1 255.672H271.242L252.534 253.872C252.534 253.872 271.932 244.188 266.736 240.252C261.54 236.316 250.11 244.8 250.11 244.8C250.11 244.8 269.856 223.008 266.046 214.842C262.236 206.676 245.262 229.668 245.262 229.668C245.262 229.668 259.116 200.316 256.344 195.168C253.572 190.02 244.2 213 244.2 213Z" fill="black"/>
<path opacity="0.4" d="M244.2 213C244.2 213 235.536 192.12 230.688 193.026C225.84 193.932 239.004 226.314 239.004 226.314C239.004 226.314 223.8 197.58 213.396 197.58C202.992 197.58 217.206 229.38 230.364 239.946C230.364 239.946 209.58 217.554 197.46 222.396C185.34 227.238 221.706 249.93 221.706 249.93C221.706 249.93 200.574 243.276 203.004 248.418C205.434 253.56 212.004 254.472 212.004 254.472L188.1 255.672H271.242L252.534 253.872C252.534 253.872 271.932 244.188 266.736 240.252C261.54 236.316 250.11 244.8 250.11 244.8C250.11 244.8 269.856 223.008 266.046 214.842C262.236 206.676 245.262 229.668 245.262 229.668C245.262 229.668 259.116 200.316 256.344 195.168C253.572 190.02 244.2 213 244.2 213Z" fill="white"/>
<path d="M246.996 214.116C239.4 236.628 239.4 252.564 239.4 252.564C239.4 252.564 248.4 252.912 257.754 245.964" stroke="#263238" stroke-linecap="round" stroke-linejoin="round"/>
<path d="M243.185 226.236C241.613 219.504 239.527 212.903 236.945 206.49" stroke="#263238" stroke-linecap="round" stroke-linejoin="round"/>
<path d="M220.668 213.072L240.066 241.8C240.066 241.8 253.23 230.718 257.73 224.484" stroke="#263238" stroke-linecap="round" stroke-linejoin="round"/>
<path d="M239.718 248.754C239.718 248.754 219.282 239.052 210.966 233.514" stroke="#263238" stroke-linecap="round" stroke-linejoin="round"/>
<path d="M132.78 62.8019L128.214 55.5179H88.002V62.8019V65.4239V193.218H253.524V62.8019H132.78Z" fill="#263238"/>
<path d="M252.432 66.1439H89.2325V190.572H252.432V66.1439Z" fill="white"/>
<path opacity="0.17" d="M253.229 65.1359H249.443V191.472H253.229V65.1359Z" fill="black"/>
<path opacity="0.17" d="M253.229 137.55H249.443V190.494H253.229V137.55Z" fill="black"/>
<path d="M252.648 64.548H88.5839V77.88H252.648V64.548Z" fill="black"/>
<path d="M206.64 68.796H138.486V76.404H206.64V68.796Z" fill="white"/>
<path d="M130.884 68.796H120.18V76.404H130.884V68.796Z" fill="white"/>
<path opacity="0.3" d="M206.64 68.796H197.754V76.404H206.64V68.796Z" fill="black"/>
<path d="M201.264 73.8059C202.341 73.8059 203.214 72.9328 203.214 71.8559C203.214 70.7789 202.341 69.9059 201.264 69.9059C200.187 69.9059 199.314 70.7789 199.314 71.8559C199.314 72.9328 200.187 73.8059 201.264 73.8059Z" stroke="white" stroke-miterlimit="10"/>
<path d="M202.65 73.236L204.474 75.054" stroke="white" stroke-linecap="round" stroke-linejoin="round"/>
<path opacity="0.3" d="M149.718 89.5021H135.648V103.572H149.718V89.5021Z" fill="black"/>
<path d="M153.168 91.6259H164.58" stroke="#263238" stroke-width="2" stroke-linecap="round" stroke-linejoin="round"/>
<path opacity="0.3" d="M153.168 95.8679H177.06" stroke="#263238" stroke-width="2" stroke-linecap="round" stroke-linejoin="round"/>
<path opacity="0.3" d="M153.168 98.3939H187.146" stroke="#263238" stroke-width="2" stroke-linecap="round" stroke-linejoin="round"/>
<path d="M200.148 94.278H189.798V98.7899H200.148V94.278Z" fill="black"/>
<path opacity="0.3" d="M211.566 94.278H201.216V98.7899H211.566V94.278Z" fill="black"/>
<path opacity="0.3" d="M149.718 109.41H135.648V123.48H149.718V109.41Z" fill="black"/>
<path d="M153.168 111.534H164.58" stroke="#263238" stroke-width="2" stroke-linecap="round" stroke-linejoin="round"/>
<path opacity="0.3" d="M153.168 115.782H177.06" stroke="#263238" stroke-width="2" stroke-linecap="round" stroke-linejoin="round"/>
<path opacity="0.3" d="M153.168 118.302H187.146" stroke="#263238" stroke-width="2" stroke-linecap="round" stroke-linejoin="round"/>
<path d="M200.148 114.186H189.798V118.698H200.148V114.186Z" fill="black"/>
<path opacity="0.3" d="M211.566 114.186H201.216V118.698H211.566V114.186Z" fill="black"/>
<path opacity="0.3" d="M149.718 129.318H135.648V143.388H149.718V129.318Z" fill="black"/>
<path d="M153.168 131.442H164.58" stroke="#263238" stroke-width="2" stroke-linecap="round" stroke-linejoin="round"/>
<path opacity="0.3" d="M153.168 135.69H177.06" stroke="#263238" stroke-width="2" stroke-linecap="round" stroke-linejoin="round"/>
<path opacity="0.3" d="M153.168 138.21H187.146" stroke="#263238" stroke-width="2" stroke-linecap="round" stroke-linejoin="round"/>
<path d="M200.148 134.094H189.798V138.606H200.148V134.094Z" fill="black"/>
<path opacity="0.3" d="M211.566 134.094H201.216V138.606H211.566V134.094Z" fill="black"/>
<path opacity="0.3" d="M149.718 149.226H135.648V163.296H149.718V149.226Z" fill="black"/>
<path d="M153.168 151.35H164.58" stroke="#263238" stroke-width="2" stroke-linecap="round" stroke-linejoin="round"/>
<path opacity="0.3" d="M153.168 155.598H177.06" stroke="#263238" stroke-width="2" stroke-linecap="round" stroke-linejoin="round"/>
<path opacity="0.3" d="M153.168 158.118H187.146" stroke="#263238" stroke-width="2" stroke-linecap="round" stroke-linejoin="round"/>
<path d="M200.148 154.002H189.798V158.514H200.148V154.002Z" fill="black"/>
<path opacity="0.3" d="M211.566 154.002H201.216V158.514H211.566V154.002Z" fill="black"/>
<path opacity="0.3" d="M149.718 169.134H135.648V183.204H149.718V169.134Z" fill="black"/>
<path d="M153.168 171.258H164.58" stroke="#263238" stroke-width="2" stroke-linecap="round" stroke-linejoin="round"/>
<path opacity="0.3" d="M153.168 175.506H177.06" stroke="#263238" stroke-width="2" stroke-linecap="round" stroke-linejoin="round"/>
<path opacity="0.3" d="M153.168 178.026H187.146" stroke="#263238" stroke-width="2" stroke-linecap="round" stroke-linejoin="round"/>
<path d="M200.148 173.91H189.798V178.422H200.148V173.91Z" fill="black"/>
<path opacity="0.3" d="M211.566 173.91H201.216V178.422H211.566V173.91Z" fill="black"/>
<path d="M138.245 83.268C138.968 83.268 139.553 82.6824 139.553 81.96C139.553 81.2376 138.968 80.652 138.245 80.652C137.523 80.652 136.937 81.2376 136.937 81.96C136.937 82.6824 137.523 83.268 138.245 83.268Z" stroke="#263238" stroke-miterlimit="10"/>
<path d="M139.176 82.8839L140.4 84.1079" stroke="#263238" stroke-linecap="round" stroke-linejoin="round"/>
<path d="M144.174 83.6819H142.878L142.734 84.0959C142.704 84.1883 142.648 84.2698 142.572 84.3299C142.543 84.3552 142.51 84.3746 142.474 84.3869C142.438 84.3993 142.4 84.4044 142.362 84.4019C142.287 84.3974 142.215 84.3747 142.152 84.3359C142.118 84.316 142.09 84.2891 142.068 84.2569C142.046 84.2248 142.032 84.1882 142.026 84.1499C141.997 84.0561 141.997 83.9557 142.026 83.8619L142.83 81.7799C142.866 81.672 142.912 81.5676 142.968 81.4679C143.011 81.3938 143.068 81.3287 143.136 81.2759C143.187 81.2344 143.246 81.2038 143.31 81.1859C143.439 81.1457 143.577 81.1457 143.706 81.1859C143.769 81.205 143.828 81.2355 143.88 81.2759C143.947 81.3287 144.004 81.3938 144.048 81.4679C144.103 81.5676 144.149 81.672 144.186 81.7799L144.99 83.8619C145.013 83.9565 145.013 84.0553 144.99 84.1499C144.982 84.1879 144.968 84.224 144.946 84.256C144.924 84.288 144.896 84.3152 144.864 84.3359C144.8 84.3747 144.728 84.3974 144.654 84.4019C144.575 84.4059 144.498 84.3802 144.438 84.3299C144.365 84.2678 144.311 84.1868 144.282 84.0959L144.174 83.6819ZM143.526 81.8459L143.04 83.2199H144L143.526 81.8459Z" fill="#263238"/>
<path d="M145.548 84.2939C145.487 84.1861 145.46 84.063 145.47 83.9399V81.6779C145.46 81.5548 145.487 81.4317 145.548 81.3239C145.577 81.2844 145.617 81.2531 145.662 81.2332C145.707 81.2132 145.756 81.2052 145.806 81.2099C145.857 81.2054 145.909 81.2134 145.958 81.2332C146.006 81.2531 146.048 81.2842 146.082 81.3239C146.146 81.4304 146.175 81.5541 146.166 81.6779V83.9399C146.175 84.0638 146.146 84.1875 146.082 84.2939C146.048 84.3337 146.006 84.3648 145.958 84.3846C145.909 84.4045 145.857 84.4125 145.806 84.4079C145.756 84.4126 145.707 84.4046 145.662 84.3847C145.617 84.3647 145.577 84.3335 145.548 84.2939Z" fill="#263238"/>
<path d="M146.814 84.2939C146.754 84.1861 146.727 84.063 146.736 83.9399V81.6779C146.727 81.5548 146.754 81.4317 146.814 81.3239C146.842 81.2844 146.88 81.2531 146.925 81.2331C146.969 81.2131 147.018 81.2051 147.066 81.2099C147.118 81.2043 147.17 81.2118 147.218 81.2318C147.267 81.2517 147.309 81.2834 147.342 81.3239C147.408 81.4297 147.439 81.5534 147.432 81.6779V83.9399C147.439 84.0644 147.408 84.1881 147.342 84.2939C147.309 84.3345 147.267 84.3662 147.218 84.3861C147.17 84.406 147.118 84.4135 147.066 84.4079C147.018 84.4128 146.969 84.4048 146.925 84.3848C146.88 84.3647 146.842 84.3334 146.814 84.2939Z" fill="#263238"/>
<path d="M149.4 84.2879C149.319 84.1952 149.279 84.0745 149.286 83.9519V81.6299C149.283 81.5692 149.294 81.5086 149.319 81.4533C149.344 81.3979 149.382 81.3494 149.43 81.3119C149.532 81.2362 149.657 81.1981 149.784 81.2039H150.672C150.798 81.1973 150.924 81.1973 151.05 81.2039C151.164 81.2157 151.277 81.2399 151.386 81.2759C151.486 81.3047 151.579 81.3515 151.662 81.4139C151.738 81.4785 151.799 81.5582 151.842 81.6479C151.888 81.7561 151.91 81.8726 151.908 81.9899C151.908 82.4099 151.674 82.6619 151.2 82.7399C151.298 82.7492 151.395 82.7693 151.488 82.7999C151.561 82.8259 151.625 82.8716 151.674 82.9319C151.727 82.9905 151.766 83.0602 151.788 83.1359C151.816 83.2363 151.836 83.3386 151.848 83.4419L151.89 83.7359C151.922 83.9016 151.903 84.0731 151.836 84.2279C151.803 84.2809 151.756 84.3232 151.699 84.3498C151.643 84.3764 151.58 84.3862 151.518 84.3779C151.462 84.3819 151.405 84.3726 151.353 84.3507C151.301 84.3288 151.255 84.295 151.218 84.2519C151.139 84.128 151.095 83.9848 151.092 83.8379V83.5499C151.087 83.418 151.038 83.2914 150.954 83.1899C150.903 83.1472 150.843 83.1151 150.78 83.0956C150.716 83.076 150.649 83.0693 150.582 83.0759H150.126V83.9219C150.131 83.9836 150.123 84.0457 150.104 84.1045C150.084 84.1632 150.053 84.2174 150.012 84.2639C149.974 84.3026 149.928 84.3328 149.877 84.3525C149.827 84.3721 149.772 84.3808 149.718 84.3779C149.662 84.3884 149.604 84.3858 149.549 84.3702C149.493 84.3545 149.443 84.3264 149.4 84.2879ZM150.444 82.5839C150.524 82.5906 150.604 82.5906 150.684 82.5839C150.756 82.5715 150.826 82.5514 150.894 82.5239C150.959 82.4957 151.015 82.45 151.056 82.3919C151.094 82.3221 151.113 82.2434 151.11 82.1639C151.117 82.1121 151.117 82.0597 151.11 82.0079C151.097 81.9659 151.079 81.9256 151.056 81.8879C151.032 81.856 151.001 81.8295 150.966 81.8099L150.858 81.7619C150.816 81.7568 150.774 81.7568 150.732 81.7619H150.594H150.102V82.6439L150.444 82.5839Z" fill="#263238"/>
<path d="M152.88 84.312C152.705 84.2275 152.56 84.0941 152.46 83.928C152.352 83.7336 152.298 83.5141 152.304 83.292C152.299 83.0828 152.348 82.876 152.448 82.692C152.544 82.5211 152.685 82.38 152.856 82.284C153.039 82.1824 153.246 82.1307 153.456 82.134C153.618 82.1312 153.779 82.1598 153.93 82.218C154.057 82.2687 154.168 82.3514 154.254 82.458C154.332 82.559 154.393 82.6726 154.434 82.794C154.47 82.9291 154.49 83.0681 154.494 83.208C154.494 83.328 154.416 83.388 154.272 83.388H153C152.993 83.466 153.004 83.5446 153.033 83.6176C153.061 83.6905 153.106 83.7558 153.165 83.8082C153.223 83.8606 153.293 83.8988 153.368 83.9195C153.444 83.9403 153.523 83.9432 153.6 83.928C153.703 83.929 153.805 83.9085 153.9 83.868C153.991 83.8301 154.075 83.7796 154.152 83.718C154.179 83.7002 154.21 83.6907 154.242 83.6907C154.274 83.6907 154.305 83.7002 154.332 83.718C154.365 83.7339 154.395 83.7573 154.418 83.7865C154.44 83.8156 154.456 83.8497 154.464 83.886C154.478 83.9207 154.481 83.9591 154.473 83.9957C154.464 84.0323 154.444 84.0652 154.416 84.09C154.371 84.1316 154.323 84.1697 154.272 84.204C154.216 84.2423 154.158 84.2764 154.098 84.306C154.017 84.3493 153.93 84.3796 153.84 84.396C153.732 84.4057 153.624 84.4057 153.516 84.396C153.3 84.4166 153.083 84.3878 152.88 84.312ZM153.912 83.112C153.91 82.974 153.871 82.839 153.798 82.722C153.76 82.6731 153.711 82.6348 153.654 82.6106C153.597 82.5865 153.535 82.5773 153.474 82.584C153.411 82.5802 153.347 82.5912 153.289 82.6162C153.23 82.6412 153.179 82.6795 153.138 82.728C153.052 82.8382 153.004 82.9726 153 83.112H153.912Z" fill="#263238"/>
<path d="M154.938 84.1679C154.9 84.1424 154.872 84.1041 154.86 84.0599C154.848 84.0188 154.848 83.9751 154.86 83.9339C154.874 83.8917 154.896 83.8528 154.926 83.8199C154.956 83.7892 154.997 83.7701 155.04 83.7659C155.092 83.762 155.145 83.7746 155.19 83.8019C155.219 83.8132 155.247 83.8273 155.274 83.8439L155.388 83.9039L155.532 83.9519C155.596 83.9582 155.66 83.9582 155.724 83.9519H155.868L156.018 83.9219C156.061 83.913 156.1 83.8922 156.132 83.8619C156.162 83.8293 156.179 83.7865 156.18 83.7419C156.178 83.7185 156.171 83.6959 156.158 83.676C156.146 83.6561 156.128 83.6396 156.108 83.6279C156.052 83.5848 155.986 83.556 155.916 83.5439L155.61 83.4599L155.34 83.3759C155.267 83.3522 155.197 83.322 155.13 83.2859C155.067 83.257 155.011 83.2139 154.968 83.1599C154.928 83.1117 154.898 83.0569 154.878 82.9979C154.852 82.9226 154.84 82.8434 154.842 82.7639C154.844 82.664 154.87 82.5661 154.92 82.4791C154.969 82.3922 155.039 82.3189 155.124 82.2659C155.348 82.1401 155.607 82.0896 155.862 82.1219C155.949 82.1226 156.035 82.1326 156.12 82.1519L156.3 82.2059L156.468 82.2779C156.516 82.2982 156.556 82.3341 156.582 82.3799C156.596 82.4208 156.596 82.4651 156.582 82.5059C156.577 82.5486 156.563 82.5896 156.54 82.6259C156.529 82.6446 156.514 82.6606 156.497 82.6731C156.479 82.6855 156.459 82.694 156.438 82.6979C156.387 82.7123 156.333 82.7123 156.282 82.6979C156.139 82.6437 155.99 82.6074 155.838 82.5899H155.67C155.613 82.591 155.558 82.6054 155.508 82.6319C155.485 82.6395 155.465 82.654 155.451 82.6734C155.437 82.6927 155.43 82.716 155.43 82.7399C155.43 82.7631 155.436 82.786 155.446 82.8067C155.457 82.8275 155.472 82.8457 155.49 82.8599C155.549 82.8969 155.614 82.9233 155.682 82.9379L155.988 83.0099C156.092 83.0384 156.194 83.0725 156.294 83.1119C156.377 83.1407 156.454 83.1833 156.522 83.2379C156.588 83.2853 156.64 83.3495 156.672 83.4239C156.71 83.5067 156.728 83.597 156.726 83.6879C156.733 83.8364 156.689 83.9827 156.6 84.1019C156.511 84.2181 156.39 84.3057 156.252 84.3539C156.089 84.4055 155.918 84.4258 155.748 84.4139C155.46 84.4131 155.178 84.3276 154.938 84.1679Z" fill="#263238"/>
<path d="M157.326 84.21C157.175 84.047 157.093 83.832 157.098 83.61V82.686C157.09 82.5615 157.122 82.4378 157.188 82.332C157.22 82.2914 157.263 82.2598 157.311 82.2398C157.359 82.2199 157.412 82.2124 157.464 82.218C157.513 82.2133 157.562 82.2213 157.608 82.2413C157.653 82.2612 157.692 82.2925 157.722 82.332C157.782 82.4398 157.809 82.5629 157.8 82.686V83.598C157.794 83.7073 157.831 83.8145 157.902 83.898C157.934 83.933 157.975 83.9604 158.019 83.978C158.064 83.9957 158.112 84.0032 158.16 84C158.22 84.0018 158.279 83.9903 158.334 83.9665C158.389 83.9426 158.438 83.9069 158.478 83.862C158.522 83.8146 158.556 83.7589 158.579 83.6982C158.602 83.6374 158.612 83.5728 158.61 83.508V82.686C158.603 82.5624 158.632 82.4394 158.694 82.332C158.728 82.2843 158.774 82.2469 158.828 82.2236C158.882 82.2004 158.941 82.1922 159 82.2C159.049 82.1947 159.099 82.2024 159.144 82.2224C159.189 82.2424 159.228 82.274 159.258 82.314C159.322 82.4205 159.351 82.5442 159.342 82.668V84.036C159.349 84.1399 159.317 84.2427 159.252 84.324C159.216 84.3572 159.173 84.3824 159.126 84.3979C159.08 84.4134 159.03 84.4189 158.982 84.414C158.754 84.414 158.64 84.288 158.64 84.03C158.585 84.1666 158.491 84.2836 158.37 84.366C158.231 84.4436 158.073 84.481 157.914 84.474C157.802 84.4756 157.692 84.4528 157.59 84.4072C157.489 84.3616 157.398 84.2943 157.326 84.21Z" fill="#263238"/>
<path d="M159.954 84.294C159.894 84.1862 159.866 84.0631 159.876 83.94V81.678C159.866 81.5549 159.894 81.4318 159.954 81.324C159.982 81.2845 160.02 81.2532 160.064 81.2332C160.109 81.2131 160.157 81.2051 160.206 81.21C160.258 81.2055 160.311 81.2134 160.36 81.2333C160.409 81.2531 160.453 81.2841 160.488 81.324C160.552 81.4305 160.581 81.5541 160.572 81.678V83.94C160.581 84.0638 160.552 84.1875 160.488 84.294C160.453 84.3338 160.409 84.3649 160.36 84.3847C160.311 84.4045 160.258 84.4125 160.206 84.408C160.157 84.4128 160.109 84.4049 160.064 84.3848C160.02 84.3648 159.982 84.3335 159.954 84.294Z" fill="#263238"/>
<path d="M161.436 84.2399C161.298 84.0555 161.234 83.8268 161.256 83.5979V82.6619H161.118C161.085 82.6647 161.052 82.6608 161.021 82.6505C160.991 82.6401 160.962 82.6236 160.938 82.6019C160.915 82.5757 160.898 82.5452 160.888 82.5122C160.877 82.4791 160.874 82.4443 160.878 82.4099C160.873 82.378 160.875 82.3453 160.885 82.3146C160.895 82.2838 160.912 82.2559 160.935 82.233C160.958 82.2102 160.986 82.1931 161.016 82.1832C161.047 82.1732 161.08 82.1708 161.112 82.1759H161.304L161.352 81.7439C161.352 81.4739 161.49 81.3419 161.682 81.3419C161.874 81.3419 161.958 81.4859 161.958 81.7859V82.1999H162.228C162.378 82.1999 162.456 82.2839 162.456 82.4459C162.461 82.4786 162.458 82.512 162.448 82.5435C162.438 82.575 162.42 82.6035 162.397 82.6269C162.373 82.6503 162.345 82.6679 162.313 82.6781C162.282 82.6884 162.248 82.691 162.216 82.6859H161.958V83.4719C161.948 83.6053 161.971 83.739 162.024 83.8619C162.05 83.8992 162.087 83.928 162.13 83.945C162.172 83.962 162.219 83.9665 162.264 83.9579H162.396C162.435 83.957 162.473 83.9697 162.504 83.9939C162.534 84.0193 162.557 84.0525 162.57 84.0899C162.573 84.1319 162.573 84.174 162.57 84.2159C162.57 84.2586 162.557 84.3003 162.534 84.3359C162.513 84.3694 162.481 84.3948 162.444 84.4079C162.278 84.4571 162.106 84.4774 161.934 84.4679C161.84 84.4656 161.747 84.4442 161.661 84.405C161.576 84.3658 161.499 84.3096 161.436 84.2399Z" fill="#263238"/>
<path d="M162.936 84.1681C162.899 84.1406 162.872 84.103 162.858 84.0601C162.845 84.019 162.845 83.9752 162.858 83.9341C162.871 83.8918 162.894 83.8529 162.924 83.8201C162.954 83.7893 162.995 83.7703 163.038 83.7661C163.09 83.7612 163.143 83.7739 163.188 83.8021L163.272 83.8441L163.386 83.9041L163.53 83.9521C163.593 83.9583 163.658 83.9583 163.722 83.9521H163.872L164.016 83.9221C164.058 83.9131 164.098 83.8924 164.13 83.8621C164.147 83.848 164.161 83.8302 164.171 83.81C164.181 83.7897 164.186 83.7675 164.186 83.7451C164.186 83.7226 164.181 83.7004 164.171 83.6802C164.161 83.6599 164.147 83.6421 164.13 83.6281C164.07 83.5862 164.003 83.5575 163.932 83.5441L163.632 83.4601L163.356 83.3761C163.284 83.3512 163.213 83.3211 163.146 83.2861C163.083 83.2571 163.027 83.214 162.984 83.1601C162.944 83.1119 162.914 83.057 162.894 82.9981C162.88 82.9206 162.88 82.8415 162.894 82.7641C162.891 82.6641 162.916 82.5652 162.964 82.4777C163.013 82.3902 163.084 82.3171 163.17 82.2661C163.396 82.139 163.657 82.0885 163.914 82.1221C163.999 82.1225 164.083 82.1325 164.166 82.1521L164.352 82.2061L164.514 82.2781C164.562 82.2983 164.602 82.3343 164.628 82.3801C164.651 82.4175 164.662 82.4619 164.658 82.5061C164.655 82.5483 164.642 82.5893 164.622 82.6261C164.596 82.6631 164.558 82.6889 164.514 82.6981C164.465 82.7126 164.413 82.7126 164.364 82.6981C164.219 82.6438 164.067 82.6076 163.914 82.5901H163.746C163.689 82.5912 163.634 82.6055 163.584 82.6321C163.562 82.6406 163.544 82.6555 163.531 82.6748C163.518 82.6941 163.511 82.7169 163.512 82.7401C163.511 82.7635 163.516 82.7869 163.526 82.8079C163.537 82.8289 163.552 82.8468 163.572 82.8601C163.63 82.8982 163.695 82.9247 163.764 82.9381L164.064 83.0101C164.17 83.0378 164.274 83.0719 164.376 83.1121C164.456 83.1422 164.531 83.1847 164.598 83.2381C164.664 83.2868 164.717 83.3506 164.754 83.4241C164.787 83.5081 164.803 83.5978 164.802 83.6881C164.813 83.8369 164.768 83.9846 164.676 84.1021C164.588 84.2195 164.467 84.3075 164.328 84.3541C164.165 84.4063 163.994 84.4267 163.824 84.4141C163.509 84.4281 163.198 84.342 162.936 84.1681Z" fill="#263238"/>
<path opacity="0.3" d="M135.48 86.256H215.166" stroke="#263238" stroke-linecap="round" stroke-linejoin="round"/>
<path opacity="0.3" d="M132.024 79.0559V183.57" stroke="#263238" stroke-linecap="round" stroke-linejoin="round"/>
<path opacity="0.3" d="M218.484 79.056V183.57" stroke="#263238" stroke-linecap="round" stroke-linejoin="round"/>
<path opacity="0.3" d="M130.345 86.058H95.5985" stroke="#263238" stroke-linecap="round" stroke-linejoin="round"/>
<path opacity="0.3" d="M99.4745 95.868H117.258" stroke="#263238" stroke-width="2" stroke-linecap="round" stroke-linejoin="round"/>
<path opacity="0.3" d="M99.4745 98.3939H124.764" stroke="#263238" stroke-width="2" stroke-linecap="round" stroke-linejoin="round"/>
<path opacity="0.3" d="M99.4745 108.306H117.258" stroke="#263238" stroke-width="2" stroke-linecap="round" stroke-linejoin="round"/>
<path opacity="0.3" d="M99.4745 110.832H124.764" stroke="#263238" stroke-width="2" stroke-linecap="round" stroke-linejoin="round"/>
<path opacity="0.3" d="M99.4745 120.744H117.258" stroke="#263238" stroke-width="2" stroke-linecap="round" stroke-linejoin="round"/>
<path opacity="0.3" d="M99.4745 123.27H124.764" stroke="#263238" stroke-width="2" stroke-linecap="round" stroke-linejoin="round"/>
<path opacity="0.3" d="M99.4745 133.182H117.258" stroke="#263238" stroke-width="2" stroke-linecap="round" stroke-linejoin="round"/>
<path opacity="0.3" d="M99.4745 135.708H124.764" stroke="#263238" stroke-width="2" stroke-linecap="round" stroke-linejoin="round"/>
<path opacity="0.3" d="M99.4745 145.62H117.258" stroke="#263238" stroke-width="2" stroke-linecap="round" stroke-linejoin="round"/>
<path opacity="0.3" d="M99.4745 148.146H124.764" stroke="#263238" stroke-width="2" stroke-linecap="round" stroke-linejoin="round"/>
<path opacity="0.3" d="M99.4745 158.058H117.258" stroke="#263238" stroke-width="2" stroke-linecap="round" stroke-linejoin="round"/>
<path opacity="0.3" d="M99.4745 160.584H124.764" stroke="#263238" stroke-width="2" stroke-linecap="round" stroke-linejoin="round"/>
<path opacity="0.3" d="M99.4745 170.496H117.258" stroke="#263238" stroke-width="2" stroke-linecap="round" stroke-linejoin="round"/>
<path opacity="0.3" d="M99.4745 173.022H124.764" stroke="#263238" stroke-width="2" stroke-linecap="round" stroke-linejoin="round"/>
<path d="M252.432 66.1439H89.2325V190.572H252.432V66.1439Z" stroke="#263238" stroke-linecap="round" stroke-linejoin="round"/>
<path d="M56.1061 253.608C56.1061 253.608 55.8241 254.874 52.6021 256.554C49.3801 258.234 45.7381 260.616 47.5561 261.594C49.3741 262.572 55.8241 260.334 57.6481 258.654C59.4721 256.974 61.5661 255.99 61.5661 254.592C61.5661 253.194 59.8861 252.348 58.4881 252.348C58.0106 252.295 57.5283 252.387 57.1036 252.612C56.6789 252.837 56.3314 253.184 56.1061 253.608Z" fill="#263238" stroke="#263238" stroke-linecap="round" stroke-linejoin="round"/>
<path d="M58.9084 246.888C58.0684 249.408 55.8244 250.806 55.8244 251.508C55.869 252.214 55.9632 252.915 56.1064 253.608C57.1126 254.185 58.1982 254.612 59.3284 254.874C60.8704 255.15 61.5664 254.592 61.5664 254.592C61.5664 254.592 63.2524 253.332 63.6724 252.912C64.0924 252.492 65.2144 251.79 65.0704 250.386C64.9264 248.982 64.3684 248.424 64.9324 247.164C65.4964 245.904 77.4004 226.572 77.4004 226.572L67.5964 222.786C67.5964 222.786 59.7484 244.362 58.9084 246.888Z" fill="#263238" stroke="#263238" stroke-linecap="round" stroke-linejoin="round"/>
<path d="M105.84 255.852C105.84 255.852 114.666 259.914 114.81 260.898C114.954 261.882 108.642 262.014 105.84 261.738C103.038 261.462 101.22 259.074 101.22 259.074C101.22 259.074 102.198 255.432 105.84 255.852Z" fill="#263238" stroke="#263238" stroke-linecap="round" stroke-linejoin="round"/>
<path d="M92.9523 223.068C92.9523 223.068 96.5943 245.766 97.9983 250.11C99.4023 254.454 97.5723 254.028 98.2743 255.294C99.1634 256.624 100.148 257.887 101.22 259.074C101.22 259.074 103.74 256.83 104.862 256.674C105.984 256.518 106.824 256.392 106.824 256.392C106.824 256.392 106.26 253.59 105.84 253.032C105.42 252.474 105.138 250.512 104.718 248.97C104.298 247.428 103.602 221.928 103.602 221.928C103.602 221.928 95.8923 223.35 92.9523 223.068Z" fill="#263238" stroke="#263238" stroke-linecap="round" stroke-linejoin="round"/>
<path d="M78.2398 127.938C76.3182 129.306 74.492 130.804 72.7738 132.42C69.4138 135.504 63.8098 139.986 63.5278 140.97C63.2458 141.954 67.3138 160.302 68.8558 166.17C70.3978 172.038 70.8178 199.092 68.8558 208.338C67.5873 214.165 65.8538 219.882 63.6718 225.432C67.988 228.391 73.1499 229.865 78.3778 229.632C87.0658 229.206 90.9778 226.83 95.3338 227.232C99.6898 227.634 104.58 227.508 106.824 224.568C109.068 221.628 111.444 220.506 112.824 218.682C113.672 217.543 114.159 216.176 114.222 214.758C114.222 214.758 112.962 209.994 108.336 195.006C103.71 180.018 103.716 159.978 102.876 155.778C102.036 151.578 100.074 138.828 98.1118 135.324C96.1498 131.82 88.1998 129.198 84.2638 128.502C80.3278 127.806 79.6438 127.236 78.2398 127.938Z" fill="black"/>
<path opacity="0.15" d="M59.8502 127.098H59.4662V232.734H59.8502V127.098Z" fill="black"/>
<path opacity="0.15" d="M67.1642 127.098H65.0402V232.734H67.1642V127.098Z" fill="black"/>
<path opacity="0.15" d="M74.472 127.098H72.348V232.734H74.472V127.098Z" fill="black"/>
<path opacity="0.15" d="M81.7865 127.098H79.6625V232.734H81.7865V127.098Z" fill="black"/>
<path opacity="0.15" d="M89.0999 127.098H86.976V232.734H89.0999V127.098Z" fill="black"/>
<path opacity="0.15" d="M96.4084 127.098H94.2844V232.734H96.4084V127.098Z" fill="black"/>
<path opacity="0.15" d="M103.722 127.098H101.598V232.734H103.722V127.098Z" fill="black"/>
<path opacity="0.15" d="M111.036 127.098H108.912V232.734H111.036V127.098Z" fill="black"/>
<path opacity="0.15" d="M116.628 127.098H116.22V232.734H116.628V127.098Z" fill="black"/>
<path d="M60.7386 129.486C79.0806 129.618 97.0146 129.618 115.381 129.558" stroke="white" stroke-miterlimit="10"/>
<path d="M60.7386 130.662C79.0806 130.74 97.0146 130.74 115.381 130.704" stroke="white" stroke-miterlimit="10"/>
<path d="M60.7386 135.6C79.0806 135.768 97.0146 135.768 115.381 135.69" stroke="white" stroke-miterlimit="10"/>
<path d="M60.7386 136.8C79.0806 136.914 97.0146 136.914 115.381 136.866" stroke="white" stroke-miterlimit="10"/>
<path d="M60.7386 141.75C79.0806 141.948 97.0146 141.948 115.381 141.864" stroke="white" stroke-miterlimit="10"/>
<path d="M60.7386 142.926C79.0806 143.07 97.0146 143.07 115.381 143.01" stroke="white" stroke-miterlimit="10"/>
<path d="M60.7386 147.882C79.0806 148.116 97.0146 148.116 115.381 148.014" stroke="white" stroke-miterlimit="10"/>
<path d="M60.7386 149.064C79.0806 149.232 97.0146 149.232 115.381 149.16" stroke="white" stroke-miterlimit="10"/>
<path d="M60.7386 154.014C79.0806 154.278 97.0146 154.278 115.381 154.164" stroke="white" stroke-miterlimit="10"/>
<path d="M60.7386 155.196C79.0806 155.4 97.0146 155.4 115.381 155.31" stroke="white" stroke-miterlimit="10"/>
<path d="M60.7386 160.146C78.5226 159.882 97.0146 159.882 114.997 159.996" stroke="white" stroke-miterlimit="10"/>
<path d="M60.7386 161.328C79.0806 161.562 97.0146 161.562 115.381 161.46" stroke="white" stroke-miterlimit="10"/>
<path d="M60.7386 166.278C79.0806 166.044 97.0146 166.044 115.381 166.152" stroke="white" stroke-miterlimit="10"/>
<path d="M60.7386 167.46C79.0806 167.73 97.0146 167.73 115.381 167.61" stroke="white" stroke-miterlimit="10"/>
<path d="M60.7386 172.41C79.0806 172.212 97.0146 172.212 115.381 172.302" stroke="white" stroke-miterlimit="10"/>
<path d="M60.7386 173.592C79.0806 173.334 97.0146 173.334 115.381 173.448" stroke="white" stroke-miterlimit="10"/>
<path d="M60.7386 178.548C79.0806 178.374 97.0146 178.374 115.381 178.452" stroke="white" stroke-miterlimit="10"/>
<path d="M60.7386 179.724C79.0806 179.496 97.0146 179.496 115.381 179.598" stroke="white" stroke-miterlimit="10"/>
<path d="M60.7386 184.68C79.0806 184.542 97.0146 184.542 115.381 184.602" stroke="white" stroke-miterlimit="10"/>
<path d="M60.7386 185.856C79.0806 185.664 97.0146 185.664 115.381 185.748" stroke="white" stroke-miterlimit="10"/>
<path d="M60.7386 190.8C79.0806 190.692 97.0146 190.692 115.381 190.74" stroke="white" stroke-miterlimit="10"/>
<path d="M60.7386 192C79.0806 191.838 97.0146 191.838 115.381 191.91" stroke="white" stroke-miterlimit="10"/>
<path d="M60.7386 196.944C79.0806 196.872 97.0146 196.872 115.381 196.902" stroke="white" stroke-miterlimit="10"/>
<path d="M60.7386 198.12C79.0806 197.988 97.0146 197.988 115.381 198.048" stroke="white" stroke-miterlimit="10"/>
<path d="M60.7386 203.076C79.0806 203.034 97.0146 203.034 115.381 203.076" stroke="white" stroke-miterlimit="10"/>
<path d="M60.7386 204.258C79.0806 204.156 97.0146 204.156 115.381 204.198" stroke="white" stroke-miterlimit="10"/>
<path d="M60.7386 209.208C79.0806 209.208 97.0146 209.208 115.381 209.208" stroke="white" stroke-miterlimit="10"/>
<path d="M60.7386 210.39C79.0806 210.318 97.0146 210.318 115.381 210.348" stroke="white" stroke-miterlimit="10"/>
<path d="M60.7386 215.34C79.0806 215.34 97.0146 215.34 115.381 215.34" stroke="white" stroke-miterlimit="10"/>
<path d="M60.7386 216.522C79.0806 216.486 97.0146 216.486 115.381 216.522" stroke="white" stroke-miterlimit="10"/>
<path d="M60.7386 221.472C79.0806 221.526 97.0146 221.526 115.381 221.502" stroke="white" stroke-miterlimit="10"/>
<path d="M60.7386 222.654H115.381" stroke="white" stroke-miterlimit="10"/>
<path d="M60.7386 227.604C79.0806 227.694 97.0146 227.694 115.381 227.652" stroke="white" stroke-miterlimit="10"/>
<path d="M60.7386 228.786C79.0806 228.786 97.0146 228.786 115.381 228.786" stroke="white" stroke-miterlimit="10"/>
<path opacity="0.3" d="M82.068 163.8L82.446 166.038C82.446 166.038 74.784 166.23 73.104 166.23H70.488L71.238 177.438C71.238 177.438 72.168 185.466 73.104 196.488C74.04 207.51 70.704 223.2 70.704 225.072C70.704 226.944 68.838 228.996 73.32 229.926C77.802 230.856 83.784 230.676 84.72 228.246C85.656 225.816 89.394 206.016 88.644 210.312C87.894 214.608 84.162 229.554 86.778 230.298C89.394 231.042 96.306 228.246 100.788 228.432C105.27 228.618 109.188 227.124 109.566 225.258C109.944 223.392 107.322 206.202 107.322 206.202L112.926 221.706C112.926 221.706 113.676 222.642 109.926 227.106C106.176 231.57 89.382 233.106 80.412 233.106C71.442 233.106 60.426 226.572 60.426 226.572C60.426 226.572 70.14 210.504 68.268 197.058C66.396 183.612 66.588 159.858 66.588 159.858C66.588 159.858 71.634 161.352 75.18 161.352C78.726 161.352 82.068 163.8 82.068 163.8Z" fill="black"/>
<path opacity="0.3" d="M90.2102 141.684L94.4102 167.268C94.4102 167.268 98.7662 166.8 100.41 165.384C102.054 163.968 102.762 159.732 102.762 159.732L97.8002 139.836L90.2102 141.684Z" fill="black"/>
<path d="M78.2398 127.938C76.3182 129.306 74.492 130.804 72.7738 132.42C69.4138 135.504 63.8098 139.986 63.5278 140.97C63.2458 141.954 67.3138 160.302 68.8558 166.17C70.3978 172.038 70.8178 199.092 68.8558 208.338C67.5873 214.165 65.8538 219.882 63.6718 225.432C67.988 228.391 73.1499 229.865 78.3778 229.632C87.0658 229.206 90.9778 226.83 95.3338 227.232C99.6898 227.634 104.58 227.508 106.824 224.568C109.068 221.628 111.444 220.506 112.824 218.682C113.672 217.543 114.159 216.176 114.222 214.758C114.222 214.758 112.962 209.994 108.336 195.006C103.71 180.018 103.716 159.978 102.876 155.778C102.036 151.578 100.074 138.828 98.1118 135.324C96.1498 131.82 88.1998 129.198 84.2638 128.502C80.3278 127.806 79.6438 127.236 78.2398 127.938Z" stroke="#263238" stroke-linecap="round" stroke-linejoin="round"/>
<path d="M78.9297 143.58L86.8677 154.758L91.5237 140.616C91.5237 140.616 91.1997 134.52 88.8357 132.384C86.4717 130.248 83.8317 127.092 79.8837 129.876C75.9357 132.66 76.6617 136.32 76.8417 138.276C77.0217 140.232 78.9297 143.58 78.9297 143.58Z" fill="white" stroke="#263238" stroke-miterlimit="10"/>
<path d="M81.852 139.182L84.18 141.87L83.646 150.108L86.868 154.758L89.016 148.854L86.148 141.87L86.508 137.574L83.646 135.066L81.852 139.182Z" fill="#263238" stroke="#263238" stroke-miterlimit="10"/>
<path d="M83.9583 138.168L78.9303 143.568C78.9303 143.568 76.3203 135.45 75.9303 132.648C75.5403 129.846 76.4103 129.264 77.8623 128.394C79.3143 127.524 81.5943 127.896 83.3703 128.298C85.1463 128.7 86.0823 129.456 86.4663 130.23C86.8503 131.004 91.0083 141.156 91.0083 141.156L83.9583 138.168Z" fill="white" stroke="#263238" stroke-miterlimit="10"/>
<path d="M86.9045 153C90.2105 169.902 94.2185 198.828 90.4745 227.316" stroke="#263238" stroke-miterlimit="10"/>
<path d="M89.7961 160.17C90.2567 160.17 90.6301 159.797 90.6301 159.336C90.6301 158.875 90.2567 158.502 89.7961 158.502C89.3355 158.502 88.9621 158.875 88.9621 159.336C88.9621 159.797 89.3355 160.17 89.7961 160.17Z" fill="#263238"/>
<path d="M92.1897 179.064C92.6503 179.064 93.0237 178.691 93.0237 178.23C93.0237 177.769 92.6503 177.396 92.1897 177.396C91.729 177.396 91.3557 177.769 91.3557 178.23C91.3557 178.691 91.729 179.064 92.1897 179.064Z" fill="#263238"/>
<path d="M75.3656 124.11C75.3656 124.11 76.8596 127.248 77.0036 129.174C77.1476 131.1 81.8576 138.09 83.4956 138.09C85.1336 138.09 85.0676 132.81 84.8516 130.458C84.6356 128.106 85.2776 126.816 85.4936 126.534C85.7096 126.252 82.4936 125.394 80.5016 123.894C78.5096 122.394 76.8596 122.178 76.0736 122.466C75.2876 122.754 75.3656 124.11 75.3656 124.11Z" fill="white"/>
<path d="M80.5016 123.894C78.5036 122.394 76.8596 122.178 76.0736 122.466C75.2876 122.754 75.3656 124.11 75.3656 124.11C75.3656 124.11 76.8596 127.248 77.0036 129.174C77.0013 129.196 77.0013 129.218 77.0036 129.24C78.3449 129.718 79.7464 130.007 81.1676 130.098C82.3882 130.204 83.6179 130.112 84.8096 129.828C84.7496 127.878 85.2896 126.792 85.4816 126.534C85.6736 126.276 82.4996 125.4 80.5016 123.894Z" fill="black"/>
<path opacity="0.5" d="M80.5016 123.894C78.5036 122.394 76.8596 122.178 76.0736 122.466C75.2876 122.754 75.3656 124.11 75.3656 124.11C75.3656 124.11 76.8596 127.248 77.0036 129.174C77.0013 129.196 77.0013 129.218 77.0036 129.24C78.3449 129.718 79.7464 130.007 81.1676 130.098C82.3882 130.204 83.6179 130.112 84.8096 129.828C84.7496 127.878 85.2896 126.792 85.4816 126.534C85.6736 126.276 82.4996 125.4 80.5016 123.894Z" fill="white"/>
<path d="M75.3656 124.11C75.3656 124.11 76.8596 127.248 77.0036 129.174C77.1476 131.1 81.8576 138.09 83.4956 138.09C85.1336 138.09 85.0676 132.81 84.8516 130.458C84.6356 128.106 85.2776 126.816 85.4936 126.534C85.7096 126.252 82.4936 125.394 80.5016 123.894C78.5096 122.394 76.8596 122.178 76.0736 122.466C75.2876 122.754 75.3656 124.11 75.3656 124.11Z" stroke="#263238" stroke-linecap="round" stroke-linejoin="round"/>
<path d="M72.0841 122.178C72.0841 122.178 74.4361 124.608 75.7201 124.89C77.0041 125.172 77.9341 124.176 77.4301 123.18C76.9261 122.184 77.2201 120.684 78.7141 120.894C80.2081 121.104 81.4261 119.826 80.9281 118.116C80.4301 116.406 79.6441 114.762 77.7901 115.116C75.9361 115.47 70.2961 118.968 72.0841 122.178Z" fill="#263238" stroke="#263238" stroke-linecap="round" stroke-linejoin="round"/>
<path d="M87.6363 112.692C87.6363 112.692 88.7763 115.188 89.8443 116.19C90.9123 117.192 91.8423 116.97 91.4883 117.756C91.1343 118.542 89.5623 119.556 89.5623 119.556C89.5623 119.556 89.7063 123.12 89.5623 124.83C89.4183 126.54 89.5623 127.044 87.9903 127.332C85.8324 127.606 83.6402 127.355 81.6003 126.6C80.2181 126.155 79.0492 125.215 78.3183 123.96C77.6454 123.983 76.9726 123.911 76.3203 123.744C74.9643 123.462 73.8243 120.606 74.6103 119.544C74.951 119.11 75.4495 118.829 75.997 118.761C76.5445 118.694 77.0964 118.846 77.5323 119.184C78.0363 119.784 78.6063 120.324 79.0323 120.324C79.4583 120.324 80.3163 119.97 79.8183 119.04C79.3203 118.11 78.7443 117.33 79.5303 116.688C80.3163 116.046 86.3523 112.62 87.6363 112.692Z" fill="white"/>
<path d="M87.6362 112.692C86.3522 112.62 80.2862 116.046 79.5002 116.688C78.7142 117.33 79.2902 118.116 79.7882 119.04C80.2862 119.964 79.4282 120.324 79.0022 120.324C78.5762 120.324 78.0062 119.754 77.5022 119.184C77.0663 118.846 76.5144 118.694 75.9669 118.761C75.4194 118.829 74.9209 119.11 74.5802 119.544C73.7942 120.612 74.9342 123.468 76.2902 123.744C76.4462 123.78 76.5962 123.804 76.7342 123.828C80.4877 120.479 84.6582 117.63 89.1422 115.35C88.5716 114.505 88.0681 113.616 87.6362 112.692Z" fill="black"/>
<path opacity="0.5" d="M87.6362 112.692C86.3522 112.62 80.2862 116.046 79.5002 116.688C78.7142 117.33 79.2902 118.116 79.7882 119.04C80.2862 119.964 79.4282 120.324 79.0022 120.324C78.5762 120.324 78.0062 119.754 77.5022 119.184C77.0663 118.846 76.5144 118.694 75.9669 118.761C75.4194 118.829 74.9209 119.11 74.5802 119.544C73.7942 120.612 74.9342 123.468 76.2902 123.744C76.4462 123.78 76.5962 123.804 76.7342 123.828C80.4877 120.479 84.6582 117.63 89.1422 115.35C88.5716 114.505 88.0681 113.616 87.6362 112.692Z" fill="white"/>
<path d="M87.6363 112.692C87.6363 112.692 88.7763 115.188 89.8443 116.19C90.9123 117.192 91.8423 116.97 91.4883 117.756C91.1343 118.542 89.5623 119.556 89.5623 119.556C89.5623 119.556 89.7063 123.12 89.5623 124.83C89.4183 126.54 89.5623 127.044 87.9903 127.332C85.8324 127.606 83.6402 127.355 81.6003 126.6C80.2181 126.155 79.0492 125.215 78.3183 123.96C77.6454 123.983 76.9726 123.911 76.3203 123.744C74.9643 123.462 73.8243 120.606 74.6103 119.544C74.951 119.11 75.4495 118.829 75.997 118.761C76.5445 118.694 77.0964 118.846 77.5323 119.184C78.0363 119.784 78.6063 120.324 79.0323 120.324C79.4583 120.324 80.3163 119.97 79.8183 119.04C79.3203 118.11 78.7443 117.33 79.5303 116.688C80.3163 116.046 86.3523 112.62 87.6363 112.692Z" stroke="#263238" stroke-linecap="round" stroke-linejoin="round"/>
<path d="M89.5617 119.544C88.9192 119.672 88.3087 119.927 87.7658 120.294C87.2229 120.661 86.7585 121.132 86.3997 121.68C85.2717 123.48 86.3997 123.786 87.1017 123.36C87.8037 122.934 89.0637 121.962 89.7657 121.56C90.4677 121.158 90.6417 119.4 89.5617 119.544Z" fill="#263238" stroke="#263238" stroke-linecap="round" stroke-linejoin="round"/>
<path d="M86.5874 117.466C86.8073 117.382 86.8278 116.9 86.6332 116.389C86.4386 115.878 86.1026 115.532 85.8827 115.616C85.6629 115.699 85.6424 116.182 85.837 116.693C86.0316 117.203 86.3676 117.55 86.5874 117.466Z" fill="#263238"/>
<path d="M84.1143 115.11C84.4939 114.85 84.9322 114.688 85.3898 114.639C85.8473 114.59 86.31 114.655 86.7363 114.828" stroke="#263238" stroke-linecap="round" stroke-linejoin="round"/>
<path d="M69.5994 127.53C71.0612 124.578 72.99 121.881 75.3114 119.544C79.2354 115.548 93.9114 111.408 94.7154 110.268C95.5194 109.128 87.9354 110.982 87.9354 110.982C87.9354 110.982 83.5134 105.63 77.0934 105.27C70.6734 104.91 68.8194 111.906 68.7474 115.404C68.6754 118.902 70.4574 122.964 70.4574 122.964C70.4574 122.964 68.4414 128.1 69.5994 127.53Z" fill="black"/>
<path opacity="0.15" d="M67.1642 102.72H65.0402V132.42H67.1642V102.72Z" fill="black"/>
<path opacity="0.15" d="M74.472 102.72H72.348V132.42H74.472V102.72Z" fill="black"/>
<path opacity="0.15" d="M81.7862 102.72H79.6622V132.42H81.7862V102.72Z" fill="black"/>
<path opacity="0.15" d="M89.0999 102.72H86.976V132.42H89.0999V102.72Z" fill="black"/>
<path opacity="0.15" d="M96.4082 102.72H94.2842V132.42H96.4082V102.72Z" fill="black"/>
<path d="M65.5256 107.166C76.4936 107.166 87.4616 107.134 98.4296 107.07" stroke="white" stroke-miterlimit="10"/>
<path d="M65.5256 108.306C76.4936 108.306 87.4616 108.286 98.4296 108.246" stroke="white" stroke-miterlimit="10"/>
<path d="M65.5256 113.322C76.4936 113.322 87.4616 113.282 98.4296 113.202" stroke="white" stroke-miterlimit="10"/>
<path d="M65.5256 114.462C76.4936 114.462 87.4616 114.434 98.4296 114.378" stroke="white" stroke-miterlimit="10"/>
<path d="M65.5256 119.478C76.4936 119.478 87.4616 119.43 98.4296 119.334" stroke="white" stroke-miterlimit="10"/>
<path d="M65.5256 120.6C76.4936 120.6 87.4616 120.566 98.4296 120.498" stroke="white" stroke-miterlimit="10"/>
<path d="M65.5256 125.634C76.4936 125.634 87.4616 125.578 98.4296 125.466" stroke="white" stroke-miterlimit="10"/>
<path d="M65.5256 126.768C76.4936 126.768 87.4616 126.726 98.4296 126.642" stroke="white" stroke-miterlimit="10"/>
<path d="M65.5256 131.79C76.4936 131.79 87.4616 131.726 98.4296 131.598" stroke="white" stroke-miterlimit="10"/>
<path d="M69.5994 127.53C71.0612 124.578 72.99 121.881 75.3114 119.544C79.2354 115.548 93.9114 111.408 94.7154 110.268C95.5194 109.128 87.9354 110.982 87.9354 110.982C87.9354 110.982 83.5134 105.63 77.0934 105.27C70.6734 104.91 68.8194 111.906 68.7474 115.404C68.6754 118.902 70.4574 122.964 70.4574 122.964C70.4574 122.964 68.4414 128.1 69.5994 127.53Z" stroke="#263238" stroke-linecap="round" stroke-linejoin="round"/>
<path d="M70.4401 122.964C70.4401 122.964 68.4421 128.1 69.5821 127.53C71.0439 124.578 72.9727 121.881 75.2941 119.544C79.2181 115.548 93.8941 111.408 94.6981 110.268C95.5021 109.128 87.9181 110.982 87.9181 110.982C87.9181 110.982 82.8541 113.622 78.6481 116.382C75.7518 118.368 73.0081 120.568 70.4401 122.964Z" fill="black" stroke="#263238" stroke-linecap="round" stroke-linejoin="round"/>
<path d="M72.294 106.842C72.294 106.842 72.366 113.76 77.502 117.258" stroke="#263238" stroke-linecap="round" stroke-linejoin="round"/>
<path d="M70.6086 173.4L72.7926 174C72.7926 174 76.5666 171.366 76.9926 171.288C77.4186 171.21 80.9886 173.25 82.1226 174.156C83.2566 175.062 84.6846 176.04 84.3066 176.34C83.9286 176.64 83.1066 176.262 82.5726 175.962C82.0386 175.662 78.8046 174.078 78.8046 174.078C78.8046 174.078 81.2046 175.662 82.0446 176.34C82.8846 177.018 84.0786 177.396 83.7786 177.774C83.7074 177.892 83.6128 177.993 83.5007 178.073C83.3885 178.152 83.2613 178.207 83.1268 178.236C82.9923 178.264 82.8534 178.264 82.7189 178.236C82.5843 178.208 82.4569 178.153 82.3446 178.074C81.5946 177.696 77.7486 175.512 77.7486 175.512C77.7486 175.512 80.9886 177.696 81.5946 178.224C82.2006 178.752 82.1946 179.508 81.5166 179.508C80.8386 179.508 78.9546 178.524 78.2766 178.152C77.5986 177.78 75.6366 176.79 75.6366 176.79C76.4796 177.717 77.2593 178.699 77.9706 179.73C78.4266 180.564 79.1046 181.62 78.3486 181.62C77.5926 181.62 76.5486 179.886 76.0146 179.28C75.4806 178.674 73.5246 177.996 73.5246 177.996C72.6095 178.428 71.6498 178.758 70.6626 178.98C69.3786 179.202 66.8166 176.49 66.8166 176.49L70.6086 173.4Z" fill="white" stroke="#263238" stroke-linecap="round" stroke-linejoin="round"/>
<path d="M72.792 174.024L70.926 176.268" stroke="#263238" stroke-linecap="round" stroke-linejoin="round"/>
<path d="M77.7726 175.536L76.5666 174.816" stroke="#263238" stroke-linecap="round" stroke-linejoin="round"/>
<path d="M78.828 174.102L77.472 173.358" stroke="#263238" stroke-linecap="round" stroke-linejoin="round"/>
<path d="M53.442 148.392C53.442 148.392 44.478 155.82 44.334 156.378C44.19 156.936 67.032 178.098 67.032 178.098L71.232 173.472L58.764 156.798L68.292 150.798C68.292 150.798 69.132 146.178 67.734 143.514C67.3014 142.725 66.7012 142.039 65.9756 141.507C65.2501 140.974 64.4167 140.606 63.534 140.43L53.442 148.392Z" fill="black"/>
<path opacity="0.15" d="M37.914 137.466H37.05V182.58H37.914V137.466Z" fill="black"/>
<path opacity="0.15" d="M45.2277 137.466H43.1037V182.58H45.2277V137.466Z" fill="black"/>
<path opacity="0.15" d="M52.5353 137.466H50.4113V182.58H52.5353V137.466Z" fill="black"/>
<path opacity="0.15" d="M59.85 137.466H57.726V182.58H59.85V137.466Z" fill="black"/>
<path opacity="0.15" d="M67.1642 137.466H65.0402V182.58H67.1642V137.466Z" fill="black"/>
<path opacity="0.15" d="M74.472 137.466H72.348V182.58H74.472V137.466Z" fill="black"/>
<path opacity="0.15" d="M81.7853 137.466H79.6613V182.58H81.7853V137.466Z" fill="black"/>
<path opacity="0.15" d="M89.1 137.466H86.976V182.58H89.1V137.466Z" fill="black"/>
<path d="M38.4426 141.876C54.9846 141.948 71.7966 141.948 88.3326 141.75" stroke="white" stroke-miterlimit="10"/>
<path d="M38.4426 143.016C54.9846 143.07 71.7966 143.07 88.3326 142.926" stroke="white" stroke-miterlimit="10"/>
<path d="M38.4426 148.026C54.9846 148.116 71.7966 148.116 88.3326 147.882" stroke="white" stroke-miterlimit="10"/>
<path d="M38.4426 149.172C54.9846 149.232 71.7966 149.232 88.3326 149.064" stroke="white" stroke-miterlimit="10"/>
<path d="M38.4426 154.2C54.9846 154.296 71.7966 154.296 88.3326 154.032" stroke="white" stroke-miterlimit="10"/>
<path d="M38.4426 155.322C54.9846 155.4 71.7966 155.4 88.3326 155.196" stroke="white" stroke-miterlimit="10"/>
<path opacity="0.3" d="M48.8224 150.354C48.8224 150.354 53.3044 153.156 55.1704 153.906C57.0364 154.656 60.7744 156.336 60.7744 156.336L65.0704 154.092L54.9844 145.872L48.8224 150.354Z" fill="black"/>
<path d="M38.4426 159.984C54.9846 159.882 71.7966 159.882 88.3326 160.146" stroke="white" stroke-miterlimit="10"/>
<path d="M38.4426 161.478C54.9846 161.562 71.7966 161.562 88.3326 161.328" stroke="white" stroke-miterlimit="10"/>
<path d="M38.4426 166.134C54.9846 166.044 71.7966 166.044 88.3326 166.278" stroke="white" stroke-miterlimit="10"/>
<path d="M38.4426 167.628C54.9846 167.73 71.7966 167.73 88.3326 167.46" stroke="white" stroke-miterlimit="10"/>
<path d="M38.4426 172.284C54.9846 172.212 71.7966 172.212 88.3326 172.41" stroke="white" stroke-miterlimit="10"/>
<path d="M38.4426 173.43C54.9846 173.334 71.7966 173.334 88.3326 173.592" stroke="white" stroke-miterlimit="10"/>
<path d="M38.4426 178.44C54.9846 178.374 71.7966 178.374 88.3326 178.548" stroke="white" stroke-miterlimit="10"/>
<path d="M38.4426 179.58C54.9846 179.496 71.7966 179.496 88.3326 179.724" stroke="white" stroke-miterlimit="10"/>
<path d="M53.442 148.392C53.442 148.392 44.478 155.82 44.334 156.378C44.19 156.936 67.032 178.098 67.032 178.098L71.232 173.472L58.764 156.798L68.292 150.798C68.292 150.798 69.132 146.178 67.734 143.514C67.3014 142.725 66.7012 142.039 65.9756 141.507C65.2501 140.974 64.4167 140.606 63.534 140.43L53.442 148.392Z" stroke="#263238" stroke-linecap="round" stroke-linejoin="round"/>
<path d="M116.07 148.092C116.07 148.092 107.328 143.112 103.704 139.572C100.08 136.032 98.58 134.37 98.202 135.726C97.824 137.082 101.37 154.926 102.048 155.25C102.726 155.574 117.048 160.68 119.916 160.83C122.784 160.98 124.716 161.208 125.046 159.93C125.376 158.652 123.246 154.728 120.594 151.632C117.942 148.536 116.07 148.092 116.07 148.092Z" fill="black"/>
<path opacity="0.15" d="M96.4074 141.108H94.2834V164.928H96.4074V141.108Z" fill="black"/>
<path opacity="0.15" d="M103.722 141.108H101.598V164.928H103.722V141.108Z" fill="black"/>
<path opacity="0.15" d="M111.035 141.108H108.911V164.928H111.035V141.108Z" fill="black"/>
<path opacity="0.15" d="M118.343 141.108H116.219V164.928H118.343V141.108Z" fill="black"/>
<path opacity="0.15" d="M125.657 141.108H123.533V164.928H125.657V141.108Z" fill="black"/>
<path d="M95.3098 142.926C105.71 143.038 116.094 143.06 126.462 142.992" stroke="white" stroke-miterlimit="10"/>
<path d="M95.3098 147.882C105.71 148.07 116.094 148.104 126.462 147.984" stroke="white" stroke-miterlimit="10"/>
<path d="M95.3098 149.064C105.71 149.2 116.094 149.224 126.462 149.136" stroke="white" stroke-miterlimit="10"/>
<path d="M95.3098 154.014C105.71 154.226 116.094 154.266 126.462 154.134" stroke="white" stroke-miterlimit="10"/>
<path d="M95.3098 155.196C105.71 155.356 116.094 155.386 126.462 155.286" stroke="white" stroke-miterlimit="10"/>
<path opacity="0.3" d="M107.099 158.76C107.099 158.76 112.889 156.894 114.761 153.906C116.633 150.918 115.883 149.046 114.197 146.994C113.221 145.779 111.821 144.977 110.279 144.75C110.279 144.75 109.343 151.662 107.099 152.97C105.482 153.989 103.979 155.18 102.617 156.522L107.099 158.76Z" fill="black"/>
<path d="M95.3098 160.146C105.71 159.934 116.094 159.896 126.462 160.032" stroke="white" stroke-miterlimit="10"/>
<path d="M95.3098 161.328C105.71 161.516 116.094 161.55 126.462 161.43" stroke="white" stroke-miterlimit="10"/>
<path d="M116.07 148.092C116.07 148.092 107.328 143.112 103.704 139.572C100.08 136.032 98.58 134.37 98.202 135.726C97.824 137.082 101.37 154.926 102.048 155.25C102.726 155.574 117.048 160.68 119.916 160.83C122.784 160.98 124.716 161.208 125.046 159.93C125.376 158.652 123.246 154.728 120.594 151.632C117.942 148.536 116.07 148.092 116.07 148.092Z" stroke="#263238" stroke-linecap="round" stroke-linejoin="round"/>
<path d="M76.2784 129.762C76.2784 129.762 80.2024 141.81 81.8824 150.078C83.5624 158.346 84.2824 166.044 84.2824 166.044C84.2824 166.044 81.8824 164.508 75.4564 163.944C69.0304 163.38 66.0724 162.402 63.2704 157.08C60.4684 151.758 58.6444 152.178 55.8424 151.338C53.0404 150.498 52.2004 148.938 52.2004 148.938C52.2004 148.938 75.3004 129.6 76.2784 129.762ZM85.1584 128.712C87.2363 132.872 88.9274 137.214 90.2104 141.684C92.3944 149.22 95.4904 165.684 95.4904 165.684C95.4904 165.684 100.842 165.084 102.426 161.688C104.01 158.292 104.082 157.008 106.626 156.108C109.17 155.208 112.662 153.318 112.962 150.906C113.183 149.277 113.51 147.663 113.94 146.076C113.94 146.076 99.8464 134.394 97.6564 132.876C95.4664 131.358 85.7644 128.112 85.1584 128.712Z" fill="black"/>
<path opacity="0.15" d="M45.2279 137.136H43.1039V177.456H45.2279V137.136Z" fill="black"/>
<path opacity="0.15" d="M52.5365 137.136H50.4125V177.456H52.5365V137.136Z" fill="black"/>
<path opacity="0.15" d="M59.85 137.136H57.726V177.456H59.85V137.136Z" fill="black"/>
<path opacity="0.15" d="M67.1644 124.266H65.0404V177.462H67.1644V124.266Z" fill="black"/>
<path opacity="0.15" d="M74.4721 124.266H72.3481V177.462H74.4721V124.266Z" fill="black"/>
<path opacity="0.15" d="M81.7865 124.266H79.6625V177.462H81.7865V124.266Z" fill="black"/>
<path opacity="0.15" d="M89.0999 124.266H86.976V177.462H89.0999V124.266Z" fill="black"/>
<path opacity="0.15" d="M96.4084 124.266H94.2844V177.462H96.4084V124.266Z" fill="black"/>
<path opacity="0.15" d="M103.722 124.266H101.598V177.462H103.722V124.266Z" fill="black"/>
<path opacity="0.15" d="M111.036 124.266H108.912V177.462H111.036V124.266Z" fill="black"/>
<path d="M61.6918 129.486C79.0918 129.618 96.4558 129.618 113.616 129.564" stroke="white" stroke-miterlimit="10"/>
<path d="M61.6918 130.662C79.0918 130.74 96.4558 130.74 113.616 130.71" stroke="white" stroke-miterlimit="10"/>
<path d="M61.6918 135.6C79.0918 135.768 96.4558 135.768 113.616 135.702" stroke="white" stroke-miterlimit="10"/>
<path d="M61.6918 136.8C79.0918 136.914 96.4558 136.914 113.616 136.866" stroke="white" stroke-miterlimit="10"/>
<path d="M40.9681 141.75C65.0701 141.948 89.1661 141.948 113.46 141.852" stroke="white" stroke-miterlimit="10"/>
<path d="M40.9681 142.926C65.0701 143.07 89.1661 143.07 113.46 142.998" stroke="white" stroke-miterlimit="10"/>
<path d="M40.9681 147.882C65.0701 148.116 89.1661 148.116 113.46 148.002" stroke="white" stroke-miterlimit="10"/>
<path d="M40.9681 149.064C65.0701 149.232 89.1661 149.232 113.46 149.148" stroke="white" stroke-miterlimit="10"/>
<path d="M40.9681 154.014C65.0701 154.278 89.1661 154.278 113.46 154.146" stroke="white" stroke-miterlimit="10"/>
<path d="M40.9681 155.196C65.0701 155.4 89.1661 155.4 113.46 155.298" stroke="white" stroke-miterlimit="10"/>
<path d="M40.9681 160.146C65.0701 159.882 89.1661 159.882 113.46 160.014" stroke="white" stroke-miterlimit="10"/>
<path d="M40.9681 161.328C65.0701 161.562 89.1661 161.562 113.46 161.448" stroke="white" stroke-miterlimit="10"/>
<path d="M40.9681 166.278C65.0701 166.044 89.1661 166.044 113.46 166.164" stroke="white" stroke-miterlimit="10"/>
<path d="M40.9681 167.46C65.0701 167.73 89.1661 167.73 113.46 167.598" stroke="white" stroke-miterlimit="10"/>
<path d="M40.9681 172.41C65.0701 172.212 89.1661 172.212 113.46 172.308" stroke="white" stroke-miterlimit="10"/>
<path d="M40.9681 173.592C65.0701 173.334 89.1661 173.334 113.46 173.46" stroke="white" stroke-miterlimit="10"/>
<path d="M76.2784 129.762C76.2784 129.762 80.2024 141.81 81.8824 150.078C83.5624 158.346 84.2824 166.044 84.2824 166.044C84.2824 166.044 81.8824 164.508 75.4564 163.944C69.0304 163.38 66.0724 162.402 63.2704 157.08C60.4684 151.758 58.6444 152.178 55.8424 151.338C53.0404 150.498 52.2004 148.938 52.2004 148.938C52.2004 148.938 75.3004 129.6 76.2784 129.762ZM85.1584 128.712C87.2363 132.872 88.9274 137.214 90.2104 141.684C92.3944 149.22 95.4904 165.684 95.4904 165.684C95.4904 165.684 100.842 165.084 102.426 161.688C104.01 158.292 104.082 157.008 106.626 156.108C109.17 155.208 112.662 153.318 112.962 150.906C113.183 149.277 113.51 147.663 113.94 146.076C113.94 146.076 99.8464 134.394 97.6564 132.876C95.4664 131.358 85.7644 128.112 85.1584 128.712Z" stroke="#263238" stroke-linecap="round" stroke-linejoin="round"/>
<path d="M109.632 128.286C109.632 128.286 110.196 131.634 110.388 132.432C110.58 133.23 112.41 135.546 112.41 135.546L109.35 137.478C108.622 136.162 107.821 134.888 106.95 133.662C106.434 133.14 103.842 132.462 103.086 131.442C102.33 130.422 102.522 129.228 102.33 128.472C102.138 127.716 100.398 125.55 100.824 125.22C101.25 124.89 102.144 125.172 102.564 125.694C102.984 126.216 102.99 126.966 103.164 127.344C103.338 127.722 105.66 129.144 105.66 129.144C105.66 129.144 104.622 126.174 104.46 125.754C104.421 125.639 104.407 125.517 104.421 125.397C104.434 125.276 104.473 125.16 104.536 125.057C104.599 124.953 104.684 124.865 104.785 124.797C104.886 124.73 105 124.686 105.12 124.668C105.588 124.668 107.712 126.744 107.712 126.744L109.632 128.286Z" stroke="#263238" stroke-linecap="round" stroke-linejoin="round"/>
<path d="M100.711 122.548C102.557 121.625 102.691 118.147 101.008 114.78C99.3254 111.412 96.4643 109.43 94.6175 110.353C92.7708 111.276 92.6378 114.754 94.3203 118.121C96.0029 121.489 98.864 123.47 100.711 122.548Z" fill="white" stroke="#263238" stroke-linecap="round" stroke-linejoin="round"/>
<path d="M99.9635 121.749C101.232 121.115 101.107 118.292 99.6834 115.443C98.26 112.595 96.0777 110.799 94.809 111.433C93.5403 112.067 93.6657 114.89 95.0891 117.739C96.5125 120.588 98.6948 122.383 99.9635 121.749Z" fill="white" stroke="#263238" stroke-linecap="round" stroke-linejoin="round"/>
<path d="M100.53 122.31L105.828 130.23C105.895 130.332 105.982 130.419 106.085 130.486C106.187 130.553 106.302 130.598 106.422 130.619C106.542 130.639 106.665 130.635 106.784 130.607C106.903 130.578 107.014 130.525 107.112 130.452C107.208 130.38 107.288 130.291 107.349 130.188C107.41 130.085 107.449 129.971 107.466 129.852C107.482 129.734 107.474 129.614 107.443 129.498C107.412 129.383 107.359 129.274 107.286 129.18L101.4 121.68C101.367 121.634 101.325 121.594 101.277 121.565C101.229 121.535 101.175 121.515 101.119 121.507C101.063 121.498 101.006 121.501 100.951 121.516C100.896 121.53 100.845 121.555 100.8 121.59L100.602 121.722C100.516 121.791 100.46 121.892 100.447 122.001C100.433 122.111 100.463 122.222 100.53 122.31Z" fill="#263238" stroke="#263238" stroke-linecap="round" stroke-linejoin="round"/>
<path d="M104.4 123.42C104.4 123.42 102.828 124.392 102.9 124.92C102.972 125.448 103.2 125.664 103.65 125.664C104.1 125.664 105.294 124.992 105.744 124.77C106.194 124.548 105.87 122.826 104.4 123.42Z" fill="white" stroke="#263238" stroke-linecap="round" stroke-linejoin="round"/>
<path d="M105 125.22C104.439 125.966 103.935 126.755 103.494 127.578C103.446 127.908 106.176 130.578 106.65 130.578C107.124 130.578 109.716 128.976 109.62 128.316C109.524 127.656 106.884 125.676 106.416 125.202C105.948 124.728 105.528 124.56 105 125.22Z" fill="white" stroke="#263238" stroke-linecap="round" stroke-linejoin="round"/>
<path d="M104.304 128.52L106.848 125.502" stroke="#263238" stroke-linecap="round" stroke-linejoin="round"/>
<path d="M108.264 126.966L105.72 129.84" stroke="#263238" stroke-linecap="round" stroke-linejoin="round"/>
<path d="M115.842 153.294L108.078 137.01L113.808 134.01C113.808 134.01 119.916 141.096 122.406 146.01C124.896 150.924 126.006 158.754 125.046 159.96C124.086 161.166 119.688 160.332 117.504 158.976" fill="black"/>
<path opacity="0.15" d="M103.722 131.304H101.598V164.088H103.722V131.304Z" fill="black"/>
<path opacity="0.15" d="M111.036 131.304H108.912V164.088H111.036V131.304Z" fill="black"/>
<path opacity="0.15" d="M118.344 131.304H116.22V164.088H118.344V131.304Z" fill="black"/>
<path opacity="0.15" d="M125.658 131.304H123.534V164.088H125.658V131.304Z" fill="black"/>
<path d="M102.534 135.6C112.734 135.768 123.354 135.768 133.44 135.6" stroke="white" stroke-miterlimit="10"/>
<path d="M102.534 136.8C112.734 136.914 123.354 136.914 133.44 136.8" stroke="white" stroke-miterlimit="10"/>
<path d="M102.534 141.75C112.734 141.948 123.354 141.948 133.44 141.75" stroke="white" stroke-miterlimit="10"/>
<path d="M102.534 142.926C112.734 143.07 123.354 143.07 133.44 142.926" stroke="white" stroke-miterlimit="10"/>
<path d="M102.534 147.882C112.734 148.116 123.354 148.116 133.44 147.882" stroke="white" stroke-miterlimit="10"/>
<path d="M102.534 149.064C112.734 149.232 123.354 149.232 133.44 149.064" stroke="white" stroke-miterlimit="10"/>
<path d="M102.534 154.014C112.734 154.278 123.354 154.278 133.44 154.014" stroke="white" stroke-miterlimit="10"/>
<path d="M102.534 155.196C112.734 155.4 123.354 155.4 133.44 155.196" stroke="white" stroke-miterlimit="10"/>
<path d="M102.534 160.146C112.734 159.882 123.354 159.882 133.44 160.146" stroke="white" stroke-miterlimit="10"/>
<path d="M102.534 161.328C112.734 161.562 123.354 161.562 133.44 161.328" stroke="white" stroke-miterlimit="10"/>
<path d="M115.842 153.294L108.078 137.01L113.808 134.01C113.808 134.01 119.916 141.096 122.406 146.01C124.896 150.924 126.006 158.754 125.046 159.96C124.086 161.166 119.688 160.332 117.504 158.976" stroke="#263238" stroke-linecap="round" stroke-linejoin="round"/>
</svg>
